<?xml version="1.0" standalone="no"?>
<!DOCTYPE svg PUBLIC "-//W3C//DTD SVG 20010904//EN"
 "http://www.w3.org/TR/2001/REC-SVG-20010904/DTD/svg10.dtd">
<svg version="1.0" xmlns="http://www.w3.org/2000/svg"
  height="10" viewBox="0 0 408.000000 57.000000"
 preserveAspectRatio="xMidYMid meet">

<g transform="translate(0.000000,57.000000) scale(0.100000,-0.100000)"
fill="#000000" stroke="none">
<path d="M60 371 c0 -21 13 -41 54 -80 l55 -51 284 0 284 0 21 -23 c12 -13 19
-27 15 -30 -11 -11 39 -57 62 -57 25 0 55 29 55 52 0 23 187 31 538 22 l296
-7 63 -29 63 -28 268 0 269 0 23 -25 23 -24 233 -1 c233 0 284 6 284 35 0 13
37 15 290 15 237 0 295 -3 313 -14 17 -12 65 -15 214 -17 105 -1 197 2 203 6
9 6 11 27 6 78 -8 82 -10 87 -42 87 -18 0 -24 5 -24 23 0 44 -14 47 -192 47
l-168 0 0 -25 c0 -20 -15 -67 -27 -84 -1 -2 -14 4 -27 13 -22 14 -62 16 -289
16 -217 0 -267 3 -276 14 -14 16 -94 36 -146 36 -19 0 -37 4 -40 10 -3 5 -14
10 -24 10 -28 0 -70 24 -75 42 -4 17 -74 18 -1295 18 l-1291 0 0 -29z m860 9
c0 -5 -11 -10 -25 -10 -15 0 -25 -6 -25 -14 0 -20 16 -29 75 -42 40 -10 -30
-12 -365 -13 l-414 -1 -46 43 -45 42 44 -47 c56 -60 49 -82 -8 -24 -77 79 -90
76 389 76 273 0 420 -3 420 -10z m365 0 c4 -7 -50 -10 -154 -10 -96 0 -162 4
-166 10 -4 7 50 10 154 10 96 0 162 -4 166 -10z m80 0 c-3 -5 -15 -10 -25 -10
-10 0 -22 5 -25 10 -4 6 7 10 25 10 18 0 29 -4 25 -10z m156 -11 c20 -10 21
-12 5 -21 -19 -11 -100 -2 -130 14 -15 8 -16 12 -5 20 17 11 100 3 130 -13z
m1105 14 c-4 -5 -38 -9 -74 -10 -37 -1 -76 -3 -87 -3 -11 -1 -32 2 -47 5 -15
4 -35 4 -44 1 -14 -5 -13 -10 10 -31 24 -22 38 -26 124 -30 107 -5 136 0 128
21 -3 8 1 14 10 14 11 0 13 -6 9 -19 -4 -14 0 -21 12 -24 10 -3 -225 -4 -522
-4 -362 1 -471 3 -330 7 116 3 211 7 213 8 1 1 2 9 2 17 0 30 -39 35 -257 35
-123 0 -225 5 -233 10 -10 6 178 10 539 10 305 0 551 -3 547 -7z m-1716 -33
c0 -5 -7 -10 -15 -10 -8 0 -15 5 -15 10 0 6 7 10 15 10 8 0 15 -4 15 -10z
m450 -4 c0 -14 -27 -16 -215 -16 -175 0 -215 3 -215 14 0 11 41 14 215 15 189
2 215 0 215 -13z m568 2 c-4 -10 -51 -14 -180 -16 -150 -2 -177 0 -182 13 -5
13 18 15 180 15 144 0 185 -3 182 -12z m86 -8 c7 -7 -5 -10 -32 -10 -32 0 -42
4 -42 16 0 13 7 15 32 10 18 -3 37 -11 42 -16z m436 5 c10 -12 9 -15 -7 -15
-10 0 -28 7 -39 15 -18 14 -18 14 7 15 15 0 32 -7 39 -15z m94 0 c-5 -12 -10
-13 -20 -4 -19 15 -18 19 6 19 13 0 18 -5 14 -15z m61 -5 c3 -5 -1 -10 -9 -10
-9 0 -16 5 -16 10 0 6 4 10 9 10 6 0 13 -4 16 -10z m-1035 -30 c16 -5 -13 -8
-80 -8 -67 0 -96 3 -80 8 14 4 50 8 80 8 30 0 66 -4 80 -8z m-287 -7 c-46 -2
-120 -2 -165 0 -46 1 -9 3 82 3 91 0 128 -2 83 -3z m1447 -33 c0 -7 -432 -10
-1275 -10 -843 0 -1275 3 -1275 10 0 7 432 10 1275 10 843 0 1275 -3 1275 -10z
m643 -17 c-7 -2 -13 -11 -13 -18 0 -7 6 -16 13 -18 6 -3 -5 -6 -25 -6 -28 -1
-36 2 -32 13 3 9 -5 18 -23 24 -25 9 -21 10 32 10 33 0 54 -2 48 -5z m74 1
c-3 -3 -12 -4 -19 -1 -8 3 -5 6 6 6 11 1 17 -2 13 -5z m503 -24 l0 -30 -150 0
-150 0 0 30 0 30 150 0 150 0 0 -30z m-1166 5 c3 -10 19 -15 46 -15 22 0 40
-4 40 -10 0 -6 -46 -9 -115 -9 -105 1 -115 2 -115 19 0 15 9 20 48 23 26 2 57
4 68 5 12 1 24 -5 28 -13z m814 -20 c-1 -14 -3 -25 -3 -25 -1 0 -12 12 -26 27
-13 14 -19 23 -12 19 6 -3 14 -2 18 4 10 17 25 1 23 -25z m-2588 10 c0 -12
-19 -15 -110 -15 -91 0 -110 3 -110 15 0 12 19 15 110 15 91 0 110 -3 110 -15z
m278 8 c-49 -2 -127 -2 -175 0 -49 1 -9 3 87 3 96 0 136 -2 88 -3z m422 -8 c0
-13 -24 -15 -155 -15 -131 0 -155 2 -155 15 0 13 24 15 155 15 131 0 155 -2
155 -15z m106 -10 c56 -25 59 -25 341 -25 277 0 283 0 273 -19 -9 -19 -23 -20
-297 -18 l-288 2 -62 29 c-61 28 -83 56 -43 56 11 0 45 -11 76 -25z m204 16
c0 -5 8 -12 18 -14 9 -3 -26 -5 -79 -6 -75 -1 -99 2 -109 14 -11 13 -1 15 79
15 50 0 91 -4 91 -9z m305 -1 c4 -6 -40 -10 -124 -10 -76 0 -132 4 -136 10 -4
6 40 10 124 10 76 0 132 -4 136 -10z m45 0 c0 -5 -2 -10 -4 -10 -3 0 -8 5 -11
10 -3 6 -1 10 4 10 6 0 11 -4 11 -10z m30 0 c0 -5 -4 -10 -10 -10 -5 0 -10 5
-10 10 0 6 5 10 10 10 6 0 10 -4 10 -10z m37 -12 c-3 -8 -6 -5 -6 6 -1 11 2
17 5 13 3 -3 4 -12 1 -19z m163 12 c0 -6 -32 -10 -75 -10 -43 0 -75 4 -75 10
0 6 32 10 75 10 43 0 75 -4 75 -10z m640 0 c0 -6 -53 -10 -139 -10 -83 0 -142
4 -146 10 -4 6 45 10 139 10 91 0 146 -4 146 -10z m55 0 c3 -5 -3 -10 -14 -10
-12 0 -21 5 -21 10 0 6 6 10 14 10 8 0 18 -4 21 -10z m155 0 c12 -7 8 -10 -15
-10 -16 0 -37 5 -45 10 -12 7 -8 10 15 10 17 0 37 -5 45 -10z m-510 -10 c0 -5
-12 -10 -27 -10 -22 0 -25 2 -13 10 20 13 40 13 40 0z m545 0 c3 -5 1 -10 -4
-10 -6 0 -11 5 -11 10 0 6 2 10 4 10 3 0 8 -4 11 -10z m-2615 -35 c0 -22 -22
-28 -53 -16 -40 15 -33 31 13 31 29 0 40 -4 40 -15z m1730 -30 l0 -35 -79 0
-80 0 10 32 c5 18 9 34 9 35 0 2 32 3 70 3 l70 0 0 -35z m960 18 c21 -15 52
-19 188 -21 131 -3 162 -6 162 -18 0 -21 -318 -21 -346 1 -15 12 -61 14 -234
15 -409 0 -710 12 -710 27 0 11 82 13 458 13 420 0 460 -1 482 -17z m399 -20
c-2 -24 -2 -25 -6 -6 -4 22 -8 23 -161 26 l-157 3 163 2 162 2 -1 -27z m-1106
-20 c-40 -2 -107 -2 -150 0 -43 1 -10 3 72 3 83 0 118 -2 78 -3z m-150 -20
c-13 -2 -33 -2 -45 0 -13 2 -3 4 22 4 25 0 35 -2 23 -4z m130 0 c-18 -2 -48
-2 -65 0 -18 2 -4 4 32 4 36 0 50 -2 33 -4z m74 1 c-3 -3 -12 -4 -19 -1 -8 3
-5 6 6 6 11 1 17 -2 13 -5z"/>
<path d="M178 374 c-10 -3 -18 -12 -18 -20 0 -39 161 -60 168 -22 2 9 -5 21
-16 27 -22 12 -110 22 -134 15z m62 -23 c0 -18 -18 -21 -30 -6 -10 13 -9 15 9
15 11 0 21 -4 21 -9z m60 -10 c0 -17 -18 -21 -24 -6 -3 9 0 15 9 15 8 0 15 -4
15 -9z"/>
</g>
</svg>
