<?xml version="1.0" standalone="no"?>
<!DOCTYPE svg PUBLIC "-//W3C//DTD SVG 20010904//EN"
 "http://www.w3.org/TR/2001/REC-SVG-20010904/DTD/svg10.dtd">
<svg version="1.0" xmlns="http://www.w3.org/2000/svg"
  viewBox="0 0 1306.000000 122.000000"
 preserveAspectRatio="none">

<g transform="translate(0.000000,122.000000) scale(0.100000,-0.100000)"
fill="#000000" stroke="none">
<path d="M7196 787 c-14 -10 -17 -23 -14 -55 l4 -42 -82 0 c-50 0 -96 -6 -117
-15 -31 -13 -123 -15 -612 -15 l-575 0 0 29 c0 43 -22 55 -103 55 l-72 1 -3
-42 -3 -43 -2800 0 c-2500 0 -2799 -2 -2799 -15 0 -9 19 -36 41 -60 l42 -45
266 0 c150 0 271 -4 277 -9 5 -6 868 -11 2175 -13 l2165 -3 34 -38 c32 -37 34
-38 93 -35 59 3 61 4 69 36 l9 32 1527 0 1527 0 10 -22 c17 -40 51 -48 175
-46 l115 3 3 33 3 32 1800 0 c1726 0 1799 -1 1799 -18 0 -26 20 -42 52 -42 23
0 28 4 28 24 0 24 16 36 51 36 10 0 19 7 19 15 0 13 25 15 165 15 147 0 166
-2 182 -19 10 -10 32 -25 49 -34 17 -9 36 -23 43 -31 21 -25 39 -19 46 15 l7
31 19 -21 c11 -12 24 -21 28 -21 5 0 10 -41 13 -90 5 -109 24 -143 81 -148 57
-5 60 10 55 252 -4 206 -12 256 -39 256 -6 0 -19 10 -29 23 -13 17 -37 27 -83
35 -100 19 -5616 17 -5641 -1z m37 -27 c4 -17 2 -18 -14 -9 -11 5 -17 14 -14
20 10 15 22 10 28 -11z m1365 -1 c11 -16 21 -20 60 -17 38 2 47 6 46 21 -2 16
57 17 1111 17 993 0 1114 -2 1125 -16 16 -18 86 -16 83 4 -4 19 94 16 105 -4
11 -19 88 -16 85 4 -2 9 35 12 161 12 139 0 165 -2 170 -16 7 -19 72 -16 69 4
-2 9 51 12 243 12 177 0 243 -3 238 -11 -11 -19 18 -29 84 -29 62 0 77 10 45
29 -16 9 -14 10 8 11 19 0 26 -5 25 -17 0 -10 9 -20 24 -24 14 -4 -460 -7
-1052 -8 -946 -1 -1078 1 -1078 14 0 16 -38 29 -67 23 -10 -2 -17 -11 -17 -21
2 -14 -7 -17 -52 -17 -41 0 -54 4 -54 15 0 16 -38 29 -67 23 -10 -2 -17 -11
-17 -21 2 -16 -76 -17 -1267 -17 -1159 0 -1268 1 -1262 16 3 9 0 20 -8 25 -8
5 247 9 616 9 625 0 630 0 643 -21z m77 11 c17 -7 16 -9 -10 -9 -16 0 -37 4
-45 9 -12 8 -10 10 10 9 14 0 34 -4 45 -9z m3839 -5 c-4 -9 2 -18 17 -24 21
-9 19 -10 -18 -10 -23 -1 -45 4 -48 9 -3 6 -22 10 -41 10 -19 0 -34 -4 -34
-10 0 -5 -14 -10 -31 -10 -26 0 -29 2 -20 14 10 11 8 17 -6 25 -13 8 8 10 84
11 87 0 101 -2 97 -15z m230 -10 l16 -25 -80 0 c-59 0 -79 3 -74 12 4 6 -1 17
-11 25 -16 11 -9 13 57 13 70 0 77 -2 92 -25z m116 3 c0 -5 9 -7 19 -3 11 3
22 2 25 -4 3 -5 -6 -12 -20 -15 -15 -4 -27 -6 -28 -4 -1 2 -9 13 -20 25 -17
21 -17 21 3 16 12 -3 21 -10 21 -15z m-5540 2 c12 -7 8 -10 -15 -10 -16 0 -37
5 -45 10 -12 7 -8 10 15 10 17 0 37 -5 45 -10z m5495 0 c3 -6 -5 -10 -19 -10
-14 0 -28 5 -31 10 -3 6 5 10 19 10 14 0 28 -4 31 -10z m-7050 -42 c7 -7 -7
-8 -45 -3 -30 4 -59 12 -65 17 -7 7 8 8 45 4 30 -4 60 -12 65 -18z m1457 13
c13 -5 35 -12 51 -15 15 -4 27 -13 27 -20 0 -11 -8 -12 -42 -4 -43 9 -68 24
-68 39 0 11 4 11 32 0z m-1552 -72 c0 -22 -4 -39 -8 -39 -17 0 -32 26 -32 56
0 27 3 31 20 27 16 -4 20 -14 20 -44z m1680 36 c0 -8 -7 -15 -15 -15 -8 0 -15
7 -15 15 0 8 7 15 15 15 8 0 15 -7 15 -15z m5510 0 c0 -13 -312 -15 -2745 -15
-2433 0 -2745 2 -2745 15 0 13 312 15 2745 15 2433 0 2745 -2 2745 -15z m60 5
c0 -5 -10 -10 -22 -10 -19 0 -20 2 -8 10 19 13 30 13 30 0z m38 -24 c-2 -10
-8 -13 -16 -7 -7 4 -10 15 -6 25 8 21 28 6 22 -18z m-7248 -27 c0 -24 -4 -38
-10 -34 -5 3 -10 22 -10 41 0 19 5 34 10 34 6 0 10 -18 10 -41z m70 -1 c0 -36
-2 -38 -30 -38 -28 0 -30 2 -30 38 0 36 2 39 30 39 28 0 30 -3 30 -39z m1448
25 c-10 -2 -28 -2 -40 0 -13 2 -5 4 17 4 22 1 32 -1 23 -4z m-173 -33 c25 -26
27 -32 15 -40 -21 -14 -23 -13 -55 20 -25 26 -27 32 -15 40 21 14 23 13 55
-20z m265 9 c0 -5 -13 -9 -30 -9 -18 0 -30 5 -30 13 0 9 10 12 30 9 17 -2 30
-8 30 -13z m-172 4 c-16 -2 -40 -2 -55 0 -16 2 -3 4 27 4 30 0 43 -2 28 -4z
m1485 0 c-7 -2 -19 -2 -25 0 -7 3 -2 5 12 5 14 0 19 -2 13 -5z m47 -3 c0 -5
-4 -10 -10 -10 -5 0 -10 5 -10 10 0 6 5 10 10 10 6 0 10 -4 10 -10z m538 3
c61 -3 112 -10 112 -15 0 -10 -120 -10 -412 -1 -120 3 -218 10 -218 15 0 9
356 11 518 1z m182 -2 c0 -6 -4 -13 -10 -16 -5 -3 -10 1 -10 9 0 9 5 16 10 16
6 0 10 -4 10 -9z m383 2 c-7 -2 -19 -2 -25 0 -7 3 -2 5 12 5 14 0 19 -2 13 -5z
m437 -8 c0 -13 -27 -15 -180 -15 -153 0 -180 2 -180 15 0 13 27 15 180 15 153
0 180 -2 180 -15z m1930 -1 c0 -12 -10 -14 -52 -12 -74 4 -77 28 -4 28 44 0
56 -3 56 -16z m200 7 c0 -16 -17 -21 -49 -15 -44 9 -38 24 9 24 22 0 40 -4 40
-9z m200 -6 c0 -8 -4 -15 -10 -15 -5 0 -10 7 -10 15 0 8 5 15 10 15 6 0 10 -7
10 -15z m-8995 -5 c4 -7 -447 -10 -1346 -10 -1199 0 -1350 -2 -1339 -15 11
-13 179 -15 1374 -18 1359 -2 1359 -2 -390 -5 l-1750 -2 -29 30 -29 30 1752 0
c1156 0 1753 -3 1757 -10z m1482 4 c-3 -4 -2 -15 4 -25 13 -25 99 -28 99 -4 0
8 -4 15 -10 15 -5 0 -10 5 -10 10 0 6 15 10 33 10 27 -1 29 -2 14 -11 -20 -12
-14 -27 17 -39 12 -5 -316 -8 -769 -7 -434 1 -647 3 -472 4 248 3 318 6 314
16 -3 9 -82 13 -332 15 -200 1 -333 6 -339 12 -7 7 241 10 724 10 403 0 730
-3 727 -6z m438 -4 c-121 -5 -141 -13 -94 -37 22 -11 18 -13 -37 -13 -52 0
-62 3 -60 17 1 12 -11 22 -34 30 -30 10 -6 12 155 10 173 -1 179 -2 70 -7z
m1202 -1 c-20 -12 -14 -27 17 -39 12 -5 -113 -9 -311 -9 -324 -1 -331 -1 -326
19 7 25 -13 29 -152 33 -60 1 93 4 340 5 313 1 445 -2 432 -9z m318 -19 l29
-30 -116 0 c-103 0 -116 2 -114 17 1 12 -11 22 -34 30 -31 11 -22 12 86 12
l120 1 29 -30z m238 23 c-7 -2 -21 -2 -30 0 -10 3 -4 5 12 5 17 0 24 -2 18 -5z
m507 -8 c11 -13 8 -15 -15 -15 -23 0 -26 2 -15 15 7 8 14 15 15 15 1 0 8 -7
15 -15z m548 8 c-25 -6 -22 -32 5 -43 14 -5 -63 -9 -214 -9 l-235 -1 -29 30
-29 30 260 -1 c142 -1 251 -3 242 -6z m137 -15 c8 -19 19 -24 59 -26 l49 -3
-17 25 -16 26 31 0 c43 0 112 -21 122 -37 4 -7 24 -13 43 -13 21 0 33 4 29 10
-4 6 23 10 74 10 44 0 83 -5 86 -10 8 -13 52 -13 60 0 3 6 46 10 94 10 67 0
92 -4 101 -15 11 -13 -31 -15 -368 -15 -315 0 -380 2 -376 13 6 17 -13 34 -46
40 -15 2 -8 5 20 6 38 1 47 -3 55 -21z m935 12 c0 -5 -4 -10 -10 -10 -5 0 -10
5 -10 10 0 6 5 10 10 10 6 0 10 -4 10 -10z m120 3 c-8 -3 -18 -10 -21 -15 -3
-5 -12 -2 -19 7 -11 13 -8 15 21 14 19 0 27 -3 19 -6z m1078 0 c-25 -6 -22
-32 5 -43 15 -6 -26 -9 -123 -9 -86 0 -139 3 -131 8 19 12 6 29 -32 40 -23 7
16 9 133 9 91 0 157 -2 148 -5z m495 0 c-29 -2 -77 -2 -105 0 -29 2 -6 3 52 3
58 0 81 -1 53 -3z m484 -4 c-20 -12 -14 -27 17 -39 14 -6 -11 -9 -76 -9 -91
-1 -96 0 -91 19 4 15 -1 21 -23 25 -16 4 -33 8 -39 10 -5 2 44 4 110 4 87 0
115 -2 102 -10z m138 0 c-4 -5 1 -19 11 -30 17 -18 16 -19 -17 -19 -23 0 -30
3 -20 9 19 12 6 29 -32 40 -31 9 -30 9 16 10 32 1 46 -3 42 -10z m831 -13 c8
-14 23 -27 32 -29 9 -3 0 -5 -20 -6 -29 -1 -36 2 -32 14 4 10 -4 20 -27 30
l-34 14 32 1 c24 0 37 -7 49 -24z m302 17 c-42 -2 -114 -2 -160 0 -46 1 -11 3
77 3 88 0 125 -2 83 -3z m137 -19 c15 -14 24 -28 21 -31 -3 -4 -16 3 -29 15
-13 12 -29 22 -35 22 -7 0 -12 5 -12 10 0 18 27 10 55 -16z m-12869 -26 l29
-33 -32 29 c-31 28 -38 36 -30 36 2 0 16 -15 33 -32z m5492 25 c-32 -2 -84 -2
-115 0 -32 2 -6 3 57 3 63 0 89 -1 58 -3z m370 0 c-27 -2 -69 -2 -95 0 -27 2
-5 3 47 3 52 0 74 -1 48 -3z m87 -3 c19 -8 19 -9 -2 -9 -12 -1 -25 4 -28 9 -7
12 2 12 30 0z m1303 3 c-21 -2 -57 -2 -80 0 -24 2 -7 4 37 4 44 0 63 -2 43 -4z
m2375 0 c-34 -2 -93 -2 -130 0 -37 2 -9 3 62 3 72 0 102 -1 68 -3z m577 -3
c13 -9 13 -10 0 -10 -8 0 -22 5 -30 10 -13 9 -13 10 0 10 8 0 22 -5 30 -10z
m503 3 c-34 -2 -93 -2 -130 0 -37 2 -9 3 62 3 72 0 102 -1 68 -3z m480 0 c-24
-2 -62 -2 -85 0 -24 2 -5 4 42 4 47 0 66 -2 43 -4z m92 -3 c13 -6 15 -9 5 -9
-8 0 -22 4 -30 9 -18 12 -2 12 25 0z m523 3 c-32 -2 -86 -2 -120 0 -35 2 -9 3
57 3 66 0 94 -1 63 -3z m399 1 c-3 -3 -12 -4 -19 -1 -8 3 -5 6 6 6 11 1 17 -2
13 -5z m110 0 c-3 -3 -12 -4 -19 -1 -8 3 -5 6 6 6 11 1 17 -2 13 -5z m68 -4
c13 -5 14 -9 5 -9 -8 0 -24 4 -35 9 -13 5 -14 9 -5 9 8 0 24 -4 35 -9z m-1345
-15 c0 -12 -18 -15 -105 -15 -87 0 -105 3 -105 15 0 12 18 15 105 15 87 0 105
-3 105 -15z m1110 -5 c0 -5 -4 -10 -10 -10 -5 0 -10 5 -10 10 0 6 5 10 10 10
6 0 10 -4 10 -10z m479 -6 c2 -2 -12 -4 -33 -4 -22 0 -35 4 -31 10 5 9 52 4
64 -6z m-4889 -9 c21 -12 134 -14 701 -15 611 0 678 2 690 16 11 14 31 16 130
12 70 -2 123 -9 132 -16 11 -9 395 -13 1633 -15 l1619 -2 -1621 -3 c-921 -1
-1624 2 -1630 7 -5 5 -63 12 -130 15 -102 6 -123 5 -134 -8 -11 -14 -90 -16
-694 -16 -571 1 -685 3 -706 15 -20 12 -88 14 -360 14 -272 0 -340 -2 -360
-14 -22 -12 -503 -14 -3500 -12 l-3475 2 3480 5 c2713 4 3484 8 3500 17 31 19
691 17 725 -2z m5027 9 c-3 -3 -12 -4 -19 -1 -8 3 -5 6 6 6 11 1 17 -2 13 -5z
m-44 -44 c-15 -6 -23 -18 -23 -34 0 -37 -15 -40 -62 -9 -43 28 -43 28 -15 31
15 2 27 8 27 13 0 5 21 9 48 8 38 0 43 -2 25 -9z m185 -82 c-2 -62 -7 -93 -15
-96 -15 -4 -17 31 -7 127 10 94 25 73 22 -31z m-4913 73 c171 -4 -408 -7
-1285 -7 -1322 1 -1434 2 -655 6 1430 8 1605 8 1940 1z m4180 -4 c28 -2 -803
-3 -1845 -3 -1042 0 -1740 3 -1550 6 345 5 3300 2 3395 -3z m-11302 -4 c-34
-2 -93 -2 -130 0 -37 2 -9 3 62 3 72 0 102 -1 68 -3z m754 0 c-98 -2 -256 -2
-350 0 -95 1 -14 3 178 2 193 0 270 -1 172 -2z m860 0 c-98 -2 -256 -2 -350 0
-95 1 -14 3 178 2 193 0 270 -1 172 -2z m860 0 c-98 -2 -256 -2 -350 0 -95 1
-14 3 178 2 193 0 270 -1 172 -2z m866 0 c-95 -2 -251 -2 -345 0 -95 1 -18 3
172 3 190 0 267 -2 173 -3z m649 0 c-73 -2 -190 -2 -260 0 -70 1 -10 3 133 3
143 0 200 -2 127 -3z m3345 -45 c-3 -8 -6 -5 -6 6 -1 11 2 17 5 13 3 -3 4 -12
1 -19z m81 0 c-2 -15 -11 -24 -25 -26 -19 -3 -23 1 -23 22 0 21 5 26 26 26 21
0 25 -4 22 -22z m159 -15 c-3 -10 -5 -4 -5 12 0 17 2 24 5 18 2 -7 2 -21 0
-30z m-3350 21 c-3 -3 -12 -4 -19 -1 -8 3 -5 6 6 6 11 1 17 -2 13 -5z m3296
-1 c-7 -2 -21 -2 -30 0 -10 3 -4 5 12 5 17 0 24 -2 18 -5z m4457 -60 l0 -62
-24 22 c-21 19 -24 30 -19 63 4 30 9 40 24 40 17 0 19 -8 19 -63z m-710 47 c0
-5 -4 -10 -10 -10 -5 0 -10 5 -10 10 0 6 5 10 10 10 6 0 10 -4 10 -10z m727
-72 c-2 -18 -4 -6 -4 27 0 33 2 48 4 33 2 -15 2 -42 0 -60z m-7784 55 c-7 -2
-21 -2 -30 0 -10 3 -4 5 12 5 17 0 24 -2 18 -5z m3300 0 c-13 -2 -35 -2 -50 0
-16 2 -5 4 22 4 28 0 40 -2 28 -4z m4440 -103 c-3 -11 -7 -20 -9 -20 -2 0 -4
9 -4 20 0 11 4 20 9 20 5 0 7 -9 4 -20z m77 -35 c0 -8 -4 -15 -10 -15 -5 0
-10 7 -10 15 0 8 5 15 10 15 6 0 10 -7 10 -15z m-54 -72 c-6 -14 -9 -15 -21
-2 -7 8 -17 27 -21 42 l-7 28 28 -25 c18 -17 25 -31 21 -43z m54 17 c0 -23 -5
-30 -19 -30 -18 0 -19 3 -10 30 6 17 15 30 20 30 5 0 9 -13 9 -30z"/>
<path d="M6305 630 c-14 -23 11 -30 101 -30 92 0 114 9 75 30 -25 13 -168 13
-176 0z m108 -17 c-13 -2 -35 -2 -50 0 -16 2 -5 4 22 4 28 0 40 -2 28 -4z m64
1 c-3 -3 -12 -4 -19 -1 -8 3 -5 6 6 6 11 1 17 -2 13 -5z"/>
</g>
</svg>
