<?xml version="1.0" standalone="no"?>
<!DOCTYPE svg PUBLIC "-//W3C//DTD SVG 20010904//EN"
 "http://www.w3.org/TR/2001/REC-SVG-20010904/DTD/svg10.dtd">
<svg version="1.0" xmlns="http://www.w3.org/2000/svg"
width="200" height="15" viewBox="0 0 538.000000 100.000000"
 preserveAspectRatio="none">

<g transform="translate(0.000000,100.000000) scale(0.100000,-0.100000)"
fill="#000000" stroke="none">
<path d="M2485 753 c-57 -6 -68 -19 -62 -70 l5 -43 -52 0 c-28 -1 -62 -7 -76
-15 -21 -12 -189 -14 -1117 -15 l-1093 0 0 -22 c0 -13 18 -41 42 -65 l42 -43
157 0 c127 0 159 -3 169 -15 11 -13 164 -15 1234 -17 1212 -3 1221 -3 1224
-23 2 -11 16 -32 30 -47 25 -27 30 -28 124 -28 l98 0 0 45 0 45 540 0 c518 0
540 -1 540 -18 0 -46 80 -71 88 -27 6 30 22 45 49 45 16 0 27 7 30 20 5 19 14
20 184 20 l178 0 34 -30 c19 -17 39 -30 44 -30 5 0 24 -13 43 -30 45 -38 56
-37 64 5 7 38 21 46 31 17 3 -11 16 -24 29 -30 21 -9 23 -15 19 -56 -8 -67 6
-168 26 -195 21 -28 80 -36 108 -16 16 12 18 31 17 217 -1 239 -12 338 -36
338 -7 0 -27 14 -44 31 -60 58 -50 58 -1404 57 -674 -1 -1243 -3 -1265 -5z m8
-20 c-22 -8 -14 -32 12 -39 14 -4 24 -9 21 -12 -8 -7 -96 28 -96 38 0 5 8 11
18 13 24 6 60 7 45 0z m510 -11 c2 -12 17 -22 37 -25 71 -15 105 -2 80 28 -11
13 19 15 234 15 204 0 246 -2 246 -14 0 -15 21 -26 50 -26 25 0 36 20 19 31
-8 5 261 9 634 9 557 0 647 -2 647 -14 0 -23 41 -46 82 -46 43 0 46 5 21 33
-18 20 -17 20 27 13 25 -4 51 -13 59 -21 25 -25 -53 -35 -280 -35 -184 0 -218
2 -223 15 -3 9 -18 15 -35 15 -32 0 -50 -15 -29 -23 7 -3 -446 -5 -1007 -5
-561 0 -1007 3 -990 7 40 8 44 36 8 49 -21 8 30 11 193 11 208 1 222 0 227
-17z m-408 -13 c5 -5 -6 -9 -27 -9 -44 0 -70 9 -62 21 6 11 74 1 89 -12z m515
11 c11 -7 4 -10 -25 -10 -22 0 -47 5 -55 10 -11 7 -4 10 25 10 22 0 47 -5 55
-10z m540 0 c8 -5 11 -10 5 -10 -5 0 -17 5 -25 10 -8 5 -10 10 -5 10 6 0 17
-5 25 -10z m1390 -5 c11 -13 8 -15 -18 -15 -16 0 -35 7 -42 15 -11 13 -8 15
18 15 16 0 35 -7 42 -15z m-2480 -77 c0 -14 -6 -16 -32 -11 -59 11 -98 31 -98
50 0 18 2 18 65 -1 47 -15 65 -25 65 -38z m2057 46 c-3 -3 -12 -4 -19 -1 -8 3
-5 6 6 6 11 1 17 -2 13 -5z m-1997 -44 c0 -15 -7 -20 -25 -20 -18 0 -25 5 -25
20 0 15 7 20 25 20 18 0 25 -5 25 -20z m2464 14 c9 -3 16 -12 16 -20 0 -12
-186 -14 -1235 -14 -1228 0 -1235 0 -1235 20 0 20 7 20 1219 20 671 0 1226 -3
1235 -6z m74 -6 c-6 -18 -48 -30 -48 -14 0 15 14 24 38 25 8 1 12 -4 10 -11z
m44 -23 c9 -37 3 -43 -21 -21 -11 10 -17 25 -14 37 7 27 25 19 35 -16z m-2718
-4 c3 -4 -6 -6 -19 -3 -14 2 -25 6 -25 8 0 8 39 4 44 -5z m-139 -22 c4 -11 18
-25 31 -31 30 -14 30 -22 0 -36 -21 -9 -28 -6 -61 28 -34 35 -36 39 -18 49 27
16 41 13 48 -10z m132 -4 c2 -6 -20 -9 -57 -7 -33 2 -60 8 -60 13 0 13 112 7
117 -6z m57 9 c23 -9 20 -24 -4 -24 -11 0 -20 7 -20 15 0 17 2 18 24 9z m143
0 c-3 -3 -12 -4 -19 -1 -8 3 -5 6 6 6 11 1 17 -2 13 -5z m110 0 c-3 -3 -12 -4
-19 -1 -8 3 -5 6 6 6 11 1 17 -2 13 -5z m80 0 c-3 -3 -12 -4 -19 -1 -8 3 -5 6
6 6 11 1 17 -2 13 -5z m53 2 c0 -3 -4 -8 -10 -11 -5 -3 -10 -1 -10 4 0 6 5 11
10 11 6 0 10 -2 10 -4z m140 -12 c0 -13 -7 -15 -32 -10 -52 10 -58 26 -10 26
32 0 42 -4 42 -16z m45 -2 c0 -18 -20 -15 -23 4 -3 10 1 15 10 12 7 -3 13 -10
13 -16z m355 4 c0 -8 -7 -16 -15 -20 -15 -5 -21 14 -8 27 11 12 23 8 23 -7z
m830 -6 c0 -18 -7 -20 -60 -20 -53 0 -60 2 -60 20 0 18 7 20 60 20 53 0 60 -2
60 -20z m30 0 c0 -11 -4 -20 -9 -20 -5 0 -7 9 -4 20 3 11 7 20 9 20 2 0 4 -9
4 -20z m180 0 c0 -16 -7 -20 -34 -20 -44 0 -66 9 -66 26 0 10 14 14 50 14 43
0 50 -3 50 -20z m248 -8 c2 -15 -2 -22 -12 -22 -11 0 -16 9 -16 26 0 31 23 28
28 -4z m-1368 3 c0 -13 -21 -15 -130 -15 -109 0 -130 2 -130 15 0 13 21 15
130 15 109 0 130 -2 130 -15z m40 0 c0 -8 -7 -15 -15 -15 -8 0 -15 7 -15 15 0
8 7 15 15 15 8 0 15 -7 15 -15z m-1525 -5 c4 -7 -242 -10 -731 -10 -653 0
-735 -2 -724 -15 11 -13 107 -15 756 -15 484 0 745 -3 749 -10 4 -7 -291 -10
-877 -10 l-884 0 -34 35 -34 35 886 0 c581 0 889 -3 893 -10z m405 -25 l34
-35 -181 0 c-111 0 -184 4 -188 10 -4 7 48 10 149 10 138 0 185 7 157 24 -4 3
-85 6 -180 7 -94 0 -173 5 -176 10 -4 5 65 9 172 9 l179 0 34 -35z m493 28
c-13 -2 -33 -2 -45 0 -13 2 -3 4 22 4 25 0 35 -2 23 -4z m268 -29 c18 -16 45
-18 54 -4 10 15 71 12 85 -5 11 -13 0 -15 -91 -15 -98 0 -104 1 -133 28 -17
15 -24 19 -17 10 8 -11 9 -18 3 -18 -14 0 -25 18 -18 29 8 12 97 -7 117 -25z
m535 23 c-17 -12 -17 -14 -1 -27 25 -21 130 -20 130 0 0 8 -16 20 -35 27 l-35
12 52 0 c39 1 51 -2 47 -12 -2 -7 4 -21 14 -30 15 -14 46 -17 177 -20 105 -1
65 -3 -116 -5 l-275 -2 -34 35 -34 35 64 0 c55 0 61 -2 46 -13z m767 -24 l7
-33 -93 2 -92 2 78 3 c77 4 78 4 84 34 7 35 8 34 16 -8z m328 11 c31 -29 118
-45 141 -26 15 11 78 4 78 -9 0 -5 -117 -8 -267 -7 -213 2 -240 3 -133 8 113
4 135 8 138 21 2 10 -8 19 -30 26 l-33 11 39 1 c30 1 47 -5 67 -25z m419 16
c0 -6 -65 -10 -175 -10 -110 0 -175 4 -175 10 0 6 65 10 175 10 110 0 175 -4
175 -10z m66 -8 c28 -22 49 -62 33 -62 -6 0 -20 11 -30 24 -11 14 -28 28 -39
31 -11 4 -20 11 -20 16 0 15 33 10 56 -9z m-5036 -27 c19 -19 32 -35 29 -35
-3 0 -20 16 -39 35 -19 19 -32 35 -29 35 3 0 20 -16 39 -35z m2313 28 c-7 -2
-19 -2 -25 0 -7 3 -2 5 12 5 14 0 19 -2 13 -5z m1587 -3 c0 -6 -50 -10 -131
-10 -84 0 -128 4 -124 10 4 6 58 10 131 10 76 0 124 -4 124 -10z m370 -6 c0
-2 -7 -4 -15 -4 -8 0 -15 4 -15 10 0 5 7 7 15 4 8 -4 15 -8 15 -10z m150 6 c0
-5 -11 -10 -25 -10 -14 0 -25 5 -25 10 0 6 11 10 25 10 14 0 25 -4 25 -10z
m-2017 -7 c-7 -2 -19 -2 -25 0 -7 3 -2 5 12 5 14 0 19 -2 13 -5z m250 0 c-29
-2 -78 -2 -110 0 -32 2 -8 3 52 3 61 0 87 -1 58 -3z m857 -3 c0 -5 -4 -10 -9
-10 -6 0 -13 5 -16 10 -3 6 1 10 9 10 9 0 16 -4 16 -10z m950 0 c0 -5 -4 -10
-9 -10 -6 0 -13 5 -16 10 -3 6 1 10 9 10 9 0 16 -4 16 -10z m-1355 -11 c12
-19 -5 -23 -22 -6 -16 16 -16 17 -1 17 9 0 20 -5 23 -11z m455 7 c0 -3 -4 -8
-10 -11 -5 -3 -10 -1 -10 4 0 6 5 11 10 11 6 0 10 -2 10 -4z m940 0 c0 -3 -4
-8 -10 -11 -5 -3 -10 -1 -10 4 0 6 5 11 10 11 6 0 10 -2 10 -4z m343 -13 c-7
-2 -19 -2 -25 0 -7 3 -2 5 12 5 14 0 19 -2 13 -5z m-1996 -20 c24 -10 43 -21
43 -25 0 -12 -22 -9 -50 7 -37 21 -553 21 -590 0 -21 -12 -189 -14 -1112 -15
-719 0 -1088 3 -1088 10 0 7 368 10 1083 10 919 1 1086 3 1107 15 20 11 80 14
295 15 235 0 275 -2 312 -17z m533 2 c21 -12 135 -14 713 -15 451 0 687 -3
687 -10 0 -7 -236 -10 -689 -10 -591 0 -693 2 -717 15 -43 22 -231 21 -256 -2
-10 -9 -21 -13 -24 -10 -4 4 4 15 17 26 21 18 39 20 134 20 77 0 118 -4 135
-14z m1555 5 c4 -6 -6 -10 -22 -9 -25 0 -26 1 -8 9 11 5 21 9 22 9 1 1 5 -3 8
-9z m85 -43 c0 -5 -6 -4 -13 2 -8 6 -18 7 -22 3 -5 -4 -5 -2 -1 5 3 6 2 14 -4
18 -5 3 -10 11 -10 17 0 6 11 1 25 -12 14 -13 25 -28 25 -33z m-2643 16 c-20
-2 -52 -2 -70 0 -17 2 0 4 38 4 39 0 53 -2 32 -4z m341 0 c-49 -2 -127 -2
-175 0 -49 1 -9 3 87 3 96 0 136 -2 88 -3z m315 -10 c-24 -2 -62 -2 -85 0 -24
2 -5 4 42 4 47 0 66 -2 43 -4z m-313 -18 c0 -13 -50 -15 -390 -15 -246 0 -390
4 -390 10 0 10 120 14 543 18 205 2 237 0 237 -13z m2161 6 c-17 -5 -26 -15
-28 -36 -6 -45 -16 -48 -64 -24 -68 35 -77 56 -26 62 56 7 144 6 118 -2z m46
-53 c-2 -13 -4 -3 -4 22 0 25 2 35 4 23 2 -13 2 -33 0 -45z m163 29 c0 -92
-13 -187 -26 -187 -11 0 -14 24 -14 110 0 103 1 110 20 110 16 0 20 -7 20 -33z
m-4320 13 c0 -6 -55 -10 -145 -10 -90 0 -145 4 -145 10 0 6 55 10 145 10 90 0
145 -4 145 -10z m100 0 c0 -5 -5 -10 -11 -10 -5 0 -7 5 -4 10 3 6 8 10 11 10
2 0 4 -4 4 -10z m875 0 c4 -7 -128 -10 -390 -10 -262 0 -394 3 -390 10 8 14
772 14 780 0z m105 0 c0 -5 -4 -10 -10 -10 -5 0 -10 5 -10 10 0 6 5 10 10 10
6 0 10 -4 10 -10z m1028 -2 c-7 -20 -48 -23 -48 -4 0 11 9 16 26 16 16 0 24
-5 22 -12z m1425 -3 c2 -11 -1195 -20 -1223 -10 -13 5 -13 7 0 15 21 14 1219
8 1223 -5z m734 -137 c-2 -29 -3 -6 -3 52 0 58 1 81 3 53 2 -29 2 -77 0 -105z
m-2107 116 c0 -24 2 -25 48 -22 40 3 47 6 50 26 2 12 10 22 18 22 10 0 14 -13
14 -44 l0 -44 -85 -1 -85 0 0 45 c0 37 3 44 20 44 15 0 20 -7 20 -26z m2075 6
c3 -5 1 -10 -4 -10 -6 0 -11 5 -11 10 0 6 2 10 4 10 3 0 8 -4 11 -10z m-2012
-7 c-7 -2 -19 -2 -25 0 -7 3 -2 5 12 5 14 0 19 -2 13 -5z m1230 -10 c-7 -2
-21 -2 -30 0 -10 3 -4 5 12 5 17 0 24 -2 18 -5z m-1348 -13 c3 -5 -3 -10 -14
-10 -11 0 -23 5 -26 10 -3 6 3 10 14 10 11 0 23 -4 26 -10z m1345 -15 c0 -8
-7 -15 -15 -15 -8 0 -15 7 -15 15 0 8 7 15 15 15 8 0 15 -7 15 -15z m799 -62
c0 -43 -5 -87 -10 -98 -8 -18 -9 -17 -5 4 6 29 -9 61 -29 61 -16 0 -18 15 -9
73 6 31 11 37 30 37 23 0 24 -2 23 -77z m-2139 41 c0 -14 -3 -14 -15 -4 -8 7
-15 14 -15 16 0 2 7 4 15 4 8 0 15 -7 15 -16z m2110 -119 c0 -14 -4 -25 -10
-25 -5 0 -10 11 -10 25 0 14 5 25 10 25 6 0 10 -11 10 -25z m83 -12 c-7 -2
-19 -2 -25 0 -7 3 -2 5 12 5 14 0 19 -2 13 -5z m7 -28 c0 -8 -7 -15 -15 -15
-8 0 -15 7 -15 15 0 8 7 15 15 15 8 0 15 -7 15 -15z m-78 -45 c15 0 19 -6 16
-27 -5 -40 -26 -40 -43 1 -18 42 -20 85 -3 49 6 -13 20 -23 30 -23z m8 26 c0
-3 -4 -8 -10 -11 -5 -3 -10 -1 -10 4 0 6 5 11 10 11 6 0 10 -2 10 -4z m68 -48
c-2 -25 -8 -34 -25 -36 -25 -4 -28 4 -13 42 14 39 42 34 38 -6z"/>
<path d="M4207 723 c-4 -3 -2 -12 4 -20 8 -8 35 -13 80 -13 69 0 80 5 57 28
-13 13 -130 17 -141 5z m101 -10 c-16 -2 -40 -2 -55 0 -16 2 -3 4 27 4 30 0
43 -2 28 -4z"/>
<path d="M4387 723 c-14 -14 17 -33 54 -33 40 0 55 22 23 34 -21 8 -69 8 -77
-1z m68 -13 c7 -12 -12 -12 -40 0 -18 8 -17 9 7 9 15 1 30 -3 33 -9z"/>
<path d="M4700 716 c0 -19 7 -23 50 -30 19 -4 42 -2 50 4 13 9 12 12 -4 25
-26 20 -96 20 -96 1z m67 -12 c-3 -3 -12 -4 -19 -1 -8 3 -5 6 6 6 11 1 17 -2
13 -5z"/>
</g>
</svg>
