<?xml version="1.0" standalone="no"?>
<!DOCTYPE svg PUBLIC "-//W3C//DTD SVG 20010904//EN"
 "http://www.w3.org/TR/2001/REC-SVG-20010904/DTD/svg10.dtd">
<svg version="1.0" xmlns="http://www.w3.org/2000/svg"
 width="200" height="15" viewBox="0 120 1349.000000 135"
 preserveAspectRatio="none">

<g transform="translate(0.000000,330.000000) scale(0.100000,-0.100000)"
fill="#000000" stroke="none">
<path d="M6923 2000 c-54 -12 -63 -26 -63 -91 0 -47 4 -63 20 -76 11 -10 20
-21 20 -25 0 -5 -51 -8 -112 -8 -99 0 -119 -3 -167 -25 l-54 -25 -486 0 c-267
0 -1710 -1 -3206 -2 l-2720 -3 -3 -37 c-3 -33 3 -43 68 -110 l71 -73 687 -5
c666 -5 688 -6 717 -25 29 -20 49 -20 2895 -24 1576 -3 3087 -6 3358 -8 l492
-3 0 -26 c0 -16 13 -38 34 -59 l34 -33 134 -7 c73 -3 180 -5 238 -3 l105 3 3
63 3 62 1339 0 1340 0 0 -29 c0 -21 10 -38 36 -61 30 -26 41 -30 68 -24 43 9
46 12 46 43 0 36 38 71 77 71 47 0 63 9 63 36 l0 24 313 0 313 0 35 -36 c18
-20 59 -48 89 -64 30 -15 72 -44 93 -63 42 -40 64 -39 72 2 17 85 30 95 60 49
11 -18 31 -35 45 -38 l25 -6 5 -159 c5 -151 7 -163 34 -216 31 -62 56 -79 116
-79 59 0 87 14 98 52 6 18 13 170 15 338 4 255 2 312 -11 345 -8 22 -14 63
-13 91 3 69 -23 134 -54 134 -14 0 -30 11 -40 27 -35 53 -66 70 -170 92 l-100
21 -2965 -1 c-1631 -1 -2980 -5 -2997 -9z m2003 -28 c-11 -34 32 -61 110 -68
106 -10 146 20 87 65 l-28 20 1855 1 c1230 0 1850 -4 1840 -10 -12 -8 -7 -18
32 -55 44 -42 51 -45 100 -45 77 0 85 9 48 55 -16 21 -30 39 -30 40 0 11 140
-32 158 -48 l23 -22 -48 -17 c-42 -14 -98 -17 -425 -17 -332 -1 -378 1 -378
14 0 20 -45 37 -89 33 -30 -3 -36 -7 -35 -25 l1 -23 -2541 1 c-1624 1 -2523 5
-2491 11 28 5 57 16 65 24 13 12 12 17 -7 35 -11 12 -45 27 -74 34 -46 11 95
13 889 14 907 1 943 0 938 -17z m-1948 -3 c-10 -5 -18 -16 -18 -23 0 -16 29
-42 55 -50 11 -3 0 -3 -24 0 -53 6 -101 32 -101 55 0 21 14 27 65 28 32 0 36
-2 23 -10z m2119 -10 c32 -12 20 -29 -20 -29 -37 1 -105 15 -115 25 -24 24 74
27 135 4z m-1984 -10 c54 -15 42 -34 -20 -32 -64 3 -113 20 -93 33 20 13 66
12 113 -1z m5819 -6 c27 -24 22 -33 -20 -33 -37 0 -82 22 -82 41 0 16 82 10
102 -8z m-6004 -52 c21 -11 56 -22 77 -26 85 -13 85 -14 85 -45 0 -37 -19 -39
-113 -10 -75 23 -97 41 -97 76 0 29 1 29 48 5z m5295 2 c-7 -2 -21 -2 -30 0
-10 3 -4 5 12 5 17 0 24 -2 18 -5z m-5035 -81 c3 -32 2 -33 -30 -30 -29 3 -33
7 -36 36 -3 32 -2 33 30 30 29 -3 33 -7 36 -36z m5842 -8 l0 -24 -2910 0
-2910 0 0 30 0 30 2898 2 c1637 2 2902 -1 2910 -6 6 -5 12 -19 12 -32z m110
27 c0 -17 -42 -41 -71 -41 -22 0 -7 39 19 48 41 15 52 14 52 -7z m68 -14 c7
-15 12 -41 10 -58 l-3 -31 -36 29 c-25 20 -34 33 -28 43 4 8 10 23 13 33 8 25
28 17 44 -16z m-6398 -41 c0 -2 -12 -11 -26 -21 -20 -13 -28 -14 -40 -4 -24
20 -16 29 26 29 22 0 40 -2 40 -4z m-82 -69 l63 -64 -41 -18 -41 -18 -59 58
c-33 33 -60 62 -60 65 0 6 58 38 70 39 3 1 34 -27 68 -62z m378 43 c27 0 34
-4 34 -19 0 -14 -10 -20 -42 -24 -24 -3 -53 -9 -65 -13 -21 -6 -23 -3 -23 31
0 37 1 37 31 31 17 -3 47 -6 65 -6z m694 -11 c0 -5 -7 -9 -15 -9 -15 0 -20 12
-9 23 8 8 24 -1 24 -14z m250 13 c0 -4 -9 -13 -21 -20 -16 -10 -24 -10 -35 -1
-23 19 -16 29 21 29 19 0 35 -3 35 -8z m613 1 c-101 -2 -265 -2 -365 0 -101 1
-19 2 182 2 201 0 283 -1 183 -2z m367 -18 c0 -22 -3 -24 -32 -18 -18 3 -51
14 -73 23 l-40 18 73 1 c70 1 72 0 72 -24z m70 0 c0 -18 -5 -25 -20 -25 -15 0
-20 7 -20 25 0 18 5 25 20 25 15 0 20 -7 20 -25z m2068 18 c-82 -2 -214 -2
-295 0 -82 1 -15 3 147 3 162 0 229 -2 148 -3z m860 -24 c3 -23 -1 -27 -30
-33 -18 -3 -55 0 -83 7 -40 10 -51 17 -53 35 -3 22 -2 23 80 20 81 -3 83 -4
86 -29z m230 24 c-38 -2 -98 -2 -135 0 -38 2 -7 3 67 3 74 0 105 -1 68 -3z
m183 0 c7 -70 2 -81 -31 -63 -19 10 -27 49 -13 63 9 9 43 9 44 0z m-5464 -18
c3 -9 4 -17 2 -19 -2 -1 -43 0 -91 2 -67 3 -88 7 -88 18 0 21 168 20 177 -1z
m646 8 c-7 -2 -21 -2 -30 0 -10 3 -4 5 12 5 17 0 24 -2 18 -5z m2902 -12 c31
-5 40 -11 40 -26 0 -19 -7 -20 -220 -20 -121 0 -357 3 -525 7 -168 4 -392 8
-497 8 l-193 0 0 27 0 26 678 -7 c372 -5 695 -11 717 -15z m175 -5 c0 -22 -16
-36 -41 -36 -17 0 -10 48 9 53 30 8 32 7 32 -17z m980 -11 l0 -35 -105 0 -105
0 0 35 0 35 105 0 105 0 0 -35z m40 0 c0 -19 -4 -35 -10 -35 -11 0 -14 53 -3
63 11 12 13 8 13 -28z m-4440 10 c0 -12 -13 -15 -60 -15 -55 0 -70 6 -53 23 3
4 30 7 60 7 40 0 53 -4 53 -15z m124 7 c11 -18 -11 -28 -51 -24 -61 6 -59 32
1 32 25 0 47 -4 50 -8z m3222 -38 c-3 -8 -12 -14 -21 -14 -18 0 -21 46 -2 53
15 5 30 -20 23 -39z m2432 24 c3 -17 -16 -18 -292 -18 -240 0 -296 3 -296 13
0 8 3 17 7 20 4 4 135 6 292 5 263 -3 286 -4 289 -20z m85 -2 c39 -16 87 -70
87 -97 0 -30 -26 -22 -49 15 -13 21 -37 40 -61 50 -22 9 -40 23 -40 31 0 19
21 19 63 1z m-7563 -11 c11 -13 -273 -15 -2543 -15 -1765 0 -2558 -3 -2562
-10 -4 -6 -1 -17 5 -25 11 -13 345 -15 2590 -15 2564 0 2577 0 2595 -20 18
-20 17 -20 -2671 -20 l-2690 0 -59 60 -59 60 2691 0 c2379 0 2692 -2 2703 -15z
m1037 -37 c29 -29 53 -56 53 -60 0 -4 -213 -8 -473 -8 -467 0 -472 0 -485 21
-12 19 -11 20 15 18 15 -1 173 -1 351 -1 262 2 322 5 322 15 0 33 -48 37 -404
37 -294 0 -355 2 -372 15 -17 13 37 14 461 15 l479 0 53 -52z m2139 35 c-4
-10 3 -26 21 -45 25 -26 33 -28 100 -28 84 0 93 12 46 63 -24 25 -25 28 -8 23
86 -25 165 -36 263 -36 103 0 112 -1 112 -19 0 -23 19 -31 76 -31 45 0 57 13
32 38 -17 17 291 4 312 -13 8 -7 32 -15 52 -19 30 -6 41 -3 59 15 21 21 27 22
196 17 l175 -5 31 -31 32 -32 -1016 0 -1015 0 -59 60 -59 60 328 0 c302 0 328
-1 322 -17z m2249 7 c-137 -3 -254 -2 -259 3 -6 4 107 6 250 5 l259 -2 -250
-6z m1328 -3 c7 -7 17 -22 23 -32 22 -42 136 -77 198 -61 14 3 34 16 45 27 11
12 21 16 25 10 4 -5 27 -13 51 -17 29 -4 45 -11 45 -20 0 -12 -71 -14 -442
-12 -244 2 -348 4 -233 5 200 3 211 4 227 24 10 12 15 26 12 31 -13 21 -82 43
-154 48 -65 6 -58 7 58 8 98 2 137 -1 145 -11z m-4516 -4 c-20 -2 -52 -2 -70
0 -17 2 0 4 38 4 39 0 53 -2 32 -4z m304 -30 c35 -37 23 -37 -18 0 -20 18 -30
37 -20 37 2 0 19 -16 38 -37z m3683 -65 c-3 -4 -71 -7 -152 -6 l-147 2 123 5
c107 5 126 9 138 25 8 11 14 29 14 41 0 12 3 25 8 29 8 9 24 -83 16 -96z
m-11572 35 c26 -26 48 -53 48 -60 0 -12 -45 29 -94 85 -35 41 -2 22 46 -25z
m11028 32 c0 -13 -28 -15 -217 -13 -162 2 -217 6 -221 16 -3 9 45 12 217 12
191 0 221 -2 221 -15z m710 2 c30 1 79 5 108 8 44 6 52 4 52 -9 0 -14 -19 -16
-150 -16 -132 0 -150 2 -150 16 0 14 6 15 43 8 23 -4 67 -8 97 -7z m214 7 c9
-3 16 -13 16 -21 0 -10 -6 -13 -16 -9 -9 3 -18 6 -20 6 -2 0 -4 7 -4 15 0 17
2 18 24 9z m-5299 -14 l30 -8 -35 -1 c-19 0 -42 4 -50 9 -12 8 -11 10 5 9 11
-1 34 -5 50 -9z m540 0 c4 -7 -64 -10 -197 -10 -135 0 -198 4 -188 10 20 13
377 13 385 0z m2358 -7 c-7 -2 -19 -2 -25 0 -7 3 -2 5 12 5 14 0 19 -2 13 -5z
m2467 -8 c0 -8 -4 -15 -10 -15 -5 0 -10 7 -10 15 0 8 5 15 10 15 6 0 10 -7 10
-15z m-1935 -5 c3 -5 -1 -10 -9 -10 -9 0 -16 5 -16 10 0 6 4 10 9 10 6 0 13
-4 16 -10z m2235 0 c0 -5 -4 -10 -10 -10 -5 0 -10 5 -10 10 0 6 5 10 10 10 6
0 10 -4 10 -10z m305 0 c4 -6 -8 -10 -29 -10 -20 0 -36 5 -36 10 0 6 13 10 29
10 17 0 33 -4 36 -10z m175 -6 c0 -8 -4 -12 -10 -9 -5 3 -10 10 -10 16 0 5 5
9 10 9 6 0 10 -7 10 -16z m110 -83 c0 -10 -9 -6 -28 14 -16 17 -37 35 -47 41
-12 6 -16 15 -11 23 6 9 19 3 47 -25 22 -21 39 -45 39 -53z m-4985 49 l64 -30
1032 0 1032 0 24 26 24 26 227 -4 c216 -3 228 -5 257 -26 l30 -22 948 0 c834
0 947 -2 947 -15 0 -13 -114 -15 -954 -15 -912 0 -954 1 -977 18 -21 17 -51
20 -241 26 l-218 6 -22 -25 -22 -25 -1053 0 -1054 0 -47 25 -47 25 -640 0
-640 0 -47 -25 -47 -25 -3211 0 c-2848 0 -3210 2 -3210 15 0 13 361 15 3199
15 l3199 0 64 30 63 30 628 0 628 0 64 -30z m4835 15 c11 -13 7 -15 -24 -15
-25 0 -36 4 -36 15 0 9 9 15 24 15 13 0 29 -7 36 -15z m-1762 -22 c-71 -2
-185 -2 -255 0 -71 1 -13 3 127 3 140 0 198 -2 128 -3z m-4040 -30 c-65 -2
-171 -2 -235 0 -65 1 -12 3 117 3 129 0 182 -2 118 -3z m387 -3 c14 -6 0 -9
-47 -9 -37 -1 -70 4 -73 9 -8 12 91 12 120 0z m5355 -25 c0 -9 -9 -15 -25 -15
-28 0 -45 -25 -45 -68 0 -16 -8 -40 -18 -53 l-19 -22 -34 25 c-19 14 -44 29
-56 32 -31 10 -73 45 -73 62 0 10 12 14 38 14 25 0 48 7 62 20 30 26 170 30
170 5z m323 3 c-2 -5 -3 -84 -3 -178 l0 -170 -25 0 -25 0 0 173 c0 96 3 177 7
181 9 9 49 3 46 -6z m-5963 -28 l0 -30 -655 0 c-576 0 -655 2 -655 15 0 13 48
15 368 15 289 1 373 4 397 15 23 10 92 14 288 14 l257 1 0 -30z m5710 -40 c0
-40 -4 -70 -10 -70 -6 0 -10 30 -10 70 0 40 4 70 10 70 6 0 10 -30 10 -70z
m170 -254 c-7 -7 -10 41 -10 150 0 89 3 164 8 168 4 4 8 -63 10 -150 1 -98 -1
-161 -8 -168z m-4742 299 c202 -5 242 -8 242 -21 0 -12 -82 -14 -595 -14 -537
0 -596 2 -602 16 -3 9 0 20 8 25 13 9 394 6 947 -6z m2950 0 c484 -5 562 -8
562 -20 0 -13 -192 -15 -1505 -15 -1331 0 -1505 2 -1505 15 0 13 82 15 678 16
372 1 691 5 707 9 17 4 136 6 265 4 129 -2 488 -6 798 -9z m-9010 -17 c-4 -10
-61 -13 -243 -13 -182 0 -239 3 -242 13 -4 9 49 12 242 12 193 0 246 -3 243
-12z m172 8 c0 -11 -19 -15 -25 -6 -3 5 1 10 9 10 9 0 16 -2 16 -4z m1468 -8
c-7 -19 -1299 -19 -1305 0 -4 9 131 12 652 12 521 0 656 -3 653 -12z m172 2
c0 -5 -4 -10 -9 -10 -6 0 -13 5 -16 10 -3 6 1 10 9 10 9 0 16 -4 16 -10z
m1468 -2 c-7 -19 -1299 -19 -1305 0 -4 9 131 12 652 12 521 0 656 -3 653 -12z
m177 2 c-3 -5 -13 -10 -21 -10 -8 0 -14 5 -14 10 0 6 9 10 21 10 11 0 17 -4
14 -10z m7295 -21 c0 -5 -7 -9 -15 -9 -15 0 -20 12 -9 23 8 8 24 -1 24 -14z
m-4630 -60 c0 -27 -2 -30 -15 -19 -8 7 -15 21 -15 31 0 11 7 19 15 19 10 0 15
-10 15 -31z m162 6 c-2 -14 -8 -25 -13 -25 -5 0 -9 -11 -9 -25 0 -22 -4 -25
-40 -25 l-40 0 0 50 0 50 54 0 c51 0 53 -1 48 -25z m308 -25 c0 -47 -2 -50
-25 -50 -22 0 -24 2 -15 26 6 14 10 36 10 50 0 15 6 24 15 24 11 0 15 -12 15
-50z m2843 43 c-13 -2 -35 -2 -50 0 -16 2 -5 4 22 4 28 0 40 -2 28 -4z m1337
-138 c0 -69 -2 -125 -5 -125 -2 0 -12 14 -20 30 -10 20 -26 33 -45 37 -33 6
-38 26 -21 79 5 16 12 46 16 67 5 34 8 37 40 37 l35 0 0 -125z m-1345 90 c0
-14 -8 -21 -27 -23 -24 -3 -28 0 -28 23 0 23 4 26 28 23 19 -2 27 -9 27 -23z
m-2940 -35 c-3 -5 -47 -10 -96 -10 -58 0 -88 4 -84 10 3 6 47 10 96 10 58 0
88 -4 84 -10z m40 0 c-3 -5 -11 -10 -16 -10 -6 0 -7 5 -4 10 3 6 11 10 16 10
6 0 7 -4 4 -10z m4191 -148 c15 -10 5 -82 -11 -82 -16 0 -26 38 -18 68 6 23
11 26 29 14z m154 -46 c0 -8 -61 -12 -66 -4 -3 4 11 8 30 8 20 0 36 -2 36 -4z
m-123 -38 c-3 -7 -5 -2 -5 12 0 14 2 19 5 13 2 -7 2 -19 0 -25z m113 -29 c0
-38 -24 -35 -28 4 -2 19 1 27 12 27 11 0 16 -10 16 -31z m-150 -49 c8 -11 26
-21 40 -22 23 -2 25 -6 22 -40 -5 -48 -26 -67 -50 -45 -16 15 -44 89 -56 147
l-5 25 17 -23 c9 -12 24 -32 32 -42z m40 20 c0 -5 -7 -10 -15 -10 -8 0 -15 5
-15 10 0 6 7 10 15 10 8 0 15 -4 15 -10z m124 -36 c10 -26 7 -53 -9 -84 -13
-26 -19 -29 -48 -23 -17 3 -33 7 -34 7 -1 1 7 28 19 59 17 46 25 57 43 57 13
0 26 -7 29 -16z"/>
<path d="M10517 1973 c-25 -24 20 -53 84 -53 46 0 64 24 34 46 -19 14 -106 19
-118 7z m93 -23 c11 -7 7 -10 -17 -10 -17 0 -35 5 -38 10 -8 13 35 13 55 0z"/>
<path d="M11548 1963 c-23 -6 -23 -26 0 -46 15 -14 40 -17 130 -17 104 0 112
1 112 19 0 36 -34 48 -133 49 -51 0 -100 -2 -109 -5z m170 -30 c-26 -2 -71 -2
-100 0 -29 2 -8 3 47 3 55 0 79 -1 53 -3z"/>
<path d="M11840 1954 c-11 -12 -11 -18 2 -31 19 -19 84 -32 127 -25 26 4 31 9
29 25 -2 12 -14 27 -28 34 -36 18 -115 17 -130 -3z m115 -14 l20 -9 -20 -1
c-35 -4 -70 1 -79 11 -13 11 52 11 79 -1z"/>
<path d="M12375 1956 c-41 -30 19 -66 110 -66 49 0 70 12 62 34 -15 39 -133
61 -172 32z m100 -26 c8 -13 -25 -13 -45 0 -12 8 -9 10 12 10 15 0 30 -4 33
-10z"/>
<path d="M10798 1943 c-10 -2 -18 -11 -18 -19 0 -34 122 -46 128 -12 2 12 -8
20 -35 27 -40 11 -47 12 -75 4z m57 -23 c3 -5 -3 -10 -14 -10 -12 0 -21 5 -21
10 0 6 6 10 14 10 8 0 18 -4 21 -10z"/>
<path d="M8235 1696 c-28 -21 -11 -46 46 -68 113 -44 243 8 147 58 -46 24
-167 30 -193 10z m95 -31 c-10 -12 -16 -13 -29 -3 -9 7 -18 14 -20 15 -2 2 10
3 29 3 28 0 31 -2 20 -15z m78 -14 c3 -8 -1 -12 -9 -9 -7 2 -15 10 -17 17 -3
8 1 12 9 9 7 -2 15 -10 17 -17z"/>
<path d="M8486 1694 c-25 -25 -4 -48 63 -69 67 -20 134 -16 159 9 14 14 14 17
-3 36 -36 40 -187 57 -219 24z m104 -23 c0 -19 -22 -23 -38 -7 -15 15 -14 16
11 16 15 0 27 -4 27 -9z m78 -19 c2 -7 -3 -12 -12 -12 -9 0 -16 7 -16 16 0 17
22 14 28 -4z"/>
</g>
</svg>
