<?xml version="1.0" standalone="no"?>
<!DOCTYPE svg PUBLIC "-//W3C//DTD SVG 20010904//EN"
 "http://www.w3.org/TR/2001/REC-SVG-20010904/DTD/svg10.dtd">
<svg version="1.0" xmlns="http://www.w3.org/2000/svg"
 width="200" height="15" viewBox="0 0 1121.000000 105.000000"
 preserveAspectRatio="none">

<g transform="translate(0.000000,105.000000) scale(0.100000,-0.100000)"
fill="#000000" stroke="none">
<path d="M5800 791 c-20 -4 -41 -11 -48 -15 -18 -11 -15 -66 5 -88 15 -17 12
-18 -93 -18 -76 -1 -117 -5 -134 -15 -21 -12 -403 -14 -2722 -15 l-2698 0 0
-23 c0 -14 17 -40 43 -65 l43 -42 400 0 c324 0 403 -3 419 -14 17 -11 340 -14
2030 -18 l2011 -3 38 -43 c38 -42 39 -42 106 -42 65 0 68 1 74 26 4 15 2 32
-5 40 -10 12 102 14 785 14 654 0 796 -2 796 -13 0 -8 11 -24 25 -37 25 -23
32 -24 168 -25 l142 0 3 38 3 37 1400 0 c1353 0 1399 -1 1399 -18 0 -46 80
-71 88 -28 6 28 27 46 55 46 16 0 26 7 30 20 5 19 14 20 184 20 l179 0 29 -30
c16 -16 34 -30 42 -30 7 0 28 -14 48 -31 41 -36 60 -33 69 11 l6 33 21 -27
c11 -14 27 -26 34 -26 10 0 12 -12 8 -54 -8 -80 13 -181 43 -201 34 -22 91
-20 104 5 9 17 10 182 1 466 -1 44 -18 83 -38 91 -9 4 -26 17 -38 30 -49 55
48 53 -2593 52 -1335 -1 -2443 -4 -2462 -8z m10 -21 c-13 -9 -12 -13 9 -30 28
-24 22 -25 -24 -6 -50 21 -43 41 15 45 13 1 13 0 0 -9z m1385 -12 c8 -19 19
-24 63 -26 41 -3 53 0 58 13 4 10 1 21 -7 26 -8 5 176 9 447 9 401 0 463 -2
468 -15 3 -10 19 -15 42 -15 28 0 35 3 30 15 -5 13 55 15 505 15 372 0 508 -3
503 -11 -9 -15 14 -29 48 -29 33 0 44 15 21 29 -13 7 179 10 625 11 l643 0 26
-30 c21 -25 32 -30 70 -30 l45 0 -16 25 -16 25 32 -7 c18 -3 42 -10 53 -16 19
-10 18 -11 -10 -23 -43 -18 -486 -20 -482 -1 1 7 -12 13 -35 15 -29 2 -38 0
-38 -12 0 -14 -212 -16 -2197 -15 -1209 1 -2187 4 -2173 6 14 3 29 9 34 13 12
12 -10 38 -37 43 -12 2 273 5 633 6 l655 1 10 -22z m100 2 c16 -7 11 -9 -20
-9 -22 0 -47 4 -55 9 -19 13 46 13 75 0z m-1385 -10 c11 -7 4 -10 -25 -10 -22
0 -47 5 -55 10 -11 7 -4 10 25 10 22 0 47 -5 55 -10z m4835 0 c4 -6 -6 -10
-24 -10 -16 0 -33 5 -36 10 -4 6 6 10 24 10 16 0 33 -4 36 -10z m-4884 -50
c12 0 19 -7 19 -20 0 -17 -4 -19 -27 -14 -54 13 -93 33 -93 48 0 13 5 13 41 1
23 -8 50 -15 60 -15z m79 -20 c0 -13 -7 -20 -20 -20 -13 0 -20 7 -20 20 0 13
7 20 20 20 13 0 20 -7 20 -20z m4920 6 c0 -16 -37 -29 -45 -16 -3 5 3 13 12
19 25 14 33 13 33 -3z m44 -18 c7 -38 6 -40 -16 -24 -11 8 -15 20 -11 34 8 31
19 27 27 -10z m-104 7 c0 -13 -276 -15 -2425 -15 -2149 0 -2425 2 -2425 15 0
13 276 15 2425 15 2149 0 2425 -2 2425 -15z m-5139 -24 c-19 -12 -7 -39 21
-51 22 -8 22 -9 2 -9 -11 -1 -35 15 -54 34 l-34 35 40 0 c26 0 35 -3 25 -9z
m147 2 c-10 -2 -28 -2 -40 0 -13 2 -5 4 17 4 22 1 32 -1 23 -4z m-208 -38 c29
-30 32 -37 20 -45 -24 -16 -34 -12 -70 25 -29 30 -32 37 -20 45 24 16 34 12
70 -25z m310 14 c0 -5 -18 -9 -40 -9 -26 0 -40 5 -40 13 0 9 12 11 40 9 22 -2
40 -8 40 -13z m-135 1 c4 -6 -16 -9 -49 -7 -31 1 -56 5 -56 10 0 11 98 9 105
-3z m348 3 c-7 -2 -19 -2 -25 0 -7 3 -2 5 12 5 14 0 19 -2 13 -5z m104 1 c-3
-3 -12 -4 -19 -1 -8 3 -5 6 6 6 11 1 17 -2 13 -5z m133 2 c0 -3 -4 -8 -10 -11
-5 -3 -10 -1 -10 4 0 6 5 11 10 11 6 0 10 -2 10 -4z m890 -6 c0 -12 -17 -12
-45 0 -17 7 -15 9 13 9 17 1 32 -3 32 -9z m40 0 c0 -5 -4 -10 -10 -10 -5 0
-10 5 -10 10 0 6 5 10 10 10 6 0 10 -4 10 -10z m598 3 c197 -5 232 -8 232 -21
0 -13 -27 -14 -212 -9 -116 4 -298 7 -405 7 -165 0 -193 2 -193 15 0 13 26 15
173 15 94 0 277 -3 405 -7z m312 -2 c0 -12 -20 -25 -27 -18 -7 7 6 27 18 27 5
0 9 -4 9 -9z m570 -11 c0 -16 -7 -20 -30 -20 -16 0 -30 2 -30 4 0 2 -3 11 -6
20 -5 13 1 16 30 16 29 0 36 -4 36 -20z m30 -1 c0 -11 -4 -17 -10 -14 -5 3
-10 13 -10 21 0 8 5 14 10 14 6 0 10 -9 10 -21z m1200 17 c0 -28 -16 -36 -71
-36 -52 0 -59 2 -59 20 0 18 7 20 65 20 36 0 65 -2 65 -4z m17 -28 c-3 -7 -5
-2 -5 12 0 14 2 19 5 13 2 -7 2 -19 0 -25z m203 16 c0 -12 -9 -14 -42 -12 -59
4 -63 28 -4 28 35 0 46 -4 46 -16z m230 -5 c0 -24 -23 -21 -28 4 -2 10 3 17
12 17 10 0 16 -9 16 -21z m-4630 1 c0 -5 -4 -10 -10 -10 -5 0 -10 5 -10 10 0
6 5 10 10 10 6 0 10 -4 10 -10z m158 3 c-10 -2 -26 -2 -35 0 -10 3 -2 5 17 5
19 0 27 -2 18 -5z m2172 -8 c0 -8 -4 -15 -10 -15 -5 0 -10 7 -10 15 0 8 5 15
10 15 6 0 10 -7 10 -15z m2660 5 c0 -6 -65 -10 -175 -10 -110 0 -175 4 -175
10 0 6 65 10 175 10 110 0 175 -4 175 -10z m66 -9 c17 -10 34 -28 37 -40 7
-27 -9 -27 -23 -1 -6 12 -22 25 -36 30 -13 5 -24 14 -24 20 0 15 11 12 46 -9z
m-8869 2 c-1258 -3 -1328 -4 -1325 -21 3 -16 78 -17 1356 -20 890 -1 1352 -5
1352 -12 0 -7 -541 -10 -1590 -10 l-1590 0 -38 35 -37 34 1600 -2 1600 -2
-1328 -2z m1396 0 c-7 -2 -21 -2 -30 0 -10 3 -4 5 12 5 17 0 24 -2 18 -5z
m1558 -2 c-38 -24 26 -57 95 -49 39 4 44 33 7 46 -27 10 -26 10 16 11 24 1 41
-2 38 -6 -17 -16 27 -43 70 -43 47 0 48 2 33 31 -10 18 -6 19 138 19 l148 0
27 -28 c15 -15 27 -31 27 -35 0 -11 -2123 -8 -2140 3 -10 6 175 10 533 10 479
0 547 2 547 15 0 8 -1 16 -2 17 -2 2 -244 5 -538 8 l-535 5 775 3 c452 1 769
-2 761 -7z m1267 2 c-10 -2 -28 -2 -40 0 -13 2 -5 4 17 4 22 1 32 -1 23 -4z
m183 -10 c13 -16 12 -17 -3 -4 -10 7 -18 15 -18 17 0 8 8 3 21 -13z m470 3
c-19 -23 15 -41 78 -41 44 0 56 3 59 16 2 11 -7 21 -25 27 -28 10 -28 10 10
11 20 1 37 -4 37 -10 0 -23 30 -39 74 -39 50 0 51 1 35 32 -10 19 -9 20 28 14
21 -4 71 -9 111 -12 52 -5 72 -10 72 -20 0 -9 12 -14 35 -14 25 0 35 5 35 15
0 13 13 14 88 9 48 -4 91 -10 97 -15 12 -12 52 -11 60 1 4 6 53 10 114 10 95
0 110 -2 126 -20 18 -20 17 -20 -704 -20 l-721 0 -38 35 -37 34 239 1 c201 0
237 -2 227 -14z m1381 -12 c12 -14 30 -30 42 -34 14 -6 16 -9 5 -9 -8 -1 -30
15 -49 34 -19 19 -30 35 -26 35 5 0 17 -12 28 -26z m1029 12 c-19 -23 15 -41
78 -41 44 0 56 3 59 16 2 11 -7 21 -25 27 -27 10 -26 10 15 11 24 1 41 -3 38
-8 -6 -9 30 -45 54 -54 8 -3 -74 -6 -184 -6 -169 -1 -197 1 -187 13 9 11 6 18
-15 35 l-27 21 103 0 c85 0 101 -2 91 -14z m779 -21 l0 -35 -87 2 -88 2 74 3
c71 4 73 5 84 33 15 38 17 38 17 -5z m327 9 c16 -21 30 -28 71 -32 31 -3 57 0
66 7 14 12 76 4 76 -10 0 -5 -62 -9 -137 -9 -99 1 -133 4 -120 11 25 15 21 36
-10 47 l-28 10 32 1 c23 1 36 -6 50 -25z m-10237 -19 c19 -19 32 -35 29 -35
-3 0 -20 16 -39 35 -19 19 -32 35 -29 35 3 0 20 -16 39 -35z m8415 25 c4 -6
-45 -10 -139 -10 -91 0 -146 4 -146 10 0 6 53 10 139 10 83 0 142 -4 146 -10z
m265 -20 l0 -30 -89 0 c-50 0 -92 3 -94 8 -3 4 -1 16 3 26 6 19 7 19 13 -2 5
-22 10 -23 79 -20 67 3 73 5 76 26 5 32 12 27 12 -8z m220 20 c0 -6 -40 -10
-100 -10 -60 0 -100 4 -100 10 0 6 40 10 100 10 60 0 100 -4 100 -10z m685 0
c4 -6 -40 -10 -124 -10 -81 0 -131 4 -131 10 0 6 48 10 124 10 73 0 127 -4
131 -10z m405 -6 c0 -2 -15 -4 -32 -4 -23 0 -29 3 -19 9 12 8 51 4 51 -5z
m110 6 c0 -5 -10 -10 -22 -10 -19 0 -20 2 -8 10 19 13 30 13 30 0z m-5240 -4
c0 -11 -19 -15 -25 -6 -3 5 1 10 9 10 9 0 16 -2 16 -4z m928 -3 c-27 -2 -69
-2 -95 0 -27 2 -5 3 47 3 52 0 74 -1 48 -3z m200 0 c-16 -2 -40 -2 -55 0 -16
2 -3 4 27 4 30 0 43 -2 28 -4z m792 -3 c0 -5 -2 -10 -4 -10 -3 0 -8 5 -11 10
-3 6 -1 10 4 10 6 0 11 -4 11 -10z m2410 0 c0 -5 -2 -10 -4 -10 -3 0 -8 5 -11
10 -3 6 -1 10 4 10 6 0 11 -4 11 -10z m995 0 c18 -8 18 -9 -5 -9 -14 0 -34 4
-45 9 -18 8 -18 9 5 9 14 0 34 -4 45 -9z m496 -37 l24 -26 -27 19 c-15 10 -28
22 -28 27 0 12 5 8 31 -20z m-4391 2 c21 -12 143 -14 766 -15 676 0 742 1 748
16 6 15 24 16 146 12 89 -3 145 -9 152 -16 9 -9 297 -12 1185 -12 775 0 1173
-3 1173 -10 0 -7 -396 -10 -1168 -10 -1012 0 -1171 2 -1188 15 -28 21 -276 21
-294 0 -11 -13 -107 -15 -752 -15 -719 0 -740 1 -778 20 -37 19 -59 20 -405
20 -346 0 -368 -1 -405 -20 -39 -20 -59 -20 -2730 -20 -1787 0 -2690 3 -2690
10 0 7 904 10 2693 10 2315 1 2696 3 2717 15 37 21 793 21 830 0z m4323 8 c-7
-2 -21 -2 -30 0 -10 3 -4 5 12 5 17 0 24 -2 18 -5z m-4606 -30 c-98 -2 -256
-2 -350 0 -95 1 -14 3 178 2 193 0 270 -1 172 -2z m4761 -110 c-2 -74 -7 -108
-15 -111 -10 -3 -13 23 -13 107 0 93 2 111 15 111 13 0 15 -16 13 -107z m-205
90 c-16 -3 -23 -12 -23 -27 0 -12 -6 -30 -13 -40 -12 -16 -15 -15 -60 9 -78
44 -59 61 68 62 28 0 40 -2 28 -4z m54 -55 c-2 -13 -4 -3 -4 22 0 25 2 35 4
23 2 -13 2 -33 0 -45z m-9347 42 c0 -6 -55 -10 -145 -10 -90 0 -145 4 -145 10
0 6 55 10 145 10 90 0 145 -4 145 -10z m970 0 c0 -6 -137 -10 -390 -10 -253 0
-390 4 -390 10 0 6 137 10 390 10 253 0 390 -4 390 -10z m975 0 c4 -7 -127
-10 -384 -10 -254 0 -391 4 -391 10 0 6 135 10 384 10 246 0 387 -4 391 -10z
m975 0 c0 -6 -137 -10 -390 -10 -253 0 -390 4 -390 10 0 6 137 10 390 10 253
0 390 -4 390 -10z m5800 0 c0 -7 -955 -10 -2845 -10 -1890 0 -2845 3 -2845 10
0 7 955 10 2845 10 1890 0 2845 -3 2845 -10z m-3260 -46 c0 -8 -4 -12 -10 -9
-5 3 -10 10 -10 16 0 5 5 9 10 9 6 0 10 -7 10 -16z m87 -14 c-8 -21 -18 -30
-34 -30 -19 0 -23 5 -23 30 0 27 3 30 34 30 34 0 34 0 23 -30z m193 0 c0 -21
-5 -30 -16 -30 -9 0 -14 6 -11 13 2 6 0 20 -5 30 -7 13 -4 17 12 17 16 0 20
-6 20 -30z m3689 -57 c0 -64 -2 -74 -11 -55 -6 12 -15 22 -20 22 -4 0 -8 22
-8 49 0 39 4 51 18 54 9 3 18 5 20 6 1 0 2 -34 1 -76z m-799 52 c0 -8 -7 -15
-15 -15 -8 0 -15 7 -15 15 0 8 7 15 15 15 8 0 15 -7 15 -15z m-2960 -10 c0
-11 -12 -15 -50 -15 -46 0 -60 7 -43 23 3 4 26 7 50 7 32 0 43 -4 43 -15z
m-1920 1 c0 -3 -4 -8 -10 -11 -5 -3 -10 -1 -10 4 0 6 5 11 10 11 6 0 10 -2 10
-4z m75 -6 c-3 -5 -19 -10 -36 -10 -16 0 -29 5 -29 10 0 6 16 10 36 10 21 0
33 -4 29 -10z m5622 -82 c-3 -8 -6 -5 -6 6 -1 11 2 17 5 13 3 -3 4 -12 1 -19z
m-50 -45 c-3 -10 -5 -4 -5 12 0 17 2 24 5 18 2 -7 2 -21 0 -30z m96 0 c-7 -2
-21 -2 -30 0 -10 3 -4 5 12 5 17 0 24 -2 18 -5z m-3 -28 c0 -8 -4 -15 -10 -15
-5 0 -10 7 -10 15 0 8 5 15 10 15 6 0 10 -7 10 -15z m-60 -75 c0 -10 -5 -22
-11 -26 -14 -8 -29 14 -29 44 0 20 3 21 20 12 11 -6 20 -19 20 -30z m60 10 c0
-18 -6 -33 -15 -36 -25 -10 -32 0 -23 34 11 42 38 43 38 2z"/>
<path d="M8677 763 c-4 -3 -2 -12 4 -20 16 -19 149 -18 149 1 0 8 -7 17 -16
20 -21 8 -129 8 -137 -1z"/>
<path d="M9932 753 c3 -15 16 -18 81 -21 42 -2 77 1 77 6 0 22 -29 32 -93 32
-60 0 -68 -2 -65 -17z"/>
<path d="M10110 755 c0 -20 47 -38 77 -30 26 6 31 30 7 39 -32 12 -84 7 -84
-9z m65 -5 c13 -5 14 -9 5 -9 -8 0 -24 4 -35 9 -13 5 -14 9 -5 9 8 0 24 -4 35
-9z"/>
<path d="M10405 760 c-11 -19 22 -40 62 -40 31 0 55 22 40 37 -13 13 -95 15
-102 3z m62 -16 c-3 -3 -12 -4 -19 -1 -8 3 -5 6 6 6 11 1 17 -2 13 -5z"/>
<path d="M4654 599 c-12 -21 20 -29 119 -29 76 0 97 3 97 14 0 8 -7 17 -16 20
-28 11 -192 7 -200 -5z m146 -9 c0 -5 -22 -10 -50 -10 -27 0 -50 5 -50 10 0 6
23 10 50 10 28 0 50 -4 50 -10z m47 -6 c-3 -3 -12 -4 -19 -1 -8 3 -5 6 6 6 11
1 17 -2 13 -5z"/>
</g>
</svg>
