<svg width="40" height="200" viewBox="0 0 220 2800" preserveAspectRatio="none" fill="#000000" xmlns="http://www.w3.org/2000/svg">
<path d="M0.757408 5.59425C2.34735 4.50269 23.7504 4.36624 25.3404 5.32136C26.0742 5.86714 26.6857 7.77737 26.6857 9.6876C26.6857 12.1436 27.2972 12.9623 29.4987 12.9623C31.0886 12.9623 32.8009 13.5081 33.5347 14.3267C34.2685 15.1454 59.5853 15.8276 99.4562 16.1005C135.169 16.237 165.622 17.0556 167.212 17.6014C169.781 18.693 169.903 18.5565 168.802 16.237C168.191 14.8725 167.457 10.6427 167.212 6.82225L166.723 0L174.673 0.54578C179.076 0.81867 182.989 1.22801 183.601 1.63734C184.09 1.91023 184.457 3.95691 184.457 6.14003C184.457 9.55115 184.946 10.0969 188.371 10.5063L192.407 10.9156L192.04 18.4201C191.673 24.9694 192.04 26.3339 194.73 29.1992L197.91 32.4739V814.85L197.91 1597.09H202.191C207.572 1597.09 210.385 1601.46 210.508 1610.46C210.63 1621.24 209.529 1623.01 203.414 1623.01H198.033L197.666 1692.33C197.299 1755.64 197.177 1761.78 195.097 1765.05C193.018 1768.46 193.141 1768.6 195.464 1771.06C197.91 1773.51 197.91 1774.74 197.91 2187.49V2601.32H202.191C207.695 2601.32 210.63 2605.96 210.63 2614.83C210.63 2624.11 208.673 2627.25 202.802 2627.25H197.91V2694.79V2762.33H195.097C193.385 2762.33 190.328 2760.01 187.27 2756.6C182.5 2751.28 182.133 2750.05 181.766 2742.55C181.399 2734.63 181.277 2734.5 177.363 2733.54C175.04 2732.99 171.615 2730.95 169.658 2728.76C166.478 2725.35 166.111 2724.13 166.111 2716.35C166.111 2708.43 166.356 2707.62 169.047 2706.11C171.493 2705.02 172.96 2705.16 176.385 2706.93C178.586 2708.16 180.91 2709.12 181.277 2709.12C181.644 2709.12 182.011 2694.79 182.011 2677.32C182.011 2647.17 181.889 2645.26 179.565 2642.94C177.119 2640.48 177.119 2638.71 177.119 2303.6C177.119 2013.25 176.874 1966.86 175.407 1966.86C174.428 1966.86 171.86 1964.95 169.781 1962.63C166.234 1958.53 165.989 1957.85 166.356 1949.39C166.723 1940.93 166.845 1940.38 170.147 1939.43C172.471 1938.75 174.061 1939.02 175.284 1940.52C176.874 1942.3 177.119 1939.57 177.119 1916.92C177.119 1892.77 176.996 1891.13 174.55 1888.26C171.982 1885.26 171.982 1884.85 172.104 1797.12C172.227 1712.66 172.349 1708.56 174.673 1702.02C177.119 1695.33 177.119 1690.69 177.119 1350.81C177.119 1068.5 176.874 1006.28 175.529 1006.28C174.673 1006.28 172.227 1004.24 170.025 1001.78C166.478 997.686 166.111 996.458 166.111 988.817C166.111 981.995 166.478 980.221 168.435 978.993C171.737 977.083 175.529 977.219 176.263 979.403C176.63 980.221 176.996 832.315 176.996 650.706L177.119 320.373L173.45 310.412L169.781 300.452V271.526C169.781 248.876 169.414 241.508 167.946 237.687C165.378 230.865 165.378 209.034 167.946 206.714C169.536 205.213 169.781 198.391 169.781 160.869V116.661H173.45L177.119 116.661V79.9568C177.119 57.9891 176.63 41.7522 175.896 39.2962C173.327 31.2459 175.162 31.3824 90.2834 31.1095C47.5996 30.973 11.0309 30.8366 9.19634 30.8366C6.75027 30.7001 5.89415 30.1544 6.13875 28.3806C6.38336 26.8797 5.40493 25.7881 3.44808 25.2423C0.635105 24.5601 0.390498 23.7414 0.0235881 15.4183C-0.0987152 10.3698 0.268195 6.00358 0.757408 5.59425ZM13.477 11.3249C22.6497 11.052 24.8512 10.5063 24.8512 8.86893C24.8512 7.23159 22.6497 6.68581 13.477 6.41292C2.83656 6.00358 2.22505 6.14003 2.22505 8.86893C2.22505 11.5978 2.83656 11.7343 13.477 11.3249ZM124.161 26.1974C145.565 26.061 128.075 25.9246 85.3913 25.9246C42.7074 25.9246 25.2181 26.061 46.4988 26.1974C67.9019 26.4703 102.881 26.4703 124.161 26.1974ZM21.1821 22.5134L31.5778 22.5134V18.4201V14.3267L21.1821 14.3267L10.7863 14.3267V18.4201V22.5134L21.1821 22.5134ZM129.665 23.4685C147.399 23.3321 132.967 23.1957 97.6216 23.1957C62.276 23.1957 47.8442 23.3321 65.4559 23.4685C83.1898 23.7414 112.053 23.7414 129.665 23.4685ZM94.6863 21.149C95.6648 21.149 96.154 20.6032 95.7871 19.7845C95.4202 19.1023 94.564 18.4201 93.8302 18.4201C93.2187 18.4201 92.7295 19.1023 92.7295 19.7845C92.7295 20.6032 93.5856 21.149 94.6863 21.149ZM102.758 20.7396C103.614 20.3303 103.003 20.0574 101.291 20.0574C99.5785 20.0574 98.967 20.3303 99.7008 20.7396C100.557 21.0125 102.025 21.0125 102.758 20.7396ZM111.197 20.8761C112.176 20.4668 111.564 19.921 109.974 19.3752C107.895 18.8294 107.406 18.9659 108.384 20.0574C108.996 20.7396 110.341 21.149 111.197 20.8761ZM156.45 21.149C157.795 21.149 158.529 20.6032 158.162 19.7845C157.795 19.1023 156.327 18.4201 154.982 18.4201C153.637 18.4201 152.903 19.1023 153.27 19.7845C153.637 20.6032 155.104 21.149 156.45 21.149ZM166.111 21.8312C168.924 22.5134 170.025 22.377 169.169 21.4219C168.435 20.7396 165.989 19.6481 163.665 19.1023C160.852 18.4201 159.752 18.5565 160.608 19.5116C161.219 20.1939 163.788 21.2854 166.111 21.8312ZM168.068 224.043C168.435 223.633 168.558 222.405 168.191 221.45C167.824 220.359 167.457 220.768 167.457 222.269C167.335 223.77 167.701 224.589 168.068 224.043ZM169.781 218.312C170.759 220.768 170.881 220.768 170.881 217.63C170.881 215.72 170.392 213.264 169.781 212.172C168.802 210.535 168.558 210.535 168.68 212.854C168.68 214.355 169.169 216.811 169.781 218.312ZM169.414 232.366C169.658 231.001 169.658 228.818 169.414 227.59C169.047 226.226 168.802 227.317 168.802 229.91C168.802 232.502 169.047 233.594 169.414 232.366ZM177.608 986.225C184.579 984.724 183.723 983.496 174.795 981.859L168.435 980.767L171.126 983.905C173.205 986.361 174.55 986.907 177.608 986.225ZM171.86 15.4183L173.939 20.4668L174.55 15.009C175.162 10.7792 175.773 9.6876 177.363 9.96049C178.709 10.2334 179.565 9.55115 179.565 8.1867C179.565 6.68581 178.22 6.14003 174.673 6.14003C169.047 6.14003 168.68 7.50448 171.86 15.4183ZM170.637 994.411C170.881 993.456 170.881 991.546 170.637 990.318C170.27 988.954 170.025 989.772 170.025 991.955C170.025 994.275 170.27 995.23 170.637 994.411ZM170.637 1954.98C170.881 1954.03 170.881 1952.12 170.637 1950.89C170.27 1949.53 170.025 1950.35 170.025 1952.53C170.025 1954.85 170.27 1955.8 170.637 1954.98ZM170.637 2721.81C170.881 2720.85 170.881 2718.94 170.637 2717.71C170.27 2716.35 170.025 2717.17 170.025 2719.35C170.025 2721.67 170.27 2722.62 170.637 2721.81ZM173.45 125.939C175.407 127.303 175.896 127.303 175.896 125.802C175.896 124.711 174.795 122.801 173.45 121.436C171.126 118.98 171.004 119.117 171.004 121.573C171.004 123.073 172.104 124.984 173.45 125.939ZM171.86 148.316C172.349 146.951 172.838 146.951 174.183 148.179C175.651 149.544 175.896 148.725 175.896 143.54C175.896 138.082 175.529 137.264 173.45 137.537C171.371 137.673 171.004 138.628 171.126 143.95C171.126 147.361 171.493 149.271 171.86 148.316ZM171.86 164.007C172.227 163.461 173.327 163.734 174.306 164.553C175.529 165.781 175.896 165.235 175.896 161.824C175.896 159.231 175.407 157.73 174.673 158.276C173.939 158.686 172.96 157.73 172.349 155.957C171.371 153.364 171.126 153.774 171.126 158.822C171.004 162.097 171.371 164.416 171.86 164.007ZM171.737 226.772C172.104 226.362 172.227 225.134 171.86 224.179C171.493 223.088 171.126 223.497 171.126 224.998C171.004 226.499 171.371 227.317 171.737 226.772ZM173.45 300.179C175.896 302.635 175.896 302.499 175.896 295.676C175.896 290.355 175.284 287.899 173.45 285.852L171.004 283.123V290.355C171.004 295.949 171.615 298.269 173.45 300.179ZM180.176 2712.66C183.356 2712.12 185.68 2711.44 185.435 2711.3C185.313 2711.03 181.766 2710.34 177.73 2709.8C170.881 2708.98 170.514 2708.98 172.471 2711.16C174.061 2713.07 175.651 2713.35 180.176 2712.66ZM173.083 134.808C173.327 133.853 173.327 131.942 173.083 130.714C172.716 129.35 172.471 130.169 172.471 132.352C172.471 134.671 172.716 135.626 173.083 134.808ZM173.45 206.032C174.183 206.578 174.673 200.165 174.673 187.748C174.673 175.878 174.183 168.51 173.45 168.51C172.716 168.51 172.227 175.468 172.227 186.793C172.227 197.572 172.716 205.486 173.45 206.032ZM173.45 277.666C174.183 277.666 174.673 270.843 174.673 259.928C174.673 249.012 174.183 242.19 173.45 242.19C172.716 242.19 172.227 249.012 172.227 259.928C172.227 270.843 172.716 277.666 173.45 277.666ZM174.183 284.488C174.428 284.488 174.673 283.26 174.673 281.759C174.673 280.258 174.183 279.03 173.572 279.03C172.96 279.03 172.716 280.258 173.083 281.759C173.45 283.26 173.939 284.488 174.183 284.488ZM173.083 993.047C173.327 992.092 173.327 990.455 173.083 989.636C172.716 988.681 172.471 989.363 172.471 991.273C172.471 993.183 172.716 993.866 173.083 993.047ZM173.083 1001.23C173.327 1000.28 173.327 998.641 173.083 997.823C172.716 996.868 172.471 997.55 172.471 999.46C172.471 1001.37 172.716 1002.05 173.083 1001.23ZM173.083 1877.21C173.327 1876.26 173.327 1874.35 173.083 1873.12C172.716 1871.75 172.471 1872.57 172.471 1874.75C172.471 1877.07 172.716 1878.03 173.083 1877.21ZM178.464 1947.75C179.687 1947.75 180.91 1947.21 181.277 1946.53C182.011 1945.3 177.975 1943.66 174.061 1943.66C171.615 1943.8 171.615 1943.8 173.939 1945.71C175.284 1946.8 177.363 1947.75 178.464 1947.75ZM178.709 123.483C179.443 123.483 178.953 122.255 177.73 120.754C176.507 119.253 174.917 118.025 174.306 118.025C173.572 118.025 174.061 119.253 175.284 120.754C176.507 122.255 178.097 123.483 178.709 123.483ZM174.306 155.274C174.55 154.319 174.55 152.682 174.306 151.863C173.939 150.908 173.694 151.59 173.694 153.501C173.694 155.411 173.939 156.093 174.306 155.274ZM174.673 236.732C175.407 236.732 175.896 232.912 175.896 227.863C175.896 222.815 175.407 218.994 174.673 218.994C173.939 218.994 173.45 222.815 173.45 227.863C173.45 232.912 173.939 236.732 174.673 236.732ZM180.299 321.328C181.644 322.693 181.399 321.328 179.565 316.553C178.097 312.868 176.14 308.775 175.162 307.684C173.817 306.319 174.061 307.684 175.896 312.459C177.363 316.28 179.32 320.237 180.299 321.328ZM175.162 1868.61C176.14 1868.61 177.241 1869.43 177.486 1870.39C177.853 1871.21 178.22 1862.61 178.22 1851.15C178.342 1836.14 177.975 1830.55 176.996 1831.23C176.263 1831.64 175.162 1831.23 174.55 1830.27C173.939 1829.18 173.45 1836.55 173.45 1848.56C173.45 1864.93 173.817 1868.61 175.162 1868.61ZM175.896 1887.03C178.342 1889.49 178.342 1889.35 178.342 1885.26C178.342 1881.85 177.975 1881.3 175.896 1881.85C174.55 1882.26 173.45 1883.08 173.45 1883.62C173.45 1884.17 174.55 1885.67 175.896 1887.03ZM175.896 1822.22C176.63 1822.22 177.119 1803.53 177.119 1769.01C177.119 1719.07 177.241 1715.52 179.565 1708.97C182.133 1701.74 182.867 1691.24 180.788 1691.24C180.054 1691.24 179.565 1693.28 179.443 1695.74C179.443 1698.06 178.464 1702.83 177.119 1706.25C175.162 1711.84 174.917 1717.3 174.795 1767.37C174.673 1803.12 175.04 1822.22 175.896 1822.22ZM175.896 1828.36C176.507 1828.77 177.119 1827.95 177.119 1826.45C177.119 1824.82 176.507 1823.59 175.896 1823.59C175.162 1823.59 174.673 1824.41 174.673 1825.5C174.673 1826.59 175.162 1827.95 175.896 1828.36ZM179.809 996.458C182.745 996.868 183.234 996.458 183.234 993.456C183.234 990.455 182.745 989.909 179.443 989.909C176.263 989.909 175.773 990.318 176.14 993.047C176.385 995.23 177.486 996.185 179.809 996.458ZM179.687 1005.19C182.989 1005.74 183.356 1005.46 182.989 1002.33C182.745 999.596 181.889 998.641 179.198 998.368C176.385 997.959 175.896 998.368 175.896 1001.23C175.896 1003.96 176.63 1004.78 179.687 1005.19ZM179.198 1961.12C181.644 1961.53 182.011 1960.99 182.011 1956.76C182.011 1954.03 181.522 1951.85 180.91 1951.85C180.299 1951.85 178.831 1951.44 177.73 1951.03C176.018 1950.21 175.773 1951.03 176.14 1955.39C176.385 1959.76 176.996 1960.85 179.198 1961.12ZM179.687 1965.49C181.766 1965.49 183.112 1964.95 182.622 1964.13C182.256 1963.44 180.543 1962.76 178.831 1962.76C177.241 1962.76 175.896 1963.44 175.896 1964.13C175.896 1964.95 177.608 1965.49 179.687 1965.49ZM179.076 2727.26C181.889 2727.81 182.133 2727.54 181.766 2722.9C181.522 2718.94 180.788 2717.85 178.586 2717.58C176.263 2717.17 175.896 2717.71 175.896 2721.81C175.896 2725.76 176.385 2726.58 179.076 2727.26ZM178.953 2731.77C181.766 2732.58 184.457 2731.77 183.112 2730.4C181.644 2729.04 175.896 2728.36 175.896 2729.58C175.896 2730.27 177.241 2731.22 178.953 2731.77ZM179.076 24.6966C181.522 30.2908 184.09 32.201 187.515 30.5637C189.594 29.745 189.594 29.4721 187.759 29.4721C185.313 29.3357 184.946 27.1526 187.148 26.1974C188.126 25.7881 187.759 25.3788 186.414 25.3788C184.579 25.2423 184.457 24.833 185.68 23.1957C186.903 21.5583 186.903 21.149 185.191 21.149C184.09 21.149 183.234 20.6032 183.234 19.921C183.234 19.3752 184.702 19.1023 186.414 19.5116C188.86 20.0574 189.471 19.6481 189.105 18.2836C188.738 17.0556 186.414 16.237 182.867 15.9641C176.263 15.4183 175.773 16.7827 179.076 24.6966ZM179.565 217.63C182.011 217.63 182.011 216.675 182.011 171.239C182.011 125.802 182.011 124.847 179.565 124.847C177.119 124.847 177.119 125.802 177.119 171.239C177.119 216.675 177.119 217.63 179.565 217.63ZM182.011 238.097H187.025L186.658 229.637L186.292 221.041L181.644 220.222L177.119 219.404V228.818V238.097L182.011 238.097ZM180.788 314.233L184.457 324.876V1015.29C184.457 1702.7 184.457 1705.84 182.011 1713.75C179.687 1721.39 179.565 1725.21 179.565 1806.12C179.565 1880.21 179.809 1890.45 181.399 1890.45C182.989 1890.45 183.234 1880.08 183.234 1805.85V1721.25L186.292 1712.25L189.349 1703.24L189.349 1015.29L189.227 327.468L185.68 317.235L182.011 307.001V273.299C182.011 240.416 181.889 239.461 179.565 239.461C177.241 239.461 177.119 240.416 177.119 271.526V303.727L180.788 314.233ZM180.421 36.2944C182.378 38.0682 182.5 37.9317 180.91 35.885C179.32 33.5655 178.342 32.8833 178.342 33.9748C178.342 34.2477 179.32 35.3393 180.421 36.2944ZM179.687 448.768C180.421 448.358 181.522 448.768 182.133 449.723C182.745 450.814 183.234 425.436 183.234 389.414C183.234 328.969 183.112 327.195 180.788 324.739C178.342 322.283 178.342 322.42 178.342 386.003C178.342 432.394 178.709 449.45 179.687 448.768ZM179.687 724.387C180.421 723.977 181.522 724.387 182.133 725.342C182.745 726.433 183.234 715.108 183.234 697.78C183.234 672.674 182.989 668.035 181.399 667.353C180.299 666.943 179.565 664.897 179.565 662.441C179.565 659.712 180.176 658.347 181.399 658.347C182.989 658.347 183.234 653.435 183.234 622.189C183.234 587.805 183.112 585.895 180.788 583.303L178.342 580.574V653.026C178.342 705.694 178.709 725.069 179.687 724.387ZM179.687 919.503C180.421 919.094 181.522 919.503 182.133 920.458C182.745 921.55 183.234 909.816 183.234 892.078C183.234 863.424 183.112 861.514 180.788 858.922L178.342 856.193V888.394C178.342 911.589 178.709 920.185 179.687 919.503ZM179.198 1169.61C179.565 1169.06 180.666 1169.33 181.644 1170.15C182.989 1171.52 183.234 1162.1 183.234 1114.21C183.234 1058.54 183.112 1056.63 180.788 1054.04L178.342 1051.31V1110.94C178.342 1143.68 178.709 1170.02 179.198 1169.61ZM179.687 1420.26C180.421 1419.85 181.522 1420.26 182.133 1421.21C182.745 1422.3 183.234 1398.29 183.234 1364.18C183.234 1314.1 182.989 1305.1 181.522 1305.1C180.543 1305.1 179.443 1304.28 179.198 1303.46C178.831 1302.5 178.464 1328.57 178.464 1361.45C178.342 1404.97 178.709 1420.94 179.687 1420.26ZM179.198 1602.14C179.565 1601.59 180.666 1601.86 181.644 1602.68C182.989 1604.05 183.234 1597.5 183.234 1563.8C183.234 1538.83 182.745 1523.55 182.133 1524.09C181.399 1524.5 180.421 1523.68 179.687 1522.45C178.831 1520.68 178.464 1532.28 178.342 1561.48C178.342 1584.26 178.709 1602.55 179.198 1602.14ZM179.565 1613.46C180.421 1614.96 180.788 1614.42 180.788 1611.14C180.788 1608.69 180.176 1606.64 179.565 1606.64C177.975 1606.64 177.975 1610.73 179.565 1613.46ZM179.198 1685.37C179.565 1684.82 180.666 1685.1 181.644 1685.91C182.989 1687.28 183.234 1681.69 183.234 1653.3C183.234 1620.42 183.112 1619.19 180.788 1618.51C178.342 1617.83 178.342 1618.51 178.342 1652.08C178.342 1670.91 178.709 1685.78 179.198 1685.37ZM180.176 2099.75C181.277 2100.16 182.011 2102.21 182.011 2104.8C182.011 2108.08 181.522 2108.89 180.176 2108.21C178.586 2107.53 178.342 2110.94 178.342 2133.45C178.342 2152.15 178.709 2159.11 179.687 2158.42C180.421 2158.01 181.522 2158.42 182.133 2159.38C182.745 2160.47 183.234 2132.91 183.234 2094.16C183.234 2036.99 182.989 2026.89 181.522 2026.89C180.543 2026.89 179.443 2026.07 179.198 2025.25C178.831 2024.3 178.464 2040.4 178.464 2061.14C178.342 2093.48 178.586 2099.07 180.176 2099.75ZM180.788 2424.36C183.234 2425.04 183.234 2424.36 183.234 2358.86C183.234 2318.06 182.745 2293.1 182.133 2293.64C181.399 2294.05 180.421 2293.23 179.687 2292C178.831 2290.23 178.464 2309.88 178.342 2356.54C178.342 2422.45 178.342 2423.67 180.788 2424.36ZM180.054 2605.42C181.032 2605.42 182.133 2606.24 182.378 2607.19C182.745 2608.01 183.112 2590.55 183.112 2568.31C183.234 2533.92 182.989 2527.64 181.522 2527.64C180.543 2527.64 179.443 2526.55 179.198 2525.32C178.831 2523.96 178.586 2541.43 178.464 2564.21C178.342 2598.87 178.586 2605.42 180.054 2605.42ZM179.565 2617.02C180.421 2619.34 180.666 2619.06 180.666 2615.38C180.788 2612.92 180.176 2610.88 179.565 2610.88C178.097 2610.88 178.097 2613.2 179.565 2617.02ZM180.788 2641.58C183.234 2644.03 183.234 2643.9 183.234 2633.8C183.234 2624.66 182.989 2623.43 180.788 2622.75C178.586 2622.06 178.342 2622.75 178.342 2630.52C178.342 2637.35 178.831 2639.67 180.788 2641.58ZM180.788 575.116C181.644 575.116 182.011 553.967 182.011 514.398C182.011 474.829 181.644 453.68 180.788 453.68C179.932 453.68 179.565 474.829 179.565 514.398C179.565 553.967 179.932 575.116 180.788 575.116ZM181.522 581.938C181.766 581.938 182.011 580.71 182.011 579.209C182.011 577.708 181.522 576.48 180.91 576.48C180.299 576.48 180.054 577.708 180.421 579.209C180.788 580.71 181.277 581.938 181.522 581.938ZM180.788 850.735C181.644 850.735 182.011 829.586 182.011 790.017C182.011 750.448 181.644 729.299 180.788 729.299C179.932 729.299 179.565 750.448 179.565 790.017C179.565 829.586 179.932 850.735 180.788 850.735ZM181.522 857.557C181.766 857.557 182.011 856.329 182.011 854.828C182.011 853.327 181.522 852.099 180.91 852.099C180.299 852.099 180.054 853.327 180.421 854.828C180.788 856.329 181.277 857.557 181.522 857.557ZM180.788 981.722C181.522 981.722 182.011 971.216 182.011 953.069C182.011 934.921 181.522 924.415 180.788 924.415C180.054 924.415 179.565 934.921 179.565 953.069C179.565 971.216 180.054 981.722 180.788 981.722ZM180.788 1045.85C181.522 1045.85 182.011 1038.62 182.011 1026.75C182.011 1014.88 181.522 1007.65 180.788 1007.65C180.054 1007.65 179.565 1014.88 179.565 1026.75C179.565 1038.62 180.054 1045.85 180.788 1045.85ZM180.788 1051.31C181.766 1052.95 182.011 1052.81 182.011 1050.35C182.011 1048.58 181.399 1047.22 180.788 1047.22C179.198 1047.22 179.198 1048.72 180.788 1051.31ZM180.788 1296.91C181.644 1296.91 182.011 1275.49 182.011 1235.51C182.011 1195.53 181.644 1174.11 180.788 1174.11C179.932 1174.11 179.565 1195.53 179.565 1235.51C179.565 1275.49 179.932 1296.91 180.788 1296.91ZM181.522 1303.73C181.766 1303.73 182.011 1302.5 182.011 1301C182.011 1299.5 181.522 1298.27 180.91 1298.27C180.299 1298.27 180.054 1299.5 180.421 1301C180.788 1302.5 181.277 1303.73 181.522 1303.73ZM180.788 1515.22C181.522 1515.22 182.011 1499.26 182.011 1470.2C182.011 1441.13 181.522 1425.17 180.788 1425.17C180.054 1425.17 179.565 1441.13 179.565 1470.2C179.565 1499.26 180.054 1515.22 180.788 1515.22ZM181.522 1522.04C181.766 1522.04 182.011 1520.82 182.011 1519.32C182.011 1517.81 181.522 1516.59 180.91 1516.59C180.299 1516.59 180.054 1517.81 180.421 1519.32C180.788 1520.82 181.277 1522.04 181.522 1522.04ZM180.788 1942.3C181.522 1942.3 182.011 1933.7 182.011 1919.1C182.011 1904.5 181.522 1895.9 180.788 1895.9C180.054 1895.9 179.565 1904.5 179.565 1919.1C179.565 1933.7 180.054 1942.3 180.788 1942.3ZM180.788 2017.34C181.522 2017.34 182.011 2008.2 182.011 1992.78C182.011 1977.36 181.522 1968.22 180.788 1968.22C180.054 1968.22 179.565 1977.36 179.565 1992.78C179.565 2008.2 180.054 2017.34 180.788 2017.34ZM180.788 2023.48C181.766 2025.94 181.889 2025.8 181.889 2022.52C182.011 2020.34 181.399 2018.7 180.788 2018.7C179.32 2018.7 179.32 2019.8 180.788 2023.48ZM180.299 2105.62C180.666 2105.21 180.788 2103.98 180.421 2103.03C180.054 2101.94 179.687 2102.35 179.687 2103.85C179.565 2105.35 179.932 2106.17 180.299 2105.62ZM180.788 2284.77C181.644 2284.77 182.011 2263.62 182.011 2224.05C182.011 2184.49 181.644 2163.34 180.788 2163.34C179.932 2163.34 179.565 2184.49 179.565 2224.05C179.565 2263.62 179.932 2284.77 180.788 2284.77ZM181.522 2291.59C181.766 2291.59 182.011 2290.37 182.011 2288.87C182.011 2287.36 181.522 2286.14 180.91 2286.14C180.299 2286.14 180.054 2287.36 180.421 2288.87C180.788 2290.37 181.277 2291.59 181.522 2291.59ZM180.788 2519.46C181.522 2519.46 182.011 2503.36 182.011 2473.75C182.011 2444.14 181.522 2428.04 180.788 2428.04C180.054 2428.04 179.565 2444.14 179.565 2473.75C179.565 2503.36 180.054 2519.46 180.788 2519.46ZM181.522 9.82404C181.889 9.41471 182.011 8.1867 181.644 7.23159C181.277 6.14003 180.91 6.54936 180.91 8.05026C180.788 9.55115 181.155 10.3698 181.522 9.82404ZM181.644 104.79C181.889 94.9658 181.889 78.3195 181.644 67.9496C181.522 57.5798 181.277 65.7665 181.277 85.9604C181.277 106.291 181.522 114.75 181.644 104.79ZM181.522 2524.51C181.889 2524.1 182.011 2522.87 181.644 2521.91C181.277 2520.82 180.91 2521.23 180.91 2522.73C180.788 2524.23 181.155 2525.05 181.522 2524.51ZM184.09 174.24C184.335 152.409 184.335 116.388 184.09 94.42C183.968 72.5888 183.845 90.4631 183.845 134.398C183.845 178.334 183.968 196.208 184.09 174.24ZM186.903 315.87L190.572 325.831V1015.29L190.572 1704.88L187.515 1713.89C183.968 1724.39 183.479 1731.21 186.292 1729.99C188.371 1729.03 190.572 1734.35 190.572 1740.36C190.572 1745.27 187.27 1746.91 185.68 1742.68C184.824 1740.22 184.579 1740.77 184.579 1745.95C184.457 1750.73 185.068 1752.77 187.392 1755.23L190.205 1758.23L191.061 1753.05C191.917 1747.04 191.795 233.321 190.939 237.414C190.572 238.915 189.838 240.689 189.227 241.508C188.615 242.19 188.126 243.827 188.126 245.192C188.126 246.556 187.025 248.33 185.68 249.285C183.356 250.922 183.234 252.56 183.234 278.484C183.234 305.91 183.234 305.91 186.903 315.87ZM186.047 2709.8C188.371 2711.03 188.738 2712.25 189.105 2720.71C189.471 2729.58 189.227 2730.4 186.658 2731.63C184.212 2732.86 183.845 2734.22 183.479 2741.18C183.112 2748.96 183.356 2749.64 187.515 2754.14L191.795 2758.78V2292.55C191.795 1890.99 191.551 1826.32 190.083 1826.32C189.105 1826.32 187.515 1825.91 186.414 1825.5C184.702 1824.82 184.457 1826.86 184.457 1843.65C184.457 1862.2 184.579 1862.75 187.515 1865.89L190.572 1869.02V2268.54C190.572 2554.8 190.205 2668.32 189.227 2669C186.658 2670.64 185.068 2666.68 184.335 2656.86C183.968 2651.13 183.601 2659.59 183.479 2677.73C183.234 2708.43 183.234 2708.43 186.047 2709.8ZM186.414 2724.13C187.637 2724.13 188.126 2722.35 188.126 2718.67C188.126 2714.98 187.637 2713.21 186.536 2713.21C183.968 2713.21 183.723 2714.03 184.212 2719.35C184.579 2722.22 185.435 2724.13 186.414 2724.13ZM187.148 218.585C188.126 218.176 187.759 217.766 186.414 217.766C185.068 217.63 184.335 218.039 184.824 218.449C185.191 218.858 186.292 218.994 187.148 218.585ZM185.313 246.693C185.558 245.738 185.558 244.1 185.313 243.282C184.946 242.326 184.702 243.009 184.702 244.919C184.702 246.829 184.946 247.511 185.313 246.693ZM186.292 1764.1C189.471 1765.33 189.961 1760.96 187.025 1757.69L184.457 1754.82V1759.05C184.457 1761.64 185.191 1763.55 186.292 1764.1ZM185.925 1822.22C187.148 1822.22 187.148 1770.78 185.925 1769.97C185.435 1769.56 185.068 1781.15 185.068 1795.75C185.068 1810.35 185.435 1822.22 185.925 1822.22ZM185.68 1868.61C186.292 1868.61 186.903 1868.34 186.903 1868.07C186.903 1867.66 186.292 1866.98 185.68 1866.57C184.946 1866.16 184.457 1866.43 184.457 1867.11C184.457 1867.93 184.946 1868.61 185.68 1868.61ZM186.903 2646.35C189.349 2646.35 189.349 2645.4 189.349 2258.17C189.349 1870.93 189.349 1869.98 186.903 1869.98C184.457 1869.98 184.457 1870.93 184.457 2258.17C184.457 2645.4 184.457 2646.35 186.903 2646.35ZM186.292 2728.22C187.27 2728.22 188.126 2727.67 188.126 2726.85C188.126 2726.17 187.27 2725.49 186.292 2725.49C185.313 2725.49 184.457 2726.17 184.457 2726.85C184.457 2727.67 185.313 2728.22 186.292 2728.22ZM188.371 34.3842C189.349 33.9748 188.982 33.5655 187.637 33.5655C186.292 33.429 185.558 33.8384 186.047 34.2477C186.414 34.657 187.515 34.7935 188.371 34.3842ZM186.903 2657.27C187.515 2657.27 188.126 2655.08 188.126 2652.49C188.126 2649.9 187.515 2647.72 186.903 2647.72C186.169 2647.72 185.68 2649.9 185.68 2652.49C185.68 2655.08 186.169 2657.27 186.903 2657.27ZM187.637 2666.68C187.881 2666.95 188.371 2666.95 188.738 2666.55C189.838 2665.32 188.004 2658.63 186.658 2658.63C185.558 2658.63 186.292 2665.32 187.637 2666.68ZM187.759 174.923C188.004 152.682 188.004 116.115 187.759 93.7377C187.637 71.4972 187.515 89.7808 187.515 134.398C187.515 179.016 187.637 197.3 187.759 174.923ZM189.349 1824.95C190.083 1824.95 190.572 1814.99 190.572 1797.66C190.572 1772.97 190.817 1769.83 193.018 1765.33C195.953 1759.19 196.198 1754 193.63 1754C192.407 1754 191.795 1755.37 191.795 1758.5C191.795 1760.82 190.939 1764.1 189.961 1765.46C188.493 1767.65 188.126 1773.65 188.126 1796.57C188.126 1814.58 188.615 1824.95 189.349 1824.95ZM190.939 198.528C191.061 209.443 191.428 178.879 191.551 130.714C191.673 82.4128 191.428 42.9802 190.817 42.9802C190.083 42.9802 190.083 148.862 190.939 198.528ZM191.428 231.001C191.673 228.818 191.673 225.544 191.428 223.497C191.184 221.314 190.939 223.088 190.939 227.181C190.939 231.274 191.184 233.048 191.428 231.001ZM194.853 1752.64C196.443 1752.64 196.687 1655.08 196.687 893.033C196.687 130.578 196.443 33.429 194.853 33.429C193.263 33.429 193.018 130.578 193.018 893.033C193.018 1655.08 193.263 1752.64 194.853 1752.64ZM194.853 2760.97C196.443 2760.97 196.687 2703.93 196.687 2267.72C196.687 1829.73 196.443 1774.47 194.853 1774.47C193.263 1774.47 193.018 1829.73 193.018 2267.72C193.018 2703.93 193.263 2760.97 194.853 2760.97ZM202.68 1616.19C208.306 1616.19 209.162 1614.28 207.205 1605.28C205.982 1599.68 205.493 1599.14 201.824 1598.73L197.91 1598.32V1607.19V1616.19H202.68ZM205.493 1618.51C207.083 1618.24 205.86 1617.97 202.802 1617.97C199.745 1617.97 198.522 1618.24 199.989 1618.51C201.579 1618.78 204.026 1618.78 205.493 1618.51ZM204.27 1621.24C205.86 1620.97 204.882 1620.69 202.191 1620.69C199.5 1620.56 198.277 1620.83 199.378 1621.24C200.601 1621.51 202.802 1621.51 204.27 1621.24ZM202.802 2619.06C207.939 2619.06 208.184 2618.79 207.695 2611.56C207.328 2605.15 205.615 2602.69 201.579 2602.69C197.91 2602.69 197.91 2602.69 197.91 2610.88V2619.06H202.802ZM202.802 2623.16C205.493 2623.16 207.695 2622.61 207.695 2621.79C207.695 2621.11 205.493 2620.43 202.802 2620.43C200.112 2620.43 197.91 2621.11 197.91 2621.79C197.91 2622.61 200.112 2623.16 202.802 2623.16ZM204.27 2625.48C205.86 2625.2 204.882 2624.93 202.191 2624.93C199.5 2624.79 198.277 2625.07 199.378 2625.48C200.601 2625.75 202.802 2625.75 204.27 2625.48Z" fill="black"/>
<path d="M186.169 2733.27C188.248 2732.32 190.572 2737.77 190.572 2743.78C190.572 2749.1 187.514 2751.55 186.291 2747.32C185.802 2745.82 185.924 2743.91 186.413 2743.09C186.903 2742 186.78 2741.87 185.924 2742.41C184.946 2743.09 184.457 2741.87 184.457 2738.73C184.457 2736 185.19 2733.68 186.169 2733.27Z" fill="black"/>
</svg>
