<svg width="40" height="200" viewBox="0 0 220 3604" fill="#000000" preserveAspectRatio="none"  xmlns="http://www.w3.org/2000/svg">
<g clip-path="url(#clip0_3_2)">
<path d="M212.4 9.73321C211.867 6.79988 211.2 6.66654 199.867 6.66654C188.533 6.66654 188 6.79988 187.2 9.86654C186.8 11.8665 185.2 13.4665 183.2 13.8665C181.467 14.3999 180 15.3332 180 15.9999C180 16.7999 159.067 17.3332 122 17.3332C73.2 17.3332 63.2 17.5999 59.0666 19.3332C56.4 20.3999 54 21.1999 53.8666 20.9332C53.6 20.6665 53.8666 18.3999 54.5333 15.8665C55.2 13.3332 56.1333 9.73321 56.5333 7.73321L57.3333 3.99988L49.6 3.99988C41.7333 3.99988 38.6666 5.46654 38.6666 9.46654C38.6666 10.7999 37.2 11.9999 34.6666 12.3999C30.9333 13.1999 30.6666 13.5999 30.6666 19.8665C30.6666 23.9999 30 26.9332 28.6666 27.9999C26.9333 29.4665 26.6666 104.4 26.6666 687.467L26.6666 1345.33H22.8C17.4666 1345.33 14.6666 1349.6 14.6666 1357.73C14.6666 1366.67 16.4 1369.33 22 1369.33H26.6666L26.8 1422.4C26.8 1451.47 27.3333 1478.67 28 1482.67C28.5333 1486.8 28.5333 1490.53 27.8666 1491.2C27.2 1492 26.6666 1728.67 26.6666 2050.93L26.6666 2609.33H23.3333C17.7333 2609.33 14.6666 2613.73 14.6666 2621.47C14.6666 2630.67 16.2666 2633.33 22 2633.33H26.6666L26.6666 3043.33L26.6666 3453.33H22.2666C16.9333 3453.33 14.6666 3457.07 14.6666 3466C14.6666 3474.67 15.6 3476 21.4666 3476H26.6666L26.6666 3533.33C26.6666 3587.6 26.8 3590.67 29.0666 3590.67C30.4 3590.67 34 3588.13 36.9333 3585.07C41.7333 3580.13 42.5333 3578.4 42.9333 3572.8C43.3333 3566.8 43.7333 3566.13 47.2 3565.2C54.2666 3563.2 56 3560.53 56 3550.67C56 3540.8 55.3333 3540 46.4 3540H42.6666V3514.8C42.6666 3494.13 43.0666 3489.33 44.6666 3488C46.4 3486.53 46.6666 3460.67 46.6666 3270.53C46.6666 3092.13 46.9333 3054.67 48.4 3054.67C49.4666 3054.67 51.6 3053.2 53.2 3051.47C55.7333 3048.8 56.1333 3047.07 55.7333 3039.87L55.3333 3031.33L51.0666 3030.93L46.6666 3030.53L46.6666 2555.2L46.6666 2079.87L51.3333 2075.87C55.7333 2072 56 2071.2 56 2063.33C56 2054.67 55.2 2053.33 49.2 2053.33C46.6666 2053.33 46.6666 2049.6 46.6666 1855.33C46.6666 1691.73 46.9333 1657.33 48.4 1657.33C49.4666 1657.33 51.4666 1656 53.0666 1654.27C55.4666 1651.73 56 1649.6 56 1642.4V1633.6L51.3333 1632.8L46.6666 1631.87V1612.4C46.6666 1594.53 46.9333 1592.53 49.3333 1590C52 1587.07 52.1333 1585.6 52 1514.53C52 1445.33 51.8666 1441.6 49.3333 1434.93C46.6666 1428 46.6666 1424.13 46.6666 1139.6L46.6666 851.333L51.3333 847.6C56 843.867 56.1333 843.733 55.7333 834.933L55.3333 826L51.0666 825.6L46.6666 825.2L46.6666 549.2L46.6666 273.333L50 265.067C53.0666 257.333 53.3333 255.333 53.3333 232.8C53.3333 215.2 53.8666 207.2 55.3333 203.333C58 196 58 179.467 55.3333 177.333C53.6 175.867 53.3333 169.867 53.3333 138.533L53.3333 101.333H50H46.6666V71.4665C46.6666 36.6665 47.2 33.9999 54.9333 31.8665C58.5333 30.9332 83.6 30.5332 129.867 30.6665C214.267 30.9332 206.667 31.0665 206.667 28.6665C206.667 27.5999 207.467 26.6665 208.533 26.6665C209.6 26.6665 210.933 25.9999 211.333 25.3332C212.4 23.5999 213.067 13.4665 212.4 9.73321ZM199.333 13.3332C191.333 13.3332 189.333 12.9332 189.333 11.3332C189.333 9.73321 191.333 9.33321 199.333 9.33321C207.333 9.33321 209.333 9.73321 209.333 11.3332C209.333 12.9332 207.333 13.3332 199.333 13.3332ZM192 22.6665C183.6 22.6665 182.667 22.3999 182.667 19.9999C182.667 17.5999 183.6 17.3332 192 17.3332C200.4 17.3332 201.333 17.5999 201.333 19.9999C201.333 22.3999 200.4 22.6665 192 22.6665ZM65.0666 20.9332C64 20.5332 64.4 20.1332 65.8666 20.1332C67.3333 19.9999 68.1333 20.3999 67.6 20.7999C67.2 21.1999 66 21.3332 65.0666 20.9332ZM50 19.1999C48.1333 21.7332 48 21.5999 48 17.0665C48 13.5999 47.3333 11.9999 45.7333 11.5999C44.4 11.1999 45.3333 10.9332 47.7333 10.7999C51.3333 10.6665 52 11.0665 52 13.7332C52 15.3332 51.0666 17.8665 50 19.1999ZM46.2666 832C43.0666 832 42.5333 831.6 44 830.667C46.6666 828.933 52.4 828.933 51.3333 830.667C50.9333 831.467 48.5333 832 46.2666 832ZM45.2 2060.27C42.2666 2059.07 42.4 2058.93 47.0666 2058.4C51.2 2058 51.7333 2058.13 50.2666 2059.6C49.0666 2060.93 47.4666 2061.07 45.2 2060.27ZM49.3333 109.333C48.6666 109.333 48 109.067 48 108.8C48 108.4 48.6666 107.733 49.3333 107.333C50.1333 106.933 50.6666 107.2 50.6666 107.867C50.6666 108.667 50.1333 109.333 49.3333 109.333ZM49.3333 128C48.6666 128 48 126.267 48 124C48 121.867 48.6666 120 49.3333 120C50.1333 120 50.6666 121.867 50.6666 124C50.6666 126.267 50.1333 128 49.3333 128ZM49.3333 141.333C48.6666 141.333 48 140.4 48 139.333C48 138.267 48.6666 137.333 49.3333 137.333C50.1333 137.333 50.6666 138.267 50.6666 139.333C50.6666 140.4 50.1333 141.333 49.3333 141.333ZM49.3333 256.667C48.5333 257.2 48 255.067 48 251.467C48 248.133 48.6666 245.333 49.3333 245.333C50.1333 245.333 50.6666 247.733 50.6666 250.533C50.6666 253.467 50.1333 256.267 49.3333 256.667ZM45.6 1640C42.8 1640 42.4 1639.73 44 1638.67C46.6666 1636.93 51.0666 1636.93 50 1638.67C49.6 1639.47 47.6 1640 45.6 1640ZM45.6 3037.33C42.8 3037.33 42.4 3037.07 44 3036C46.6666 3034.27 51.0666 3034.27 50 3036C49.6 3036.8 47.6 3037.33 45.6 3037.33ZM45.8666 3548C44 3548 42.9333 3547.47 43.3333 3546.67C43.7333 3546 45.6 3545.33 47.4666 3545.33C49.3333 3545.33 50.4 3545.87 50 3546.67C49.6 3547.47 47.7333 3548 45.8666 3548ZM48.4 199.733C48.1333 197.733 48.1333 194.133 48.4 191.733C48.6666 189.333 48.9333 190.933 48.9333 195.333C48.9333 199.733 48.6666 201.733 48.4 199.733ZM45.8666 267.867C44.2666 269.733 45.7333 265.333 47.4666 263.2C49.3333 260.8 49.3333 260.8 47.8666 264C47.0666 265.867 46.1333 267.6 45.8666 267.867ZM47.3333 1574.13C45.6 1576 45.3333 1574.4 45.3333 1559.6C45.3333 1545.87 45.6 1543.07 47.3333 1543.07C48.9333 1543.07 49.3333 1545.6 49.3333 1557.6C49.3333 1568.8 48.8 1572.67 47.3333 1574.13ZM45.7333 106.8C43.6 108.533 43.4666 108.4 45.2 106.4C46.1333 105.067 47.2 104 47.4666 104C48.5333 104 47.8666 105.067 45.7333 106.8ZM46.6666 1488.67C46.1333 1454.93 45.6 1441.2 44.4 1439.07C43.4666 1437.47 42.6666 1435.07 42.8 1433.73C42.8 1432.4 43.8666 1434 45.3333 1437.33C47.4666 1442.8 47.7333 1447.47 47.6 1489.33L47.4666 1535.33L46.6666 1488.67ZM46.6666 1588.67C46 1589.07 45.3333 1588.8 45.3333 1588.13C45.3333 1587.33 46 1586.67 46.6666 1586.67C47.4666 1586.67 48 1586.93 48 1587.2C48 1587.6 47.4666 1588.27 46.6666 1588.67ZM45.3333 840.667C44.6666 841.067 44 840.267 44 838.8C44 837.2 44.6666 836 45.3333 836C46.1333 836 46.6666 836.8 46.6666 837.867C46.6666 838.933 46.1333 840.267 45.3333 840.667ZM45.3333 848C44.6666 848 44 847.2 44 846.133C44 845.067 44.6666 843.733 45.3333 843.333C46.1333 842.933 46.6666 843.733 46.6666 845.2C46.6666 846.8 46.1333 848 45.3333 848ZM45.3333 1650.67C44.6666 1650.67 44 1649.2 44 1647.33C44 1645.47 44.6666 1644 45.3333 1644C46.1333 1644 46.6666 1645.47 46.6666 1647.33C46.6666 1649.2 46.1333 1650.67 45.3333 1650.67ZM45.3333 1655.33C44.6666 1655.73 44 1655.47 44 1654.8C44 1654 44.6666 1653.33 45.3333 1653.33C46.1333 1653.33 46.6666 1653.6 46.6666 1653.87C46.6666 1654.27 46.1333 1654.93 45.3333 1655.33ZM45.3333 2072C44.6666 2072 44 2070.27 44 2068C44 2065.87 44.6666 2064 45.3333 2064C46.1333 2064 46.6666 2065.87 46.6666 2068C46.6666 2070.27 46.1333 2072 45.3333 2072ZM45.3333 3048C44.6666 3048 44 3046.53 44 3044.67C44 3042.8 44.6666 3041.33 45.3333 3041.33C46.1333 3041.33 46.6666 3042.8 46.6666 3044.67C46.6666 3046.53 46.1333 3048 45.3333 3048ZM45.3333 3053.33C44.6666 3053.33 44 3052.8 44 3052C44 3051.33 44.6666 3050.67 45.3333 3050.67C46.1333 3050.67 46.6666 3051.33 46.6666 3052C46.6666 3052.8 46.1333 3053.33 45.3333 3053.33ZM45.3333 3558.67C44.6666 3558.67 44 3557.2 44 3555.47C44 3553.6 44.6666 3551.73 45.3333 3551.33C46.1333 3550.8 46.6666 3552.27 46.6666 3554.53C46.6666 3556.8 46.1333 3558.67 45.3333 3558.67ZM42.2666 27.1999C39.2 31.0665 39.0666 31.0665 38.4 28.2665C37.8666 26.5332 38.2666 25.3332 39.0666 25.3332C39.8666 25.3332 40 24.9332 39.6 24.3999C39.0666 23.9999 39.3333 22.7999 40.1333 21.7332C41.3333 20.3999 40.9333 19.9999 37.8666 19.8665L34 19.7332L37.3333 18.6665C46 15.8665 48.1333 19.7332 42.2666 27.1999ZM44 186.667C43.2 186.667 42.6666 173.067 42.6666 148.667C42.6666 124.267 43.2 110.667 44 110.667C44.8 110.667 45.3333 124.267 45.3333 148.667C45.3333 173.067 44.8 186.667 44 186.667ZM41.3333 202.667C37.4666 202.667 37.3333 202.4 37.3333 196.8C37.3333 192.667 38 190.667 39.4666 190.133C44.4 188.267 45.3333 189.2 45.3333 196C45.3333 202.533 45.2 202.667 41.3333 202.667ZM42 269.067L38.6666 277.333L38.6666 555.2C38.6666 739.067 38.2666 833.467 37.3333 834C36.4 834.533 36 741.6 36 556L36 277.333L39.3333 269.067C42.5333 261.2 42.6666 259.6 42.6666 233.067C42.6666 215.467 43.2 205.333 44 205.333C44.8 205.333 45.3333 215.467 45.3333 233.067C45.3333 259.6 45.2 261.2 42 269.067ZM44 272.667C43.2 273.067 43.0666 272.533 43.4666 271.467C44.4 269.067 45.3333 268.667 45.3333 270.533C45.3333 271.333 44.8 272.267 44 272.667ZM42 380.8C40.2666 382.667 40 377.2 40 331.6C40 287.6 40.2666 280.133 42 278.667C43.7333 277.2 44 282.8 44 327.867C44 371.467 43.7333 379.2 42 380.8ZM42 556.933C40.2666 556.933 40 552.533 40 526C40 499.467 40.2666 495.067 42 495.067C43.7333 495.067 44 499.467 44 526C44 552.533 43.7333 556.933 42 556.933ZM42 612.8C40.2666 614.667 40 612.133 40 590.267C40 569.6 40.2666 565.467 42 564.8C43.7333 564.133 44 567.2 44 587.467C44 606.533 43.6 611.2 42 612.8ZM42 776.8C40.2666 778.667 40 776 40 752.8C40 730.4 40.2666 726.667 42 726.667C43.7333 726.667 44 730.267 44 750.8C44 770.4 43.6 775.2 42 776.8ZM42 931.467C40.2666 933.333 40 931.2 40 912.133C40 894 40.2666 890.667 42 890.667C43.7333 890.667 44 893.733 44 910.133C44 925.6 43.6 929.867 42 931.467ZM42 987.467C40.2666 989.333 40 986.933 40 966.133C40 946.133 40.2666 942.667 42 942.667C43.7333 942.667 44 946 44 964.133C44 981.333 43.6 985.867 42 987.467ZM42 1197.87C40.2666 1198.53 40 1192.67 40 1150C40 1107.6 40.2666 1101.33 42 1101.33C43.7333 1101.33 44 1107.6 44 1149.2C44 1190.53 43.7333 1197.2 42 1197.87ZM42 1350.67C40.2666 1352.13 40 1348.4 40 1318.8C40 1290 40.2666 1285.33 42 1285.33C43.7333 1285.33 44 1289.73 44 1317.2C44 1343.87 43.7333 1349.33 42 1350.67ZM42 1420.8C40.2666 1422.67 40 1419.6 40 1394.13C40 1369.47 40.2666 1365.33 42 1365.33C43.7333 1365.33 44 1369.2 44 1392.13C44 1414.13 43.6 1419.2 42 1420.8ZM42.8 1768C42.1333 1768 41.2 1769.33 40.9333 1771.07C40.6666 1772.67 40.2666 1758.93 40.1333 1740.53C40 1711.6 40.2666 1707.07 42 1707.07C43.7333 1707.07 44 1711.33 44 1737.6C44 1755.47 43.4666 1768 42.8 1768ZM42 1804C40.2666 1805.47 40 1803.73 40 1790.13C40 1776.53 40.2666 1774.8 42 1776.27C44.8 1778.8 44.8 1801.6 42 1804ZM42 2014.13C40.2666 2016 40 2010.8 40 1967.47C40 1924.93 40.2666 1918.67 42 1918.67C45.0666 1918.67 45.0666 2011.2 42 2014.13ZM42 2238.13C40.2666 2240 40 2234 40 2184.13C40 2135.07 40.2666 2128 42 2128C43.7333 2128 44 2134.93 44 2182.13C44 2228.4 43.7333 2236.53 42 2238.13ZM42 2462.13C40.2666 2464 40 2458 40 2408.13C40 2359.07 40.2666 2352 42 2352C43.7333 2352 44 2358.93 44 2406.13C44 2452.4 43.7333 2460.53 42 2462.13ZM42 2614.67C40.2666 2616.13 40 2612.4 40 2582.8C40 2554 40.2666 2549.33 42 2549.33C43.7333 2549.33 44 2553.73 44 2581.2C44 2607.87 43.7333 2613.33 42 2614.67ZM43.2 2623.6C42.8 2623.2 42.6666 2622 43.0666 2621.07C43.4666 2620 43.8666 2620.4 43.8666 2621.87C44 2623.33 43.6 2624.13 43.2 2623.6ZM42 2684.8C40.2666 2686.67 40 2683.6 40 2658.13C40 2633.47 40.2666 2629.33 42 2629.33C43.7333 2629.33 44 2633.2 44 2656.13C44 2678.13 43.6 2683.2 42 2684.8ZM42 2986.13C40.2666 2988 40 2976.13 40 2880.13C40 2784.93 40.2666 2772 42 2772C43.7333 2772 44 2784.67 44 2878.13C44 2970.67 43.7333 2984.4 42 2986.13ZM42 3304.8C40.2666 3306.67 40 3295.33 40 3203.6C40 3112.8 40.2666 3100.4 42 3100.4C43.7333 3100.4 44 3112.53 44 3201.6C44 3289.87 43.7333 3303.07 42 3304.8ZM42 3458.13C40.2666 3460 40 3456.4 40 3426.13C40 3396.67 40.2666 3392 42 3392C43.7333 3392 44 3396.4 44 3424.13C44 3450.8 43.7333 3456.53 42 3458.13ZM42 3488C40.2666 3489.47 40 3488.53 40 3481.07C40 3474.27 40.4 3472.4 42 3472.4C43.4666 3472.4 44 3474.13 44 3479.33C44 3484 43.3333 3486.93 42 3488ZM41.7333 92.3999C41.4666 84.1332 41.4666 70.5332 41.7333 62.3999C41.8666 54.1332 42.1333 60.7999 42.1333 77.3332C42.1333 93.8665 41.8666 100.533 41.7333 92.3999ZM41.3333 1592C40.4 1592 40 1566.93 40 1519.47C40 1458 39.7333 1446.27 38 1442.27C36.2666 1438 36 1401.87 36 1144.8C36 951.2 36.4 851.867 37.3333 851.333C38.2666 850.8 38.6666 949.067 38.6666 1144.93C38.8 1391.6 39.0666 1440 40.6666 1443.33C42.1333 1446.53 42.5333 1461.33 42.5333 1519.73C42.6666 1567.07 42.2666 1592 41.3333 1592ZM36.6666 268.8L33.4666 276.667L33.4666 242C33.4666 210.533 33.6 207.733 35.4666 211.067C36.5333 213.067 38 214.667 38.6666 214.667C39.4666 214.667 40 223.733 40 237.733C40 259.333 39.7333 261.467 36.6666 268.8ZM38 3544C37.0666 3544 35.4666 3545.07 34.8 3546.4C33.8666 3548 33.4666 3543.2 33.3333 3529.73C33.3333 3513.47 33.6 3510.8 35.3333 3511.47C36.5333 3512 37.7333 3511.2 38.5333 3509.2C39.4666 3506.93 39.8666 3511.73 39.8666 3525.07C40 3540.8 39.7333 3544 38 3544ZM36.6666 3581.33L33.3333 3584.4V3580.93C33.3333 3578.4 33.8666 3577.6 35.3333 3578.13C36.5333 3578.67 37.7333 3577.87 38.5333 3575.87C39.7333 3572.93 39.8666 3572.93 39.8666 3575.47C40 3576.93 38.5333 3579.6 36.6666 3581.33ZM37.3333 1456.67C36.5333 1456.27 35.4666 1457.2 34.8 1458.93C33.8666 1461.2 33.4666 1458.93 33.4666 1450.67V1439.33L36 1445.33C38.8 1451.87 39.4666 1458 37.3333 1456.67ZM36.8 1478.53C35.3333 1479.73 34.8 1479.47 34.1333 1477.07C32.9333 1472.13 33.2 1470.27 35.2 1471.07C36.2666 1471.47 37.4666 1471.2 37.8666 1470.27C38.1333 1469.33 38.5333 1470.53 38.5333 1472.8C38.6666 1475.07 37.8666 1477.73 36.8 1478.53ZM37.4666 1486C35.0666 1487.33 34.4 1483.73 36.5333 1481.6C38.5333 1479.6 38.6666 1479.6 38.6666 1482.27C38.6666 1483.87 38.1333 1485.47 37.4666 1486ZM36 1571.33C33.3333 1573.73 33.3333 1573.6 33.3333 1556.27C33.3333 1539.6 33.4666 1538.67 36 1538.67C38.5333 1538.67 38.6666 1539.6 38.6666 1553.73C38.6666 1567.2 38.4 1569.2 36 1571.33ZM37.3333 1641.33C36.5333 1641.33 36 1629.6 36 1608.67C36 1587.73 36.5333 1576 37.3333 1576C38.1333 1576 38.6666 1587.73 38.6666 1608.67C38.6666 1629.6 38.1333 1641.33 37.3333 1641.33ZM37.3333 2062.67C36.4 2062.67 36 1994.4 36 1860.67C36 1726.93 36.4 1658.67 37.3333 1658.67C38.2666 1658.67 38.6666 1726.93 38.6666 1860.67C38.6666 1994.4 38.2666 2062.67 37.3333 2062.67ZM37.3333 3038.67C36.4 3038.67 36 2878 36 2559.33C36 2240.67 36.4 2080 37.3333 2080C38.2666 2080 38.6666 2240.67 38.6666 2559.33C38.6666 2878 38.2666 3038.67 37.3333 3038.67ZM37.3333 3490.67C36.4 3490.67 36 3417.33 36 3273.33C36 3129.33 36.4 3056 37.3333 3056C38.2666 3056 38.6666 3129.33 38.6666 3273.33C38.6666 3417.33 38.2666 3490.67 37.3333 3490.67ZM36.4 3499.07C36.1333 3498.13 36.1333 3496.27 36.4 3495.07C36.8 3493.73 37.0666 3494.53 37.0666 3496.67C37.0666 3498.93 36.8 3499.87 36.4 3499.07ZM36.5333 3506.27C36.1333 3505.87 36 3504.67 36.4 3503.73C36.8 3502.67 37.2 3503.07 37.2 3504.53C37.3333 3506 36.9333 3506.8 36.5333 3506.27ZM34.6666 1513.2C34.2666 1496.67 33.4666 1489.07 32.2666 1487.6C31.3333 1486.4 30.6666 1483.87 31.0666 1481.73L31.6 1478L31.8666 1482C32 1484.27 32.9333 1487.2 34 1488.53C35.6 1490.67 36 1495.73 35.7333 1513.87L35.4666 1536.67L34.6666 1513.2ZM33.8666 44.9332C33.4666 44.5332 33.3333 43.3332 33.7333 42.3999C34.1333 41.3332 34.5333 41.7332 34.5333 43.1999C34.6666 44.6665 34.2666 45.4665 33.8666 44.9332ZM29.7333 1115.6C29.4666 917.067 29.4666 592.267 29.7333 393.6C29.8666 195.067 30 357.6 30 754.667C30 1151.73 29.8666 1314.27 29.7333 1115.6ZM29.7333 3065.73C29.4666 2778.13 29.4666 2307.2 29.7333 2019.07C29.8666 1731.07 30 1966.4 30 2542C30 3117.73 29.8666 3353.33 29.7333 3065.73ZM21.8666 1361.33H16.9333L17.8666 1355.73C19.0666 1348.67 19.4666 1348 23.4666 1348C26.4 1348 26.6666 1348.53 26.6666 1354.67L26.6666 1361.33H21.8666ZM22 2625.33C16.8 2625.33 16.1333 2623.6 18.8 2616.13C19.8666 2613.07 21.0666 2612 23.4666 2612C26.4 2612 26.6666 2612.53 26.6666 2618.67V2625.33H22ZM22 3468C18.2666 3468 17.3333 3467.47 17.3333 3465.47C17.3333 3460 19.8666 3456 23.3333 3456C26.4 3456 26.6666 3456.53 26.6666 3462C26.6666 3468 26.6666 3468 22 3468ZM20.4 3471.6C19.0666 3471.2 20.1333 3470.93 22.6666 3470.93C25.2 3470.93 26.2666 3471.2 25.0666 3471.6C23.7333 3471.87 21.6 3471.87 20.4 3471.6Z" fill="black"/>
</g>
<defs>
<clipPath id="clip0_3_2">
<rect width="3604" height="224" fill="white" transform="matrix(0 1 -1 0 224 -0.00012207)"/>
</clipPath>
</defs>
</svg>
