<?xml version="1.0" standalone="no"?>
<!DOCTYPE svg PUBLIC "-//W3C//DTD SVG 20010904//EN"
 "http://www.w3.org/TR/2001/REC-SVG-20010904/DTD/svg10.dtd">
<svg version="1.0" xmlns="http://www.w3.org/2000/svg"
 width="200" height="40" viewBox="0 0 1300 250"
 preserveAspectRatio="none">

<g transform="translate(0.000000,486.000000) scale(0.100000,-0.100000)"
fill="#000000" stroke="none">
<path d="M161 4736 c-8 -9 -11 -56 -9 -142 l3 -129 40 -5 c37 -5 40 -7 41 -38
1 -18 8 -38 17 -45 15 -11 17 -80 19 -732 3 -651 5 -724 20 -762 l17 -43 -22
14 c-23 15 -155 39 -168 30 -11 -6 1 -165 13 -181 5 -7 26 -13 46 -15 34 -3
37 -6 40 -38 5 -53 14 -58 90 -53 65 5 68 4 96 -26 l30 -31 5328 0 5328 0 0
-42 c0 -54 7 -63 53 -83 46 -19 127 -19 172 -1 34 15 35 17 35 70 l0 56 674 0
674 0 4 30 c4 25 -4 38 -57 90 l-61 60 -81 0 -81 0 -7 43 c-5 30 -18 54 -48
85 l-42 43 -83 -3 c-46 -1 -87 -7 -91 -13 -17 -21 -21 -64 -7 -77 7 -8 17 -29
21 -46 l7 -32 -324 0 -325 0 -23 25 -23 25 -3004 0 c-2682 0 -3003 2 -3003 15
0 9 -19 36 -41 60 l-42 45 -89 0 c-87 0 -89 0 -99 -27 -15 -39 -14 -74 2 -84
8 -5 -394 -9 -939 -9 l-954 0 -95 40 -96 40 -289 0 c-200 0 -296 4 -311 12
-39 21 -91 28 -201 29 -95 1 -112 -2 -137 -20 -28 -21 -38 -21 -465 -21 l-436
0 4 -40 4 -40 -376 1 c-405 1 -427 3 -464 53 -21 27 -21 38 -24 834 -1 443 0
813 4 822 8 19 8 111 1 130 -3 8 -7 26 -9 40 -2 19 -9 25 -28 25 -20 0 -26 6
-28 28 -4 36 -23 43 -113 45 -55 2 -80 -2 -88 -12z m61 -137 c-3 -128 -4 -130
-25 -127 -21 3 -22 8 -25 131 l-3 127 28 0 28 0 -3 -131z m68 96 c13 -14 21
-25 18 -25 -2 0 -15 11 -28 25 -13 14 -21 25 -18 25 2 0 15 -11 28 -25z m-25
-14 c3 -5 1 -12 -5 -16 -5 -3 -10 1 -10 9 0 18 6 21 15 7z m132 -1324 c-1
-237 -2 -43 -2 433 0 476 1 670 2 432 2 -237 2 -627 0 -865z m-59 1169 c3
-121 -1 -144 -21 -128 -7 6 -23 9 -35 5 -22 -5 -22 -4 -22 110 0 122 2 128 50
124 25 -2 25 -3 28 -111z m29 -53 c-2 -27 -3 -5 -3 47 0 52 1 74 3 48 2 -27 2
-69 0 -95z m0 -1180 c-1 -203 -2 -37 -2 367 0 404 1 570 2 368 2 -203 2 -533
0 -735z m-70 1055 c-3 -8 -6 -5 -6 6 -1 11 2 17 5 13 3 -3 4 -12 1 -19z m0
-431 c-1 -73 -3 -10 -3 138 0 149 2 208 3 132 2 -76 2 -198 0 -270z m50 -19
c-1 -79 -3 -15 -3 142 0 157 2 221 3 143 2 -79 2 -207 0 -285z m0 -686 c-1
-97 -2 -15 -2 183 0 198 1 278 2 177 2 -101 2 -263 0 -360z m-27 487 c0 -17
-4 -28 -10 -24 -5 3 -10 17 -10 31 0 13 5 24 10 24 6 0 10 -14 10 -31z m0 -80
c0 -16 -4 -29 -10 -29 -5 0 -10 16 -10 36 0 21 4 33 10 29 6 -3 10 -19 10 -36z
m-2 -91 c2 -32 0 -39 -8 -28 -14 22 -11 70 5 70 0 0 2 -19 3 -42z m-21 -301
c-1 -45 -3 -5 -3 88 0 94 2 130 3 82 2 -48 2 -125 0 -170z m18 -187 c6 -18 5
-22 -4 -15 -6 6 -13 33 -16 60 -4 44 -3 46 4 15 5 -19 13 -46 16 -60z m32 -77
c-2 -16 -4 -5 -4 22 0 28 2 40 4 28 2 -13 2 -35 0 -50z m-17 21 c0 -26 -10
-30 -28 -12 -20 20 -15 47 8 41 13 -3 20 -14 20 -29z m0 -74 c0 -15 7 -47 15
-71 13 -39 13 -42 0 -25 -18 24 -55 120 -55 143 0 14 2 14 20 -2 11 -10 20
-30 20 -45z m17 -22 c-3 -7 -5 -2 -5 12 0 14 2 19 5 13 2 -7 2 -19 0 -25z m63
-50 c6 -21 14 -37 18 -35 5 1 23 -15 42 -36 37 -43 88 -72 143 -82 21 -4 36
-10 33 -12 -9 -9 -99 17 -127 38 -30 21 -44 25 -33 8 3 -6 27 -21 53 -33 46
-21 55 -21 886 -26 l840 -5 -831 -3 c-902 -2 -874 -4 -947 52 -17 14 -41 38
-52 55 -10 16 -22 28 -25 26 -3 -2 -6 4 -7 13 0 9 -3 42 -6 72 -3 30 -4 44 -1
30 2 -14 9 -42 14 -62z m-30 42 c0 -16 -2 -30 -4 -30 -2 0 -6 14 -8 30 -3 17
-1 30 4 30 4 0 8 -13 8 -30z m1968 -7 c-10 -2 -26 -2 -35 0 -10 3 -2 5 17 5
19 0 27 -2 18 -5z m-33 -24 c10 -10 -54 -12 -80 -3 -13 5 -14 9 -3 15 14 10
68 2 83 -12z m149 11 c14 -5 26 -14 26 -20 0 -7 -6 -8 -19 0 -11 5 -38 10 -60
10 -23 0 -41 5 -41 10 0 13 61 13 94 0z m2807 -16 c28 -30 14 -32 -20 -2 l-26
23 26 -30 c23 -26 26 -36 20 -74 -3 -24 -11 -46 -17 -48 -12 -4 -26 42 -29 94
-1 18 -5 36 -8 40 -12 11 -8 19 12 20 10 1 29 -9 42 -23z m153 -23 c-3 -3 -9
1 -13 8 -5 7 -13 11 -18 8 -5 -3 -10 4 -10 15 -2 20 -1 20 22 -2 14 -13 22
-26 19 -29z m6789 24 c23 -32 17 -32 -13 0 -13 14 -19 25 -14 25 5 0 17 -12
27 -25z m137 0 c13 -14 21 -25 18 -25 -2 0 -15 11 -28 25 -13 14 -21 25 -18
25 2 0 15 -11 28 -25z m-6990 -1 c0 -18 -54 -19 -69 0 -9 11 -4 14 29 14 28 1
40 -3 40 -14z m6938 -2 c3 -10 -5 -13 -29 -10 -18 2 -34 9 -37 16 -3 10 5 13
29 10 18 -2 34 -9 37 -16z m-12018 -12 c60 -31 58 -40 -9 -40 -59 0 -61 -1
-61 -26 0 -19 -5 -25 -17 -22 -14 2 -19 15 -21 56 l-3 52 36 0 c20 0 53 -9 75
-20z m11926 -95 l-13 -70 -6 48 c-4 26 -10 68 -13 95 l-6 47 25 -25 c25 -25
25 -26 13 -95z m-10836 86 c0 -12 11 -23 28 -29 l27 -10 -34 -1 c-25 -1 -44 7
-65 27 l-31 27 28 -31 c20 -22 27 -40 25 -62 l-2 -32 -366 0 c-218 0 -371 4
-380 10 -10 6 115 10 363 10 207 0 377 3 377 8 0 4 -11 16 -25 26 -23 18 -33
54 -18 69 3 4 21 7 40 7 26 0 33 -4 33 -19z m396 10 c-39 -8 -44 -29 -9 -37
15 -3 33 -7 38 -9 6 -2 -62 -4 -151 -4 -158 -1 -161 -1 -160 20 1 12 -5 24
-13 27 -8 3 -11 0 -7 -7 8 -13 -42 -15 -71 -3 -13 5 -6 9 27 13 60 8 383 8
346 0z m317 2 c-51 -2 -136 -2 -190 0 -54 1 -12 3 92 3 105 0 149 -2 98 -3z
m307 -3 c11 -7 5 -10 -23 -10 -23 0 -36 4 -32 10 8 13 35 13 55 0z m735 -20
l29 -30 -95 1 c-71 0 -88 3 -70 10 19 8 22 12 12 22 -8 8 -80 14 -239 17
l-227 6 281 2 280 2 29 -30z m-870 -4 c11 -3 1 -3 -23 0 -24 2 -41 1 -39 -3 3
-5 -84 -7 -194 -5 -127 2 -199 7 -199 13 0 7 67 9 194 7 107 -2 192 0 190 4
-3 4 8 3 23 -2 15 -5 37 -11 48 -14z m-465 4 c0 -5 -9 -10 -19 -10 -11 0 -23
5 -26 10 -4 6 5 10 19 10 14 0 26 -4 26 -10z m1110 0 c0 -6 -65 -10 -175 -10
-96 0 -178 0 -182 -1 -4 0 -9 4 -11 10 -3 8 54 11 182 11 117 0 186 -4 186
-10z m80 0 c11 -7 4 -10 -27 -10 -24 0 -43 5 -43 10 0 13 50 13 70 0z m261
-24 c37 -15 77 -39 90 -52 l24 -26 -55 22 c-87 34 -117 50 -137 72 -20 24 -24
25 78 -16z m9042 27 c-7 -2 -19 -2 -25 0 -7 3 -2 5 12 5 14 0 19 -2 13 -5z
m-9798 -13 c4 -6 -28 -10 -89 -10 -57 0 -96 4 -96 10 0 6 36 10 89 10 50 0 93
-4 96 -10z m2868 3 c-7 -2 -21 -2 -30 0 -10 3 -4 5 12 5 17 0 24 -2 18 -5z
m75 0 c-10 -2 -26 -2 -35 0 -10 3 -2 5 17 5 19 0 27 -2 18 -5z m-3965 -10 c-7
-2 -19 -2 -25 0 -7 3 -2 5 12 5 14 0 19 -2 13 -5z m3911 -34 c11 -54 8 -59
-28 -59 -35 0 -46 15 -46 68 0 18 5 22 34 22 30 0 34 -4 40 -31z m81 19 c2 -7
6 -26 7 -43 3 -26 0 -30 -26 -33 -35 -4 -42 3 -50 51 l-7 37 36 0 c20 0 38 -6
40 -12z m6895 3 c0 -5 3 -23 6 -40 l7 -31 -51 0 c-53 0 -62 8 -62 56 0 22 4
24 50 24 28 0 50 -4 50 -9z m48 -34 c2 -28 0 -37 -12 -37 -9 0 -16 8 -16 18 0
9 -3 28 -7 41 -5 19 -2 22 13 19 14 -2 20 -13 22 -41z m-9908 -27 l0 -60 -84
0 -84 0 -7 43 c-3 23 -9 50 -11 60 -5 15 4 17 90 17 l96 0 0 -60z m-2146 40
c60 -22 147 -130 106 -130 -5 0 -10 9 -10 19 0 11 -4 23 -10 26 -6 4 -10 -5
-10 -20 0 -15 -4 -24 -10 -20 -5 3 -10 15 -10 26 0 29 -18 23 -23 -8 l-4 -28
-8 32 c-9 38 -25 34 -26 -5 0 -23 -2 -22 -14 13 l-13 40 -1 -37 c-1 -31 -5
-38 -21 -38 -16 0 -20 7 -22 40 -1 22 -2 54 -3 70 -2 27 1 30 26 30 15 0 39
-4 53 -10z m1946 -20 c0 -20 -7 -20 -465 -20 -458 0 -465 0 -465 20 0 20 7 20
465 20 458 0 465 0 465 -20z m1005 -20 l98 -40 4074 0 c4066 0 4073 0 4073
-20 0 -22 106 -21 -7126 -20 l-1051 0 -98 40 -98 40 -334 0 c-326 0 -333 0
-333 20 0 20 7 20 348 20 l349 0 98 -40z m1316 31 c-46 -8 -50 -28 -9 -40 22
-6 -177 -9 -593 -10 l-625 -1 -29 30 -29 30 660 -1 c362 -1 644 -4 625 -8z
m462 2 c-79 -2 -207 -2 -285 0 -79 1 -15 3 142 3 157 0 221 -2 143 -3z m695 0
c-53 -2 -143 -2 -200 0 -57 1 -13 3 97 3 110 0 156 -2 103 -3z m5366 -7 c-3
-8 5 -21 18 -30 21 -15 -9 -16 -392 -15 -228 1 -407 3 -397 6 25 7 21 22 -9
33 -40 16 -1056 8 -1061 -7 -3 -7 10 -16 29 -22 23 -6 -68 -9 -292 -9 -229 -1
-318 2 -300 9 l25 10 -27 15 c-41 22 -1383 16 -1383 -6 0 -8 13 -18 30 -21 17
-4 -109 -7 -278 -8 -192 -1 -306 3 -302 8 7 13 -27 31 -59 31 -29 0 -44 -19
-25 -31 16 -10 -676 -12 -770 -3 -41 5 -61 11 -61 20 0 9 11 14 29 14 37 0 62
-10 55 -21 -3 -5 -1 -9 5 -9 15 0 23 18 11 25 -6 4 -32 10 -58 15 -26 4 1137
8 2585 9 2249 1 2632 -1 2627 -13z m361 -16 l29 -30 -113 0 c-77 0 -110 3
-106 11 4 5 -1 19 -11 30 -17 19 -15 19 78 19 92 0 95 -1 123 -30z m-225 10
c11 -7 0 -10 -37 -10 -28 0 -55 5 -58 10 -8 13 75 13 95 0z m-6630 -10 c0 -5
-11 -10 -25 -10 -14 0 -25 5 -25 10 0 6 11 10 25 10 14 0 25 -4 25 -10z m580
-5 c0 -13 -38 -15 -285 -15 -247 0 -285 2 -285 15 0 13 38 15 285 15 247 0
285 -2 285 -15z m648 3 c-4 -10 -54 -14 -195 -16 -163 -2 -192 0 -197 13 -5
13 20 15 195 15 156 0 200 -3 197 -12z m1532 2 c0 -5 -9 -10 -19 -10 -11 0
-23 5 -26 10 -4 6 5 10 19 10 14 0 26 -4 26 -10z m1230 -5 c0 -13 -72 -15
-607 -13 -474 2 -607 6 -611 16 -3 9 123 12 607 12 538 0 611 -2 611 -15z m85
5 c14 -6 16 -9 5 -10 -66 -9 -70 -8 -70 6 0 16 33 18 65 4z m635 0 c0 -5 -9
-10 -20 -10 -11 0 -20 5 -20 10 0 6 9 10 20 10 11 0 20 -4 20 -10z m920 -5 c0
-14 -52 -15 -452 -13 -350 2 -452 6 -456 16 -3 9 92 12 452 12 402 0 456 -2
456 -15z m78 6 c11 -7 10 -10 -3 -15 -30 -11 -65 -7 -65 9 0 17 46 21 68 6z
m-10138 -11 c0 -5 -7 -10 -15 -10 -8 0 -15 5 -15 10 0 6 7 10 15 10 8 0 15 -4
15 -10z m6560 0 c12 -8 9 -10 -12 -10 -15 0 -30 5 -33 10 -8 13 25 13 45 0z
m-3485 -58 l100 -41 4181 -1 c2300 0 4196 3 4213 6 47 10 36 36 -19 51 -25 6
-82 12 -127 12 -45 1 -85 5 -88 11 -4 7 102 10 309 10 l316 0 0 -23 c0 -46 28
-58 126 -55 80 3 89 5 92 23 8 41 36 55 114 55 l74 0 54 -55 54 -55 -6094 1
c-3352 1 -6086 4 -6075 6 11 3 23 11 28 18 5 10 16 11 37 5 36 -10 1908 -15
1933 -5 9 4 17 11 17 16 0 5 9 9 21 9 32 0 59 19 59 41 0 20 4 20 288 17 l287
-4 100 -42z m-2097 31 c-98 -2 -258 -2 -355 0 -98 1 -18 2 177 2 195 0 275 -1
178 -2z m280 0 c-15 -2 -42 -2 -60 0 -18 2 -6 4 27 4 33 0 48 -2 33 -4z m59 1
c-3 -3 -12 -4 -19 -1 -8 3 -5 6 6 6 11 1 17 -2 13 -5z m486 -1 c-83 -2 -223
-2 -310 0 -87 1 -18 3 152 3 171 0 242 -2 158 -3z m204 1 c-3 -3 -12 -4 -19
-1 -8 3 -5 6 6 6 11 1 17 -2 13 -5z m377 -9 c-4 -9 -19 -15 -35 -15 -34 0 -39
17 -6 23 42 8 46 7 41 -8z m9694 4 c28 1 32 -1 32 -24 0 -21 -5 -25 -27 -25
-53 0 -73 11 -73 37 0 20 4 24 18 18 9 -4 32 -7 50 -6z m-9991 -36 c-3 -10 -5
-4 -5 12 0 17 2 24 5 18 2 -7 2 -21 0 -30z m223 27 c0 -5 -5 -10 -11 -10 -5 0
-7 5 -4 10 3 6 8 10 11 10 2 0 4 -4 4 -10z m9850 -20 c0 -13 -5 -17 -20 -13
-19 5 -26 23 -14 36 11 11 34 -5 34 -23z m-10507 13 c-222 -2 -584 -2 -805 0
-222 1 -41 2 402 2 443 0 624 -1 403 -2z m9787 -13 c0 -17 -7 -20 -50 -20 -35
0 -50 4 -50 13 0 22 11 27 57 27 36 0 43 -3 43 -20z m135 -3 c19 -10 18 -11
-10 -18 -45 -13 -105 0 -105 21 0 15 7 17 48 12 26 -2 56 -9 67 -15z m-11268
-23 c-3 -3 -12 -4 -19 -1 -8 3 -5 6 6 6 11 1 17 -2 13 -5z m1896 -1 c-18 -2
-48 -2 -65 0 -18 2 -4 4 32 4 36 0 50 -2 33 -4z m-1983 -49 c0 -14 -3 -14 -15
-4 -8 7 -15 14 -15 16 0 2 7 4 15 4 8 0 15 -7 15 -16z m12260 -14 c0 -20 -11
-20 -6125 -20 -6113 0 -6125 0 -6125 20 0 20 12 20 6125 20 6114 0 6125 0
6125 -20z m-1420 -90 l0 -60 -49 0 c-26 0 -62 5 -80 11 -29 10 -31 14 -31 60
l0 49 80 0 80 0 0 -60z m40 5 c0 -42 -3 -55 -15 -55 -12 0 -15 13 -15 55 0 42
3 55 15 55 12 0 15 -13 15 -55z m30 11 c0 -25 -4 -48 -10 -51 -6 -4 -10 13
-10 44 0 28 5 51 10 51 6 0 10 -20 10 -44z"/>
<path d="M430 2792 c0 -13 41 -64 47 -58 3 3 -6 19 -21 36 -14 17 -26 27 -26
22z"/>
<path d="M1590 2816 c0 -17 22 -26 65 -26 40 0 53 15 26 29 -29 16 -91 14 -91
-3z m80 -6 c11 -7 6 -10 -22 -10 -20 0 -40 5 -43 10 -8 13 45 13 65 0z"/>
<path d="M12423 2675 c-31 -23 6 -42 98 -50 26 -2 38 2 47 15 14 22 1 28 -76
39 -36 5 -58 4 -69 -4z"/>
</g>
</svg>
