<svg width="40" height="200" viewBox="0 0 220 3604" preserveAspectRatio="none"  fill="none" xmlns="http://www.w3.org/2000/svg">
<g clip-path="url(#clip0_3_2)">
<path d="M11.6 9.73321C12.1333 6.79988 12.8 6.66654 24.1333 6.66654C35.4667 6.66654 36 6.79988 36.8 9.86654C37.2 11.8665 38.8 13.4665 40.8 13.8665C42.5334 14.3999 44 15.3332 44 15.9999C44 16.7999 64.9334 17.3332 102 17.3332C150.8 17.3332 160.8 17.5999 164.933 19.3332C167.6 20.3999 170 21.1999 170.133 20.9332C170.4 20.6665 170.133 18.3999 169.467 15.8665C168.8 13.3332 167.867 9.73321 167.467 7.73321L166.667 3.99988L174.4 3.99988C182.267 3.99988 185.333 5.46654 185.333 9.46654C185.333 10.7999 186.8 11.9999 189.333 12.3999C193.067 13.1999 193.333 13.5999 193.333 19.8665C193.333 23.9999 194 26.9332 195.333 27.9999C197.067 29.4665 197.333 104.4 197.333 687.467L197.333 1345.33H201.2C206.533 1345.33 209.333 1349.6 209.333 1357.73C209.333 1366.67 207.6 1369.33 202 1369.33H197.333L197.2 1422.4C197.2 1451.47 196.667 1478.67 196 1482.67C195.467 1486.8 195.467 1490.53 196.133 1491.2C196.8 1492 197.333 1728.67 197.333 2050.93L197.333 2609.33H200.667C206.267 2609.33 209.333 2613.73 209.333 2621.47C209.333 2630.67 207.733 2633.33 202 2633.33H197.333L197.333 3043.33L197.333 3453.33H201.733C207.067 3453.33 209.333 3457.07 209.333 3466C209.333 3474.67 208.4 3476 202.533 3476H197.333V3533.33C197.333 3587.6 197.2 3590.67 194.933 3590.67C193.6 3590.67 190 3588.13 187.067 3585.07C182.267 3580.13 181.467 3578.4 181.067 3572.8C180.667 3566.8 180.267 3566.13 176.8 3565.2C169.733 3563.2 168 3560.53 168 3550.67C168 3540.8 168.667 3540 177.6 3540H181.333V3514.8C181.333 3494.13 180.933 3489.33 179.333 3488C177.6 3486.53 177.333 3460.67 177.333 3270.53C177.333 3092.13 177.067 3054.67 175.6 3054.67C174.533 3054.67 172.4 3053.2 170.8 3051.47C168.267 3048.8 167.867 3047.07 168.267 3039.87L168.667 3031.33L172.933 3030.93L177.333 3030.53L177.333 2555.2L177.333 2079.87L172.667 2075.87C168.267 2072 168 2071.2 168 2063.33C168 2054.67 168.8 2053.33 174.8 2053.33C177.333 2053.33 177.333 2049.6 177.333 1855.33C177.333 1691.73 177.067 1657.33 175.6 1657.33C174.533 1657.33 172.533 1656 170.933 1654.27C168.533 1651.73 168 1649.6 168 1642.4V1633.6L172.667 1632.8L177.333 1631.87V1612.4C177.333 1594.53 177.067 1592.53 174.667 1590C172 1587.07 171.867 1585.6 172 1514.53C172 1445.33 172.133 1441.6 174.667 1434.93C177.333 1428 177.333 1424.13 177.333 1139.6L177.333 851.333L172.667 847.6C168 843.867 167.867 843.733 168.267 834.933L168.667 826L172.933 825.6L177.333 825.2L177.333 549.2L177.333 273.333L174 265.067C170.933 257.333 170.667 255.333 170.667 232.8C170.667 215.2 170.133 207.2 168.667 203.333C166 196 166 179.467 168.667 177.333C170.4 175.867 170.667 169.867 170.667 138.533L170.667 101.333H174H177.333V71.4665C177.333 36.6665 176.8 33.9999 169.067 31.8665C165.467 30.9332 140.4 30.5332 94.1334 30.6665C9.73335 30.9332 17.3333 31.0665 17.3333 28.6665C17.3333 27.5999 16.5333 26.6665 15.4667 26.6665C14.4 26.6665 13.0667 25.9999 12.6667 25.3332C11.6 23.5999 10.9333 13.4665 11.6 9.73321ZM24.6667 13.3332C32.6667 13.3332 34.6667 12.9332 34.6667 11.3332C34.6667 9.73321 32.6667 9.33321 24.6667 9.33321C16.6667 9.33321 14.6667 9.73321 14.6667 11.3332C14.6667 12.9332 16.6667 13.3332 24.6667 13.3332ZM32 22.6665C40.4 22.6665 41.3334 22.3999 41.3334 19.9999C41.3334 17.5999 40.4 17.3332 32 17.3332C23.6 17.3332 22.6667 17.5999 22.6667 19.9999C22.6667 22.3999 23.6 22.6665 32 22.6665ZM158.933 20.9332C160 20.5332 159.6 20.1332 158.133 20.1332C156.667 19.9999 155.867 20.3999 156.4 20.7999C156.8 21.1999 158 21.3332 158.933 20.9332ZM174 19.1999C175.867 21.7332 176 21.5999 176 17.0665C176 13.5999 176.667 11.9999 178.267 11.5999C179.6 11.1999 178.667 10.9332 176.267 10.7999C172.667 10.6665 172 11.0665 172 13.7332C172 15.3332 172.933 17.8665 174 19.1999ZM177.733 832C180.933 832 181.467 831.6 180 830.667C177.333 828.933 171.6 828.933 172.667 830.667C173.067 831.467 175.467 832 177.733 832ZM178.8 2060.27C181.733 2059.07 181.6 2058.93 176.933 2058.4C172.8 2058 172.267 2058.13 173.733 2059.6C174.933 2060.93 176.533 2061.07 178.8 2060.27ZM174.667 109.333C175.333 109.333 176 109.067 176 108.8C176 108.4 175.333 107.733 174.667 107.333C173.867 106.933 173.333 107.2 173.333 107.867C173.333 108.667 173.867 109.333 174.667 109.333ZM174.667 128C175.333 128 176 126.267 176 124C176 121.867 175.333 120 174.667 120C173.867 120 173.333 121.867 173.333 124C173.333 126.267 173.867 128 174.667 128ZM174.667 141.333C175.333 141.333 176 140.4 176 139.333C176 138.267 175.333 137.333 174.667 137.333C173.867 137.333 173.333 138.267 173.333 139.333C173.333 140.4 173.867 141.333 174.667 141.333ZM174.667 256.667C175.467 257.2 176 255.067 176 251.467C176 248.133 175.333 245.333 174.667 245.333C173.867 245.333 173.333 247.733 173.333 250.533C173.333 253.467 173.867 256.267 174.667 256.667ZM178.4 1640C181.2 1640 181.6 1639.73 180 1638.67C177.333 1636.93 172.933 1636.93 174 1638.67C174.4 1639.47 176.4 1640 178.4 1640ZM178.4 3037.33C181.2 3037.33 181.6 3037.07 180 3036C177.333 3034.27 172.933 3034.27 174 3036C174.4 3036.8 176.4 3037.33 178.4 3037.33ZM178.133 3548C180 3548 181.067 3547.47 180.667 3546.67C180.267 3546 178.4 3545.33 176.533 3545.33C174.667 3545.33 173.6 3545.87 174 3546.67C174.4 3547.47 176.267 3548 178.133 3548ZM175.6 199.733C175.867 197.733 175.867 194.133 175.6 191.733C175.333 189.333 175.067 190.933 175.067 195.333C175.067 199.733 175.333 201.733 175.6 199.733ZM178.133 267.867C179.733 269.733 178.267 265.333 176.533 263.2C174.667 260.8 174.667 260.8 176.133 264C176.933 265.867 177.867 267.6 178.133 267.867ZM176.667 1574.13C178.4 1576 178.667 1574.4 178.667 1559.6C178.667 1545.87 178.4 1543.07 176.667 1543.07C175.067 1543.07 174.667 1545.6 174.667 1557.6C174.667 1568.8 175.2 1572.67 176.667 1574.13ZM178.267 106.8C180.4 108.533 180.533 108.4 178.8 106.4C177.867 105.067 176.8 104 176.533 104C175.467 104 176.133 105.067 178.267 106.8ZM177.333 1488.67C177.867 1454.93 178.4 1441.2 179.6 1439.07C180.533 1437.47 181.333 1435.07 181.2 1433.73C181.2 1432.4 180.133 1434 178.667 1437.33C176.533 1442.8 176.267 1447.47 176.4 1489.33L176.533 1535.33L177.333 1488.67ZM177.333 1588.67C178 1589.07 178.667 1588.8 178.667 1588.13C178.667 1587.33 178 1586.67 177.333 1586.67C176.533 1586.67 176 1586.93 176 1587.2C176 1587.6 176.533 1588.27 177.333 1588.67ZM178.667 840.667C179.333 841.067 180 840.267 180 838.8C180 837.2 179.333 836 178.667 836C177.867 836 177.333 836.8 177.333 837.867C177.333 838.933 177.867 840.267 178.667 840.667ZM178.667 848C179.333 848 180 847.2 180 846.133C180 845.067 179.333 843.733 178.667 843.333C177.867 842.933 177.333 843.733 177.333 845.2C177.333 846.8 177.867 848 178.667 848ZM178.667 1650.67C179.333 1650.67 180 1649.2 180 1647.33C180 1645.47 179.333 1644 178.667 1644C177.867 1644 177.333 1645.47 177.333 1647.33C177.333 1649.2 177.867 1650.67 178.667 1650.67ZM178.667 1655.33C179.333 1655.73 180 1655.47 180 1654.8C180 1654 179.333 1653.33 178.667 1653.33C177.867 1653.33 177.333 1653.6 177.333 1653.87C177.333 1654.27 177.867 1654.93 178.667 1655.33ZM178.667 2072C179.333 2072 180 2070.27 180 2068C180 2065.87 179.333 2064 178.667 2064C177.867 2064 177.333 2065.87 177.333 2068C177.333 2070.27 177.867 2072 178.667 2072ZM178.667 3048C179.333 3048 180 3046.53 180 3044.67C180 3042.8 179.333 3041.33 178.667 3041.33C177.867 3041.33 177.333 3042.8 177.333 3044.67C177.333 3046.53 177.867 3048 178.667 3048ZM178.667 3053.33C179.333 3053.33 180 3052.8 180 3052C180 3051.33 179.333 3050.67 178.667 3050.67C177.867 3050.67 177.333 3051.33 177.333 3052C177.333 3052.8 177.867 3053.33 178.667 3053.33ZM178.667 3558.67C179.333 3558.67 180 3557.2 180 3555.47C180 3553.6 179.333 3551.73 178.667 3551.33C177.867 3550.8 177.333 3552.27 177.333 3554.53C177.333 3556.8 177.867 3558.67 178.667 3558.67ZM181.733 27.1999C184.8 31.0665 184.933 31.0665 185.6 28.2665C186.133 26.5332 185.733 25.3332 184.933 25.3332C184.133 25.3332 184 24.9332 184.4 24.3999C184.933 23.9999 184.667 22.7999 183.867 21.7332C182.667 20.3999 183.067 19.9999 186.133 19.8665L190 19.7332L186.667 18.6665C178 15.8665 175.867 19.7332 181.733 27.1999ZM180 186.667C180.8 186.667 181.333 173.067 181.333 148.667C181.333 124.267 180.8 110.667 180 110.667C179.2 110.667 178.667 124.267 178.667 148.667C178.667 173.067 179.2 186.667 180 186.667ZM182.667 202.667C186.533 202.667 186.667 202.4 186.667 196.8C186.667 192.667 186 190.667 184.533 190.133C179.6 188.267 178.667 189.2 178.667 196C178.667 202.533 178.8 202.667 182.667 202.667ZM182 269.067L185.333 277.333L185.333 555.2C185.333 739.067 185.733 833.467 186.667 834C187.6 834.533 188 741.6 188 556L188 277.333L184.667 269.067C181.467 261.2 181.333 259.6 181.333 233.067C181.333 215.467 180.8 205.333 180 205.333C179.2 205.333 178.667 215.467 178.667 233.067C178.667 259.6 178.8 261.2 182 269.067ZM180 272.667C180.8 273.067 180.933 272.533 180.533 271.467C179.6 269.067 178.667 268.667 178.667 270.533C178.667 271.333 179.2 272.267 180 272.667ZM182 380.8C183.733 382.667 184 377.2 184 331.6C184 287.6 183.733 280.133 182 278.667C180.267 277.2 180 282.8 180 327.867C180 371.467 180.267 379.2 182 380.8ZM182 556.933C183.733 556.933 184 552.533 184 526C184 499.467 183.733 495.067 182 495.067C180.267 495.067 180 499.467 180 526C180 552.533 180.267 556.933 182 556.933ZM182 612.8C183.733 614.667 184 612.133 184 590.267C184 569.6 183.733 565.467 182 564.8C180.267 564.133 180 567.2 180 587.467C180 606.533 180.4 611.2 182 612.8ZM182 776.8C183.733 778.667 184 776 184 752.8C184 730.4 183.733 726.667 182 726.667C180.267 726.667 180 730.267 180 750.8C180 770.4 180.4 775.2 182 776.8ZM182 931.467C183.733 933.333 184 931.2 184 912.133C184 894 183.733 890.667 182 890.667C180.267 890.667 180 893.733 180 910.133C180 925.6 180.4 929.867 182 931.467ZM182 987.467C183.733 989.333 184 986.933 184 966.133C184 946.133 183.733 942.667 182 942.667C180.267 942.667 180 946 180 964.133C180 981.333 180.4 985.867 182 987.467ZM182 1197.87C183.733 1198.53 184 1192.67 184 1150C184 1107.6 183.733 1101.33 182 1101.33C180.267 1101.33 180 1107.6 180 1149.2C180 1190.53 180.267 1197.2 182 1197.87ZM182 1350.67C183.733 1352.13 184 1348.4 184 1318.8C184 1290 183.733 1285.33 182 1285.33C180.267 1285.33 180 1289.73 180 1317.2C180 1343.87 180.267 1349.33 182 1350.67ZM182 1420.8C183.733 1422.67 184 1419.6 184 1394.13C184 1369.47 183.733 1365.33 182 1365.33C180.267 1365.33 180 1369.2 180 1392.13C180 1414.13 180.4 1419.2 182 1420.8ZM181.2 1768C181.867 1768 182.8 1769.33 183.067 1771.07C183.333 1772.67 183.733 1758.93 183.867 1740.53C184 1711.6 183.733 1707.07 182 1707.07C180.267 1707.07 180 1711.33 180 1737.6C180 1755.47 180.533 1768 181.2 1768ZM182 1804C183.733 1805.47 184 1803.73 184 1790.13C184 1776.53 183.733 1774.8 182 1776.27C179.2 1778.8 179.2 1801.6 182 1804ZM182 2014.13C183.733 2016 184 2010.8 184 1967.47C184 1924.93 183.733 1918.67 182 1918.67C178.933 1918.67 178.933 2011.2 182 2014.13ZM182 2238.13C183.733 2240 184 2234 184 2184.13C184 2135.07 183.733 2128 182 2128C180.267 2128 180 2134.93 180 2182.13C180 2228.4 180.267 2236.53 182 2238.13ZM182 2462.13C183.733 2464 184 2458 184 2408.13C184 2359.07 183.733 2352 182 2352C180.267 2352 180 2358.93 180 2406.13C180 2452.4 180.267 2460.53 182 2462.13ZM182 2614.67C183.733 2616.13 184 2612.4 184 2582.8C184 2554 183.733 2549.33 182 2549.33C180.267 2549.33 180 2553.73 180 2581.2C180 2607.87 180.267 2613.33 182 2614.67ZM180.8 2623.6C181.2 2623.2 181.333 2622 180.933 2621.07C180.533 2620 180.133 2620.4 180.133 2621.87C180 2623.33 180.4 2624.13 180.8 2623.6ZM182 2684.8C183.733 2686.67 184 2683.6 184 2658.13C184 2633.47 183.733 2629.33 182 2629.33C180.267 2629.33 180 2633.2 180 2656.13C180 2678.13 180.4 2683.2 182 2684.8ZM182 2986.13C183.733 2988 184 2976.13 184 2880.13C184 2784.93 183.733 2772 182 2772C180.267 2772 180 2784.67 180 2878.13C180 2970.67 180.267 2984.4 182 2986.13ZM182 3304.8C183.733 3306.67 184 3295.33 184 3203.6C184 3112.8 183.733 3100.4 182 3100.4C180.267 3100.4 180 3112.53 180 3201.6C180 3289.87 180.267 3303.07 182 3304.8ZM182 3458.13C183.733 3460 184 3456.4 184 3426.13C184 3396.67 183.733 3392 182 3392C180.267 3392 180 3396.4 180 3424.13C180 3450.8 180.267 3456.53 182 3458.13ZM182 3488C183.733 3489.47 184 3488.53 184 3481.07C184 3474.27 183.6 3472.4 182 3472.4C180.533 3472.4 180 3474.13 180 3479.33C180 3484 180.667 3486.93 182 3488ZM182.267 92.3999C182.533 84.1332 182.533 70.5332 182.267 62.3999C182.133 54.1332 181.867 60.7999 181.867 77.3332C181.867 93.8665 182.133 100.533 182.267 92.3999ZM182.667 1592C183.6 1592 184 1566.93 184 1519.47C184 1458 184.267 1446.27 186 1442.27C187.733 1438 188 1401.87 188 1144.8C188 951.2 187.6 851.867 186.667 851.333C185.733 850.8 185.333 949.067 185.333 1144.93C185.2 1391.6 184.933 1440 183.333 1443.33C181.867 1446.53 181.467 1461.33 181.467 1519.73C181.333 1567.07 181.733 1592 182.667 1592ZM187.333 268.8L190.533 276.667V242C190.533 210.533 190.4 207.733 188.533 211.067C187.467 213.067 186 214.667 185.333 214.667C184.533 214.667 184 223.733 184 237.733C184 259.333 184.267 261.467 187.333 268.8ZM186 3544C186.933 3544 188.533 3545.07 189.2 3546.4C190.133 3548 190.533 3543.2 190.667 3529.73C190.667 3513.47 190.4 3510.8 188.667 3511.47C187.467 3512 186.267 3511.2 185.467 3509.2C184.533 3506.93 184.133 3511.73 184.133 3525.07C184 3540.8 184.267 3544 186 3544ZM187.333 3581.33L190.667 3584.4V3580.93C190.667 3578.4 190.133 3577.6 188.667 3578.13C187.467 3578.67 186.267 3577.87 185.467 3575.87C184.267 3572.93 184.133 3572.93 184.133 3575.47C184 3576.93 185.467 3579.6 187.333 3581.33ZM186.667 1456.67C187.467 1456.27 188.533 1457.2 189.2 1458.93C190.133 1461.2 190.533 1458.93 190.533 1450.67V1439.33L188 1445.33C185.2 1451.87 184.533 1458 186.667 1456.67ZM187.2 1478.53C188.667 1479.73 189.2 1479.47 189.867 1477.07C191.067 1472.13 190.8 1470.27 188.8 1471.07C187.733 1471.47 186.533 1471.2 186.133 1470.27C185.867 1469.33 185.467 1470.53 185.467 1472.8C185.333 1475.07 186.133 1477.73 187.2 1478.53ZM186.533 1486C188.933 1487.33 189.6 1483.73 187.467 1481.6C185.467 1479.6 185.333 1479.6 185.333 1482.27C185.333 1483.87 185.867 1485.47 186.533 1486ZM188 1571.33C190.667 1573.73 190.667 1573.6 190.667 1556.27C190.667 1539.6 190.533 1538.67 188 1538.67C185.467 1538.67 185.333 1539.6 185.333 1553.73C185.333 1567.2 185.6 1569.2 188 1571.33ZM186.667 1641.33C187.467 1641.33 188 1629.6 188 1608.67C188 1587.73 187.467 1576 186.667 1576C185.867 1576 185.333 1587.73 185.333 1608.67C185.333 1629.6 185.867 1641.33 186.667 1641.33ZM186.667 2062.67C187.6 2062.67 188 1994.4 188 1860.67C188 1726.93 187.6 1658.67 186.667 1658.67C185.733 1658.67 185.333 1726.93 185.333 1860.67C185.333 1994.4 185.733 2062.67 186.667 2062.67ZM186.667 3038.67C187.6 3038.67 188 2878 188 2559.33C188 2240.67 187.6 2080 186.667 2080C185.733 2080 185.333 2240.67 185.333 2559.33C185.333 2878 185.733 3038.67 186.667 3038.67ZM186.667 3490.67C187.6 3490.67 188 3417.33 188 3273.33C188 3129.33 187.6 3056 186.667 3056C185.733 3056 185.333 3129.33 185.333 3273.33C185.333 3417.33 185.733 3490.67 186.667 3490.67ZM187.6 3499.07C187.867 3498.13 187.867 3496.27 187.6 3495.07C187.2 3493.73 186.933 3494.53 186.933 3496.67C186.933 3498.93 187.2 3499.87 187.6 3499.07ZM187.467 3506.27C187.867 3505.87 188 3504.67 187.6 3503.73C187.2 3502.67 186.8 3503.07 186.8 3504.53C186.667 3506 187.067 3506.8 187.467 3506.27ZM189.333 1513.2C189.733 1496.67 190.533 1489.07 191.733 1487.6C192.667 1486.4 193.333 1483.87 192.933 1481.73L192.4 1478L192.133 1482C192 1484.27 191.067 1487.2 190 1488.53C188.4 1490.67 188 1495.73 188.267 1513.87L188.533 1536.67L189.333 1513.2ZM190.133 44.9332C190.533 44.5332 190.667 43.3332 190.267 42.3999C189.867 41.3332 189.467 41.7332 189.467 43.1999C189.333 44.6665 189.733 45.4665 190.133 44.9332ZM194.267 1115.6C194.533 917.067 194.533 592.267 194.267 393.6C194.133 195.067 194 357.6 194 754.667C194 1151.73 194.133 1314.27 194.267 1115.6ZM194.267 3065.73C194.533 2778.13 194.533 2307.2 194.267 2019.07C194.133 1731.07 194 1966.4 194 2542C194 3117.73 194.133 3353.33 194.267 3065.73ZM202.133 1361.33H207.067L206.133 1355.73C204.933 1348.67 204.533 1348 200.533 1348C197.6 1348 197.333 1348.53 197.333 1354.67V1361.33H202.133ZM202 2625.33C207.2 2625.33 207.867 2623.6 205.2 2616.13C204.133 2613.07 202.933 2612 200.533 2612C197.6 2612 197.333 2612.53 197.333 2618.67V2625.33H202ZM202 3468C205.733 3468 206.667 3467.47 206.667 3465.47C206.667 3460 204.133 3456 200.667 3456C197.6 3456 197.333 3456.53 197.333 3462C197.333 3468 197.333 3468 202 3468ZM203.6 3471.6C204.933 3471.2 203.867 3470.93 201.333 3470.93C198.8 3470.93 197.733 3471.2 198.933 3471.6C200.267 3471.87 202.4 3471.87 203.6 3471.6Z" fill="black"/>
</g>
<defs>
<clipPath id="clip0_3_2">
<rect width="3604" height="224" fill="white" transform="matrix(0 1 1 0 0 -0.00012207)"/>
</clipPath>
</defs>
</svg>
