<svg width="40" height="200" viewBox="0 0 300 1700" preserveAspectRatio="none" fill="#000000" xmlns="http://www.w3.org/2000/svg">
<g filter="url(#filter0_d_2_22)">
<path d="M275.674 7.05609C274.631 5.98962 269.183 5.58969 259.215 5.85631L244.262 6.25624L243.682 11.5886C243.103 16.521 242.871 16.9209 239.278 17.0543C237.191 17.1876 234.873 18.1207 234.062 19.3205C232.786 21.3201 224.788 21.5868 149.213 21.8534C73.7534 22.2533 65.2917 22.5199 60.887 24.5195L55.9027 26.7858L57.5255 23.853C59.2642 20.7869 62.0461 3.19013 61.0029 1.45712C60.3074 -0.00927786 41.8772 1.59043 40.0226 3.19013C39.2112 3.85668 38.5157 6.65616 38.2839 9.32234C37.9362 13.8548 37.5884 14.2548 33.8792 14.6547C27.7358 15.3212 27.1562 16.521 27.7358 26.6525C28.3154 35.3176 28.1994 35.7175 24.722 39.4501L21.1287 43.4494L21.1287 753.719L21.1287 1463.99H16.2604C10.0011 1463.99 8.95784 1464.92 6.63957 1471.05C4.43722 1477.19 4.43722 1487.98 6.52366 1493.98C8.26236 1498.52 8.49418 1498.65 14.6376 1498.65H21.1287L21.1287 1588.5L21.1287 1678.35L24.6061 1678.88C27.504 1679.42 29.0108 1678.35 35.0383 1671.28L41.9931 1663.15V1652.35L41.9931 1641.56L46.9774 1640.62C50.4548 1639.96 53.2367 1638.22 56.83 1634.22L61.8143 1628.62L61.4666 1617.56C61.3507 1611.43 60.6552 1605.96 59.9597 1605.43C57.5255 1603.16 52.5412 1602.63 51.0344 1604.5C50.1071 1605.43 47.6729 1606.76 45.7024 1607.3L41.9931 1608.23L41.9931 1565.04L41.9931 1521.71L44.891 1518.64L47.7888 1515.58L47.7888 1115.12C47.7888 757.585 48.0206 714.793 49.5275 714.793C50.5707 714.793 53.7004 712.26 56.4823 709.327L61.6984 703.728V691.864C61.6984 680.266 61.6984 679.999 58.5687 678.666C54.0481 676.666 49.9912 676.8 48.832 678.933C48.2525 679.999 47.7888 626.409 47.7888 553.756L47.7888 426.579L52.4253 413.915L57.0619 401.117L57.0619 362.591C57.0619 335.929 57.5255 323.131 58.4528 321.132C60.887 315.933 61.6984 309.001 61.8143 294.337C61.9302 281.672 61.5825 279.406 59.496 276.073C57.0619 272.341 57.0619 271.008 57.0619 214.085L57.0619 155.962L52.4253 156.495L47.7888 157.029L47.9047 106.904C48.0206 52.9143 48.2525 49.9815 54.0481 45.0491C57.1778 42.2496 58.4528 42.2496 150.72 41.8497C202.069 41.7164 244.957 41.8497 246.001 42.3829C248.203 43.4494 258.867 43.4494 261.069 42.5162C261.997 42.1163 264.083 41.5831 265.706 41.3165C267.908 41.0498 268.604 40.1167 268.604 37.5838C268.604 34.9176 269.299 34.1178 271.849 33.8512C276.022 33.3179 276.834 30.7851 277.065 18.7873C277.297 11.4553 276.833 8.12256 275.674 7.05609ZM259.794 15.1879C244.957 14.788 244.726 14.6547 245.073 11.8552C245.421 9.05572 246.001 8.92241 260.258 8.52249L274.979 8.12256V11.8552V15.5879L259.794 15.1879ZM270.922 24.2529C269.299 25.9859 268.024 27.0524 268.024 26.6525C268.024 26.3859 269.299 24.6529 270.922 22.9198C272.545 21.1868 273.82 20.1204 273.82 20.5203C273.82 20.7869 272.545 22.5199 270.922 24.2529ZM269.299 20.9202C268.72 21.3201 267.908 21.0535 267.445 20.2537C267.097 19.5871 267.56 18.9206 268.488 18.9206C270.574 18.9206 270.922 19.7204 269.299 20.9202ZM115.83 38.517C88.3585 38.3837 110.846 38.2504 166.02 38.2504C221.195 38.2504 243.682 38.3837 216.095 38.517C188.623 38.7836 143.417 38.7836 115.83 38.517ZM251.333 30.6518C237.307 31.0517 234.641 30.5184 236.496 27.8523C237.191 26.9191 237.539 24.7862 237.075 23.1865C236.496 20.2537 236.612 20.2537 249.826 20.2537C263.967 20.2537 264.663 20.5203 264.199 26.9191C263.967 30.2518 263.851 30.2518 251.333 30.6518ZM245.189 34.5177C242.06 34.2511 244.61 34.1178 250.637 34.1178C256.665 34.1178 259.215 34.2511 256.201 34.5177C253.071 34.7843 248.203 34.7843 245.189 34.5177ZM108.411 34.5177C84.8811 34.3844 104.123 34.2511 150.952 34.2511C197.781 34.2511 217.022 34.3844 193.608 34.5177C170.077 34.7843 131.826 34.7843 108.411 34.5177ZM230.7 25.1861C229.773 24.7862 230.12 24.3862 231.395 24.3862C232.671 24.2529 233.366 24.6529 232.902 25.0528C232.555 25.4527 231.511 25.586 230.7 25.1861ZM180.741 25.1861C172.28 25.0528 179.582 24.7862 196.737 24.7862C214.008 24.7862 220.847 25.0528 212.038 25.1861C203.229 25.4527 189.087 25.4527 180.741 25.1861ZM178.539 31.8515C169.382 31.7182 176.8 31.4516 194.999 31.4516C213.197 31.4516 220.616 31.7182 211.574 31.8515C202.417 32.1181 187.58 32.1181 178.539 31.8515ZM99.0225 31.8515C87.7789 31.7182 97.2838 31.5849 120.235 31.5849C143.185 31.5849 152.459 31.7182 140.751 31.8515C129.044 32.1181 110.266 32.1181 99.0225 31.8515ZM155.472 28.2522C153.502 28.2522 152.227 27.719 152.69 26.9191C153.038 26.2526 154.661 25.586 156.284 25.586C157.791 25.586 159.066 26.2526 159.066 26.9191C159.066 27.719 157.443 28.2522 155.472 28.2522ZM146.199 28.2522C144.345 28.2522 142.838 27.719 142.838 26.9191C142.838 26.2526 144.692 25.586 147.011 25.586C149.445 25.586 150.836 26.1193 150.372 26.9191C150.024 27.719 148.17 28.2522 146.199 28.2522ZM135.651 27.9856C131.942 28.2522 131.13 27.9856 132.406 26.9191C134.956 25.0528 140.519 25.4527 140.519 27.5856C140.519 27.5856 138.317 27.8523 135.651 27.9856ZM100.761 25.1861C95.5451 25.0528 100.182 24.7862 110.962 24.7862C121.857 24.7862 126.03 25.0528 120.466 25.1861C114.903 25.4527 105.977 25.4527 100.761 25.1861ZM79.0854 27.5856C76.999 28.3855 76.5353 28.2522 77.3467 27.0524C78.0422 26.2526 81.1718 25.3194 84.3015 24.9195C89.4017 24.3862 89.6335 24.5195 86.0402 25.4527C83.8378 26.1193 80.7082 27.1857 79.0854 27.5856ZM70.1601 31.8515C68.3055 31.5849 69.5805 31.3183 72.7102 31.3183C75.9557 31.3183 77.3467 31.5849 75.9557 31.8515C74.4489 32.1181 71.8988 32.1181 70.1601 31.8515ZM72.5942 29.5853C69.5805 29.5853 69.1169 28.2522 71.2033 25.8526C73.5216 23.1865 76.6512 23.853 75.9557 26.9191C75.608 28.6521 74.3329 29.5853 72.5942 29.5853ZM64.0167 29.5853C62.278 29.5853 58.5687 30.5184 55.7868 31.5849C51.2662 33.3179 50.9185 33.3179 52.889 31.5849C55.6709 29.1854 66.7986 24.2529 69.4646 24.2529C71.0874 24.2529 71.0874 24.5195 69.2328 26.9191C68.0736 28.3855 65.7554 29.5853 64.0167 29.5853ZM61.4666 31.8515C60.6552 31.4516 61.2347 31.185 62.8575 31.185C64.4803 31.185 65.0599 31.4516 64.3644 31.8515C63.553 32.1181 62.162 32.1181 61.4666 31.8515ZM55.6709 40.25C53.2367 41.0498 51.3821 42.1163 51.6139 42.6495C51.7299 43.3161 49.8752 45.7156 47.4411 48.2485C42.4568 53.1809 39.0953 59.9797 37.9362 67.3117C37.4725 70.1112 36.777 72.1108 36.5452 71.7109C35.502 70.5111 38.5157 58.5133 40.9499 54.7806C43.3841 50.7814 43.8477 48.9151 41.8772 50.3815C41.1817 50.7814 39.443 53.9808 38.0521 57.4468C35.6179 63.579 35.6179 64.7788 35.0383 175.558L34.4588 287.538L34.111 176.758C33.8792 56.5137 33.6474 60.2463 40.1385 50.5148C41.7613 48.2485 44.5432 45.0491 46.5138 43.5827C48.3684 42.2496 49.7593 40.6499 49.5275 40.25C49.2957 39.8501 49.9912 39.4501 51.0344 39.3168C52.0776 39.3168 55.9027 38.9169 59.3801 38.517C62.8575 38.117 64.4803 37.9837 62.8575 38.3837C61.2347 38.6503 57.9892 39.5834 55.6709 40.25ZM60.5393 36.2507C58.6846 36.2507 57.0619 35.9841 57.0619 35.7175C57.0619 35.4509 58.6846 34.9176 60.5393 34.651C62.5098 34.2511 64.0167 34.5177 64.0167 35.1843C64.0167 35.7175 62.5098 36.2507 60.5393 36.2507ZM59.7279 298.602C59.496 297.269 59.496 295.136 59.7279 293.937C60.0756 292.604 60.3074 293.67 60.3074 296.203C60.3074 298.736 60.0756 299.802 59.7279 298.602ZM56.9459 294.203C55.7868 295.536 55.555 287.005 56.5982 283.539C57.1778 281.806 57.6414 281.672 58.3369 283.139C59.496 285.005 58.5687 292.204 56.9459 294.203ZM58.221 314.066C57.6414 315.933 56.5982 317.532 55.9027 317.532C55.0913 317.532 54.9754 316.732 55.9027 314.999C56.4823 313.533 57.0619 309.934 57.0619 307.001C57.0619 303.935 57.6414 301.535 58.221 301.535C59.7279 301.535 59.7279 309.667 58.221 314.066ZM56.3664 688.264C52.889 691.997 52.6572 690.131 56.1346 685.598L58.8006 682.132L55.3232 685.598C52.3094 688.664 51.1503 689.064 46.7456 688.264C43.9637 687.864 41.4136 686.798 41.1817 685.998C40.7181 684.398 46.0501 682.532 52.0776 682.132C54.164 681.999 56.2505 681.465 56.7141 681.065C57.9892 679.466 58.9165 679.999 59.0324 682.665C59.1483 683.998 57.9892 686.531 56.3664 688.264ZM53.7004 708.66C53.3526 708.26 53.8163 707.461 54.6277 706.927C55.4391 706.261 55.9027 705.194 55.555 704.528C55.2072 703.861 56.0186 703.195 57.2937 703.195C59.612 702.928 59.612 703.061 57.0619 706.128C55.555 707.994 54.0481 709.06 53.7004 708.66ZM56.4823 1613.69C52.7731 1616.76 52.7731 1615.96 56.4823 1611.96C58.1051 1610.23 59.3801 1609.43 59.3801 1610.09C59.3801 1610.76 57.9892 1612.36 56.4823 1613.69ZM56.4823 1631.96C54.8595 1633.69 53.5845 1634.76 53.5845 1634.36C53.5845 1634.09 54.8595 1632.36 56.4823 1630.62C58.1051 1628.89 59.3801 1627.82 59.3801 1628.22C59.3801 1628.49 58.1051 1630.22 56.4823 1631.96ZM56.3664 700.129C54.2799 700.129 54.164 692.93 56.3664 690.93C57.6414 689.731 57.9892 690.397 57.9892 694.796C58.1051 698.529 57.6414 700.129 56.3664 700.129ZM56.1346 1625.03C54.9754 1625.43 54.6277 1624.36 54.9754 1621.16C55.2072 1618.76 56.0186 1616.63 56.83 1616.23C57.9892 1615.83 58.3369 1616.89 57.9892 1620.09C57.7573 1622.49 56.946 1624.63 56.1346 1625.03ZM54.7436 22.9198C51.1503 30.9184 50.1071 30.6518 50.1071 21.7201C50.1071 13.8548 49.9912 13.5882 47.0933 13.5882C44.891 13.5882 44.1955 12.9217 44.5432 11.322C44.7751 9.45565 46.2819 8.7891 51.0344 8.52249L57.0619 8.12256V12.9217C57.0619 15.5879 56.0186 19.987 54.7436 22.9198ZM43.7318 1612.76L35.6179 1611.03L41.1817 1610.23C44.1955 1609.69 49.0638 1608.89 52.1935 1608.49L57.6414 1607.7L54.7436 1611.03C51.8458 1614.36 51.7298 1614.36 43.7318 1612.76ZM53.7004 168.226C52.3094 168.226 51.0344 169.693 50.3389 171.959L49.1798 175.558L49.0638 171.026C48.9479 167.693 49.8752 165.16 52.1935 162.361L55.3232 158.228L51.7298 161.961C49.1798 164.627 47.0933 165.56 44.5432 165.294L40.834 165.027L40.834 116.236C40.834 87.1747 41.2977 66.7784 41.9931 65.5787C42.6886 64.2456 43.1523 80.9092 43.1523 113.97C43.1523 141.565 43.5 164.227 44.0796 164.227C44.5432 164.227 45.9342 162.761 47.0933 160.894C49.1798 157.828 53.3526 156.495 55.0913 158.495C55.555 158.895 55.9027 161.294 55.9027 163.827C55.9027 167.293 55.4391 168.226 53.7004 168.226ZM54.8595 221.017C53.9322 215.818 51.498 215.151 50.5707 219.817C50.223 221.817 49.7593 224.216 49.5275 224.883C49.2957 225.683 49.0638 216.618 49.0638 204.753C48.9479 183.69 48.9479 183.29 51.3821 183.424C52.7731 183.557 54.164 182.757 54.5118 181.691C54.8595 180.624 54.5118 180.224 53.7004 180.757C52.1935 181.824 51.9617 175.159 53.3526 171.293C53.9322 169.56 54.3959 170.493 54.8595 174.892C55.7868 182.89 55.7868 225.949 54.8595 221.017ZM55.0913 263.276C54.8595 256.477 54.8595 245.146 55.0913 237.947C55.2073 230.748 55.4391 236.347 55.4391 250.211C55.4391 264.209 55.2073 270.074 55.0913 263.276ZM54.7436 304.201C53.9322 305.668 53.5845 304.868 53.5845 301.135C53.5845 298.069 54.0481 296.336 54.7436 296.869C56.2505 297.936 56.2505 301.535 54.7436 304.201ZM52.4253 402.183L48.9479 406.049L49.0638 393.385C49.0638 383.92 49.4116 381.654 50.223 384.053C51.1503 386.586 51.6139 386.986 52.7731 385.653C53.7004 384.587 54.3959 374.988 54.7436 353.792L55.4391 323.531L55.6709 360.991L55.9027 398.317L52.4253 402.183ZM51.9617 286.205C51.6139 287.671 51.6139 286.338 51.9617 283.139C52.1935 279.939 52.0776 277.673 51.6139 277.94C51.0344 278.34 50.8025 266.742 51.0344 252.078C51.2662 235.147 51.8458 225.549 52.5412 225.549C53.3526 225.549 53.5845 234.481 53.3526 251.411C53.1208 265.675 53.3526 277.006 53.8163 276.74C54.2799 276.34 54.164 277.806 53.5845 279.806C53.0049 281.806 52.3094 284.738 51.9617 286.205ZM52.4253 224.216C51.8458 224.216 51.2662 223.016 51.2662 221.683C51.2662 220.217 51.8458 218.617 52.4253 218.217C53.1208 217.684 53.5845 218.884 53.5845 220.75C53.5845 222.616 53.1208 224.216 52.4253 224.216ZM52.4253 372.189C51.7299 372.189 51.2662 363.524 51.2662 348.86C51.2662 336.062 51.2662 325.131 51.1503 324.598C51.1503 324.064 51.6139 323.398 52.3094 323.131C53.2367 322.731 53.5845 330.33 53.5845 347.393C53.5845 362.991 53.1208 372.189 52.4253 372.189ZM52.4253 382.854C51.6139 384.32 51.2662 383.387 51.2662 379.254C51.2662 376.055 51.8458 373.522 52.4253 373.522C53.9322 373.522 53.9322 380.187 52.4253 382.854ZM49.6434 417.647C47.9047 422.58 45.1228 427.912 43.6159 429.645L40.6022 432.844L43.1523 425.512C47.0933 413.915 48.9479 409.915 51.498 407.249C54.2799 404.583 54.3959 404.05 49.6434 417.647ZM52.7731 1623.03C52.5412 1622.09 52.5412 1620.49 52.7731 1619.69C53.1208 1618.76 53.3526 1619.43 53.3526 1621.29C53.3526 1623.16 53.1208 1623.83 52.7731 1623.03ZM51.2662 316.866C50.5707 317.399 50.1071 313.133 50.1071 305.001C50.1071 297.403 50.5707 292.204 51.2662 292.204C51.9617 292.204 52.4253 297.003 52.4253 304.068C52.4253 310.734 51.9617 316.466 51.2662 316.866ZM51.6139 699.195C51.3821 698.262 51.3821 696.396 51.6139 695.196C51.9617 693.863 52.1935 694.663 52.1935 696.796C52.1935 699.062 51.9617 699.995 51.6139 699.195ZM51.6139 709.194C51.3821 707.861 51.3821 705.728 51.6139 704.528C51.9617 703.195 52.1935 704.261 52.1935 706.794C52.1935 709.327 51.9617 710.393 51.6139 709.194ZM50.4548 180.624C50.223 179.691 50.223 178.091 50.4548 177.291C50.8025 176.358 51.0344 177.025 51.0344 178.891C51.0344 180.757 50.8025 181.424 50.4548 180.624ZM46.5138 701.995C40.2544 703.461 39.6749 703.061 39.6749 698.262C39.6749 693.596 41.4136 692.13 47.557 692.13C49.6434 692.13 50.1071 692.797 50.1071 696.663C50.1071 700.662 49.6434 701.195 46.5138 701.995ZM48.7161 712.793C47.9047 713.06 45.7024 713.593 43.7318 713.726C40.7181 714.126 40.2544 713.726 39.9067 710.26C39.443 705.594 40.2544 704.661 45.8183 703.595L50.1071 702.662V707.461C50.1071 710.127 49.4116 712.526 48.7161 712.793ZM49.0638 1631.96C48.4843 1631.96 46.3978 1632.36 44.4273 1632.76L40.834 1633.69V1626.89C40.834 1619.83 41.7613 1618.63 47.3251 1618.63C49.8752 1618.63 50.1071 1619.16 50.1071 1625.29C50.1071 1629.02 49.6434 1631.96 49.0638 1631.96ZM45.1228 1638.36C41.8772 1638.62 40.834 1638.36 40.834 1636.76C40.834 1635.56 41.7613 1634.62 42.9204 1634.62C43.9637 1634.62 46.166 1634.22 47.6729 1633.69C49.8752 1633.02 50.223 1633.42 49.8752 1635.42C49.6434 1637.29 48.3684 1638.09 45.1228 1638.36ZM41.9931 317.532H35.0383V306.334V295.136L40.0226 294.203C42.6886 293.803 45.8183 293.003 46.9774 292.737C48.7161 292.07 48.9479 293.27 48.9479 304.735V317.532H41.9931ZM46.6297 31.4516C44.0796 39.4501 31.5609 51.048 31.5609 45.5823C31.5609 44.9158 32.6042 44.2493 33.7633 44.2493C35.0383 44.2493 36.4293 43.716 36.777 42.9162C37.2407 42.1163 36.1975 41.5831 34.4588 41.5831C32.7201 41.5831 31.6768 41.0498 32.1405 40.25C32.4882 39.5834 33.8792 38.9169 35.1542 38.9169C38.5157 38.9169 37.8203 36.5173 34.2269 35.8508L30.9814 35.3176L34.6906 34.2511C39.0953 33.0513 38.6316 30.9184 34.111 30.7851C31.445 30.7851 31.5609 30.5184 35.6179 28.9187L40.2544 27.1857L35.9656 27.0524C32.3723 26.9191 31.5609 26.3859 31.5609 24.2529C31.5609 22.12 32.3723 21.5868 36.1975 21.3201C38.7476 21.1868 42.4568 21.0535 44.3114 20.9202C47.4411 20.6536 47.7888 21.0535 47.7888 24.3862C47.7888 26.3859 47.3251 29.5853 46.6297 31.4516ZM44.3114 290.871C41.9931 290.871 41.9931 289.937 41.9931 228.882C41.9931 167.827 41.9931 166.893 44.3114 166.893C46.6297 166.893 46.6297 167.827 46.6297 228.882C46.6297 289.937 46.6297 290.871 44.3114 290.871ZM41.9931 424.846L37.3566 437.91L37.3566 981.01C37.3566 1523.04 37.3566 1523.98 35.0383 1523.98C32.4882 1523.98 32.6042 1538.11 32.7201 574.018L32.7201 433.911L37.3566 420.847L41.9931 407.782L41.9931 363.257C41.9931 319.799 41.9931 318.865 44.3114 318.865C46.6297 318.865 46.6297 319.799 46.6297 365.257L46.6297 411.782L41.9931 424.846ZM45.5864 600.28C44.6591 594.148 42.3409 593.615 40.9499 599.081C40.2544 602.013 39.9067 575.485 39.7908 520.028L39.6749 436.71L43.1523 432.844L46.6297 428.978L46.5138 516.962C46.3978 565.22 46.0501 602.813 45.5864 600.28ZM45.8183 661.869C45.5864 651.338 45.5864 634.274 45.8183 623.876C45.9342 613.345 46.166 621.876 46.166 642.806C46.166 663.735 45.9342 672.267 45.8183 661.869ZM45.8183 754.519C45.5864 747.453 45.5864 735.456 45.8183 727.857C45.9342 720.258 46.166 726.124 46.166 740.788C46.166 755.452 45.9342 761.584 45.8183 754.519ZM45.0069 1469.85C44.0796 1469.45 42.5727 1470.52 41.5295 1472.25C39.7908 1475.05 39.6749 1471.05 39.7908 1420C39.9067 1389.6 40.1385 1365.74 40.4863 1367.07C41.2977 1370.41 43.0364 1369.87 44.3114 1365.87C46.166 1360.54 45.2387 1225.1 43.5 1224.43C42.6886 1224.03 41.6454 1225.77 40.9499 1228.3C40.2544 1231.36 39.9067 1219.23 39.9067 1189.37C39.7908 1158.84 40.1385 1146.98 40.9499 1149.38L42.109 1152.71L43.8477 1149.11C46.3978 1143.65 45.7024 964.747 43.1523 964.747C42.225 964.747 41.0658 966.48 40.7181 968.746C40.2544 971.012 39.9067 954.215 39.7908 931.686C39.6749 906.091 40.1385 890.894 40.7181 891.427C42.225 892.36 44.3114 887.827 44.3114 883.562C44.3114 879.696 42.109 877.696 40.7181 880.229C39.559 882.362 39.3271 790.112 40.3703 777.581C40.9499 772.115 41.6454 769.449 42.6886 769.449C43.7318 769.449 44.3114 770.916 44.3114 773.315C44.3114 778.248 43.1523 781.58 41.8772 780.647C41.2977 780.247 40.834 780.514 40.834 781.314C40.834 783.313 42.9204 784.38 43.7318 782.78C44.1955 781.98 44.891 778.514 45.4705 775.048C45.9342 771.582 46.3978 926.62 46.5138 1119.65C46.6297 1419.46 46.3978 1470.52 45.0069 1469.85ZM43.1523 1517.98L39.6749 1521.84V1506.78C39.6749 1496.52 40.0226 1492.12 40.9499 1492.65C41.5295 1493.18 43.1523 1492.52 44.4273 1491.18C46.6297 1488.92 46.6297 1489.18 46.6297 1501.58C46.6297 1513.85 46.5138 1514.25 43.1523 1517.98ZM44.3114 1487.98C43.5 1489.45 43.1523 1487.98 43.1523 1483.05C43.1523 1479.32 43.7318 1475.72 44.3114 1475.32C45.8183 1474.25 45.8183 1485.32 44.3114 1487.98ZM43.1523 604.146C42.5727 604.146 41.9931 602.68 41.9931 600.814C41.9931 598.947 42.5727 597.481 43.1523 597.481C43.8477 597.481 44.3114 598.947 44.3114 600.814C44.3114 602.68 43.8477 604.146 43.1523 604.146ZM42.5727 681.465C41.0658 681.465 40.834 676.4 40.834 643.472C40.834 610.545 41.0658 605.479 42.5727 605.479C44.0796 605.479 44.3114 610.545 44.3114 643.472C44.3114 676.4 44.0796 681.465 42.5727 681.465ZM42.9204 767.85C41.7613 767.316 41.2977 760.651 41.0658 741.854C40.834 720.125 41.0658 716.259 42.5727 715.592C44.0796 714.926 44.3114 718.259 44.3114 741.588C44.3114 762.384 43.9637 768.249 42.9204 767.85ZM43.1523 972.079C42.5727 972.079 41.9931 970.879 41.9931 969.546C41.9931 968.079 42.5727 966.48 43.1523 966.08C43.8477 965.547 44.3114 966.746 44.3114 968.613C44.3114 970.479 43.8477 972.079 43.1523 972.079ZM42.5727 1136.05C41.0658 1136.05 40.834 1126.45 41.0658 1055.13C41.2977 991.942 41.7613 974.212 42.9204 973.678C43.9637 973.278 44.3114 990.075 44.3114 1054.6C44.3114 1126.32 44.0796 1136.05 42.5727 1136.05ZM43.1523 1147.38C42.4568 1149.25 42.109 1149.51 41.9931 1148.05C40.9499 1139.25 41.0658 1138.71 42.6886 1138.71C44.5432 1138.71 44.7751 1143.11 43.1523 1147.38ZM43.1523 1232.03C42.5727 1232.03 41.9931 1230.83 41.9931 1229.36C41.9931 1227.9 42.5727 1226.7 43.1523 1226.7C43.8477 1226.7 44.3114 1227.9 44.3114 1229.36C44.3114 1230.83 43.8477 1232.03 43.1523 1232.03ZM42.5727 1354.68C40.9499 1354.68 40.834 1347.74 41.0658 1294.42C41.2977 1247.76 41.7613 1234.16 42.9204 1233.63C43.9637 1233.23 44.3114 1245.9 44.3114 1293.89C44.3114 1347.48 44.0796 1354.68 42.5727 1354.68ZM43.2682 1365.07C42.4568 1366.54 42.109 1366.41 41.5295 1364.67C40.2544 1360.67 40.7181 1356.01 42.5727 1356.01C44.5432 1356.01 45.0069 1362.14 43.2682 1365.07ZM41.9931 13.5882C41.4136 13.5882 40.834 12.6551 40.834 11.5886C40.834 10.5221 41.4136 9.58896 41.9931 9.58896C42.6886 9.58896 43.1523 10.5221 43.1523 11.5886C43.1523 12.6551 42.6886 13.5882 41.9931 13.5882ZM41.9931 888.094C41.0658 889.694 40.834 889.294 40.834 886.494C40.834 884.495 41.4136 882.495 41.9931 882.095C43.5 881.029 43.5 885.428 41.9931 888.094ZM35.2702 423.513L30.5177 436.844L30.4018 994.208C30.4018 1300.82 30.7495 1553.57 31.0973 1555.84C32.2564 1562.1 35.2702 1560.64 37.0089 1553.31C37.7043 1549.97 38.3998 1542.37 38.3998 1536.37C38.5157 1530.38 38.9794 1525.04 39.6749 1524.64C40.4863 1524.11 40.834 1538.24 40.834 1565.84L40.834 1607.96H38.168C32.836 1607.96 31.445 1611.69 31.7928 1624.76C32.1405 1635.42 32.3723 1636.62 34.4588 1637.02C39.2112 1638.09 40.834 1641.82 40.834 1652.22V1662.09L34.4588 1669.28L28.0835 1676.48L28.1994 864.099C28.3154 417.247 28.6631 52.781 28.8949 54.2474C29.2427 55.7138 30.17 57.3135 30.9814 57.9801C32.1405 58.6466 32.2564 60.113 31.5609 62.9125C30.4018 67.7116 29.8222 317.266 30.9814 320.598C31.445 321.798 32.2564 322.865 32.836 322.865C33.4155 322.865 33.8792 324.064 33.8792 325.664C33.8792 329.93 36.0816 333.529 38.6316 333.529C40.9499 333.529 40.9499 334.063 40.6022 371.922L40.1385 410.182L35.2702 423.513ZM38.8635 143.964C38.6316 130.9 38.6316 109.571 38.8635 96.6396C38.9794 83.5754 39.0953 94.2401 39.0953 120.235C39.0953 146.231 38.9794 156.895 38.8635 143.964ZM38.8635 181.291C38.6316 179.291 38.6316 175.692 38.8635 173.292C39.0953 170.893 39.3271 172.492 39.3271 176.892C39.3271 181.291 39.0953 183.29 38.8635 181.291ZM38.9794 189.156C38.6316 188.756 38.5157 187.556 38.8635 186.623C39.2112 185.557 39.559 185.957 39.559 187.423C39.6749 188.889 39.3271 189.689 38.9794 189.156ZM38.8635 253.944C38.6316 242.879 38.6316 224.216 38.8635 212.618C38.9794 201.02 39.2112 210.219 39.2112 232.881C39.2112 255.677 38.9794 265.142 38.8635 253.944ZM38.9794 281.139C38.6316 280.739 38.5157 279.539 38.8635 278.606C39.2112 277.54 39.559 277.94 39.559 279.406C39.6749 280.872 39.3271 281.672 38.9794 281.139ZM37.9362 331.396C36.8929 330.863 36.1975 328.864 36.1975 326.731C36.1975 322.198 38.168 321.532 38.8635 325.931C39.7908 331.53 39.6749 332.063 37.9362 331.396ZM38.3998 1623.69C38.5157 1627.42 38.2839 1627.96 35.6179 1627.96C33.1837 1627.96 32.7201 1627.29 32.7201 1624.36C32.7201 1617.29 33.9951 1614.63 37.0089 1614.63C39.3271 1614.63 39.7908 1615.16 39.0953 1617.03C38.6316 1618.23 38.2839 1621.29 38.3998 1623.69ZM34.2269 291.804C33.0678 291.404 33.7633 291.137 35.6179 291.137C37.5884 291.137 38.3998 291.404 37.7043 291.804C36.8929 292.07 35.2702 292.07 34.2269 291.804ZM37.3566 321.532C36.777 321.532 36.1975 320.865 36.1975 320.065C36.1975 319.399 36.777 319.132 37.3566 319.532C38.0521 319.932 38.5157 320.598 38.5157 320.998C38.5157 321.265 38.0521 321.532 37.3566 321.532ZM35.0383 1634.62C33.5315 1634.62 33.0678 1633.96 33.5315 1631.96C34.111 1629.42 36.1975 1628.49 37.7043 1630.09C38.9794 1631.56 37.1248 1634.62 35.0383 1634.62ZM36.5452 233.948C36.3134 204.353 36.3134 156.095 36.5452 126.634C36.6611 97.0395 36.777 121.168 36.777 180.224C36.777 239.28 36.6611 263.409 36.5452 233.948ZM35.0383 1538.64C33.0678 1538.64 32.7201 1537.71 32.7201 1531.98C32.7201 1527.31 33.1837 1525.31 34.2269 1525.31C36.777 1525.31 37.3566 1526.78 37.3566 1532.91C37.3566 1537.71 37.0089 1538.64 35.0383 1538.64ZM34.6906 1556.64C33.5315 1559.17 33.4155 1559.04 32.6042 1555.3C31.0973 1549.31 32.6042 1541.31 35.0383 1541.31C36.777 1541.31 37.0089 1542.24 36.4293 1547.71C36.1975 1551.17 35.3861 1555.17 34.6906 1556.64ZM32.0246 54.514C31.6768 54.1141 31.5609 52.9143 31.9087 51.9812C32.2564 50.9147 32.6042 51.3146 32.6042 52.781C32.7201 54.2474 32.3723 55.0473 32.0246 54.514ZM31.9087 307.268C31.6768 304.868 31.6768 300.869 31.9087 298.602C32.1405 296.203 32.3723 298.069 32.3723 302.868C32.3723 307.667 32.1405 309.534 31.9087 307.268ZM26.2289 42.9162C24.6061 42.9162 24.6061 42.5162 25.7653 40.9165C26.5767 39.8501 27.3881 38.9169 27.6199 38.9169C27.8517 38.9169 28.0835 39.8501 28.0835 40.9165C28.0835 41.983 27.2721 42.9162 26.2289 42.9162ZM24.6061 1677.28C22.2879 1677.28 22.2879 1675.82 22.2879 860.766C22.2879 45.849 22.2879 44.2493 24.6061 44.2493C26.9244 44.2493 26.9244 45.849 26.9244 860.766C26.9244 1675.82 26.9244 1677.28 24.6061 1677.28ZM14.1739 1487.98H7.21914L7.21914 1481.45C7.21914 1477.99 7.7987 1473.19 8.49418 1470.79C9.65332 1466.92 10.117 1466.65 15.449 1466.65H21.1287V1477.32L21.1287 1487.98H14.1739ZM14.7535 1493.32C9.88514 1493.32 8.37827 1492.92 8.37827 1491.32C8.37827 1489.72 9.88514 1489.32 14.7535 1489.32C19.6219 1489.32 21.1287 1489.72 21.1287 1491.32C21.1287 1492.92 19.6219 1493.32 14.7535 1493.32ZM16.0285 1497.32C13.1307 1497.32 10.4647 1496.78 10.117 1495.98C9.65332 1495.18 11.6238 1494.65 15.2172 1494.65C18.4627 1494.65 21.1287 1495.32 21.1287 1495.98C21.1287 1496.78 18.8105 1497.32 16.0285 1497.32Z" fill="black"/>
<path d="M50.3389 42.9161C48.832 42.9161 42.9204 48.3818 43.6159 49.1817C43.9636 49.5816 45.8182 48.3818 47.7888 46.3822C49.7593 44.5158 50.9184 42.9161 50.3389 42.9161Z" fill="black"/>
<path d="M53.1208 197.554C51.1503 197.554 50.1071 200.487 50.1071 206.22C50.1071 211.552 51.8458 213.285 53.4685 209.686C55.3232 205.82 55.0913 197.554 53.1208 197.554ZM52.4253 208.219C51.6139 209.686 51.2662 209.019 51.2662 205.286C51.2662 202.62 51.8458 199.954 52.4253 199.554C53.9322 198.488 53.9322 205.553 52.4253 208.219Z" fill="black"/>
<path d="M36.777 1641.69C34.111 1637.56 31.9087 1642.49 30.9814 1654.75C30.7495 1658.22 31.2132 1659.82 32.7201 1661.02C35.2702 1662.89 35.9656 1661.15 37.2407 1650.89C37.8203 1646.09 37.7043 1643.16 36.777 1641.69Z" fill="black"/>
</g>
<defs>
<filter id="filter0_d_2_22" x="0.973022" y="0.87915" width="280.15" height="1686.12" filterUnits="userSpaceOnUse" color-interpolation-filters="sRGB">
<feFlood flood-opacity="0" result="BackgroundImageFix"/>
<feColorMatrix in="SourceAlpha" type="matrix" values="0 0 0 0 0 0 0 0 0 0 0 0 0 0 0 0 0 0 127 0" result="hardAlpha"/>
<feOffset dy="4"/>
<feGaussianBlur stdDeviation="2"/>
<feComposite in2="hardAlpha" operator="out"/>
<feColorMatrix type="matrix" values="0 0 0 0 0 0 0 0 0 0 0 0 0 0 0 0 0 0 0.25 0"/>
<feBlend mode="normal" in2="BackgroundImageFix" result="effect1_dropShadow_2_22"/>
<feBlend mode="normal" in="SourceGraphic" in2="effect1_dropShadow_2_22" result="shape"/>
</filter>
</defs>
</svg>
