<svg  viewBox="0 0 623 397" preserveAspectRatio="none" fill="#000000" xmlns="http://www.w3.org/2000/svg">
<path d="M2.09138 314.2C3.42472 313.667 5.02472 313.933 5.95805 314.867C6.75805 315.667 10.7581 316.333 14.7581 316.333C19.1581 316.333 24.4914 317.4 27.6914 318.867L33.1581 321.4L30.3581 314.467C27.5581 307.8 27.5581 306.333 27.158 185.4C26.758 65.2667 26.758 63.1334 24.2247 62.3334C22.0914 61.6667 21.558 60.3334 21.558 55.5334C21.558 49.6667 21.558 49.6667 16.758 49.6667C6.89137 49.6667 6.89137 49.5334 6.89137 25.0001C6.89137 4.73339 7.0247 3.00006 9.4247 1.66673C12.758 -0.0666074 22.358 -0.0666078 25.558 1.66673C26.8914 2.46673 28.358 2.46673 28.758 1.80006C29.558 0.600058 34.0914 0.866725 38.6247 2.33339C40.6247 2.86672 41.558 4.46672 41.8247 8.06672C42.2247 12.7334 42.4914 13.0001 46.4914 12.6001C51.158 12.2001 51.2914 12.4667 50.8914 20.0667C50.758 22.3334 51.158 24.3334 51.8247 24.3334C53.0247 24.3334 52.8914 42.6001 51.6914 45.8001C51.158 46.8667 51.0247 108.067 51.158 181.8L51.5581 315.667L54.8914 322.333C60.6247 333.667 59.2914 333.533 134.891 333.533C185.025 333.667 199.025 333.267 197.825 332.067C196.891 331.133 196.225 327.933 196.225 324.733L196.225 319L273.291 319L350.225 319L351.558 316.067L352.891 313L406.225 313C456.091 313 459.958 313.267 465.558 315.667C471.158 318.067 475.425 318.333 524.091 318.6C574.758 319 576.758 319 579.425 316.467C586.091 310.2 593.425 309.933 601.158 315.8C603.425 317.533 606.491 319 607.825 319C609.158 319 613.158 321.933 616.625 325.4C622.358 331.133 622.891 332.333 622.891 338.067C622.891 343.533 622.491 344.333 620.225 344.333C616.358 344.333 609.291 341.133 607.025 338.6C604.491 335.4 601.558 335.8 597.158 340.067L593.425 343.667L530.891 344.067L468.358 344.467L467.958 348.067C467.425 352.733 461.691 354.867 449.291 354.867C441.558 355 440.225 355.4 439.558 357.667C438.891 359.8 437.558 360.333 432.491 360.333L426.091 360.333L426.625 365.667L427.158 371L353.691 371L280.225 371L280.225 382.333C280.225 392.067 279.825 393.8 277.691 395C271.825 398.067 245.158 395 238.091 390.333C235.291 388.467 234.891 387.267 234.891 379.667L234.891 371L144.091 371L53.4247 371L48.4914 366.2L43.5581 361.533L32.0914 362.067C19.0247 362.733 17.5581 361.8 17.5581 352.333L17.5581 347L11.8247 347C2.89139 346.867 1.95805 345.533 0.891385 329.267C-0.0419488 316.6 0.0913845 315 2.09138 314.2ZM5.15805 330.733C5.42472 328.6 5.42472 325.4 5.15805 323.4C4.89138 321.267 4.62472 323 4.62472 327C4.62472 331 4.89139 332.733 5.15805 330.733ZM12.0914 47.0001C13.558 47.0001 15.558 47.4001 16.758 47.8001C18.6247 48.4667 18.8914 46.0667 18.8914 25.8001L18.8914 3.00006L14.2247 3.00006L9.55804 3.00006L9.55804 25.0001C9.55804 45.8001 9.69137 47.0001 12.0914 47.0001ZM12.7581 339C15.5581 339 16.0914 338.2 16.4914 334.733L16.8914 330.333L27.2914 330.467C37.5581 330.6 37.6914 330.6 35.2914 328.067C31.1581 323.533 23.4247 320.333 16.2247 320.333L9.55805 320.333L9.55805 329.667C9.55805 338.733 9.69139 339 12.7581 339ZM13.5581 344.333C16.2247 344.333 17.5581 343.667 17.5581 342.333C17.5581 341 16.2247 340.333 13.5581 340.333C10.8914 340.333 9.55805 341 9.55805 342.333C9.55805 343.667 10.8914 344.333 13.5581 344.333ZM19.8247 348.733C20.0914 347.8 20.0914 346.2 19.8247 345.4C19.4247 344.467 19.1581 345.133 19.1581 347C19.1581 348.867 19.4247 349.533 19.8247 348.733ZM21.158 15.4001C21.4247 13.6667 21.4247 11.0001 21.158 9.40006C20.8914 7.66673 20.6247 9.00006 20.6247 12.3334C20.6247 15.6667 20.8914 17.0001 21.158 15.4001ZM21.0247 339.933C21.4247 339.533 21.5581 338.333 21.1581 337.4C20.7581 336.333 20.3581 336.733 20.3581 338.2C20.2247 339.667 20.6247 340.467 21.0247 339.933ZM22.4914 358.067C22.7581 356.333 22.7581 353.667 22.4914 352.067C22.2247 350.333 21.9581 351.667 21.9581 355C21.9581 358.333 22.2247 359.667 22.4914 358.067ZM25.558 15.0001C27.0247 15.0001 28.2247 14.4667 28.2247 13.9334C28.2247 13.2667 27.0247 11.6667 25.558 10.3334C22.8914 7.93339 22.8914 8.06672 22.8914 11.4001C22.8914 14.0667 23.558 15.0001 25.558 15.0001ZM28.2247 10.3334C30.358 12.4667 32.4914 13.8001 32.8914 13.5334C33.158 13.1334 31.4247 10.7334 28.8914 8.33339C26.358 5.80006 24.2247 4.46673 24.2247 5.13339C24.2247 5.93339 25.958 8.20006 28.2247 10.3334ZM26.758 60.3334C28.0914 60.3334 29.6914 59.4001 30.0914 58.2001C30.8914 56.0667 31.158 56.0667 33.2914 58.2001C34.6247 59.4001 36.2247 60.3334 36.6247 60.3334C37.158 60.3334 37.558 51.0001 37.558 39.6667L37.558 19.0001L30.8914 19.0001L24.2247 19.0001L24.2247 39.6667C24.2247 59.0001 24.358 60.3334 26.758 60.3334ZM26.7581 357.4C26.8914 357.533 28.0914 357.667 29.5581 357.667C31.8247 357.667 32.2247 356.733 32.2247 351.667C32.2247 348.333 32.7581 345.667 33.4247 345.667C34.2247 345.667 35.1581 348.333 35.6914 351.667C36.7581 358.733 38.8914 359.667 38.8914 353C38.8914 350.467 39.4247 348.333 40.0914 348.333C40.7581 348.333 41.6914 350.467 42.0914 353C43.1581 358.733 45.5581 359.133 45.5581 353.667C45.5581 351.533 46.0914 349.667 46.7581 349.667C47.4247 349.667 48.2247 351.533 48.6247 353.667C49.6914 359 51.9581 358.733 52.6247 353.4L53.0247 349L54.7581 353.4C56.7581 358.333 58.8914 359 58.8914 354.6C58.8914 352.467 56.2247 348.867 51.0247 343.933C42.2247 335.4 38.6247 333.667 30.4914 333.667L24.8914 333.667L25.8247 345.4C26.2247 351.8 26.7581 357.133 26.7581 357.4ZM35.158 17.2667C36.8914 17.0001 35.558 16.7334 32.2247 16.7334C28.8914 16.7334 27.558 17.0001 29.158 17.2667C30.8914 17.5334 33.558 17.5334 35.158 17.2667ZM30.0914 70.8667C31.4247 69.2667 32.0914 63.0001 30.8914 63.0001C30.2247 63.0001 29.558 64.8667 29.558 67.2667C29.558 69.5334 29.8247 71.1334 30.0914 70.8667ZM30.4914 144.733C30.758 131.267 30.758 109.4 30.4914 96.0667C30.358 82.6001 30.2247 93.5334 30.2247 120.333C30.2247 147.133 30.358 158.067 30.4914 144.733ZM30.4914 256.067C30.758 247.4 30.758 233.267 30.4914 224.733C30.358 216.067 30.0914 223.133 30.0914 240.333C30.0914 257.533 30.3581 264.6 30.4914 256.067ZM33.0247 290.6C34.0914 292.333 34.3581 293.667 33.6914 293.667C32.8914 293.667 31.6914 292.6 31.0247 291.4C29.8247 289.4 29.6914 289.667 29.5581 293.133C29.5581 295.8 30.7581 298.333 32.8914 300.333L36.2247 303.4L36.2247 298.867C36.2247 294.2 35.1581 289.533 31.6914 278.333L29.5581 271.667L30.2247 279.667C30.6247 284.067 31.8247 289 33.0247 290.6ZM34.4914 317.933C38.7581 327.533 42.4914 331.4 39.6914 323.533C38.7581 320.6 37.4247 315.267 36.8914 311.4C36.2247 306.6 35.0247 303.667 32.6247 301.4L29.1581 298.333L30.0914 304.333C30.6247 307.667 32.6247 313.8 34.4914 317.933ZM33.558 181C35.8247 183 36.2247 183.133 36.2247 181.4C36.2247 176.6 34.4914 171.133 32.758 170.467C29.6914 169.267 30.358 178.067 33.558 181ZM32.8914 211C34.4914 213.933 34.758 214.067 35.558 211.933C36.4914 209.933 36.0914 207 34.358 200.333C33.958 199.267 33.6914 198.2 33.6914 197.933C33.558 197.667 32.8914 197.933 32.2247 198.333C30.358 199.533 30.6247 207.133 32.8914 211ZM33.558 195C34.2247 195 34.8914 193 34.8914 190.467C34.8914 187.933 34.2247 185.4 33.558 185C32.758 184.467 32.2247 186.333 32.2247 189.533C32.2247 192.6 32.758 195 33.558 195ZM34.4914 140.067C34.758 126.333 34.758 103.533 34.4914 89.4001C34.358 75.2667 34.2247 86.4667 34.2247 114.333C34.2247 142.2 34.358 153.8 34.4914 140.067ZM34.8914 283C35.6914 284.333 36.2247 273 36.2247 249.933C36.2247 226.867 35.8247 215.133 34.8914 215.667C33.158 216.733 33.1581 280.333 34.8914 283ZM38.4914 243.933C38.758 210.333 38.758 155.667 38.4914 122.6C38.358 89.4001 38.2247 116.867 38.2247 183.667C38.2247 250.467 38.3581 277.533 38.4914 243.933ZM39.8247 10.0667C40.0914 9.13339 40.0914 7.53339 39.8247 6.73339C39.4247 5.80006 39.158 6.46672 39.158 8.33339C39.158 10.2001 39.4247 10.8667 39.8247 10.0667ZM39.8247 316.067C40.0914 314.733 40.0914 312.6 39.8247 311.4C39.4247 310.067 39.1581 311.133 39.1581 313.667C39.1581 316.2 39.4247 317.267 39.8247 316.067ZM42.8914 307C43.8247 307 44.2247 260.733 44.2247 161.667C44.2247 73.6667 43.6914 16.3334 43.0247 16.3334C42.2247 16.3334 41.6914 73.8001 41.558 161.667C41.5581 260.867 41.9581 307 42.8914 307ZM43.0247 316.6C44.4914 323.133 48.8914 333.667 50.2247 333.667C50.4914 333.667 49.5581 331.133 48.2247 328.067C46.8914 324.867 45.2914 319.133 44.7581 315.4C44.3581 311.533 43.4247 308.333 42.7581 308.333C41.2914 308.333 41.2914 308.067 43.0247 316.6ZM44.2247 329.667C45.6914 332.6 47.2914 335 47.5581 335C48.2247 335 43.2914 324.467 42.0914 323.133C40.7581 321.667 41.8247 325 44.2247 329.667ZM49.8247 327.533C54.0914 336.333 54.2247 336.867 51.9581 335.533C51.0247 335 50.8914 335.133 51.4247 336.2C51.9581 337 52.8914 337.4 53.4247 337.133C54.4914 336.467 63.5581 345.133 63.5581 346.733C63.5581 347.267 64.3581 347.4 65.4247 347.267C66.4914 347 66.7581 347.4 66.0914 348.467C65.5581 349.4 65.6914 349.8 66.4914 349.267C67.1581 348.867 70.7581 349.533 74.2247 350.867C77.6914 352.2 80.0914 353.533 79.4247 353.933C78.7581 354.333 79.0247 354.333 79.9581 354.067C81.0247 353.933 145.158 353.533 222.625 353.4L363.558 353L222.225 352.333L80.8914 351.667L73.4247 348.2C64.2247 343.8 56.4914 336.333 52.0914 327.533L48.8914 321L48.4914 168.733C48.358 67.8001 47.6914 16.3334 46.8914 16.3334C45.958 16.3334 45.558 67.1334 45.8247 168.067L46.2247 319.667L49.8247 327.533ZM50.8914 364.733C52.7581 365.133 53.5581 364.867 53.1581 363.933C52.8914 363 51.2914 362.067 49.6914 361.933C45.9581 361.4 47.0247 363.667 50.8914 364.733ZM57.8247 344.867C58.3581 344.467 58.6247 343.533 58.0914 342.867C57.6914 342.067 56.8914 341.8 56.4914 342.2C56.0914 342.6 54.4914 341.933 53.0247 340.733C50.8914 339 51.0247 339.267 53.4247 341.933C55.1581 343.933 57.1581 345.267 57.8247 344.867ZM54.3581 328.733C60.2247 340.333 74.8914 349.8 86.6247 349.533C92.0914 349.4 91.4247 349 83.6914 347.667C79.6914 347 78.8914 346.467 80.3581 345.533C81.6914 344.467 81.4247 344.333 79.2914 345C73.4247 346.6 61.5581 337.8 55.0247 327C51.6914 321.533 51.2914 322.6 54.3581 328.733ZM239.558 368.333C361.825 368.333 424.225 367.933 424.225 367C424.225 366.067 361.825 365.667 239.558 365.667C117.291 365.667 54.8914 366.067 54.8914 367C54.8914 367.933 117.291 368.333 239.558 368.333ZM67.1581 357.667C69.6914 357.667 69.8247 357.4 68.2247 356.333C65.6914 354.6 64.2247 354.6 64.2247 356.333C64.2247 357.133 65.5581 357.667 67.1581 357.667ZM69.8247 335.933C70.8914 335.533 70.4914 335.133 69.0247 335.133C67.5581 335 66.7581 335.4 67.2914 335.8C67.6914 336.2 68.8914 336.333 69.8247 335.933ZM243.825 361.4C351.025 361.267 417.158 360.733 411.558 360.067C406.358 359.4 329.558 358.6 240.891 358.2C152.091 357.933 77.9581 357 75.9581 356.333C73.0247 355.4 72.3581 355.667 71.8247 357.8C71.4247 359.133 70.2247 360.333 69.0247 360.333C67.8247 360.333 66.8914 360.6 66.8914 361C66.8914 361.4 146.491 361.533 243.825 361.4ZM71.5581 352.067C71.9581 351.667 71.2914 350.867 69.9581 350.467C68.0914 349.667 67.9581 349.8 69.1581 351.133C70.0914 352.067 71.1581 352.467 71.5581 352.067ZM77.5581 342.333C80.4914 343.267 80.6247 343.133 79.0247 341.133C78.0914 339.933 75.6914 339 73.6914 339C69.8247 339.133 71.4247 340.467 77.5581 342.333ZM77.1581 337.267C78.4914 336.867 77.6914 336.6 75.5581 336.6C73.2914 336.6 72.3581 336.867 73.1581 337.267C74.0914 337.533 75.9581 337.533 77.1581 337.267ZM171.958 337.267C188.625 337.133 174.891 337 141.558 337C108.225 337 94.4914 337.133 111.291 337.267C127.958 337.533 155.158 337.533 171.958 337.267ZM147.158 344.333C202.758 344.333 209.691 344.067 208.225 342.333C206.758 340.6 197.958 340.333 143.958 340.333C88.3581 340.333 81.4247 340.6 82.8914 342.333C84.3581 344.067 93.1581 344.333 147.158 344.333ZM87.8247 355.933C89.1581 355.533 88.3581 355.267 86.2247 355.267C83.9581 355.267 83.0247 355.533 83.8247 355.933C84.7581 356.2 86.6247 356.2 87.8247 355.933ZM88.4914 346.6C89.5581 346.2 89.1581 345.8 87.6914 345.8C86.2247 345.667 85.4247 346.067 85.9581 346.467C86.3581 346.867 87.5581 347 88.4914 346.6ZM293.158 346.6C330.491 346.467 299.958 346.333 225.558 346.333C151.158 346.333 120.625 346.467 157.825 346.6C195.158 346.867 255.958 346.867 293.158 346.6ZM226.758 351C315.158 351 361.691 350.6 362.225 349.667C362.758 348.733 317.558 348.333 227.691 348.333C138.225 348.333 92.2247 348.733 92.2247 349.667C92.2247 350.6 137.958 351 226.758 351ZM202.891 335.4C205.825 338.067 208.491 340.333 208.891 340.333C209.291 340.333 209.558 339 209.558 337.267C209.558 335.4 207.158 331.933 203.558 328.333L197.558 322.467L197.558 326.333C197.558 329.267 199.025 331.667 202.891 335.4ZM230.758 332.333C249.958 332.333 251.291 332.2 248.491 330.2C245.291 327.933 244.625 323.667 247.158 322.6C248.091 322.2 244.091 321.8 238.358 321.8C228.225 321.667 227.958 321.8 229.958 324.067C231.825 326.2 231.958 326.867 230.358 329C226.891 333.8 209.425 328.733 211.425 323.4C211.958 322.067 210.491 321.667 205.958 321.667L199.691 321.667L204.891 327L210.091 332.333L230.758 332.333ZM289.291 341.667L367.825 341.667L367.158 337.667L366.625 333.667L288.758 333.667L210.891 333.667L210.891 337.667L210.891 341.667L289.291 341.667ZM221.025 326.467C224.758 327 227.691 326.733 228.491 325.933C229.958 324.467 229.291 324.2 219.825 322.333C216.625 321.667 213.425 323 214.225 324.333C214.625 325 217.691 325.933 221.025 326.467ZM226.491 329.267C227.825 328.867 226.758 328.6 224.225 328.6C221.691 328.6 220.625 328.867 221.825 329.267C223.158 329.533 225.291 329.533 226.491 329.267ZM241.558 388.867C244.491 390.067 247.291 391 247.558 391C247.958 391 248.225 386.467 248.225 381L248.225 371L242.225 371L236.225 371L236.225 378.867L236.225 386.733L241.558 388.867ZM250.358 329.667C255.425 331.667 263.425 331.267 266.358 328.867C268.758 326.867 268.758 326.867 265.691 327.8C263.958 328.2 262.891 328.067 263.291 327.4C263.691 326.733 262.091 326.467 259.558 326.733C257.158 327 253.825 326.467 252.091 325.667C249.425 324.333 249.158 324.333 250.491 325.8C251.425 326.733 254.758 327.933 257.825 328.467L263.558 329.267L257.825 329.533C253.825 329.667 251.425 328.867 249.558 327C247.425 324.867 246.891 324.733 246.891 326.333C246.891 327.533 248.491 329 250.358 329.667ZM251.691 391.533C252.891 391.933 254.891 392.333 256.358 392.333C258.625 392.333 258.891 391.267 258.891 381.667L258.891 371L254.225 371L249.558 371L249.558 380.867C249.558 388.6 249.958 390.867 251.691 391.533ZM257.958 325.533C262.091 325.4 262.091 325.4 258.891 324.333C254.091 322.867 251.958 322.867 252.891 324.333C253.291 325.133 255.691 325.667 257.958 325.533ZM267.958 393.667C272.225 393.667 276.358 393 277.291 392.067C278.225 391.133 278.891 386.467 278.891 380.733L278.891 371L269.558 371L260.225 371L260.225 382.333L260.225 393.667L267.958 393.667ZM269.558 327.933C269.558 328.867 268.491 330.2 267.158 330.867C265.558 331.8 280.625 332.2 315.558 332.067L366.225 331.8L327.558 331C299.158 330.467 288.091 329.933 285.825 328.6C278.491 324.467 283.025 323.667 320.358 323L356.891 322.333L309.558 322.067C264.491 321.8 262.358 321.8 265.825 324.067C267.958 325.267 269.558 327 269.558 327.933ZM291.158 328.2C292.491 328.333 293.558 327.4 293.558 326.333C293.558 324.2 286.891 323.4 285.025 325.267C283.958 326.333 287.558 328.067 291.158 328.2ZM297.825 328.867C299.558 329.267 313.958 329.667 329.825 329.667C357.958 329.667 358.891 329.533 358.891 327C358.891 324.467 357.958 324.333 326.891 324.333C300.491 324.333 294.891 324.6 294.891 326.2C294.891 327.133 296.225 328.333 297.825 328.867ZM360.225 321C363.158 323.8 365.558 325.933 365.558 325.533C365.558 325.133 363.158 322.467 360.225 319.667C357.291 316.867 354.891 314.733 354.891 315.133C354.891 315.533 357.291 318.2 360.225 321ZM372.891 323L378.225 321.8L373.291 322.067C370.625 322.2 367.958 321.8 367.425 321.267C366.891 320.733 369.425 320.333 373.158 320.333C377.691 320.333 380.491 321 381.691 322.467C382.891 323.933 385.958 324.467 392.758 324.6C397.958 324.6 415.425 324.867 431.558 325.133C447.558 325.533 462.225 325.4 463.958 325L467.291 324.2L464.091 320.867L461.025 317.667L465.691 318.467C468.225 319 469.825 318.867 469.291 318.333C468.758 317.8 465.691 317.133 462.625 316.867C459.425 316.733 453.025 315.933 448.225 315.133C437.691 313.267 394.625 313.8 393.958 315.667C393.691 316.467 394.891 317.667 396.491 318.333C401.425 320.467 400.091 322.333 393.291 322.733C383.291 323.4 377.558 318.467 385.691 316.2C387.425 315.667 381.958 315.267 373.558 315.133L358.225 315L362.891 319.533C367.291 323.8 367.958 324.067 372.891 323ZM361.558 329.667C362.225 329.667 362.891 329.4 362.891 329.133C362.891 328.733 362.225 328.067 361.558 327.667C360.758 327.267 360.225 327.533 360.225 328.2C360.225 329 360.758 329.667 361.558 329.667ZM367.291 356.333C368.491 356.333 368.758 354.733 368.491 351C368.225 348.067 367.425 345.667 366.758 345.667C366.091 345.667 365.558 348.067 365.558 351C365.558 354.467 366.225 356.333 367.291 356.333ZM384.225 331C397.558 331 400.225 330.733 400.225 329C400.225 327.4 397.558 327 384.225 327C370.891 327 368.225 327.4 368.225 329C368.225 330.733 370.891 331 384.225 331ZM370.891 344.733L372.358 352.333L387.025 352.333L401.691 352.333L401.291 342.733L400.891 333L384.625 332.6C369.691 332.333 368.491 332.467 368.891 334.6C369.291 335.933 370.091 340.467 370.891 344.733ZM393.825 355.933C398.491 355.667 395.025 355.533 386.225 355.533C377.425 355.533 373.691 355.667 377.825 355.933C382.091 356.2 389.291 356.2 393.825 355.933ZM392.491 321.533C395.291 321.667 397.558 321.133 397.558 320.467C397.558 318.733 386.225 317.133 384.091 318.467C381.825 319.8 386.091 321.4 392.491 321.533ZM498.091 341.667L593.291 341.667L597.291 338.333C599.558 336.467 602.491 335 603.825 335C605.291 335 607.825 336.467 609.558 338.333C611.691 340.6 614.091 341.667 617.158 341.667C621.158 341.667 621.558 341.267 621.558 337.667C621.558 334.467 621.025 333.667 618.758 333.667C617.158 333.667 613.825 331.933 611.291 329.667C608.491 327.133 605.291 325.667 602.891 325.667C600.491 325.667 597.291 327.133 594.491 329.667L589.825 333.667L496.358 333.667L402.891 333.667L402.891 337.667L402.891 341.667L498.091 341.667ZM407.825 345.267C409.158 344.867 408.358 344.6 406.225 344.6C403.958 344.6 403.025 344.867 403.825 345.267C404.758 345.533 406.625 345.533 407.825 345.267ZM405.158 354.733C405.425 353.4 405.425 351 405.158 349.4C404.891 347.667 404.625 348.733 404.625 351.667C404.491 354.6 404.758 355.933 405.158 354.733ZM429.558 332.333C442.225 332.333 451.025 331.8 451.558 331C452.091 330.067 444.491 329.667 429.558 329.667C414.625 329.667 407.025 330.067 407.558 331C408.091 331.8 416.891 332.333 429.558 332.333ZM421.558 357.667C435.291 357.667 436.225 357.533 436.225 355C436.225 352.6 437.158 352.333 444.891 352.333C452.625 352.333 453.558 352.067 453.558 349.667C453.558 347.133 452.625 347 430.225 347L406.891 347L406.891 352.333L406.891 357.667L421.558 357.667ZM440.491 327.933C446.625 327.8 441.691 327.533 429.558 327.533C417.425 327.533 412.491 327.8 418.491 327.933C424.625 328.2 434.491 328.2 440.491 327.933ZM459.158 346.733C455.825 347 454.891 347.533 454.891 349.8C454.891 352.2 455.425 352.467 459.158 351.667C464.758 350.467 465.558 349.933 465.558 347.667C465.558 344.733 462.225 344.333 441.825 344.6L422.225 344.867L442.891 345.667C454.225 346.067 461.558 346.6 459.158 346.733ZM457.825 327.933C458.758 327.533 458.091 327.267 456.225 327.267C454.358 327.267 453.691 327.533 454.491 327.933C455.425 328.2 457.025 328.2 457.825 327.933ZM459.025 331C461.958 330.467 465.025 329.4 465.691 328.733C466.491 327.933 464.358 327.933 460.225 328.867C452.225 330.467 451.158 332.467 459.025 331ZM525.825 332.333L587.425 332.333L582.225 327L577.025 321.667L525.558 321.933C476.891 322.2 475.825 322.2 506.225 323C537.825 323.667 542.891 324.333 542.891 327.667C542.891 330.467 535.958 331 499.425 331C480.091 331 464.225 331.267 464.225 331.667C464.225 332.067 491.958 332.333 525.825 332.333ZM472.491 322.6C473.425 322.2 472.758 321.933 470.891 321.933C469.025 321.933 468.358 322.2 469.158 322.6C470.091 322.867 471.691 322.867 472.491 322.6ZM496.225 329.667C523.291 329.667 524.225 329.533 524.225 327C524.225 324.467 523.291 324.333 499.158 324.333C472.758 324.333 468.225 324.867 468.225 327.8C468.225 329.4 473.291 329.667 496.225 329.667ZM531.158 329.133C533.558 328.867 537.025 328.6 538.758 328.467C543.958 328.2 540.358 326.067 533.158 325C527.425 324.067 526.891 324.2 526.891 326.867C526.891 329.267 527.558 329.533 531.158 329.133ZM584.225 326.333C588.358 330.467 589.958 331.133 591.158 329.933C592.491 328.6 591.691 327.133 587.291 322.867C584.358 319.8 581.158 317.8 580.358 318.2C578.091 319.667 578.491 320.733 584.225 326.333ZM596.625 325.533C599.025 324.2 598.891 323.8 594.091 318.867C589.291 313.933 585.825 312.467 583.691 314.6C583.291 315.133 585.291 318.067 588.358 321.133C593.158 325.933 594.358 326.6 596.625 325.533ZM603.558 323.933C605.025 323.933 604.758 323 602.758 320.2C599.691 315.8 598.625 315 594.625 314.333C592.225 313.8 592.491 314.467 596.758 318.867C599.425 321.667 602.491 323.933 603.558 323.933ZM619.425 332.333C620.225 332.333 618.358 329.933 615.558 327C612.758 324.067 609.691 321.667 609.025 321.667C608.225 321.667 610.091 324.067 612.891 327C615.691 329.933 618.758 332.333 619.425 332.333Z" fill="black"/>
<path d="M410.225 315.533C420.358 313.667 435.158 320.6 427.425 323.533C423.691 325 414.891 324.333 410.225 322.467C404.091 319.933 404.225 316.733 410.225 315.533ZM415.958 321.8C419.158 322.467 422.625 322.467 424.491 321.8L427.558 320.6L423.825 319.133C418.758 317.133 407.158 317.133 409.158 319.133C409.958 319.933 413.025 321.133 415.958 321.8Z" fill="black"/>
<path d="M435.825 317.267C437.291 315.8 446.491 316.2 450.225 317.933C455.158 320.2 453.558 322.333 446.491 322.733C438.358 323.267 432.625 320.333 435.825 317.267ZM439.691 320.867C440.891 321.267 444.225 321.667 447.291 321.667C454.625 321.667 451.958 319 443.691 318.067C437.691 317.4 435.158 319.133 439.691 320.867Z" fill="black"/>
<path d="M548.891 323.4C552.625 322.067 564.358 323.933 566.625 326.2C568.625 328.2 568.625 328.6 566.891 329.667C563.958 331.533 556.758 331.267 551.558 329.133C546.625 327 545.558 324.733 548.891 323.4ZM553.158 328.2C559.291 329.933 562.891 330.067 565.425 328.467C568.091 326.733 565.158 325.533 556.091 324.733C547.025 323.8 545.291 326.067 553.158 328.2Z" fill="black"/>
<path d="M595.291 315C595.558 315 597.425 317 599.691 319.4L603.558 323.667L599.158 319.8C595.158 316.067 594.225 315 595.291 315Z" fill="black"/>
</svg>
