<svg height="40"  viewBox="0 0 2700 230" preserveAspectRatio="none" fill="#000000" xmlns="http://www.w3.org/2000/svg">
<path d="M5.79992 1.06666C4.73325 2.79999 4.59992 26.1333 5.53325 27.8667C6.06659 28.6667 7.93325 29.3333 9.79992 29.3333C12.1999 29.3333 12.9999 30 12.9999 32.4C12.9999 34.1333 13.5333 36 14.3333 36.8C15.1333 37.6 15.7999 65.2 16.0666 108.667C16.1999 147.6 16.9999 180.8 17.5333 182.533C18.5999 185.333 18.4666 185.467 16.1999 184.267C14.8666 183.6 10.7333 182.8 6.99992 182.533L0.333252 182L0.866585 190.667C1.13325 195.467 1.53325 199.733 1.93325 200.4C2.19992 200.933 4.19992 201.333 6.33325 201.333C9.66659 201.333 10.1999 201.867 10.5999 205.6L10.9999 210L18.3333 209.6C24.7333 209.2 26.0666 209.6 28.8666 212.533L32.0666 216H796.6H1561V220.667C1561 226.533 1565.27 229.6 1574.07 229.733C1584.6 229.867 1586.33 228.667 1586.33 222V216.133L1654.07 215.733C1715.93 215.333 1721.93 215.2 1725.13 212.933C1728.47 210.667 1728.6 210.8 1731 213.333C1733.4 216 1734.6 216 2137.93 216H2542.33V220.667C2542.33 226.667 2546.87 229.867 2555.53 229.867C2564.6 229.867 2567.67 227.733 2567.67 221.333V216H2633.67H2699.67V212.933C2699.67 211.067 2697.4 207.733 2694.07 204.4C2688.87 199.2 2687.67 198.8 2680.33 198.4C2672.6 198 2672.47 197.867 2671.53 193.6C2671 191.067 2669 187.333 2666.87 185.2C2663.53 181.733 2662.33 181.333 2654.73 181.333C2647 181.333 2646.2 181.6 2644.73 184.533C2643.67 187.2 2643.8 188.8 2645.53 192.533C2646.73 194.933 2647.67 197.467 2647.67 197.867C2647.67 198.267 2633.67 198.667 2616.6 198.667C2587.13 198.667 2585.27 198.533 2583 196C2580.6 193.333 2578.87 193.333 2251.4 193.333C1967.67 193.333 1922.33 193.067 1922.33 191.467C1922.33 190.4 1920.47 187.6 1918.2 185.333C1914.2 181.467 1913.53 181.2 1905.27 181.6C1897 182 1896.47 182.133 1895.53 185.733C1894.87 188.267 1895.13 190 1896.6 191.333C1898.33 193.067 1895.67 193.333 1873.53 193.333C1849.93 193.333 1848.33 193.2 1845.53 190.533C1842.6 187.733 1842.2 187.733 1756.47 187.867C1673.93 188 1669.93 188.133 1663.53 190.667C1657 193.333 1652.47 193.333 1320.33 193.333C1044.47 193.333 983.667 193.067 983.667 191.6C983.667 190.667 981.667 188 979.267 185.6C975.267 181.733 974.067 181.333 966.6 181.333C959.933 181.333 958.2 181.733 957 183.867C955.133 187.467 955.267 191.6 957.4 192.4C958.2 192.8 813.667 193.2 636.2 193.2L313.4 193.333L303.667 189.333L293.933 185.333H265.667C243.533 185.333 236.333 184.933 232.6 183.333C225.933 180.533 204.6 180.533 202.333 183.333C200.867 185.067 194.2 185.333 157.533 185.333H114.333V189.333V193.333H78.4666C56.9999 193.333 41.1333 192.8 38.7333 192C30.8666 189.2 30.9999 191.2 30.7333 98.6667C30.5999 52.1333 30.4666 12.2667 30.4666 10.2667C30.3333 7.59999 29.7999 6.66666 28.0666 6.93332C26.5999 7.19999 25.5333 6.13332 24.9999 3.99999C24.3333 0.933323 23.5333 0.666657 15.3999 0.266657C10.4666 0.133323 6.19992 0.533323 5.79992 1.06666ZM11.3999 14.9333C11.1333 24.9333 10.5999 27.3333 8.99992 27.3333C7.39992 27.3333 6.86659 24.9333 6.59992 14.9333C6.19992 3.33332 6.33325 2.66666 8.99992 2.66666C11.6666 2.66666 11.7999 3.33332 11.3999 14.9333ZM25.9333 135.6C25.7999 158.933 25.6666 139.867 25.6666 93.3333C25.6666 46.8 25.7999 27.7333 25.9333 50.9333C26.1999 74.2667 26.1999 112.4 25.9333 135.6ZM22.3333 23.3333V34.6667H18.3333H14.3333V23.3333V12H18.3333H22.3333V23.3333ZM23.2666 141.6C23.1333 160.933 22.9999 145.2 22.9999 106.667C22.9999 68.1333 23.1333 52.4 23.2666 71.6C23.5333 90.9333 23.5333 122.4 23.2666 141.6ZM20.9999 103.467C20.9999 104.533 20.4666 105.067 19.6666 104.667C18.9999 104.267 18.3333 103.333 18.3333 102.533C18.3333 101.867 18.9999 101.333 19.6666 101.333C20.4666 101.333 20.9999 102.267 20.9999 103.467ZM20.5999 112.267C20.1999 113.2 19.9333 112.533 19.9333 110.667C19.9333 108.8 20.1999 108.133 20.5999 108.933C20.8666 109.867 20.8666 111.467 20.5999 112.267ZM20.7333 121.467C20.3333 122.533 19.7999 121.867 19.2666 120.133C18.7333 117.867 18.8666 117.333 19.9333 118.4C20.5999 119.067 20.9999 120.533 20.7333 121.467ZM20.9999 170.8C20.9999 172.267 20.4666 173.067 19.6666 172.667C18.9999 172.267 18.3333 170.667 18.3333 169.2C18.3333 167.733 18.9999 166.933 19.6666 167.333C20.4666 167.733 20.9999 169.333 20.9999 170.8ZM21.6666 181.333C22.3333 184.4 22.1999 185.6 21.2666 184.667C20.5999 183.867 19.5333 181.2 18.9999 178.667C18.3333 175.6 18.4666 174.4 19.3999 175.333C20.0666 176 21.1333 178.8 21.6666 181.333ZM219.267 183.467C218.867 183.867 217.667 184 216.733 183.6C215.667 183.2 216.067 182.8 217.533 182.8C219 182.667 219.8 183.067 219.267 183.467ZM213.667 185.333C216.067 186.4 216.067 186.533 213 186.533C211.133 186.533 208.733 186 207.667 185.333C206.067 184.267 206.067 184 208.333 184.133C209.8 184.133 212.2 184.667 213.667 185.333ZM227.4 184.933C226.067 185.2 223.933 185.2 222.733 184.933C221.4 184.533 222.467 184.267 225 184.267C227.533 184.267 228.6 184.533 227.4 184.933ZM964.067 193.867C962.6 201.467 961.4 200.533 959.8 190.8L958.733 183.867L961.8 186.8C964.2 189.067 964.733 190.533 964.067 193.867ZM15.3999 187.6L20.3333 189.867L14.9999 190.533C10.8666 191.2 9.79992 191.867 10.0666 193.6C10.3333 195.067 9.66659 196 8.33325 196C6.86659 196 6.33325 194.533 6.33325 190.667C6.33325 184.533 7.66659 184.133 15.3999 187.6ZM972.067 186.267C971.133 186.533 969.267 186.533 968.067 186.267C966.733 185.867 967.533 185.6 969.667 185.6C971.933 185.6 972.867 185.867 972.067 186.267ZM1910.73 186.267C1909.8 186.533 1907.93 186.533 1906.73 186.267C1905.4 185.867 1906.2 185.6 1908.33 185.6C1910.6 185.6 1911.53 185.867 1910.73 186.267ZM2660.07 186.267C2659.13 186.533 2657.27 186.533 2656.07 186.267C2654.73 185.867 2655.53 185.6 2657.67 185.6C2659.93 185.6 2660.87 185.867 2660.07 186.267ZM123.4 189.333C124.733 191.467 124.733 192 123.267 192C122.2 192 120.333 190.8 119 189.333C116.6 186.8 116.733 186.667 119.133 186.667C120.6 186.667 122.467 187.867 123.4 189.333ZM145.267 187.6C143.933 188.133 143.933 188.667 145.133 190.133C146.467 191.733 145.667 192 140.6 192C135.267 192 134.467 191.6 134.733 189.333C134.867 187.067 135.8 186.667 141 186.8C144.333 186.8 146.2 187.2 145.267 187.6ZM160.6 187.6C160.067 188 160.333 189.2 161.133 190.267C162.333 191.6 161.8 192 158.467 192C155.933 192 154.467 191.467 155 190.667C155.4 189.867 154.467 188.8 152.733 188.133C150.2 187.067 150.6 186.8 155.533 186.8C158.733 186.667 161 187.067 160.6 187.6ZM221.933 187.467C221.533 187.867 220.333 188 219.4 187.6C218.333 187.2 218.733 186.8 220.2 186.8C221.667 186.667 222.467 187.067 221.933 187.467ZM293.667 189.333C296.067 192 295.933 192 289.267 192C284.067 192 281.667 191.333 279.667 189.333L277 186.667H284.067C289.533 186.667 291.8 187.333 293.667 189.333ZM2651.13 196.667C2650.6 200.133 2649.93 202.667 2649.8 202.4C2649.53 202.267 2648.87 198.4 2648.33 194C2647.53 186.533 2647.53 186.133 2649.67 188.267C2651.53 190 2651.8 191.733 2651.13 196.667ZM132.067 188.933C131.133 189.2 129.267 189.2 128.067 188.933C126.733 188.533 127.533 188.267 129.667 188.267C131.933 188.267 132.867 188.533 132.067 188.933ZM201.667 189.333C202.2 190.133 195.933 190.667 183.8 190.667C172.2 190.667 165 190.133 165 189.333C165 188.533 171.8 188 182.867 188C193.4 188 201.133 188.533 201.667 189.333ZM271.667 189.333C271.667 190.133 265 190.667 254.333 190.667C243.667 190.667 237 190.133 237 189.333C237 188.533 243.667 188 254.333 188C265 188 271.667 188.533 271.667 189.333ZM278.333 190.133C278.333 190.4 277.133 190.667 275.667 190.667C274.2 190.667 273 190.133 273 189.467C273 188.8 274.2 188.533 275.667 188.933C277.133 189.333 278.333 189.867 278.333 190.133ZM970.733 188.933C969.8 189.2 968.2 189.2 967.4 188.933C966.467 188.533 967.133 188.267 969 188.267C970.867 188.267 971.533 188.533 970.733 188.933ZM978.733 188.933C977.8 189.2 976.2 189.2 975.4 188.933C974.467 188.533 975.133 188.267 977 188.267C978.867 188.267 979.533 188.533 978.733 188.933ZM1834.73 188.933C1833.8 189.2 1831.93 189.2 1830.73 188.933C1829.4 188.533 1830.2 188.267 1832.33 188.267C1834.6 188.267 1835.53 188.533 1834.73 188.933ZM1903.67 194.8C1903.67 196.133 1903.13 197.467 1902.47 197.867C1901.27 198.667 1899.67 194.267 1899.67 190C1899.8 187.333 1899.8 187.333 1901.67 189.867C1902.73 191.333 1903.67 193.6 1903.67 194.8ZM121 195.067C121 195.867 119.8 195.333 118.333 194C116.867 192.667 115.667 190.933 115.667 190.267C115.667 189.467 116.867 190 118.333 191.333C119.8 192.667 121 194.4 121 195.067ZM152.067 190.267C151.133 190.533 149.533 190.533 148.733 190.267C147.8 189.867 148.467 189.6 150.333 189.6C152.2 189.6 152.867 189.867 152.067 190.267ZM231.667 190.667C231.667 191.467 227.933 192 223 192C218.067 192 214.333 191.467 214.333 190.667C214.333 189.867 218.067 189.333 223 189.333C227.933 189.333 231.667 189.867 231.667 190.667ZM314.333 196.8C315.667 198.267 314.333 198 309.667 196C306.067 194.4 302.067 192.267 301 191.2C299.667 189.733 301 190 305.667 192C309.4 193.6 313.267 195.733 314.333 196.8ZM1826.33 191.2C1826.33 192.267 1827.13 193.467 1828.07 193.733C1828.87 194.133 1820.47 194.533 1809.27 194.533C1794.6 194.667 1789.13 194.267 1789.8 193.2C1790.2 192.4 1789.8 191.2 1788.87 190.533C1787.8 189.867 1795 189.333 1806.73 189.333C1822.73 189.333 1826.33 189.733 1826.33 191.2ZM1844.33 192C1846.73 194.667 1846.6 194.667 1842.6 194.667C1839.27 194.667 1838.73 194.267 1839.27 192C1839.67 190.533 1840.47 189.333 1841 189.333C1841.53 189.333 1843 190.533 1844.33 192ZM1781 192C1781 192.8 1762.73 193.333 1729 193.333C1680.2 193.333 1676.73 193.467 1670.33 196C1663.27 198.8 1653 199.6 1653 197.333C1653 196.533 1655 196 1657.4 195.867C1659.67 195.867 1664.33 194.8 1667.67 193.333C1673.13 191.2 1678.47 190.933 1727.4 190.8C1762.33 190.667 1781 191.067 1781 192ZM1787 192C1787.4 192.667 1786.6 193.333 1785.13 193.333C1783.53 193.333 1782.33 192.667 1782.33 192C1782.33 191.2 1783.13 190.667 1784.2 190.667C1785.27 190.667 1786.6 191.2 1787 192ZM974.067 196.267C974.467 199.467 974.067 200 971.133 200C968.2 200 967.667 199.467 967.667 195.867C967.667 192.4 968.067 191.867 970.733 192.267C972.867 192.533 973.8 193.733 974.067 196.267ZM982.6 196.133C983.133 199.733 982.867 200.133 979.8 199.733C977.133 199.467 976.2 198.533 975.933 195.6C975.533 192.533 975.933 192 978.733 192C981.4 192 982.2 192.8 982.6 196.133ZM1916.73 195.6C1917.13 198.267 1916.6 198.667 1912.47 198.667C1909.8 198.667 1907.67 198.133 1907.67 197.467C1907.67 196.8 1907.27 195.2 1906.87 194C1906.07 192.133 1906.87 191.867 1911.13 192.267C1915.4 192.533 1916.47 193.2 1916.73 195.6ZM1921 196.133C1921 198.4 1920.47 199.867 1919.67 199.333C1919 198.933 1918.33 197.067 1918.33 195.2C1918.33 193.467 1919 192 1919.67 192C1920.47 192 1921 193.867 1921 196.133ZM2665.4 195.467C2665.93 198.533 2665.67 198.8 2661.13 198.4C2657.27 198.133 2656.2 197.333 2655.93 194.933C2655.53 192.4 2656.07 192 2660.07 192C2663.93 192 2664.73 192.533 2665.4 195.467ZM2669.8 195.333C2670.6 198.4 2669.8 201.333 2668.47 199.867C2667.13 198.267 2666.47 192 2667.67 192C2668.33 192 2669.27 193.467 2669.8 195.333ZM24.4666 195.467C29.9333 198.133 31.7999 200.933 30.1999 204.667C29.3999 206.933 29.1333 206.933 29.1333 204.933C28.9999 202.267 26.8666 201.867 25.9333 204.267C25.5333 205.333 25.1333 204.933 25.1333 203.467C24.9999 201.467 24.5999 201.333 22.9999 202.667C21.3999 204 20.9999 204 20.9999 202.133C20.9999 200.933 20.4666 200 19.7999 200C19.2666 200 18.9999 201.6 19.3999 203.467C19.9333 206.133 19.5333 206.8 18.1999 206.4C16.9999 206 16.1999 203.467 15.9333 199.6C15.3999 192.4 16.7333 191.867 24.4666 195.467ZM213 196C213 198.667 212.067 198.667 167.667 198.667C123.267 198.667 122.333 198.667 122.333 196C122.333 193.333 123.267 193.333 167.667 193.333C212.067 193.333 213 193.333 213 196ZM233 198.667V204.133L224.733 203.733L216.333 203.333L215.533 198.267L214.733 193.333H223.933H233V198.667ZM307.4 197.333L317.8 201.333H992.467C1664.2 201.333 1667.27 201.333 1675 198.667C1682.47 196.133 1686.2 196 1765.27 196C1837.67 196 1847.67 196.267 1847.67 198C1847.67 199.733 1837.53 200 1765 200H1682.33L1673.53 203.333L1664.73 206.667H992.467L320.333 206.533L310.333 202.667L300.333 198.667H267.4C235.267 198.667 234.333 198.533 234.333 196C234.333 193.467 235.267 193.333 265.667 193.333H297.133L307.4 197.333ZM35.7999 196.933C37.5333 199.067 37.3999 199.2 35.3999 197.467C33.1333 195.733 32.4666 194.667 33.5333 194.667C33.7999 194.667 34.8666 195.733 35.7999 196.933ZM438.867 196.133C438.467 196.933 438.867 198.133 439.8 198.8C440.867 199.467 416.067 200 380.867 200C321.8 200 320.067 199.867 317.667 197.333C315.267 194.667 315.4 194.667 377.533 194.667C422.867 194.667 439.533 195.067 438.867 196.133ZM708.2 196.133C707.8 196.933 708.2 198.133 709.133 198.8C710.2 199.467 699.133 200 682.2 200C657.667 200 653.133 199.733 652.467 198C652.067 196.8 650.067 196 647.667 196C645 196 643.667 196.667 643.667 198C643.667 199.733 638.867 200 608.333 200C574.733 200 572.867 199.867 570.333 197.333L567.667 194.667H638.467C689.933 194.667 708.867 195.067 708.2 196.133ZM898.867 196.133C898.467 196.933 898.867 198.133 899.8 198.8C900.867 199.467 889.4 200 872.067 200C844.067 200 842.2 199.867 839.667 197.333L837 194.667H868.467C891.133 194.667 899.533 195.067 898.867 196.133ZM1143.27 195.6C1142.73 196 1143 197.2 1143.8 198.267C1145.13 199.733 1135.93 200 1089.13 200C1034.73 200 1032.87 199.867 1030.33 197.333L1027.67 194.667H1085.93C1117.93 194.667 1143.67 195.067 1143.27 195.6ZM1388.2 196.133C1387.8 196.933 1388.2 198.133 1389.13 198.8C1390.2 199.467 1366.73 200 1333.4 200C1284.47 200 1275.67 199.733 1275.67 198.133C1275.67 197.067 1274.87 195.867 1274.07 195.6C1273.13 195.2 1298.6 194.8 1330.73 194.8C1373.27 194.667 1388.87 195.067 1388.2 196.133ZM1565.93 195.6C1565.4 196 1565.67 197.2 1566.47 198.267C1567.8 199.733 1561.4 200 1528.47 200C1504.07 200 1489.13 199.467 1489.67 198.8C1490.07 198 1489.27 196.933 1488.07 196.133C1486.33 195.2 1497.67 194.8 1526.2 194.667C1548.47 194.667 1566.33 195.067 1565.93 195.6ZM1577 196C1578.47 196.933 1577.93 197.333 1574.73 197.333C1572.33 197.333 1570.33 196.667 1570.33 196C1570.33 194.267 1574.33 194.267 1577 196ZM1647.27 195.6C1646.73 196 1647 197.2 1647.8 198.267C1649.13 199.733 1643.67 200 1615.93 200C1583.8 200 1582.6 199.867 1581.93 197.333C1581.27 194.667 1581.93 194.667 1614.73 194.667C1633.13 194.667 1647.67 195.067 1647.27 195.6ZM2052.2 196.667C2052.6 197.867 2054.6 198.667 2057.13 198.667C2060.33 198.667 2061.13 198.133 2060.47 196.667C2059.8 194.933 2063.13 194.667 2085.13 194.667C2103.4 194.667 2110.2 195.067 2109.53 196.133C2109.13 196.933 2109.53 198.133 2110.47 198.8C2111.53 199.467 2084.6 200 2046.73 200C1990.87 200 1981 199.733 1981 198.133C1981 197.067 1980.2 195.867 1979.4 195.6C1978.47 195.2 1994.2 194.8 2014.47 194.8C2046.07 194.667 2051.53 194.933 2052.2 196.667ZM2369.4 197.333C2370.07 200 2369.4 200 2305.4 200C2265.53 200 2241.13 199.467 2241.67 198.8C2242.07 198 2241.27 196.933 2240.07 196.133C2238.33 195.2 2257.53 194.8 2303.13 194.667C2367.53 194.667 2368.73 194.667 2369.4 197.333ZM2546.33 196.533C2546.33 197.6 2547.13 198.8 2548.07 199.067C2548.87 199.467 2531.8 199.867 2510.07 199.867C2476.47 200 2470.33 199.733 2470.33 198.133C2470.33 197.067 2469.27 195.867 2468.07 195.6C2466.73 195.2 2483.8 194.933 2506.07 194.8C2539.93 194.667 2546.33 194.933 2546.33 196.533ZM2557.67 196C2559.93 196.933 2559.67 197.2 2556.07 197.2C2553.67 197.333 2551.67 196.667 2551.67 196C2551.67 194.4 2553.93 194.4 2557.67 196ZM2581.67 197.333C2584.07 200 2583.93 200 2574.07 200C2565.13 200 2563.93 199.733 2563.27 197.333C2562.6 194.933 2563.27 194.667 2570.87 194.667C2577.53 194.667 2579.8 195.2 2581.67 197.333ZM562.333 197.333C562.333 198.267 541.667 198.667 503 198.667C464.333 198.667 443.667 198.267 443.667 197.333C443.667 196.4 464.333 196 503 196C541.667 196 562.333 196.4 562.333 197.333ZM569 198.133C569 198.4 567.8 198.667 566.333 198.667C564.867 198.667 563.667 198.133 563.667 197.467C563.667 196.8 564.867 196.533 566.333 196.933C567.8 197.333 569 197.867 569 198.133ZM831.667 197.333C831.667 198.267 811 198.667 772.333 198.667C733.667 198.667 713 198.267 713 197.333C713 196.4 733.667 196 772.333 196C811 196 831.667 196.4 831.667 197.333ZM838.333 198.133C838.333 198.4 837.133 198.667 835.667 198.667C834.2 198.667 833 198.133 833 197.467C833 196.8 834.2 196.533 835.667 196.933C837.133 197.333 838.333 197.867 838.333 198.133ZM959.667 197.333C959.667 198.133 949.4 198.667 931.667 198.667C913.933 198.667 903.667 198.133 903.667 197.333C903.667 196.533 913.933 196 931.667 196C949.4 196 959.667 196.533 959.667 197.333ZM1022.33 197.333C1022.33 198.133 1015.27 198.667 1003.67 198.667C992.067 198.667 985 198.133 985 197.333C985 196.533 992.067 196 1003.67 196C1015.27 196 1022.33 196.533 1022.33 197.333ZM1027.67 197.333C1029.27 198.4 1029.13 198.667 1026.73 198.667C1025 198.667 1023.67 198 1023.67 197.333C1023.67 195.6 1025.13 195.6 1027.67 197.333ZM1267.67 197.333C1267.67 198.267 1246.73 198.667 1207.67 198.667C1168.6 198.667 1147.67 198.267 1147.67 197.333C1147.67 196.4 1168.6 196 1207.67 196C1246.73 196 1267.67 196.4 1267.67 197.333ZM1274.33 198.133C1274.33 198.4 1273.13 198.667 1271.67 198.667C1270.2 198.667 1269 198.133 1269 197.467C1269 196.8 1270.2 196.533 1271.67 196.933C1273.13 197.333 1274.33 197.867 1274.33 198.133ZM1481 197.333C1481 198.133 1465.4 198.667 1437 198.667C1408.6 198.667 1393 198.133 1393 197.333C1393 196.533 1408.6 196 1437 196C1465.4 196 1481 196.533 1481 197.333ZM1487.67 198.133C1487.67 198.4 1486.47 198.667 1485 198.667C1483.53 198.667 1482.33 198.133 1482.33 197.467C1482.33 196.8 1483.53 196.533 1485 196.933C1486.47 197.333 1487.67 197.867 1487.67 198.133ZM1898.33 197.333C1898.33 198.133 1889.93 198.667 1875.67 198.667C1861.4 198.667 1853 198.133 1853 197.333C1853 196.533 1861.4 196 1875.67 196C1889.93 196 1898.33 196.533 1898.33 197.333ZM1971.67 197.333C1971.67 198.133 1962.73 198.667 1947.67 198.667C1932.6 198.667 1923.67 198.133 1923.67 197.333C1923.67 196.533 1932.6 196 1947.67 196C1962.73 196 1971.67 196.533 1971.67 197.333ZM1977.67 197.333C1980.07 198.4 1979.93 198.533 1976.73 198.533C1974.6 198.667 1973 198 1973 197.333C1973 195.733 1974.07 195.733 1977.67 197.333ZM2057.93 196.8C2057.53 197.2 2056.33 197.333 2055.4 196.933C2054.33 196.533 2054.73 196.133 2056.2 196.133C2057.67 196 2058.47 196.4 2057.93 196.8ZM2233 197.333C2233 198.267 2212.33 198.667 2173.67 198.667C2135 198.667 2114.33 198.267 2114.33 197.333C2114.33 196.4 2135 196 2173.67 196C2212.33 196 2233 196.4 2233 197.333ZM2239.67 198.133C2239.67 198.4 2238.47 198.667 2237 198.667C2235.53 198.667 2234.33 198.133 2234.33 197.467C2234.33 196.8 2235.53 196.533 2237 196.933C2238.47 197.333 2239.67 197.867 2239.67 198.133ZM2462.33 197.333C2462.33 198.133 2446.6 198.667 2417.67 198.667C2388.73 198.667 2373 198.133 2373 197.333C2373 196.533 2388.73 196 2417.67 196C2446.6 196 2462.33 196.533 2462.33 197.333ZM9.93325 198.133C9.53325 198.533 8.33325 198.667 7.39992 198.267C6.33325 197.867 6.73325 197.467 8.19992 197.467C9.66659 197.333 10.4666 197.733 9.93325 198.133ZM102.733 198.267C93.1333 198.533 76.8666 198.533 66.7333 198.267C56.5999 198.133 64.5999 197.867 84.3333 197.867C104.2 197.867 112.467 198.133 102.733 198.267ZM2467.27 198.133C2466.87 198.533 2465.67 198.667 2464.73 198.267C2463.67 197.867 2464.07 197.467 2465.53 197.467C2467 197.333 2467.8 197.733 2467.27 198.133ZM170.6 200.933C149.267 201.2 114.067 201.2 92.5999 200.933C71.2666 200.8 88.7333 200.667 131.667 200.667C174.6 200.667 192.067 200.8 170.6 200.933ZM309 204L318.733 208H992.467H1666.33L1675.13 204.667C1685.4 200.8 1692.07 200.267 1690.87 203.333C1689.93 205.6 1695.13 208 1701 208C1705.8 208 1707.4 204.4 1703.27 202.667C1700.87 201.733 1701.4 201.467 1706.47 201.467C1711.13 201.333 1713.13 202 1715.53 204.533L1718.47 207.6L1713.4 208.533C1707.53 209.467 228.333 209.333 232.333 208.4C233.8 208 235.533 207.2 236.333 206.533C237 205.867 238.6 205.333 239.933 205.333C241.267 205.333 243 204.133 243.933 202.667C245.533 200.133 247.133 200 272.467 200C299.267 200 299.267 200 309 204ZM2648.33 203.067C2649.53 205.6 2650.73 206 2659 206.4C2667.67 206.8 2668.47 206.533 2669.67 203.733C2670.87 201.067 2672.2 200.667 2679 200.267C2686.6 199.867 2687.27 200.133 2691.67 204.667L2696.2 209.333H2240.6C1848.2 209.333 1785 209.067 1785 207.467C1785 206.4 1784.6 204.667 1784.2 203.467C1783.53 201.6 1785.53 201.333 1801.93 201.333C1820.07 201.333 1820.6 201.467 1823.67 204.667L1826.73 208H2217.13C2496.87 208 2607.8 207.6 2608.47 206.533C2610.07 203.733 2606.2 202 2596.6 201.2C2591 200.8 2599.27 200.4 2617 200.267C2647 200 2647 200 2648.33 203.067ZM2662.33 203.467C2662.33 204.8 2660.6 205.333 2657 205.333C2653.4 205.333 2651.67 204.8 2651.67 203.6C2651.67 200.8 2652.47 200.533 2657.67 201.067C2660.47 201.467 2662.33 202.4 2662.33 203.467ZM213.933 204.267C213.533 205.333 213.133 204.933 213.133 203.467C213 202 213.4 201.2 213.8 201.733C214.2 202.133 214.333 203.333 213.933 204.267ZM241.4 202.267C240.467 202.533 238.867 202.533 238.067 202.267C237.133 201.867 237.8 201.6 239.667 201.6C241.533 201.6 242.2 201.867 241.4 202.267ZM1724.2 203.333C1725.4 206.8 1721.13 207.333 1717.93 204.133L1715.13 201.333H1719.27C1721.8 201.333 1723.67 202.133 1724.2 203.333ZM1781 202.933C1781 204.267 1730.73 204.267 1729.93 202.933C1729.53 202.4 1740.87 202 1755.13 202C1769.4 202 1781 202.4 1781 202.933ZM1826.33 202.667C1826.33 203.333 1826.07 204 1825.8 204C1825.4 204 1824.73 203.333 1824.33 202.667C1823.93 201.867 1824.2 201.333 1824.87 201.333C1825.67 201.333 1826.33 201.867 1826.33 202.667ZM2586.33 204C2586.33 206.667 2585.4 206.667 2207 206.667C1828.6 206.667 1827.67 206.667 1827.67 204C1827.67 201.333 1828.6 201.333 2207 201.333C2585.4 201.333 2586.33 201.333 2586.33 204ZM2666.33 203.333C2666.33 204.4 2665.8 205.333 2665 205.333C2664.33 205.333 2663.67 204.4 2663.67 203.333C2663.67 202.267 2664.33 201.333 2665 201.333C2665.8 201.333 2666.33 202.267 2666.33 203.333ZM33.9333 205.6C33.5333 206.667 33.1333 206.267 33.1333 204.8C32.9999 203.333 33.3999 202.533 33.7999 203.067C34.1999 203.467 34.3333 204.667 33.9333 205.6ZM2597 204C2597 204.667 2594.87 205.333 2592.33 205.333C2589.8 205.333 2587.67 204.667 2587.67 204C2587.67 203.2 2589.8 202.667 2592.33 202.667C2594.87 202.667 2597 203.2 2597 204ZM2606.2 204.8C2606.47 205.067 2606.47 205.6 2606.07 206C2604.87 207.2 2598.33 205.2 2598.33 203.733C2598.33 202.533 2604.87 203.333 2606.2 204.8ZM171.267 204.933C149.533 205.2 113.8 205.2 91.9333 204.933C70.1999 204.8 88.0666 204.667 131.667 204.667C175.267 204.667 193.133 204.8 171.267 204.933ZM1783.67 206.667C1783.67 207.467 1773.93 208 1757 208C1732.87 208 1729.8 208.267 1725.4 210.667C1719.4 213.867 1714.33 214.133 1714.33 211.333C1714.33 210 1715.67 209.333 1718.73 209.333C1721 209.333 1724.2 208.4 1725.53 207.333C1727.67 205.733 1733.53 205.333 1755.93 205.333C1773.53 205.333 1783.67 205.867 1783.67 206.667ZM194.333 208.4C205 208.533 175.133 208.933 128.067 209.067C80.8666 209.2 42.3333 208.933 42.3333 208.267C42.3333 207.467 145.8 207.467 194.333 208.4ZM226.067 208.933C223.933 209.2 220.733 209.2 218.733 208.933C216.6 208.667 218.333 208.4 222.333 208.4C226.333 208.4 228.067 208.667 226.067 208.933ZM1713 212.667C1713 214.4 1617.67 214.667 873 214.667C127.933 214.667 32.9999 214.4 32.9999 212.667C32.9999 210.933 127.933 210.667 873 210.667C1617.67 210.667 1713 210.933 1713 212.667ZM2698.33 212.667C2698.33 214.4 2642.6 214.667 2216.33 214.667C1788.33 214.667 1734.33 214.4 1734.33 212.667C1734.33 210.933 1788.33 210.667 2216.33 210.667C2642.6 210.667 2698.33 210.933 2698.33 212.667ZM1579.67 221.2C1579.67 227.333 1577.8 228.267 1569 226.133C1563.53 224.8 1563 224.267 1562.6 220.267L1562.2 216H1570.87H1579.67V221.2ZM1581.93 224.267C1581.67 226 1581.4 224.667 1581.4 221.333C1581.4 218 1581.67 216.667 1581.93 218.267C1582.2 220 1582.2 222.667 1581.93 224.267ZM1584.6 222.933C1584.33 224.667 1584.07 223.6 1584.07 220.667C1583.93 217.733 1584.2 216.4 1584.6 217.6C1584.87 218.933 1584.87 221.333 1584.6 222.933ZM2559.67 221.333C2559.67 226.933 2559.4 227.2 2552.33 226.667C2546.07 226.267 2543.67 224.4 2543.67 220C2543.67 216 2543.67 216 2551.67 216H2559.67V221.333ZM2563.67 221.333C2563.67 224.267 2563.13 226.667 2562.33 226.667C2561.67 226.667 2561 224.267 2561 221.333C2561 218.4 2561.67 216 2562.33 216C2563.13 216 2563.67 218.4 2563.67 221.333ZM2565.93 222.933C2565.67 224.667 2565.4 223.6 2565.4 220.667C2565.27 217.733 2565.53 216.4 2565.93 217.6C2566.2 218.933 2566.2 221.333 2565.93 222.933Z" fill="black"/>
<path d="M2671.27 203.2C2670.33 205.467 2675.67 208 2681.53 208C2686.73 208 2689.13 204.667 2685 203.333C2683.53 202.8 2681.67 202.933 2680.87 203.467C2679.8 204 2679.67 203.867 2680.2 202.933C2680.87 201.867 2679.67 201.333 2676.6 201.333C2673.93 201.333 2671.67 202.133 2671.27 203.2Z" fill="black"/>
</svg>
