<svg width="40" height="200" viewBox="0 0 220 2800" preserveAspectRatio="none" fill="#000000" xmlns="http://www.w3.org/2000/svg">
<path d="M209.872 5.59425C208.283 4.50269 186.879 4.36624 185.29 5.32136C184.556 5.86714 183.944 7.77737 183.944 9.6876C183.944 12.1436 183.333 12.9623 181.131 12.9623C179.541 12.9623 177.829 13.5081 177.095 14.3267C176.361 15.1454 151.045 15.8276 111.174 16.1005C75.4611 16.237 45.0076 17.0556 43.4177 17.6014C40.8493 18.693 40.727 18.5565 41.8277 16.237C42.4392 14.8725 43.1731 10.6427 43.4177 6.82225L43.9069 0L35.9572 0.54578C31.5543 0.81867 27.6405 1.22801 27.029 1.63734C26.5398 1.91023 26.1729 3.95691 26.1729 6.14003C26.1729 9.55115 25.6837 10.0969 22.2592 10.5063L18.2232 10.9156L18.5901 18.4201C18.957 24.9694 18.5901 26.3339 15.8994 29.1992L12.7195 32.4739L12.7195 814.85L12.7195 1597.09H8.43893C3.05758 1597.09 0.244607 1601.46 0.122303 1610.46C0 1621.24 1.10073 1623.01 7.2159 1623.01H12.5972L12.9642 1692.33C13.3311 1755.64 13.4534 1761.78 15.5325 1765.05C17.6117 1768.46 17.4894 1768.6 15.1656 1771.06C12.7195 1773.51 12.7195 1774.74 12.7195 2187.49L12.7195 2601.32H8.43893C2.93528 2601.32 0 2605.96 0 2614.83C0 2624.11 1.95685 2627.25 7.82741 2627.25H12.7195V2694.79V2762.33H15.5325C17.2448 2762.33 20.3023 2760.01 23.3599 2756.6C28.1298 2751.28 28.4967 2750.05 28.8636 2742.55C29.2305 2734.63 29.3528 2734.5 33.2665 2733.54C35.5903 2732.99 39.0148 2730.95 40.9716 2728.76C44.1515 2725.35 44.5184 2724.13 44.5184 2716.35C44.5184 2708.43 44.2738 2707.62 41.5831 2706.11C39.1371 2705.02 37.6694 2705.16 34.2449 2706.93C32.0435 2708.16 29.7197 2709.12 29.3528 2709.12C28.9859 2709.12 28.619 2694.79 28.619 2677.32C28.619 2647.17 28.7413 2645.26 31.065 2642.94C33.5111 2640.48 33.5111 2638.71 33.5111 2303.6C33.5111 2013.25 33.7557 1966.86 35.2234 1966.86C36.2018 1966.86 38.7701 1964.95 40.8493 1962.63C44.3961 1958.53 44.6407 1957.85 44.2738 1949.39C43.9069 1940.93 43.7846 1940.38 40.4824 1939.43C38.1586 1938.75 36.5687 1939.02 35.3457 1940.52C33.7557 1942.3 33.5111 1939.57 33.5111 1916.92C33.5111 1892.77 33.6334 1891.13 36.0795 1888.26C38.6478 1885.26 38.6478 1884.85 38.5255 1797.12C38.4032 1712.66 38.2809 1708.56 35.9572 1702.02C33.5111 1695.33 33.5111 1690.69 33.5111 1350.81C33.5111 1068.5 33.7557 1006.28 35.101 1006.28C35.9572 1006.28 38.4032 1004.24 40.6047 1001.78C44.1515 997.686 44.5184 996.458 44.5184 988.817C44.5184 981.995 44.1515 980.221 42.1946 978.993C38.8925 977.083 35.101 977.219 34.3672 979.403C34.0003 980.221 33.6334 832.315 33.6334 650.706L33.5111 320.373L37.1802 310.412L40.8493 300.452V271.526C40.8493 248.876 41.2162 241.508 42.6839 237.687C45.2522 230.865 45.2522 209.034 42.6839 206.714C41.0939 205.213 40.8493 198.391 40.8493 160.869V116.661H37.1802L33.5111 116.661V79.9568C33.5111 57.9891 34.0003 41.7522 34.7341 39.2962C37.3025 31.2459 35.468 31.3824 120.346 31.1095C163.03 30.973 199.599 30.8366 201.434 30.8366C203.88 30.7001 204.736 30.1544 204.491 28.3806C204.247 26.8797 205.225 25.7881 207.182 25.2423C209.995 24.5601 210.239 23.7414 210.606 15.4183C210.729 10.3698 210.362 6.00358 209.872 5.59425ZM197.153 11.3249C187.98 11.052 185.779 10.5063 185.779 8.86893C185.779 7.23159 187.98 6.68581 197.153 6.41292C207.793 6.00358 208.405 6.14003 208.405 8.86893C208.405 11.5978 207.793 11.7343 197.153 11.3249ZM86.4684 26.1974C65.0654 26.061 82.5547 25.9246 125.239 25.9246C167.922 25.9246 185.412 26.061 164.131 26.1974C142.728 26.4703 107.749 26.4703 86.4684 26.1974ZM189.448 22.5134L179.052 22.5134V18.4201V14.3267L189.448 14.3267L199.844 14.3267V18.4201V22.5134L189.448 22.5134ZM80.9648 23.4685C63.2308 23.3321 77.6626 23.1957 113.008 23.1957C148.354 23.1957 162.786 23.3321 145.174 23.4685C127.44 23.7414 98.5765 23.7414 80.9648 23.4685ZM115.944 21.149C114.965 21.149 114.476 20.6032 114.843 19.7845C115.21 19.1023 116.066 18.4201 116.8 18.4201C117.411 18.4201 117.9 19.1023 117.9 19.7845C117.9 20.6032 117.044 21.149 115.944 21.149ZM107.872 20.7396C107.015 20.3303 107.627 20.0574 109.339 20.0574C111.051 20.0574 111.663 20.3303 110.929 20.7396C110.073 21.0125 108.605 21.0125 107.872 20.7396ZM99.4326 20.8761C98.4542 20.4668 99.0657 19.921 100.656 19.3752C102.735 18.8294 103.224 18.9659 102.246 20.0574C101.634 20.7396 100.289 21.149 99.4326 20.8761ZM54.1804 21.149C52.835 21.149 52.1012 20.6032 52.4681 19.7845C52.835 19.1023 54.3027 18.4201 55.648 18.4201C56.9933 18.4201 57.7272 19.1023 57.3603 19.7845C56.9933 20.6032 55.5257 21.149 54.1804 21.149ZM44.5184 21.8312C41.7054 22.5134 40.6047 22.377 41.4608 21.4219C42.1946 20.7396 44.6407 19.6481 46.9645 19.1023C49.7774 18.4201 50.8782 18.5565 50.0221 19.5116C49.4105 20.1939 46.8422 21.2854 44.5184 21.8312ZM42.5616 224.043C42.1946 223.633 42.0723 222.405 42.4392 221.45C42.8062 220.359 43.1731 220.768 43.1731 222.269C43.2954 223.77 42.9285 224.589 42.5616 224.043ZM40.8493 218.312C39.8709 220.768 39.7486 220.768 39.7486 217.63C39.7486 215.72 40.2378 213.264 40.8493 212.172C41.8277 210.535 42.0723 210.535 41.95 212.854C41.95 214.355 41.4608 216.811 40.8493 218.312ZM41.2162 232.366C40.9716 231.001 40.9716 228.818 41.2162 227.59C41.5831 226.226 41.8277 227.317 41.8277 229.91C41.8277 232.502 41.5831 233.594 41.2162 232.366ZM33.0219 986.225C26.0506 984.724 26.9067 983.496 35.8349 981.859L42.1946 980.767L39.504 983.905C37.4248 986.361 36.0795 986.907 33.0219 986.225ZM38.7701 15.4183L36.691 20.4668L36.0795 15.009C35.468 10.7792 34.8564 9.6876 33.2665 9.96049C31.9212 10.2334 31.065 9.55115 31.065 8.1867C31.065 6.68581 32.4104 6.14003 35.9572 6.14003C41.5831 6.14003 41.95 7.50448 38.7701 15.4183ZM39.9932 994.411C39.7486 993.456 39.7486 991.546 39.9932 990.318C40.3601 988.954 40.6047 989.772 40.6047 991.955C40.6047 994.275 40.3601 995.23 39.9932 994.411ZM39.9932 1954.98C39.7486 1954.03 39.7486 1952.12 39.9932 1950.89C40.3601 1949.53 40.6047 1950.35 40.6047 1952.53C40.6047 1954.85 40.3601 1955.8 39.9932 1954.98ZM39.9932 2721.81C39.7486 2720.85 39.7486 2718.94 39.9932 2717.71C40.3601 2716.35 40.6047 2717.17 40.6047 2719.35C40.6047 2721.67 40.3601 2722.62 39.9932 2721.81ZM37.1802 125.939C35.2234 127.303 34.7341 127.303 34.7341 125.802C34.7341 124.711 35.8349 122.801 37.1802 121.436C39.504 118.98 39.6263 119.117 39.6263 121.573C39.6263 123.073 38.5255 124.984 37.1802 125.939ZM38.7701 148.316C38.2809 146.951 37.7917 146.951 36.4464 148.179C34.9787 149.544 34.7341 148.725 34.7341 143.54C34.7341 138.082 35.101 137.264 37.1802 137.537C39.2594 137.673 39.6263 138.628 39.504 143.95C39.504 147.361 39.1371 149.271 38.7701 148.316ZM38.7701 164.007C38.4032 163.461 37.3025 163.734 36.3241 164.553C35.101 165.781 34.7341 165.235 34.7341 161.824C34.7341 159.231 35.2234 157.73 35.9572 158.276C36.691 158.686 37.6694 157.73 38.2809 155.957C39.2594 153.364 39.504 153.774 39.504 158.822C39.6263 162.097 39.2594 164.416 38.7701 164.007ZM38.8925 226.772C38.5255 226.362 38.4032 225.134 38.7701 224.179C39.1371 223.088 39.504 223.497 39.504 224.998C39.6263 226.499 39.2594 227.317 38.8925 226.772ZM37.1802 300.179C34.7341 302.635 34.7341 302.499 34.7341 295.676C34.7341 290.355 35.3457 287.899 37.1802 285.852L39.6263 283.123V290.355C39.6263 295.949 39.0148 298.269 37.1802 300.179ZM30.4535 2712.66C27.2736 2712.12 24.9499 2711.44 25.1945 2711.3C25.3168 2711.03 28.8636 2710.34 32.8996 2709.8C39.7486 2708.98 40.1155 2708.98 38.1586 2711.16C36.5687 2713.07 34.9787 2713.35 30.4535 2712.66ZM37.5471 134.808C37.3025 133.853 37.3025 131.942 37.5471 130.714C37.914 129.35 38.1586 130.169 38.1586 132.352C38.1586 134.671 37.914 135.626 37.5471 134.808ZM37.1802 206.032C36.4464 206.578 35.9572 200.165 35.9572 187.748C35.9572 175.878 36.4464 168.51 37.1802 168.51C37.914 168.51 38.4032 175.468 38.4032 186.793C38.4032 197.572 37.914 205.486 37.1802 206.032ZM37.1802 277.666C36.4464 277.666 35.9572 270.843 35.9572 259.928C35.9572 249.012 36.4464 242.19 37.1802 242.19C37.914 242.19 38.4032 249.012 38.4032 259.928C38.4032 270.843 37.914 277.666 37.1802 277.666ZM36.4464 284.488C36.2018 284.488 35.9572 283.26 35.9572 281.759C35.9572 280.258 36.4464 279.03 37.0579 279.03C37.6694 279.03 37.914 280.258 37.5471 281.759C37.1802 283.26 36.691 284.488 36.4464 284.488ZM37.5471 993.047C37.3025 992.092 37.3025 990.455 37.5471 989.636C37.914 988.681 38.1586 989.363 38.1586 991.273C38.1586 993.183 37.914 993.866 37.5471 993.047ZM37.5471 1001.23C37.3025 1000.28 37.3025 998.641 37.5471 997.823C37.914 996.868 38.1586 997.55 38.1586 999.46C38.1586 1001.37 37.914 1002.05 37.5471 1001.23ZM37.5471 1877.21C37.3025 1876.26 37.3025 1874.35 37.5471 1873.12C37.914 1871.75 38.1586 1872.57 38.1586 1874.75C38.1586 1877.07 37.914 1878.03 37.5471 1877.21ZM32.1658 1947.75C30.9427 1947.75 29.7197 1947.21 29.3528 1946.53C28.619 1945.3 32.655 1943.66 36.5687 1943.66C39.0148 1943.8 39.0148 1943.8 36.691 1945.71C35.3457 1946.8 33.2665 1947.75 32.1658 1947.75ZM31.9212 123.483C31.1873 123.483 31.6766 122.255 32.8996 120.754C34.1226 119.253 35.7126 118.025 36.3241 118.025C37.0579 118.025 36.5687 119.253 35.3457 120.754C34.1226 122.255 32.5327 123.483 31.9212 123.483ZM36.3241 155.274C36.0795 154.319 36.0795 152.682 36.3241 151.863C36.691 150.908 36.9356 151.59 36.9356 153.501C36.9356 155.411 36.691 156.093 36.3241 155.274ZM35.9572 236.732C35.2234 236.732 34.7341 232.912 34.7341 227.863C34.7341 222.815 35.2234 218.994 35.9572 218.994C36.691 218.994 37.1802 222.815 37.1802 227.863C37.1802 232.912 36.691 236.732 35.9572 236.732ZM30.3312 321.328C28.9859 322.693 29.2305 321.328 31.065 316.553C32.5327 312.868 34.4895 308.775 35.468 307.684C36.8133 306.319 36.5687 307.684 34.7341 312.459C33.2665 316.28 31.3096 320.237 30.3312 321.328ZM35.468 1868.61C34.4895 1868.61 33.3888 1869.43 33.1442 1870.39C32.7773 1871.21 32.4104 1862.61 32.4104 1851.15C32.2881 1836.14 32.655 1830.55 33.6334 1831.23C34.3672 1831.64 35.468 1831.23 36.0795 1830.27C36.691 1829.18 37.1802 1836.55 37.1802 1848.56C37.1802 1864.93 36.8133 1868.61 35.468 1868.61ZM34.7341 1887.03C32.2881 1889.49 32.2881 1889.35 32.2881 1885.26C32.2881 1881.85 32.655 1881.3 34.7341 1881.85C36.0795 1882.26 37.1802 1883.08 37.1802 1883.62C37.1802 1884.17 36.0795 1885.67 34.7341 1887.03ZM34.7341 1822.22C34.0003 1822.22 33.5111 1803.53 33.5111 1769.01C33.5111 1719.07 33.3888 1715.52 31.065 1708.97C28.4967 1701.74 27.7629 1691.24 29.842 1691.24C30.5758 1691.24 31.065 1693.28 31.1873 1695.74C31.1873 1698.06 32.1658 1702.83 33.5111 1706.25C35.468 1711.84 35.7126 1717.3 35.8349 1767.37C35.9572 1803.12 35.5903 1822.22 34.7341 1822.22ZM34.7341 1828.36C34.1226 1828.77 33.5111 1827.95 33.5111 1826.45C33.5111 1824.82 34.1226 1823.59 34.7341 1823.59C35.468 1823.59 35.9572 1824.41 35.9572 1825.5C35.9572 1826.59 35.468 1827.95 34.7341 1828.36ZM30.8204 996.458C27.8852 996.868 27.3959 996.458 27.3959 993.456C27.3959 990.455 27.8852 989.909 31.1873 989.909C34.3672 989.909 34.8564 990.318 34.4895 993.047C34.2449 995.23 33.1442 996.185 30.8204 996.458ZM30.9427 1005.19C27.6405 1005.74 27.2736 1005.46 27.6405 1002.33C27.8852 999.596 28.7413 998.641 31.4319 998.368C34.2449 997.959 34.7341 998.368 34.7341 1001.23C34.7341 1003.96 34.0003 1004.78 30.9427 1005.19ZM31.4319 1961.12C28.9859 1961.53 28.619 1960.99 28.619 1956.76C28.619 1954.03 29.1082 1951.85 29.7197 1951.85C30.3312 1951.85 31.7989 1951.44 32.8996 1951.03C34.6118 1950.21 34.8564 1951.03 34.4895 1955.39C34.2449 1959.76 33.6334 1960.85 31.4319 1961.12ZM30.9427 1965.49C28.8636 1965.49 27.5182 1964.95 28.0075 1964.13C28.3744 1963.44 30.0866 1962.76 31.7989 1962.76C33.3888 1962.76 34.7341 1963.44 34.7341 1964.13C34.7341 1964.95 33.0219 1965.49 30.9427 1965.49ZM31.5543 2727.26C28.7413 2727.81 28.4967 2727.54 28.8636 2722.9C29.1082 2718.94 29.842 2717.85 32.0435 2717.58C34.3672 2717.17 34.7341 2717.71 34.7341 2721.81C34.7341 2725.76 34.2449 2726.58 31.5543 2727.26ZM31.6766 2731.77C28.8636 2732.58 26.1729 2731.77 27.5182 2730.4C28.9859 2729.04 34.7341 2728.36 34.7341 2729.58C34.7341 2730.27 33.3888 2731.22 31.6766 2731.77ZM31.5543 24.6966C29.1082 30.2908 26.5398 32.201 23.1153 30.5637C21.0362 29.745 21.0362 29.4721 22.8707 29.4721C25.3168 29.3357 25.6837 27.1526 23.4822 26.1974C22.5038 25.7881 22.8707 25.3788 24.2161 25.3788C26.0506 25.2423 26.1729 24.833 24.9499 23.1957C23.7268 21.5583 23.7268 21.149 25.4391 21.149C26.5398 21.149 27.3959 20.6032 27.3959 19.921C27.3959 19.3752 25.9283 19.1023 24.2161 19.5116C21.77 20.0574 21.1585 19.6481 21.5254 18.2836C21.8923 17.0556 24.2161 16.237 27.7629 15.9641C34.3672 15.4183 34.8564 16.7827 31.5543 24.6966ZM31.065 217.63C28.619 217.63 28.619 216.675 28.619 171.239C28.619 125.802 28.619 124.847 31.065 124.847C33.5111 124.847 33.5111 125.802 33.5111 171.239C33.5111 216.675 33.5111 217.63 31.065 217.63ZM28.619 238.097H23.6045L23.9714 229.637L24.3384 221.041L28.9859 220.222L33.5111 219.404V228.818V238.097L28.619 238.097ZM29.842 314.233L26.1729 324.876L26.1729 1015.29C26.1729 1702.7 26.1729 1705.84 28.619 1713.75C30.9427 1721.39 31.065 1725.21 31.065 1806.12C31.065 1880.21 30.8204 1890.45 29.2305 1890.45C27.6405 1890.45 27.3959 1880.08 27.3959 1805.85V1721.25L24.3384 1712.25L21.2808 1703.24L21.2808 1015.29L21.4031 327.468L24.9499 317.235L28.619 307.001V273.299C28.619 240.416 28.7413 239.461 31.065 239.461C33.3888 239.461 33.5111 240.416 33.5111 271.526V303.727L29.842 314.233ZM30.2089 36.2944C28.2521 38.0682 28.1298 37.9317 29.7197 35.885C31.3096 33.5655 32.2881 32.8833 32.2881 33.9748C32.2881 34.2477 31.3096 35.3393 30.2089 36.2944ZM30.9427 448.768C30.2089 448.358 29.1082 448.768 28.4967 449.723C27.8852 450.814 27.3959 425.436 27.3959 389.414C27.3959 328.969 27.5182 327.195 29.842 324.739C32.2881 322.283 32.2881 322.42 32.2881 386.003C32.2881 432.394 31.9212 449.45 30.9427 448.768ZM30.9427 724.387C30.2089 723.977 29.1082 724.387 28.4967 725.342C27.8852 726.433 27.3959 715.108 27.3959 697.78C27.3959 672.674 27.6405 668.035 29.2305 667.353C30.3312 666.943 31.065 664.897 31.065 662.441C31.065 659.712 30.4535 658.347 29.2305 658.347C27.6405 658.347 27.3959 653.435 27.3959 622.189C27.3959 587.805 27.5182 585.895 29.842 583.303L32.2881 580.574V653.026C32.2881 705.694 31.9212 725.069 30.9427 724.387ZM30.9427 919.503C30.2089 919.094 29.1082 919.503 28.4967 920.458C27.8852 921.55 27.3959 909.816 27.3959 892.078C27.3959 863.424 27.5182 861.514 29.842 858.922L32.2881 856.193V888.394C32.2881 911.589 31.9212 920.185 30.9427 919.503ZM31.4319 1169.61C31.065 1169.06 29.9643 1169.33 28.9859 1170.15C27.6405 1171.52 27.3959 1162.1 27.3959 1114.21C27.3959 1058.54 27.5182 1056.63 29.842 1054.04L32.2881 1051.31L32.2881 1110.94C32.2881 1143.68 31.9212 1170.02 31.4319 1169.61ZM30.9427 1420.26C30.2089 1419.85 29.1082 1420.26 28.4967 1421.21C27.8852 1422.3 27.3959 1398.29 27.3959 1364.18C27.3959 1314.1 27.6405 1305.1 29.1082 1305.1C30.0866 1305.1 31.1873 1304.28 31.4319 1303.46C31.7989 1302.5 32.1658 1328.57 32.1658 1361.45C32.2881 1404.97 31.9212 1420.94 30.9427 1420.26ZM31.4319 1602.14C31.065 1601.59 29.9643 1601.86 28.9859 1602.68C27.6405 1604.05 27.3959 1597.5 27.3959 1563.8C27.3959 1538.83 27.8852 1523.55 28.4967 1524.09C29.2305 1524.5 30.2089 1523.68 30.9427 1522.45C31.7989 1520.68 32.1658 1532.28 32.2881 1561.48C32.2881 1584.26 31.9212 1602.55 31.4319 1602.14ZM31.065 1613.46C30.2089 1614.96 29.842 1614.42 29.842 1611.14C29.842 1608.69 30.4535 1606.64 31.065 1606.64C32.655 1606.64 32.655 1610.73 31.065 1613.46ZM31.4319 1685.37C31.065 1684.82 29.9643 1685.1 28.9859 1685.91C27.6405 1687.28 27.3959 1681.69 27.3959 1653.3C27.3959 1620.42 27.5182 1619.19 29.842 1618.51C32.2881 1617.83 32.2881 1618.51 32.2881 1652.08C32.2881 1670.91 31.9212 1685.78 31.4319 1685.37ZM30.4535 2099.75C29.3528 2100.16 28.619 2102.21 28.619 2104.8C28.619 2108.08 29.1082 2108.89 30.4535 2108.21C32.0435 2107.53 32.2881 2110.94 32.2881 2133.45C32.2881 2152.15 31.9212 2159.11 30.9427 2158.42C30.2089 2158.01 29.1082 2158.42 28.4967 2159.38C27.8852 2160.47 27.3959 2132.91 27.3959 2094.16C27.3959 2036.99 27.6405 2026.89 29.1082 2026.89C30.0866 2026.89 31.1873 2026.07 31.4319 2025.25C31.7989 2024.3 32.1658 2040.4 32.1658 2061.14C32.2881 2093.48 32.0435 2099.07 30.4535 2099.75ZM29.842 2424.36C27.3959 2425.04 27.3959 2424.36 27.3959 2358.86C27.3959 2318.06 27.8852 2293.1 28.4967 2293.64C29.2305 2294.05 30.2089 2293.23 30.9427 2292C31.7989 2290.23 32.1658 2309.88 32.2881 2356.54C32.2881 2422.45 32.2881 2423.67 29.842 2424.36ZM30.5758 2605.42C29.5974 2605.42 28.4967 2606.24 28.2521 2607.19C27.8852 2608.01 27.5182 2590.55 27.5182 2568.31C27.3959 2533.92 27.6405 2527.64 29.1082 2527.64C30.0866 2527.64 31.1873 2526.55 31.4319 2525.32C31.7989 2523.96 32.0435 2541.43 32.1658 2564.21C32.2881 2598.87 32.0435 2605.42 30.5758 2605.42ZM31.065 2617.02C30.2089 2619.34 29.9643 2619.06 29.9643 2615.38C29.842 2612.92 30.4535 2610.88 31.065 2610.88C32.5327 2610.88 32.5327 2613.2 31.065 2617.02ZM29.842 2641.58C27.3959 2644.03 27.3959 2643.9 27.3959 2633.8C27.3959 2624.66 27.6405 2623.43 29.842 2622.75C32.0435 2622.06 32.2881 2622.75 32.2881 2630.52C32.2881 2637.35 31.7989 2639.67 29.842 2641.58ZM29.842 575.116C28.9859 575.116 28.619 553.967 28.619 514.398C28.619 474.829 28.9859 453.68 29.842 453.68C30.6981 453.68 31.065 474.829 31.065 514.398C31.065 553.967 30.6981 575.116 29.842 575.116ZM29.1082 581.938C28.8636 581.938 28.619 580.71 28.619 579.209C28.619 577.708 29.1082 576.48 29.7197 576.48C30.3312 576.48 30.5758 577.708 30.2089 579.209C29.842 580.71 29.3528 581.938 29.1082 581.938ZM29.842 850.735C28.9859 850.735 28.619 829.586 28.619 790.017C28.619 750.448 28.9859 729.299 29.842 729.299C30.6981 729.299 31.065 750.448 31.065 790.017C31.065 829.586 30.6981 850.735 29.842 850.735ZM29.1082 857.557C28.8636 857.557 28.619 856.329 28.619 854.828C28.619 853.327 29.1082 852.099 29.7197 852.099C30.3312 852.099 30.5758 853.327 30.2089 854.828C29.842 856.329 29.3528 857.557 29.1082 857.557ZM29.842 981.722C29.1082 981.722 28.619 971.216 28.619 953.069C28.619 934.921 29.1082 924.415 29.842 924.415C30.5758 924.415 31.065 934.921 31.065 953.069C31.065 971.216 30.5758 981.722 29.842 981.722ZM29.842 1045.85C29.1082 1045.85 28.619 1038.62 28.619 1026.75C28.619 1014.88 29.1082 1007.65 29.842 1007.65C30.5758 1007.65 31.065 1014.88 31.065 1026.75C31.065 1038.62 30.5758 1045.85 29.842 1045.85ZM29.842 1051.31C28.8636 1052.95 28.619 1052.81 28.619 1050.35C28.619 1048.58 29.2305 1047.22 29.842 1047.22C31.4319 1047.22 31.4319 1048.72 29.842 1051.31ZM29.842 1296.91C28.9859 1296.91 28.619 1275.49 28.619 1235.51C28.619 1195.53 28.9859 1174.11 29.842 1174.11C30.6981 1174.11 31.065 1195.53 31.065 1235.51C31.065 1275.49 30.6981 1296.91 29.842 1296.91ZM29.1082 1303.73C28.8636 1303.73 28.619 1302.5 28.619 1301C28.619 1299.5 29.1082 1298.27 29.7197 1298.27C30.3312 1298.27 30.5758 1299.5 30.2089 1301C29.842 1302.5 29.3528 1303.73 29.1082 1303.73ZM29.842 1515.22C29.1082 1515.22 28.619 1499.26 28.619 1470.2C28.619 1441.13 29.1082 1425.17 29.842 1425.17C30.5758 1425.17 31.065 1441.13 31.065 1470.2C31.065 1499.26 30.5758 1515.22 29.842 1515.22ZM29.1082 1522.04C28.8636 1522.04 28.619 1520.82 28.619 1519.32C28.619 1517.81 29.1082 1516.59 29.7197 1516.59C30.3312 1516.59 30.5758 1517.81 30.2089 1519.32C29.842 1520.82 29.3528 1522.04 29.1082 1522.04ZM29.842 1942.3C29.1082 1942.3 28.619 1933.7 28.619 1919.1C28.619 1904.5 29.1082 1895.9 29.842 1895.9C30.5758 1895.9 31.065 1904.5 31.065 1919.1C31.065 1933.7 30.5758 1942.3 29.842 1942.3ZM29.842 2017.34C29.1082 2017.34 28.619 2008.2 28.619 1992.78C28.619 1977.36 29.1082 1968.22 29.842 1968.22C30.5758 1968.22 31.065 1977.36 31.065 1992.78C31.065 2008.2 30.5758 2017.34 29.842 2017.34ZM29.842 2023.48C28.8636 2025.94 28.7413 2025.8 28.7413 2022.52C28.619 2020.34 29.2305 2018.7 29.842 2018.7C31.3096 2018.7 31.3096 2019.8 29.842 2023.48ZM30.3312 2105.62C29.9643 2105.21 29.842 2103.98 30.2089 2103.03C30.5758 2101.94 30.9427 2102.35 30.9427 2103.85C31.065 2105.35 30.6981 2106.17 30.3312 2105.62ZM29.842 2284.77C28.9859 2284.77 28.619 2263.62 28.619 2224.05C28.619 2184.49 28.9859 2163.34 29.842 2163.34C30.6981 2163.34 31.065 2184.49 31.065 2224.05C31.065 2263.62 30.6981 2284.77 29.842 2284.77ZM29.1082 2291.59C28.8636 2291.59 28.619 2290.37 28.619 2288.87C28.619 2287.36 29.1082 2286.14 29.7197 2286.14C30.3312 2286.14 30.5758 2287.36 30.2089 2288.87C29.842 2290.37 29.3528 2291.59 29.1082 2291.59ZM29.842 2519.46C29.1082 2519.46 28.619 2503.36 28.619 2473.75C28.619 2444.14 29.1082 2428.04 29.842 2428.04C30.5758 2428.04 31.065 2444.14 31.065 2473.75C31.065 2503.36 30.5758 2519.46 29.842 2519.46ZM29.1082 9.82404C28.7413 9.41471 28.619 8.1867 28.9859 7.23159C29.3528 6.14003 29.7197 6.54936 29.7197 8.05026C29.842 9.55115 29.4751 10.3698 29.1082 9.82404ZM28.9859 104.79C28.7413 94.9658 28.7413 78.3195 28.9859 67.9496C29.1082 57.5798 29.3528 65.7665 29.3528 85.9604C29.3528 106.291 29.1082 114.75 28.9859 104.79ZM29.1082 2524.51C28.7413 2524.1 28.619 2522.87 28.9859 2521.91C29.3528 2520.82 29.7197 2521.23 29.7197 2522.73C29.842 2524.23 29.4751 2525.05 29.1082 2524.51ZM26.5398 174.24C26.2952 152.409 26.2952 116.388 26.5398 94.42C26.6621 72.5888 26.7844 90.4631 26.7844 134.398C26.7844 178.334 26.6621 196.208 26.5398 174.24ZM23.7268 315.87L20.0577 325.831L20.0577 1015.29L20.0577 1704.88L23.1153 1713.89C26.6621 1724.39 27.1513 1731.21 24.3384 1729.99C22.2592 1729.03 20.0577 1734.35 20.0577 1740.36C20.0577 1745.27 23.3599 1746.91 24.9499 1742.68C25.806 1740.22 26.0506 1740.77 26.0506 1745.95C26.1729 1750.73 25.5614 1752.77 23.2376 1755.23L20.4247 1758.23L19.5685 1753.05C18.7124 1747.04 18.8347 233.321 19.6908 237.414C20.0577 238.915 20.7916 240.689 21.4031 241.508C22.0146 242.19 22.5038 243.827 22.5038 245.192C22.5038 246.556 23.6045 248.33 24.9499 249.285C27.2736 250.922 27.3959 252.56 27.3959 278.484C27.3959 305.91 27.3959 305.91 23.7268 315.87ZM24.583 2709.8C22.2592 2711.03 21.8923 2712.25 21.5254 2720.71C21.1585 2729.58 21.4031 2730.4 23.9714 2731.63C26.4175 2732.86 26.7844 2734.22 27.1513 2741.18C27.5182 2748.96 27.2736 2749.64 23.1153 2754.14L18.8347 2758.78L18.8347 2292.55C18.8347 1890.99 19.0793 1826.32 20.547 1826.32C21.5254 1826.32 23.1153 1825.91 24.2161 1825.5C25.9283 1824.82 26.1729 1826.86 26.1729 1843.65C26.1729 1862.2 26.0506 1862.75 23.1153 1865.89L20.0577 1869.02L20.0577 2268.54C20.0577 2554.8 20.4247 2668.32 21.4031 2669C23.9714 2670.64 25.5614 2666.68 26.2952 2656.86C26.6621 2651.13 27.029 2659.59 27.1513 2677.73C27.3959 2708.43 27.3959 2708.43 24.583 2709.8ZM24.2161 2724.13C22.993 2724.13 22.5038 2722.35 22.5038 2718.67C22.5038 2714.98 22.993 2713.21 24.0938 2713.21C26.6621 2713.21 26.9067 2714.03 26.4175 2719.35C26.0506 2722.22 25.1945 2724.13 24.2161 2724.13ZM23.4822 218.585C22.5038 218.176 22.8707 217.766 24.2161 217.766C25.5614 217.63 26.2952 218.039 25.806 218.449C25.4391 218.858 24.3384 218.994 23.4822 218.585ZM25.3168 246.693C25.0722 245.738 25.0722 244.1 25.3168 243.282C25.6837 242.326 25.9283 243.009 25.9283 244.919C25.9283 246.829 25.6837 247.511 25.3168 246.693ZM24.3384 1764.1C21.1585 1765.33 20.6693 1760.96 23.6045 1757.69L26.1729 1754.82V1759.05C26.1729 1761.64 25.4391 1763.55 24.3384 1764.1ZM24.7053 1822.22C23.4822 1822.22 23.4822 1770.78 24.7053 1769.97C25.1945 1769.56 25.5614 1781.15 25.5614 1795.75C25.5614 1810.35 25.1945 1822.22 24.7053 1822.22ZM24.9499 1868.61C24.3384 1868.61 23.7268 1868.34 23.7268 1868.07C23.7268 1867.66 24.3384 1866.98 24.9499 1866.57C25.6837 1866.16 26.1729 1866.43 26.1729 1867.11C26.1729 1867.93 25.6837 1868.61 24.9499 1868.61ZM23.7268 2646.35C21.2808 2646.35 21.2808 2645.4 21.2808 2258.17C21.2808 1870.93 21.2808 1869.98 23.7268 1869.98C26.1729 1869.98 26.1729 1870.93 26.1729 2258.17C26.1729 2645.4 26.1729 2646.35 23.7268 2646.35ZM24.3384 2728.22C23.3599 2728.22 22.5038 2727.67 22.5038 2726.85C22.5038 2726.17 23.3599 2725.49 24.3384 2725.49C25.3168 2725.49 26.1729 2726.17 26.1729 2726.85C26.1729 2727.67 25.3168 2728.22 24.3384 2728.22ZM22.2592 34.3842C21.2808 33.9748 21.6477 33.5655 22.993 33.5655C24.3384 33.429 25.0722 33.8384 24.583 34.2477C24.2161 34.657 23.1153 34.7935 22.2592 34.3842ZM23.7268 2657.27C23.1153 2657.27 22.5038 2655.08 22.5038 2652.49C22.5038 2649.9 23.1153 2647.72 23.7268 2647.72C24.4607 2647.72 24.9499 2649.9 24.9499 2652.49C24.9499 2655.08 24.4607 2657.27 23.7268 2657.27ZM22.993 2666.68C22.7484 2666.95 22.2592 2666.95 21.8923 2666.55C20.7916 2665.32 22.6261 2658.63 23.9714 2658.63C25.0722 2658.63 24.3384 2665.32 22.993 2666.68ZM22.8707 174.923C22.6261 152.682 22.6261 116.115 22.8707 93.7377C22.993 71.4972 23.1153 89.7808 23.1153 134.398C23.1153 179.016 22.993 197.3 22.8707 174.923ZM21.2808 1824.95C20.547 1824.95 20.0577 1814.99 20.0577 1797.66C20.0577 1772.97 19.8131 1769.83 17.6117 1765.33C14.6764 1759.19 14.4318 1754 17.0002 1754C18.2232 1754 18.8347 1755.37 18.8347 1758.5C18.8347 1760.82 19.6908 1764.1 20.6693 1765.46C22.1369 1767.65 22.5038 1773.65 22.5038 1796.57C22.5038 1814.58 22.0146 1824.95 21.2808 1824.95ZM19.6908 198.528C19.5685 209.443 19.2016 178.879 19.0793 130.714C18.957 82.4128 19.2016 42.9802 19.8131 42.9802C20.547 42.9802 20.547 148.862 19.6908 198.528ZM19.2016 231.001C18.957 228.818 18.957 225.544 19.2016 223.497C19.4462 221.314 19.6908 223.088 19.6908 227.181C19.6908 231.274 19.4462 233.048 19.2016 231.001ZM15.7771 1752.64C14.1872 1752.64 13.9426 1655.08 13.9426 893.033C13.9426 130.578 14.1872 33.429 15.7771 33.429C17.3671 33.429 17.6117 130.578 17.6117 893.033C17.6117 1655.08 17.3671 1752.64 15.7771 1752.64ZM15.7771 2760.97C14.1872 2760.97 13.9426 2703.93 13.9426 2267.72C13.9426 1829.73 14.1872 1774.47 15.7771 1774.47C17.3671 1774.47 17.6117 1829.73 17.6117 2267.72C17.6117 2703.93 17.3671 2760.97 15.7771 2760.97ZM7.94971 1616.19C2.32376 1616.19 1.46764 1614.28 3.42449 1605.28C4.64753 1599.68 5.13674 1599.14 8.80584 1598.73L12.7195 1598.32V1607.19V1616.19H7.94971ZM5.13674 1618.51C3.5468 1618.24 4.76983 1617.97 7.82741 1617.97C10.885 1617.97 12.108 1618.24 10.6404 1618.51C9.05044 1618.78 6.60438 1618.78 5.13674 1618.51ZM6.35977 1621.24C4.76983 1620.97 5.74826 1620.69 8.43893 1620.69C11.1296 1620.56 12.3526 1620.83 11.2519 1621.24C10.0289 1621.51 7.82741 1621.51 6.35977 1621.24ZM7.82741 2619.06C2.69067 2619.06 2.44607 2618.79 2.93528 2611.56C3.30219 2605.15 5.01444 2602.69 9.05044 2602.69C12.7195 2602.69 12.7195 2602.69 12.7195 2610.88V2619.06H7.82741ZM7.82741 2623.16C5.13674 2623.16 2.93528 2622.61 2.93528 2621.79C2.93528 2621.11 5.13674 2620.43 7.82741 2620.43C10.5181 2620.43 12.7195 2621.11 12.7195 2621.79C12.7195 2622.61 10.5181 2623.16 7.82741 2623.16ZM6.35977 2625.48C4.76983 2625.2 5.74826 2624.93 8.43893 2624.93C11.1296 2624.79 12.3526 2625.07 11.2519 2625.48C10.0289 2625.75 7.82741 2625.75 6.35977 2625.48Z" fill="black"/>
<path d="M24.461 2733.27C22.3819 2732.32 20.0581 2737.77 20.0581 2743.78C20.0581 2749.1 23.1157 2751.55 24.3387 2747.32C24.8279 2745.82 24.7056 2743.91 24.2164 2743.09C23.7272 2742 23.8495 2741.87 24.7056 2742.41C25.6841 2743.09 26.1733 2741.87 26.1733 2738.73C26.1733 2736 25.4395 2733.68 24.461 2733.27Z" fill="black"/>
</svg>
