<svg width="40" height="200" viewBox="0 0 300 1700" preserveAspectRatio="none" fill="#000000" xmlns="http://www.w3.org/2000/svg">
<g filter="url(#filter0_d_2_22)">
<path d="M6.42195 7.05609C7.46517 5.98962 12.9131 5.58969 22.8816 5.85631L37.8345 6.25624L38.414 11.5886C38.9936 16.521 39.2254 16.9209 42.8187 17.0543C44.9051 17.1876 47.2234 18.1207 48.0348 19.3205C49.3099 21.3201 57.3079 21.5868 132.883 21.8534C208.343 22.2533 216.805 22.5199 221.209 24.5195L226.194 26.7858L224.571 23.853C222.832 20.7869 220.05 3.19013 221.093 1.45712C221.789 -0.00927786 240.219 1.59043 242.074 3.19013C242.885 3.85668 243.581 6.65616 243.812 9.32234C244.16 13.8548 244.508 14.2548 248.217 14.6547C254.361 15.3212 254.94 16.521 254.361 26.6525C253.781 35.3176 253.897 35.7175 257.374 39.4501L260.968 43.4494L260.968 753.719L260.968 1463.99H265.836C272.095 1463.99 273.138 1464.92 275.457 1471.05C277.659 1477.19 277.659 1487.98 275.573 1493.98C273.834 1498.52 273.602 1498.65 267.459 1498.65H260.968V1588.5V1678.35L257.49 1678.88C254.592 1679.42 253.085 1678.35 247.058 1671.28L240.103 1663.15V1652.35L240.103 1641.56L235.119 1640.62C231.642 1639.96 228.86 1638.22 225.266 1634.22L220.282 1628.62L220.63 1617.56C220.746 1611.43 221.441 1605.96 222.137 1605.43C224.571 1603.16 229.555 1602.63 231.062 1604.5C231.989 1605.43 234.423 1606.76 236.394 1607.3L240.103 1608.23V1565.04V1521.71L237.205 1518.64L234.308 1515.58L234.308 1115.12C234.308 757.585 234.076 714.793 232.569 714.793C231.526 714.793 228.396 712.26 225.614 709.327L220.398 703.728V691.864C220.398 680.266 220.398 679.999 223.528 678.666C228.048 676.666 232.105 676.8 233.264 678.933C233.844 679.999 234.308 626.409 234.308 553.756L234.308 426.579L229.671 413.915L225.034 401.117V362.591C225.034 335.929 224.571 323.131 223.643 321.132C221.209 315.933 220.398 309.001 220.282 294.337C220.166 281.672 220.514 279.406 222.6 276.073C225.034 272.341 225.034 271.008 225.034 214.085L225.034 155.962L229.671 156.495L234.308 157.029L234.192 106.904C234.076 52.9143 233.844 49.9815 228.048 45.0491C224.919 42.2496 223.643 42.2496 131.376 41.8497C80.0269 41.7164 37.139 41.8497 36.0958 42.3829C33.8934 43.4494 23.2294 43.4494 21.027 42.5162C20.0997 42.1163 18.0133 41.5831 16.3905 41.3165C14.1881 41.0498 13.4927 40.1167 13.4927 37.5838C13.4927 34.9176 12.7972 34.1178 10.2471 33.8512C6.07421 33.3179 5.26281 30.7851 5.03099 18.7873C4.79916 11.4553 5.26282 8.12256 6.42195 7.05609ZM22.3021 15.1879C37.139 14.788 37.3708 14.6547 37.023 11.8552C36.6753 9.05572 36.0958 8.92241 21.8384 8.52249L7.11742 8.12256V11.8552V15.5879L22.3021 15.1879ZM11.1744 24.2529C12.7972 25.9859 14.0722 27.0524 14.0722 26.6525C14.0722 26.3859 12.7972 24.6529 11.1744 22.9198C9.55159 21.1868 8.27656 20.1204 8.27656 20.5203C8.27656 20.7869 9.55159 22.5199 11.1744 24.2529ZM12.7972 20.9202C13.3767 21.3201 14.1881 21.0535 14.6518 20.2537C14.9995 19.5871 14.5359 18.9206 13.6086 18.9206C11.5221 18.9206 11.1744 19.7204 12.7972 20.9202ZM166.266 38.517C193.738 38.3837 171.251 38.2504 116.076 38.2504C60.9012 38.2504 38.414 38.3837 66.0014 38.517C93.4728 38.7836 138.679 38.7836 166.266 38.517ZM30.7637 30.6518C44.7893 31.0517 47.4552 30.5184 45.6006 27.8523C44.9052 26.9191 44.5574 24.7862 45.0211 23.1865C45.6006 20.2537 45.4847 20.2537 32.2706 20.2537C18.1292 20.2537 17.4337 20.5203 17.8974 26.9191C18.1292 30.2518 18.2451 30.2518 30.7637 30.6518ZM36.9071 34.5177C40.0368 34.2511 37.4867 34.1178 31.4592 34.1178C25.4317 34.1178 22.8816 34.2511 25.8954 34.5177C29.025 34.7843 33.8934 34.7843 36.9071 34.5177ZM173.685 34.5177C197.215 34.3844 177.974 34.2511 131.145 34.2511C84.3157 34.2511 65.0741 34.3844 88.4886 34.5177C112.019 34.7843 150.27 34.7843 173.685 34.5177ZM51.3963 25.1861C52.3236 24.7862 51.9759 24.3862 50.7008 24.3862C49.4258 24.2529 48.7303 24.6529 49.1939 25.0528C49.5417 25.4527 50.5849 25.586 51.3963 25.1861ZM101.355 25.1861C109.817 25.0528 102.514 24.7862 85.3589 24.7862C68.0878 24.7862 61.2489 25.0528 70.0583 25.1861C78.8678 25.4527 93.0092 25.4527 101.355 25.1861ZM103.557 31.8515C112.714 31.7182 105.296 31.4516 87.0976 31.4516C68.8992 31.4516 61.4808 31.7182 70.522 31.8515C79.6791 32.1181 94.5161 32.1181 103.557 31.8515ZM183.074 31.8515C194.317 31.7182 184.813 31.5849 161.862 31.5849C138.911 31.5849 129.638 31.7182 141.345 31.8515C153.052 32.1181 171.83 32.1181 183.074 31.8515ZM126.624 28.2522C128.595 28.2522 129.87 27.719 129.406 26.9191C129.058 26.2526 127.435 25.586 125.813 25.586C124.306 25.586 123.031 26.2526 123.031 26.9191C123.031 27.719 124.654 28.2522 126.624 28.2522ZM135.897 28.2522C137.752 28.2522 139.259 27.719 139.259 26.9191C139.259 26.2526 137.404 25.586 135.086 25.586C132.652 25.586 131.261 26.1193 131.724 26.9191C132.072 27.719 133.927 28.2522 135.897 28.2522ZM146.445 27.9856C150.154 28.2522 150.966 27.9856 149.691 26.9191C147.141 25.0528 141.577 25.4527 141.577 27.5856C141.577 27.5856 143.779 27.8523 146.445 27.9856ZM181.335 25.1861C186.551 25.0528 181.915 24.7862 171.135 24.7862C160.239 24.7862 156.066 25.0528 161.63 25.1861C167.194 25.4527 176.119 25.4527 181.335 25.1861ZM203.011 27.5856C205.097 28.3855 205.561 28.2522 204.75 27.0524C204.054 26.2526 200.924 25.3194 197.795 24.9195C192.695 24.3862 192.463 24.5195 196.056 25.4527C198.258 26.1193 201.388 27.1857 203.011 27.5856ZM211.936 31.8515C213.791 31.5849 212.516 31.3183 209.386 31.3183C206.141 31.3183 204.75 31.5849 206.141 31.8515C207.647 32.1181 210.198 32.1181 211.936 31.8515ZM209.502 29.5853C212.516 29.5853 212.979 28.2522 210.893 25.8526C208.575 23.1865 205.445 23.853 206.141 26.9191C206.488 28.6521 207.763 29.5853 209.502 29.5853ZM218.08 29.5853C219.818 29.5853 223.528 30.5184 226.309 31.5849C230.83 33.3179 231.178 33.3179 229.207 31.5849C226.425 29.1854 215.298 24.2529 212.632 24.2529C211.009 24.2529 211.009 24.5195 212.864 26.9191C214.023 28.3855 216.341 29.5853 218.08 29.5853ZM220.63 31.8515C221.441 31.4516 220.862 31.185 219.239 31.185C217.616 31.185 217.036 31.4516 217.732 31.8515C218.543 32.1181 219.934 32.1181 220.63 31.8515ZM226.425 40.25C228.86 41.0498 230.714 42.1163 230.482 42.6495C230.366 43.3161 232.221 45.7156 234.655 48.2485C239.64 53.1809 243.001 59.9797 244.16 67.3117C244.624 70.1112 245.319 72.1108 245.551 71.7109C246.594 70.5111 243.581 58.5133 241.146 54.7806C238.712 50.7814 238.249 48.9151 240.219 50.3815C240.915 50.7814 242.653 53.9808 244.044 57.4468C246.478 63.579 246.478 64.7788 247.058 175.558L247.638 287.538L247.985 176.758C248.217 56.5137 248.449 60.2463 241.958 50.5148C240.335 48.2485 237.553 45.0491 235.583 43.5827C233.728 42.2496 232.337 40.6499 232.569 40.25C232.801 39.8501 232.105 39.4501 231.062 39.3168C230.019 39.3168 226.194 38.9169 222.716 38.517C219.239 38.117 217.616 37.9837 219.239 38.3837C220.862 38.6503 224.107 39.5834 226.425 40.25ZM221.557 36.2507C223.412 36.2507 225.034 35.9841 225.034 35.7175C225.034 35.4509 223.412 34.9176 221.557 34.651C219.587 34.2511 218.08 34.5177 218.08 35.1843C218.08 35.7175 219.587 36.2507 221.557 36.2507ZM222.368 298.602C222.6 297.269 222.6 295.136 222.368 293.937C222.021 292.604 221.789 293.67 221.789 296.203C221.789 298.736 222.021 299.802 222.368 298.602ZM225.15 294.203C226.309 295.536 226.541 287.005 225.498 283.539C224.919 281.806 224.455 281.672 223.759 283.139C222.6 285.005 223.528 292.204 225.15 294.203ZM223.875 314.066C224.455 315.933 225.498 317.532 226.194 317.532C227.005 317.532 227.121 316.732 226.194 314.999C225.614 313.533 225.034 309.934 225.034 307.001C225.034 303.935 224.455 301.535 223.875 301.535C222.368 301.535 222.368 309.667 223.875 314.066ZM225.73 688.264C229.207 691.997 229.439 690.131 225.962 685.598L223.296 682.132L226.773 685.598C229.787 688.664 230.946 689.064 235.351 688.264C238.133 687.864 240.683 686.798 240.915 685.998C241.378 684.398 236.046 682.532 230.019 682.132C227.932 681.999 225.846 681.465 225.382 681.065C224.107 679.466 223.18 679.999 223.064 682.665C222.948 683.998 224.107 686.531 225.73 688.264ZM228.396 708.66C228.744 708.26 228.28 707.461 227.469 706.927C226.657 706.261 226.194 705.194 226.541 704.528C226.889 703.861 226.078 703.195 224.803 703.195C222.484 702.928 222.484 703.061 225.034 706.128C226.541 707.994 228.048 709.06 228.396 708.66ZM225.614 1613.69C229.323 1616.76 229.323 1615.96 225.614 1611.96C223.991 1610.23 222.716 1609.43 222.716 1610.09C222.716 1610.76 224.107 1612.36 225.614 1613.69ZM225.614 1631.96C227.237 1633.69 228.512 1634.76 228.512 1634.36C228.512 1634.09 227.237 1632.36 225.614 1630.62C223.991 1628.89 222.716 1627.82 222.716 1628.22C222.716 1628.49 223.991 1630.22 225.614 1631.96ZM225.73 700.129C227.816 700.129 227.932 692.93 225.73 690.93C224.455 689.731 224.107 690.397 224.107 694.796C223.991 698.529 224.455 700.129 225.73 700.129ZM225.962 1625.03C227.121 1625.43 227.469 1624.36 227.121 1621.16C226.889 1618.76 226.078 1616.63 225.266 1616.23C224.107 1615.83 223.759 1616.89 224.107 1620.09C224.339 1622.49 225.15 1624.63 225.962 1625.03ZM227.353 22.9198C230.946 30.9184 231.989 30.6518 231.989 21.7201C231.989 13.8548 232.105 13.5882 235.003 13.5882C237.205 13.5882 237.901 12.9217 237.553 11.322C237.321 9.45565 235.814 8.7891 231.062 8.52249L225.034 8.12256V12.9217C225.034 15.5879 226.078 19.987 227.353 22.9198ZM238.364 1612.76L246.478 1611.03L240.915 1610.23C237.901 1609.69 233.032 1608.89 229.903 1608.49L224.455 1607.7L227.353 1611.03C230.251 1614.36 230.366 1614.36 238.364 1612.76ZM228.396 168.226C229.787 168.226 231.062 169.693 231.757 171.959L232.917 175.558L233.032 171.026C233.148 167.693 232.221 165.16 229.903 162.361L226.773 158.228L230.366 161.961C232.917 164.627 235.003 165.56 237.553 165.294L241.262 165.027V116.236C241.262 87.1747 240.799 66.7784 240.103 65.5787C239.408 64.2456 238.944 80.9092 238.944 113.97C238.944 141.565 238.596 164.227 238.017 164.227C237.553 164.227 236.162 162.761 235.003 160.894C232.917 157.828 228.744 156.495 227.005 158.495C226.541 158.895 226.194 161.294 226.194 163.827C226.194 167.293 226.657 168.226 228.396 168.226ZM227.237 221.017C228.164 215.818 230.598 215.151 231.526 219.817C231.873 221.817 232.337 224.216 232.569 224.883C232.801 225.683 233.032 216.618 233.032 204.753C233.148 183.69 233.148 183.29 230.714 183.424C229.323 183.557 227.932 182.757 227.585 181.691C227.237 180.624 227.585 180.224 228.396 180.757C229.903 181.824 230.135 175.159 228.744 171.293C228.164 169.56 227.7 170.493 227.237 174.892C226.309 182.89 226.309 225.949 227.237 221.017ZM227.005 263.276C227.237 256.477 227.237 245.146 227.005 237.947C226.889 230.748 226.657 236.347 226.657 250.211C226.657 264.209 226.889 270.074 227.005 263.276ZM227.353 304.201C228.164 305.668 228.512 304.868 228.512 301.135C228.512 298.069 228.048 296.336 227.353 296.869C225.846 297.936 225.846 301.535 227.353 304.201ZM229.671 402.183L233.148 406.049L233.032 393.385C233.032 383.92 232.685 381.654 231.873 384.053C230.946 386.586 230.482 386.986 229.323 385.653C228.396 384.587 227.7 374.988 227.353 353.792L226.657 323.531L226.425 360.991L226.194 398.317L229.671 402.183ZM230.135 286.205C230.482 287.671 230.482 286.338 230.135 283.139C229.903 279.939 230.019 277.673 230.482 277.94C231.062 278.34 231.294 266.742 231.062 252.078C230.83 235.147 230.251 225.549 229.555 225.549C228.744 225.549 228.512 234.481 228.744 251.411C228.976 265.675 228.744 277.006 228.28 276.74C227.816 276.34 227.932 277.806 228.512 279.806C229.091 281.806 229.787 284.738 230.135 286.205ZM229.671 224.216C230.251 224.216 230.83 223.016 230.83 221.683C230.83 220.217 230.251 218.617 229.671 218.217C228.976 217.684 228.512 218.884 228.512 220.75C228.512 222.616 228.976 224.216 229.671 224.216ZM229.671 372.189C230.366 372.189 230.83 363.524 230.83 348.86C230.83 336.062 230.83 325.131 230.946 324.598C230.946 324.064 230.482 323.398 229.787 323.131C228.86 322.731 228.512 330.33 228.512 347.393C228.512 362.991 228.976 372.189 229.671 372.189ZM229.671 382.854C230.482 384.32 230.83 383.387 230.83 379.254C230.83 376.055 230.251 373.522 229.671 373.522C228.164 373.522 228.164 380.187 229.671 382.854ZM232.453 417.647C234.192 422.58 236.974 427.912 238.48 429.645L241.494 432.844L238.944 425.512C235.003 413.915 233.148 409.915 230.598 407.249C227.816 404.583 227.7 404.05 232.453 417.647ZM229.323 1623.03C229.555 1622.09 229.555 1620.49 229.323 1619.69C228.976 1618.76 228.744 1619.43 228.744 1621.29C228.744 1623.16 228.976 1623.83 229.323 1623.03ZM230.83 316.866C231.526 317.399 231.989 313.133 231.989 305.001C231.989 297.403 231.526 292.204 230.83 292.204C230.135 292.204 229.671 297.003 229.671 304.068C229.671 310.734 230.135 316.466 230.83 316.866ZM230.482 699.195C230.714 698.262 230.714 696.396 230.482 695.196C230.135 693.863 229.903 694.663 229.903 696.796C229.903 699.062 230.135 699.995 230.482 699.195ZM230.482 709.194C230.714 707.861 230.714 705.728 230.482 704.528C230.135 703.195 229.903 704.261 229.903 706.794C229.903 709.327 230.135 710.393 230.482 709.194ZM231.642 180.624C231.873 179.691 231.873 178.091 231.642 177.291C231.294 176.358 231.062 177.025 231.062 178.891C231.062 180.757 231.294 181.424 231.642 180.624ZM235.583 701.995C241.842 703.461 242.421 703.061 242.421 698.262C242.421 693.596 240.683 692.13 234.539 692.13C232.453 692.13 231.989 692.797 231.989 696.663C231.989 700.662 232.453 701.195 235.583 701.995ZM233.38 712.793C234.192 713.06 236.394 713.593 238.364 713.726C241.378 714.126 241.842 713.726 242.19 710.26C242.653 705.594 241.842 704.661 236.278 703.595L231.989 702.662V707.461C231.989 710.127 232.685 712.526 233.38 712.793ZM233.032 1631.96C233.612 1631.96 235.698 1632.36 237.669 1632.76L241.262 1633.69V1626.89C241.262 1619.83 240.335 1618.63 234.771 1618.63C232.221 1618.63 231.989 1619.16 231.989 1625.29C231.989 1629.02 232.453 1631.96 233.032 1631.96ZM236.974 1638.36C240.219 1638.62 241.262 1638.36 241.262 1636.76C241.262 1635.56 240.335 1634.62 239.176 1634.62C238.133 1634.62 235.93 1634.22 234.423 1633.69C232.221 1633.02 231.873 1633.42 232.221 1635.42C232.453 1637.29 233.728 1638.09 236.974 1638.36ZM240.103 317.532H247.058V306.334V295.136L242.074 294.203C239.408 293.803 236.278 293.003 235.119 292.737C233.38 292.07 233.148 293.27 233.148 304.735V317.532H240.103ZM235.467 31.4516C238.017 39.4501 250.535 51.048 250.535 45.5823C250.535 44.9158 249.492 44.2493 248.333 44.2493C247.058 44.2493 245.667 43.716 245.319 42.9162C244.856 42.1163 245.899 41.5831 247.638 41.5831C249.376 41.5831 250.419 41.0498 249.956 40.25C249.608 39.5834 248.217 38.9169 246.942 38.9169C243.581 38.9169 244.276 36.5173 247.869 35.8508L251.115 35.3176L247.406 34.2511C243.001 33.0513 243.465 30.9184 247.985 30.7851C250.651 30.7851 250.535 30.5184 246.478 28.9187L241.842 27.1857L246.131 27.0524C249.724 26.9191 250.535 26.3859 250.535 24.2529C250.535 22.12 249.724 21.5868 245.899 21.3201C243.349 21.1868 239.64 21.0535 237.785 20.9202C234.655 20.6536 234.308 21.0535 234.308 24.3862C234.308 26.3859 234.771 29.5853 235.467 31.4516ZM237.785 290.871C240.103 290.871 240.103 289.937 240.103 228.882C240.103 167.827 240.103 166.893 237.785 166.893C235.467 166.893 235.467 167.827 235.467 228.882C235.467 289.937 235.467 290.871 237.785 290.871ZM240.103 424.846L244.74 437.91L244.74 981.01C244.74 1523.04 244.74 1523.98 247.058 1523.98C249.608 1523.98 249.492 1538.11 249.376 574.018L249.376 433.911L244.74 420.847L240.103 407.782L240.103 363.257C240.103 319.799 240.103 318.865 237.785 318.865C235.467 318.865 235.467 319.799 235.467 365.257L235.467 411.782L240.103 424.846ZM236.51 600.28C237.437 594.148 239.755 593.615 241.146 599.081C241.842 602.013 242.19 575.485 242.306 520.028L242.421 436.71L238.944 432.844L235.467 428.978L235.583 516.962C235.698 565.22 236.046 602.813 236.51 600.28ZM236.278 661.869C236.51 651.338 236.51 634.274 236.278 623.876C236.162 613.345 235.93 621.876 235.93 642.806C235.93 663.735 236.162 672.267 236.278 661.869ZM236.278 754.519C236.51 747.453 236.51 735.456 236.278 727.857C236.162 720.258 235.93 726.124 235.93 740.788C235.93 755.452 236.162 761.584 236.278 754.519ZM237.089 1469.85C238.017 1469.45 239.524 1470.52 240.567 1472.25C242.306 1475.05 242.421 1471.05 242.306 1420C242.19 1389.6 241.958 1365.74 241.61 1367.07C240.799 1370.41 239.06 1369.87 237.785 1365.87C235.93 1360.54 236.858 1225.1 238.596 1224.43C239.408 1224.03 240.451 1225.77 241.146 1228.3C241.842 1231.36 242.19 1219.23 242.19 1189.37C242.306 1158.84 241.958 1146.98 241.146 1149.38L239.987 1152.71L238.249 1149.11C235.698 1143.65 236.394 964.747 238.944 964.747C239.871 964.747 241.03 966.48 241.378 968.746C241.842 971.012 242.19 954.215 242.306 931.686C242.421 906.091 241.958 890.894 241.378 891.427C239.871 892.36 237.785 887.827 237.785 883.562C237.785 879.696 239.987 877.696 241.378 880.229C242.537 882.362 242.769 790.112 241.726 777.581C241.146 772.115 240.451 769.449 239.408 769.449C238.364 769.449 237.785 770.916 237.785 773.315C237.785 778.248 238.944 781.58 240.219 780.647C240.799 780.247 241.262 780.514 241.262 781.314C241.262 783.313 239.176 784.38 238.364 782.78C237.901 781.98 237.205 778.514 236.626 775.048C236.162 771.582 235.698 926.62 235.583 1119.65C235.467 1419.46 235.698 1470.52 237.089 1469.85ZM238.944 1517.98L242.421 1521.84V1506.78C242.421 1496.52 242.074 1492.12 241.146 1492.65C240.567 1493.18 238.944 1492.52 237.669 1491.18C235.467 1488.92 235.467 1489.18 235.467 1501.58C235.467 1513.85 235.583 1514.25 238.944 1517.98ZM237.785 1487.98C238.596 1489.45 238.944 1487.98 238.944 1483.05C238.944 1479.32 238.364 1475.72 237.785 1475.32C236.278 1474.25 236.278 1485.32 237.785 1487.98ZM238.944 604.146C239.524 604.146 240.103 602.68 240.103 600.814C240.103 598.947 239.524 597.481 238.944 597.481C238.249 597.481 237.785 598.947 237.785 600.814C237.785 602.68 238.249 604.146 238.944 604.146ZM239.524 681.465C241.03 681.465 241.262 676.4 241.262 643.472C241.262 610.545 241.03 605.479 239.524 605.479C238.017 605.479 237.785 610.545 237.785 643.472C237.785 676.4 238.017 681.465 239.524 681.465ZM239.176 767.85C240.335 767.316 240.799 760.651 241.03 741.854C241.262 720.125 241.03 716.259 239.524 715.592C238.017 714.926 237.785 718.259 237.785 741.588C237.785 762.384 238.133 768.249 239.176 767.85ZM238.944 972.079C239.524 972.079 240.103 970.879 240.103 969.546C240.103 968.079 239.524 966.48 238.944 966.08C238.249 965.547 237.785 966.746 237.785 968.613C237.785 970.479 238.249 972.079 238.944 972.079ZM239.524 1136.05C241.03 1136.05 241.262 1126.45 241.03 1055.13C240.799 991.942 240.335 974.212 239.176 973.678C238.133 973.278 237.785 990.075 237.785 1054.6C237.785 1126.32 238.017 1136.05 239.524 1136.05ZM238.944 1147.38C239.64 1149.25 239.987 1149.51 240.103 1148.05C241.146 1139.25 241.03 1138.71 239.408 1138.71C237.553 1138.71 237.321 1143.11 238.944 1147.38ZM238.944 1232.03C239.524 1232.03 240.103 1230.83 240.103 1229.36C240.103 1227.9 239.524 1226.7 238.944 1226.7C238.249 1226.7 237.785 1227.9 237.785 1229.36C237.785 1230.83 238.249 1232.03 238.944 1232.03ZM239.524 1354.68C241.146 1354.68 241.262 1347.74 241.03 1294.42C240.799 1247.76 240.335 1234.16 239.176 1233.63C238.133 1233.23 237.785 1245.9 237.785 1293.89C237.785 1347.48 238.017 1354.68 239.524 1354.68ZM238.828 1365.07C239.64 1366.54 239.987 1366.41 240.567 1364.67C241.842 1360.67 241.378 1356.01 239.524 1356.01C237.553 1356.01 237.089 1362.14 238.828 1365.07ZM240.103 13.5882C240.683 13.5882 241.262 12.6551 241.262 11.5886C241.262 10.5221 240.683 9.58896 240.103 9.58896C239.408 9.58896 238.944 10.5221 238.944 11.5886C238.944 12.6551 239.408 13.5882 240.103 13.5882ZM240.103 888.094C241.03 889.694 241.262 889.294 241.262 886.494C241.262 884.495 240.683 882.495 240.103 882.095C238.596 881.029 238.596 885.428 240.103 888.094ZM246.826 423.513L251.579 436.844L251.695 994.208C251.695 1300.82 251.347 1553.57 250.999 1555.84C249.84 1562.1 246.826 1560.64 245.087 1553.31C244.392 1549.97 243.696 1542.37 243.696 1536.37C243.581 1530.38 243.117 1525.04 242.421 1524.64C241.61 1524.11 241.262 1538.24 241.262 1565.84V1607.96H243.928C249.26 1607.96 250.651 1611.69 250.304 1624.76C249.956 1635.42 249.724 1636.62 247.638 1637.02C242.885 1638.09 241.262 1641.82 241.262 1652.22V1662.09L247.638 1669.28L254.013 1676.48L253.897 864.099C253.781 417.247 253.433 52.781 253.201 54.2474C252.854 55.7138 251.926 57.3135 251.115 57.9801C249.956 58.6466 249.84 60.113 250.535 62.9125C251.695 67.7116 252.274 317.266 251.115 320.598C250.651 321.798 249.84 322.865 249.26 322.865C248.681 322.865 248.217 324.064 248.217 325.664C248.217 329.93 246.015 333.529 243.465 333.529C241.146 333.529 241.146 334.063 241.494 371.922L241.958 410.182L246.826 423.513ZM243.233 143.964C243.465 130.9 243.465 109.571 243.233 96.6396C243.117 83.5754 243.001 94.2401 243.001 120.235C243.001 146.231 243.117 156.895 243.233 143.964ZM243.233 181.291C243.465 179.291 243.465 175.692 243.233 173.292C243.001 170.893 242.769 172.492 242.769 176.892C242.769 181.291 243.001 183.29 243.233 181.291ZM243.117 189.156C243.465 188.756 243.581 187.556 243.233 186.623C242.885 185.557 242.537 185.957 242.537 187.423C242.421 188.889 242.769 189.689 243.117 189.156ZM243.233 253.944C243.465 242.879 243.465 224.216 243.233 212.618C243.117 201.02 242.885 210.219 242.885 232.881C242.885 255.677 243.117 265.142 243.233 253.944ZM243.117 281.139C243.465 280.739 243.581 279.539 243.233 278.606C242.885 277.54 242.537 277.94 242.537 279.406C242.421 280.872 242.769 281.672 243.117 281.139ZM244.16 331.396C245.203 330.863 245.899 328.864 245.899 326.731C245.899 322.198 243.928 321.532 243.233 325.931C242.306 331.53 242.421 332.063 244.16 331.396ZM243.696 1623.69C243.581 1627.42 243.812 1627.96 246.478 1627.96C248.913 1627.96 249.376 1627.29 249.376 1624.36C249.376 1617.29 248.101 1614.63 245.087 1614.63C242.769 1614.63 242.306 1615.16 243.001 1617.03C243.465 1618.23 243.812 1621.29 243.696 1623.69ZM247.869 291.804C249.029 291.404 248.333 291.137 246.478 291.137C244.508 291.137 243.696 291.404 244.392 291.804C245.203 292.07 246.826 292.07 247.869 291.804ZM244.74 321.532C245.319 321.532 245.899 320.865 245.899 320.065C245.899 319.399 245.319 319.132 244.74 319.532C244.044 319.932 243.581 320.598 243.581 320.998C243.581 321.265 244.044 321.532 244.74 321.532ZM247.058 1634.62C248.565 1634.62 249.029 1633.96 248.565 1631.96C247.985 1629.42 245.899 1628.49 244.392 1630.09C243.117 1631.56 244.972 1634.62 247.058 1634.62ZM245.551 233.948C245.783 204.353 245.783 156.095 245.551 126.634C245.435 97.0395 245.319 121.168 245.319 180.224C245.319 239.28 245.435 263.409 245.551 233.948ZM247.058 1538.64C249.029 1538.64 249.376 1537.71 249.376 1531.98C249.376 1527.31 248.913 1525.31 247.869 1525.31C245.319 1525.31 244.74 1526.78 244.74 1532.91C244.74 1537.71 245.087 1538.64 247.058 1538.64ZM247.406 1556.64C248.565 1559.17 248.681 1559.04 249.492 1555.3C250.999 1549.31 249.492 1541.31 247.058 1541.31C245.319 1541.31 245.087 1542.24 245.667 1547.71C245.899 1551.17 246.71 1555.17 247.406 1556.64ZM250.072 54.514C250.419 54.1141 250.535 52.9143 250.188 51.9812C249.84 50.9147 249.492 51.3146 249.492 52.781C249.376 54.2474 249.724 55.0473 250.072 54.514ZM250.188 307.268C250.419 304.868 250.419 300.869 250.188 298.602C249.956 296.203 249.724 298.069 249.724 302.868C249.724 307.667 249.956 309.534 250.188 307.268ZM255.867 42.9162C257.49 42.9162 257.49 42.5162 256.331 40.9165C255.52 39.8501 254.708 38.9169 254.476 38.9169C254.245 38.9169 254.013 39.8501 254.013 40.9165C254.013 41.983 254.824 42.9162 255.867 42.9162ZM257.49 1677.28C259.808 1677.28 259.808 1675.82 259.808 860.766C259.808 45.849 259.808 44.2493 257.49 44.2493C255.172 44.2493 255.172 45.849 255.172 860.766C255.172 1675.82 255.172 1677.28 257.49 1677.28ZM267.922 1487.98H274.877V1481.45C274.877 1477.99 274.298 1473.19 273.602 1470.79C272.443 1466.92 271.979 1466.65 266.647 1466.65H260.968V1477.32V1487.98H267.922ZM267.343 1493.32C272.211 1493.32 273.718 1492.92 273.718 1491.32C273.718 1489.72 272.211 1489.32 267.343 1489.32C262.474 1489.32 260.968 1489.72 260.968 1491.32C260.968 1492.92 262.474 1493.32 267.343 1493.32ZM266.068 1497.32C268.966 1497.32 271.632 1496.78 271.979 1495.98C272.443 1495.18 270.472 1494.65 266.879 1494.65C263.634 1494.65 260.968 1495.32 260.968 1495.98C260.968 1496.78 263.286 1497.32 266.068 1497.32Z" fill="black"/>
<path d="M231.757 42.9161C233.264 42.9161 239.176 48.3818 238.48 49.1817C238.133 49.5816 236.278 48.3818 234.308 46.3822C232.337 44.5158 231.178 42.9161 231.757 42.9161Z" fill="black"/>
<path d="M228.976 197.554C230.946 197.554 231.989 200.487 231.989 206.22C231.989 211.552 230.251 213.285 228.628 209.686C226.773 205.82 227.005 197.554 228.976 197.554ZM229.671 208.219C230.482 209.686 230.83 209.019 230.83 205.286C230.83 202.62 230.251 199.954 229.671 199.554C228.164 198.488 228.164 205.553 229.671 208.219Z" fill="black"/>
<path d="M245.319 1641.69C247.985 1637.56 250.188 1642.49 251.115 1654.75C251.347 1658.22 250.883 1659.82 249.376 1661.02C246.826 1662.89 246.131 1661.15 244.856 1650.89C244.276 1646.09 244.392 1643.16 245.319 1641.69Z" fill="black"/>
</g>
<defs>
<filter id="filter0_d_2_22" x="0.973022" y="0.87915" width="280.15" height="1686.12" filterUnits="userSpaceOnUse" color-interpolation-filters="sRGB">
<feFlood flood-opacity="0" result="BackgroundImageFix"/>
<feColorMatrix in="SourceAlpha" type="matrix" values="0 0 0 0 0 0 0 0 0 0 0 0 0 0 0 0 0 0 127 0" result="hardAlpha"/>
<feOffset dy="4"/>
<feGaussianBlur stdDeviation="2"/>
<feComposite in2="hardAlpha" operator="out"/>
<feColorMatrix type="matrix" values="0 0 0 0 0 0 0 0 0 0 0 0 0 0 0 0 0 0 0.25 0"/>
<feBlend mode="normal" in2="BackgroundImageFix" result="effect1_dropShadow_2_22"/>
<feBlend mode="normal" in="SourceGraphic" in2="effect1_dropShadow_2_22" result="shape"/>
</filter>
</defs>
</svg>
