<svg height="40" viewBox="0 0 3604 220" preserveAspectRatio="none" fill="#000000" xmlns="http://www.w3.org/2000/svg">
<g clip-path="url(#clip0_10_8)">
<mask id="mask0_10_8" style="mask-type:luminance" maskUnits="userSpaceOnUse" x="0" y="0" width="3604" height="224">
<path d="M3604 0L0 0L0 224L3604 224V0Z" fill="white"/>
</mask>
<g mask="url(#mask0_10_8)">
<path d="M9.73333 11.5999C6.8 12.1332 6.66666 12.7999 6.66666 24.1332C6.66666 35.4666 6.8 35.9999 9.86666 36.7999C11.8666 37.1999 13.4666 38.7999 13.8666 40.7999C14.4 42.5333 15.3333 43.9999 16 43.9999C16.8 43.9999 17.3333 64.9333 17.3333 102C17.3333 150.8 17.6 160.8 19.3333 164.933C20.4 167.6 21.2 170 20.9333 170.133C20.6666 170.4 18.4 170.133 15.8666 169.467C13.3333 168.8 9.73333 167.867 7.73333 167.467L4 166.667L4 174.4C4 182.267 5.46666 185.333 9.46666 185.333C10.8 185.333 12 186.8 12.4 189.333C13.2 193.067 13.6 193.333 19.8666 193.333C24 193.333 26.9333 194 28 195.333C29.4666 197.067 104.4 197.333 687.467 197.333L1345.33 197.333V201.2C1345.33 206.533 1349.6 209.333 1357.73 209.333C1366.67 209.333 1369.33 207.6 1369.33 202V197.333L1422.4 197.2C1451.47 197.2 1478.67 196.667 1482.67 196C1486.8 195.467 1490.53 195.467 1491.2 196.133C1492 196.8 1728.67 197.333 2050.93 197.333L2609.33 197.333V200.667C2609.33 206.267 2613.73 209.333 2621.47 209.333C2630.67 209.333 2633.33 207.733 2633.33 202V197.333L3043.33 197.333L3453.33 197.333V201.733C3453.33 207.067 3457.07 209.333 3466 209.333C3474.67 209.333 3476 208.4 3476 202.533V197.333H3533.33C3587.6 197.333 3590.67 197.2 3590.67 194.933C3590.67 193.6 3588.13 190 3585.07 187.067C3580.13 182.267 3578.4 181.467 3572.8 181.067C3566.8 180.667 3566.13 180.267 3565.2 176.8C3563.2 169.733 3560.53 168 3550.67 168C3540.8 168 3540 168.667 3540 177.6V181.333H3514.8C3494.13 181.333 3489.33 180.933 3488 179.333C3486.53 177.6 3460.67 177.333 3270.53 177.333C3092.13 177.333 3054.67 177.067 3054.67 175.6C3054.67 174.533 3053.2 172.4 3051.47 170.8C3048.8 168.267 3047.07 167.867 3039.87 168.267L3031.33 168.667L3030.93 172.933L3030.53 177.333L2555.2 177.333L2079.87 177.333L2075.87 172.667C2072 168.267 2071.2 168 2063.33 168C2054.67 168 2053.33 168.8 2053.33 174.8C2053.33 177.333 2049.6 177.333 1855.33 177.333C1691.73 177.333 1657.33 177.067 1657.33 175.6C1657.33 174.533 1656 172.533 1654.27 170.933C1651.73 168.533 1649.6 168 1642.4 168H1633.6L1632.8 172.667L1631.87 177.333H1612.4C1594.53 177.333 1592.53 177.067 1590 174.667C1587.07 172 1585.6 171.867 1514.53 172C1445.33 172 1441.6 172.133 1434.93 174.667C1428 177.333 1424.13 177.333 1139.6 177.333L851.333 177.333L847.6 172.667C843.867 168 843.733 167.867 834.933 168.267L826 168.667L825.6 172.933L825.2 177.333L549.2 177.333H273.333L265.067 174C257.333 170.933 255.333 170.667 232.8 170.667C215.2 170.667 207.2 170.133 203.333 168.667C196 166 179.467 166 177.333 168.667C175.867 170.4 169.867 170.667 138.533 170.667H101.333V174V177.333H71.4666C36.6666 177.333 34 176.8 31.8666 169.067C30.9333 165.467 30.5333 140.4 30.6666 94.1333C30.9333 9.73329 31.0666 17.3332 28.6666 17.3332C27.6 17.3332 26.6666 16.5332 26.6666 15.4666C26.6666 14.3999 26 13.0666 25.3333 12.6666C23.6 11.5999 13.4666 10.9332 9.73333 11.5999ZM13.3333 24.6666C13.3333 32.6666 12.9333 34.6666 11.3333 34.6666C9.73333 34.6666 9.33333 32.6666 9.33333 24.6666C9.33333 16.6666 9.73333 14.6666 11.3333 14.6666C12.9333 14.6666 13.3333 16.6666 13.3333 24.6666ZM22.6666 31.9999C22.6666 40.3999 22.4 41.3333 20 41.3333C17.6 41.3333 17.3333 40.3999 17.3333 31.9999C17.3333 23.5999 17.6 22.6666 20 22.6666C22.4 22.6666 22.6666 23.5999 22.6666 31.9999ZM20.9333 158.933C20.5333 160 20.1333 159.6 20.1333 158.133C20 156.667 20.4 155.867 20.8 156.4C21.2 156.8 21.3333 158 20.9333 158.933ZM19.2 174C21.7333 175.867 21.6 176 17.0666 176C13.6 176 12 176.667 11.6 178.267C11.2 179.6 10.9333 178.667 10.8 176.267C10.6666 172.667 11.0666 172 13.7333 172C15.3333 172 17.8666 172.933 19.2 174ZM832 177.733C832 180.933 831.6 181.467 830.667 180C828.933 177.333 828.933 171.6 830.667 172.667C831.467 173.067 832 175.467 832 177.733ZM2060.27 178.8C2059.07 181.733 2058.93 181.6 2058.4 176.933C2058 172.8 2058.13 172.267 2059.6 173.733C2060.93 174.933 2061.07 176.533 2060.27 178.8ZM109.333 174.667C109.333 175.333 109.067 176 108.8 176C108.4 176 107.733 175.333 107.333 174.667C106.933 173.867 107.2 173.333 107.867 173.333C108.667 173.333 109.333 173.867 109.333 174.667ZM128 174.667C128 175.333 126.267 176 124 176C121.867 176 120 175.333 120 174.667C120 173.867 121.867 173.333 124 173.333C126.267 173.333 128 173.867 128 174.667ZM141.333 174.667C141.333 175.333 140.4 176 139.333 176C138.267 176 137.333 175.333 137.333 174.667C137.333 173.867 138.267 173.333 139.333 173.333C140.4 173.333 141.333 173.867 141.333 174.667ZM256.667 174.667C257.2 175.467 255.067 176 251.467 176C248.133 176 245.333 175.333 245.333 174.667C245.333 173.867 247.733 173.333 250.533 173.333C253.467 173.333 256.267 173.867 256.667 174.667ZM1640 178.4C1640 181.2 1639.73 181.6 1638.67 180C1636.93 177.333 1636.93 172.933 1638.67 174C1639.47 174.4 1640 176.4 1640 178.4ZM3037.33 178.4C3037.33 181.2 3037.07 181.6 3036 180C3034.27 177.333 3034.27 172.933 3036 174C3036.8 174.4 3037.33 176.4 3037.33 178.4ZM3548 178.133C3548 180 3547.47 181.067 3546.67 180.667C3546 180.267 3545.33 178.4 3545.33 176.533C3545.33 174.667 3545.87 173.6 3546.67 174C3547.47 174.4 3548 176.267 3548 178.133ZM199.733 175.6C197.733 175.867 194.133 175.867 191.733 175.6C189.333 175.333 190.933 175.067 195.333 175.067C199.733 175.067 201.733 175.333 199.733 175.6ZM267.867 178.133C269.733 179.733 265.333 178.267 263.2 176.533C260.8 174.667 260.8 174.667 264 176.133C265.867 176.933 267.6 177.867 267.867 178.133ZM1574.13 176.667C1576 178.4 1574.4 178.667 1559.6 178.667C1545.87 178.667 1543.07 178.4 1543.07 176.667C1543.07 175.067 1545.6 174.667 1557.6 174.667C1568.8 174.667 1572.67 175.2 1574.13 176.667ZM106.8 178.267C108.533 180.4 108.4 180.533 106.4 178.8C105.067 177.867 104 176.8 104 176.533C104 175.467 105.067 176.133 106.8 178.267ZM1488.67 177.333C1454.93 177.867 1441.2 178.4 1439.07 179.6C1437.47 180.533 1435.07 181.333 1433.73 181.2C1432.4 181.2 1434 180.133 1437.33 178.667C1442.8 176.533 1447.47 176.267 1489.33 176.4L1535.33 176.533L1488.67 177.333ZM1588.67 177.333C1589.07 178 1588.8 178.667 1588.13 178.667C1587.33 178.667 1586.67 178 1586.67 177.333C1586.67 176.533 1586.93 176 1587.2 176C1587.6 176 1588.27 176.533 1588.67 177.333ZM840.667 178.667C841.067 179.333 840.267 180 838.8 180C837.2 180 836 179.333 836 178.667C836 177.867 836.8 177.333 837.867 177.333C838.933 177.333 840.267 177.867 840.667 178.667ZM848 178.667C848 179.333 847.2 180 846.133 180C845.067 180 843.733 179.333 843.333 178.667C842.933 177.867 843.733 177.333 845.2 177.333C846.8 177.333 848 177.867 848 178.667ZM1650.67 178.667C1650.67 179.333 1649.2 180 1647.33 180C1645.47 180 1644 179.333 1644 178.667C1644 177.867 1645.47 177.333 1647.33 177.333C1649.2 177.333 1650.67 177.867 1650.67 178.667ZM1655.33 178.667C1655.73 179.333 1655.47 180 1654.8 180C1654 180 1653.33 179.333 1653.33 178.667C1653.33 177.867 1653.6 177.333 1653.87 177.333C1654.27 177.333 1654.93 177.867 1655.33 178.667ZM2072 178.667C2072 179.333 2070.27 180 2068 180C2065.87 180 2064 179.333 2064 178.667C2064 177.867 2065.87 177.333 2068 177.333C2070.27 177.333 2072 177.867 2072 178.667ZM3048 178.667C3048 179.333 3046.53 180 3044.67 180C3042.8 180 3041.33 179.333 3041.33 178.667C3041.33 177.867 3042.8 177.333 3044.67 177.333C3046.53 177.333 3048 177.867 3048 178.667ZM3053.33 178.667C3053.33 179.333 3052.8 180 3052 180C3051.33 180 3050.67 179.333 3050.67 178.667C3050.67 177.867 3051.33 177.333 3052 177.333C3052.8 177.333 3053.33 177.867 3053.33 178.667ZM3558.67 178.667C3558.67 179.333 3557.2 180 3555.47 180C3553.6 180 3551.73 179.333 3551.33 178.667C3550.8 177.867 3552.27 177.333 3554.53 177.333C3556.8 177.333 3558.67 177.867 3558.67 178.667ZM27.2 181.733C31.0666 184.8 31.0666 184.933 28.2666 185.6C26.5333 186.133 25.3333 185.733 25.3333 184.933C25.3333 184.133 24.9333 184 24.4 184.4C24 184.933 22.8 184.667 21.7333 183.867C20.4 182.667 20 183.067 19.8666 186.133L19.7333 190L18.6666 186.667C15.8666 178 19.7333 175.867 27.2 181.733ZM186.667 180C186.667 180.8 173.067 181.333 148.667 181.333C124.267 181.333 110.667 180.8 110.667 180C110.667 179.2 124.267 178.667 148.667 178.667C173.067 178.667 186.667 179.2 186.667 180ZM202.667 182.667C202.667 186.533 202.4 186.667 196.8 186.667C192.667 186.667 190.667 186 190.133 184.533C188.267 179.6 189.2 178.667 196 178.667C202.533 178.667 202.667 178.8 202.667 182.667ZM269.067 182L277.333 185.333H555.2C739.067 185.333 833.467 185.733 834 186.667C834.533 187.6 741.6 188 556 188H277.333L269.067 184.667C261.2 181.467 259.6 181.333 233.067 181.333C215.467 181.333 205.333 180.8 205.333 180C205.333 179.2 215.467 178.667 233.067 178.667C259.6 178.667 261.2 178.8 269.067 182ZM272.667 180C273.067 180.8 272.533 180.933 271.467 180.533C269.067 179.6 268.667 178.667 270.533 178.667C271.333 178.667 272.267 179.2 272.667 180ZM380.8 182C382.667 183.733 377.2 184 331.6 184C287.6 184 280.133 183.733 278.667 182C277.2 180.267 282.8 180 327.867 180C371.467 180 379.2 180.267 380.8 182ZM556.933 182C556.933 183.733 552.533 184 526 184C499.467 184 495.067 183.733 495.067 182C495.067 180.267 499.467 180 526 180C552.533 180 556.933 180.267 556.933 182ZM612.8 182C614.667 183.733 612.133 184 590.267 184C569.6 184 565.467 183.733 564.8 182C564.133 180.267 567.2 180 587.467 180C606.533 180 611.2 180.4 612.8 182ZM776.8 182C778.667 183.733 776 184 752.8 184C730.4 184 726.667 183.733 726.667 182C726.667 180.267 730.267 180 750.8 180C770.4 180 775.2 180.4 776.8 182ZM931.467 182C933.333 183.733 931.2 184 912.133 184C894 184 890.667 183.733 890.667 182C890.667 180.267 893.733 180 910.133 180C925.6 180 929.867 180.4 931.467 182ZM987.467 182C989.333 183.733 986.933 184 966.133 184C946.133 184 942.667 183.733 942.667 182C942.667 180.267 946 180 964.133 180C981.333 180 985.867 180.4 987.467 182ZM1197.87 182C1198.53 183.733 1192.67 184 1150 184C1107.6 184 1101.33 183.733 1101.33 182C1101.33 180.267 1107.6 180 1149.2 180C1190.53 180 1197.2 180.267 1197.87 182ZM1350.67 182C1352.13 183.733 1348.4 184 1318.8 184C1290 184 1285.33 183.733 1285.33 182C1285.33 180.267 1289.73 180 1317.2 180C1343.87 180 1349.33 180.267 1350.67 182ZM1420.8 182C1422.67 183.733 1419.6 184 1394.13 184C1369.47 184 1365.33 183.733 1365.33 182C1365.33 180.267 1369.2 180 1392.13 180C1414.13 180 1419.2 180.4 1420.8 182ZM1768 181.2C1768 181.867 1769.33 182.8 1771.07 183.067C1772.67 183.333 1758.93 183.733 1740.53 183.867C1711.6 184 1707.07 183.733 1707.07 182C1707.07 180.267 1711.33 180 1737.6 180C1755.47 180 1768 180.533 1768 181.2ZM1804 182C1805.47 183.733 1803.73 184 1790.13 184C1776.53 184 1774.8 183.733 1776.27 182C1778.8 179.2 1801.6 179.2 1804 182ZM2014.13 182C2016 183.733 2010.8 184 1967.47 184C1924.93 184 1918.67 183.733 1918.67 182C1918.67 178.933 2011.2 178.933 2014.13 182ZM2238.13 182C2240 183.733 2234 184 2184.13 184C2135.07 184 2128 183.733 2128 182C2128 180.267 2134.93 180 2182.13 180C2228.4 180 2236.53 180.267 2238.13 182ZM2462.13 182C2464 183.733 2458 184 2408.13 184C2359.07 184 2352 183.733 2352 182C2352 180.267 2358.93 180 2406.13 180C2452.4 180 2460.53 180.267 2462.13 182ZM2614.67 182C2616.13 183.733 2612.4 184 2582.8 184C2554 184 2549.33 183.733 2549.33 182C2549.33 180.267 2553.73 180 2581.2 180C2607.87 180 2613.33 180.267 2614.67 182ZM2623.6 180.8C2623.2 181.2 2622 181.333 2621.07 180.933C2620 180.533 2620.4 180.133 2621.87 180.133C2623.33 180 2624.13 180.4 2623.6 180.8ZM2684.8 182C2686.67 183.733 2683.6 184 2658.13 184C2633.47 184 2629.33 183.733 2629.33 182C2629.33 180.267 2633.2 180 2656.13 180C2678.13 180 2683.2 180.4 2684.8 182ZM2986.13 182C2988 183.733 2976.13 184 2880.13 184C2784.93 184 2772 183.733 2772 182C2772 180.267 2784.67 180 2878.13 180C2970.67 180 2984.4 180.267 2986.13 182ZM3304.8 182C3306.67 183.733 3295.33 184 3203.6 184C3112.8 184 3100.4 183.733 3100.4 182C3100.4 180.267 3112.53 180 3201.6 180C3289.87 180 3303.07 180.267 3304.8 182ZM3458.13 182C3460 183.733 3456.4 184 3426.13 184C3396.67 184 3392 183.733 3392 182C3392 180.267 3396.4 180 3424.13 180C3450.8 180 3456.53 180.267 3458.13 182ZM3488 182C3489.47 183.733 3488.53 184 3481.07 184C3474.27 184 3472.4 183.6 3472.4 182C3472.4 180.533 3474.13 180 3479.33 180C3484 180 3486.93 180.667 3488 182ZM92.4 182.267C84.1333 182.533 70.5333 182.533 62.4 182.267C54.1333 182.133 60.8 181.867 77.3333 181.867C93.8666 181.867 100.533 182.133 92.4 182.267ZM1592 182.667C1592 183.6 1566.93 184 1519.47 184C1458 184 1446.27 184.267 1442.27 186C1438 187.733 1401.87 188 1144.8 188C951.2 188 851.867 187.6 851.333 186.667C850.8 185.733 949.067 185.333 1144.93 185.333C1391.6 185.2 1440 184.933 1443.33 183.333C1446.53 181.867 1461.33 181.467 1519.73 181.467C1567.07 181.333 1592 181.733 1592 182.667ZM268.8 187.333L276.667 190.533H242C210.533 190.533 207.733 190.4 211.067 188.533C213.067 187.467 214.667 186 214.667 185.333C214.667 184.533 223.733 184 237.733 184C259.333 184 261.467 184.267 268.8 187.333ZM3544 186C3544 186.933 3545.07 188.533 3546.4 189.2C3548 190.133 3543.2 190.533 3529.73 190.667C3513.47 190.667 3510.8 190.4 3511.47 188.667C3512 187.467 3511.2 186.267 3509.2 185.467C3506.93 184.533 3511.73 184.133 3525.07 184.133C3540.8 184 3544 184.267 3544 186ZM3581.33 187.333L3584.4 190.667H3580.93C3578.4 190.667 3577.6 190.133 3578.13 188.667C3578.67 187.467 3577.87 186.267 3575.87 185.467C3572.93 184.267 3572.93 184.133 3575.47 184.133C3576.93 184 3579.6 185.467 3581.33 187.333ZM1456.67 186.667C1456.27 187.467 1457.2 188.533 1458.93 189.2C1461.2 190.133 1458.93 190.533 1450.67 190.533H1439.33L1445.33 188C1451.87 185.2 1458 184.533 1456.67 186.667ZM1478.53 187.2C1479.73 188.667 1479.47 189.2 1477.07 189.867C1472.13 191.067 1470.27 190.8 1471.07 188.8C1471.47 187.733 1471.2 186.533 1470.27 186.133C1469.33 185.867 1470.53 185.467 1472.8 185.467C1475.07 185.333 1477.73 186.133 1478.53 187.2ZM1486 186.533C1487.33 188.933 1483.73 189.6 1481.6 187.467C1479.6 185.467 1479.6 185.333 1482.27 185.333C1483.87 185.333 1485.47 185.867 1486 186.533ZM1571.33 188C1573.73 190.667 1573.6 190.667 1556.27 190.667C1539.6 190.667 1538.67 190.533 1538.67 188C1538.67 185.467 1539.6 185.333 1553.73 185.333C1567.2 185.333 1569.2 185.6 1571.33 188ZM1641.33 186.667C1641.33 187.467 1629.6 188 1608.67 188C1587.73 188 1576 187.467 1576 186.667C1576 185.867 1587.73 185.333 1608.67 185.333C1629.6 185.333 1641.33 185.867 1641.33 186.667ZM2062.67 186.667C2062.67 187.6 1994.4 188 1860.67 188C1726.93 188 1658.67 187.6 1658.67 186.667C1658.67 185.733 1726.93 185.333 1860.67 185.333C1994.4 185.333 2062.67 185.733 2062.67 186.667ZM3038.67 186.667C3038.67 187.6 2878 188 2559.33 188C2240.67 188 2080 187.6 2080 186.667C2080 185.733 2240.67 185.333 2559.33 185.333C2878 185.333 3038.67 185.733 3038.67 186.667ZM3490.67 186.667C3490.67 187.6 3417.33 188 3273.33 188C3129.33 188 3056 187.6 3056 186.667C3056 185.733 3129.33 185.333 3273.33 185.333C3417.33 185.333 3490.67 185.733 3490.67 186.667ZM3499.07 187.6C3498.13 187.867 3496.27 187.867 3495.07 187.6C3493.73 187.2 3494.53 186.933 3496.67 186.933C3498.93 186.933 3499.87 187.2 3499.07 187.6ZM3506.27 187.467C3505.87 187.867 3504.67 188 3503.73 187.6C3502.67 187.2 3503.07 186.8 3504.53 186.8C3506 186.667 3506.8 187.067 3506.27 187.467ZM1513.2 189.333C1496.67 189.733 1489.07 190.533 1487.6 191.733C1486.4 192.667 1483.87 193.333 1481.73 192.933L1478 192.4L1482 192.133C1484.27 192 1487.2 191.067 1488.53 190C1490.67 188.4 1495.73 188 1513.87 188.267L1536.67 188.533L1513.2 189.333ZM44.9333 190.133C44.5333 190.533 43.3333 190.667 42.4 190.267C41.3333 189.867 41.7333 189.467 43.2 189.467C44.6666 189.333 45.4666 189.733 44.9333 190.133ZM1115.6 194.267C917.067 194.533 592.267 194.533 393.6 194.267C195.067 194.133 357.6 194 754.667 194C1151.73 194 1314.27 194.133 1115.6 194.267ZM3065.73 194.267C2778.13 194.533 2307.2 194.533 2019.07 194.267C1731.07 194.133 1966.4 194 2542 194C3117.73 194 3353.33 194.133 3065.73 194.267ZM1361.33 202.133V207.067L1355.73 206.133C1348.67 204.933 1348 204.533 1348 200.533C1348 197.6 1348.53 197.333 1354.67 197.333H1361.33V202.133ZM2625.33 202C2625.33 207.2 2623.6 207.867 2616.13 205.2C2613.07 204.133 2612 202.933 2612 200.533C2612 197.6 2612.53 197.333 2618.67 197.333H2625.33V202ZM3468 202C3468 205.733 3467.47 206.667 3465.47 206.667C3460 206.667 3456 204.133 3456 200.667C3456 197.6 3456.53 197.333 3462 197.333C3468 197.333 3468 197.333 3468 202ZM3471.6 203.6C3471.2 204.933 3470.93 203.867 3470.93 201.333C3470.93 198.8 3471.2 197.733 3471.6 198.933C3471.87 200.267 3471.87 202.4 3471.6 203.6Z" fill="black"/>
</g>
</g>
<defs>
<clipPath id="clip0_10_8">
<rect width="220" height="3604" fill="white" transform="matrix(0 1 1 0 0 0)"/>
</clipPath>
</defs>
</svg>
