<svg width="200" height="40" viewBox="0 0 1300 250" fill="#000000" xmlns="http://www.w3.org/2000/svg">
<path d="M1673.16 2.61633C1674.22 3.81633 1674.62 10.083 1674.36 21.5497L1673.96 38.7497L1668.62 39.4163C1663.69 40.083 1663.29 40.3496 1663.16 44.483C1663.02 46.883 1662.09 49.5496 1660.89 50.483C1658.89 51.9496 1658.62 61.1496 1658.36 148.083C1657.96 234.883 1657.69 244.616 1655.69 249.683L1653.42 255.416L1656.36 253.55C1659.42 251.55 1677.02 248.35 1678.76 249.55C1680.22 250.35 1678.62 271.55 1677.02 273.683C1676.36 274.616 1673.56 275.416 1670.89 275.683C1666.36 276.083 1665.96 276.483 1665.56 280.75C1664.89 287.816 1663.69 288.483 1653.56 287.816C1644.89 287.15 1644.49 287.283 1640.76 291.283L1636.76 295.416H926.355H215.955V301.016C215.955 308.216 215.022 309.416 208.889 312.083C202.755 314.616 191.955 314.616 185.955 312.216C181.422 310.216 181.288 309.95 181.288 302.883V295.416H91.4219H1.55521L1.02188 291.416C0.488548 288.083 1.55519 286.35 8.62186 279.416L16.7552 271.416H27.5552H38.3551L39.2885 265.683C39.9551 261.683 41.6885 258.483 45.6885 254.35L51.2885 248.616L62.3553 249.016C68.4886 249.15 73.9552 249.95 74.4886 250.75C76.7552 253.55 77.2886 259.283 75.4219 261.016C74.4886 262.083 73.1552 264.883 72.6219 267.15L71.6885 271.416H114.889H158.222L161.288 268.083L164.355 264.75H564.889C922.489 264.75 965.289 264.483 965.289 262.75C965.289 261.55 967.822 257.95 970.755 254.75L976.355 248.75H988.222C999.822 248.75 1000.09 248.75 1001.42 252.35C1003.42 257.55 1003.29 262.216 1001.16 263.55C1000.09 264.216 1053.69 264.75 1126.36 264.75H1253.56L1266.22 259.416L1279.02 254.083H1317.56C1344.22 254.083 1357.02 253.55 1359.02 252.483C1364.22 249.683 1371.16 248.75 1385.82 248.616C1398.49 248.483 1400.76 248.883 1404.09 251.283C1407.82 254.083 1409.16 254.083 1466.09 254.083H1524.22L1523.69 259.416L1523.16 264.75L1573.29 264.616C1627.29 264.483 1630.22 264.216 1635.16 257.55C1637.96 253.95 1637.96 252.483 1638.36 146.35C1638.49 87.283 1638.36 37.9497 1637.82 36.7497C1636.76 34.2163 1636.76 21.9497 1637.69 19.4163C1638.09 18.3497 1638.62 15.9496 1638.89 14.083C1639.16 11.5496 1640.09 10.7497 1642.62 10.7497C1645.29 10.7497 1646.09 9.94966 1646.36 7.01633C1646.89 2.21633 1649.42 1.28299 1661.42 1.01633C1668.76 0.74966 1672.09 1.283 1673.16 2.61633ZM1665.02 20.883C1665.42 37.9497 1665.56 38.2163 1668.36 37.8163C1671.16 37.4163 1671.29 36.7497 1671.69 20.3497L1672.09 3.41632H1668.36H1664.62L1665.02 20.883ZM1655.96 8.08298C1654.22 9.94964 1653.16 11.4163 1653.56 11.4163C1653.82 11.4163 1655.56 9.94964 1657.29 8.08298C1659.02 6.21631 1660.09 4.74966 1659.69 4.74966C1659.42 4.74966 1657.69 6.21631 1655.96 8.08298ZM1659.29 9.94965C1658.89 10.6163 1659.16 11.5496 1659.96 12.083C1660.62 12.483 1661.29 11.9497 1661.29 10.883C1661.29 8.483 1660.49 8.08298 1659.29 9.94965ZM1641.69 186.483C1641.82 218.083 1641.96 192.216 1641.96 128.75C1641.96 65.283 1641.82 39.4163 1641.69 71.1496C1641.42 102.75 1641.42 154.75 1641.69 186.483ZM1649.56 30.6163C1649.16 46.7497 1649.69 49.8163 1652.36 47.683C1653.29 46.883 1655.42 46.483 1657.02 47.0163C1659.96 47.683 1659.96 47.5497 1659.96 32.3497C1659.96 16.083 1659.69 15.283 1653.29 15.8163C1649.96 16.083 1649.96 16.2163 1649.56 30.6163ZM1645.69 37.683C1645.96 41.283 1646.09 38.3497 1646.09 31.4163C1646.09 24.483 1645.96 21.5497 1645.69 25.0163C1645.42 28.6163 1645.42 34.2163 1645.69 37.683ZM1645.69 195.016C1645.82 222.083 1645.96 199.95 1645.96 146.083C1645.96 92.2163 1645.82 70.083 1645.69 97.0163C1645.42 124.083 1645.42 168.083 1645.69 195.016ZM1655.02 54.3496C1655.42 55.4163 1655.82 55.0163 1655.82 53.5497C1655.96 52.083 1655.56 51.283 1655.16 51.8163C1654.76 52.2163 1654.62 53.4163 1655.02 54.3496ZM1655.02 111.816C1655.16 121.55 1655.42 113.15 1655.42 93.4163C1655.42 73.5497 1655.16 65.683 1655.02 75.8163C1654.76 85.9496 1654.76 102.216 1655.02 111.816ZM1648.36 114.35C1648.49 124.883 1648.76 116.35 1648.76 95.4163C1648.76 74.483 1648.49 65.9496 1648.36 76.3496C1648.09 86.883 1648.09 103.95 1648.36 114.35ZM1648.36 205.816C1648.49 218.75 1648.62 207.816 1648.62 181.416C1648.62 155.016 1648.49 144.35 1648.36 157.816C1648.09 171.283 1648.09 192.883 1648.36 205.816ZM1651.96 140.883C1651.96 143.15 1652.49 144.616 1653.29 144.083C1653.96 143.683 1654.62 141.816 1654.62 139.95C1654.62 138.216 1653.96 136.75 1653.29 136.75C1652.49 136.75 1651.96 138.616 1651.96 140.883ZM1651.96 151.55C1651.96 153.683 1652.49 155.416 1653.29 155.416C1653.96 155.416 1654.62 153.283 1654.62 150.616C1654.62 147.816 1654.09 146.216 1653.29 146.75C1652.49 147.15 1651.96 149.283 1651.96 151.55ZM1652.22 163.683C1651.96 167.95 1652.22 168.883 1653.29 167.416C1655.16 164.483 1654.76 158.083 1652.62 158.083C1652.62 158.083 1652.36 160.616 1652.22 163.683ZM1655.02 203.816C1655.16 209.816 1655.42 204.483 1655.42 192.083C1655.42 179.55 1655.16 174.75 1655.02 181.15C1654.76 187.55 1654.76 197.816 1655.02 203.816ZM1652.62 228.75C1651.82 231.15 1651.96 231.683 1653.16 230.75C1653.96 229.95 1654.89 226.35 1655.29 222.75C1655.82 216.883 1655.69 216.616 1654.76 220.75C1654.09 223.283 1653.02 226.883 1652.62 228.75ZM1648.36 239.016C1648.62 241.15 1648.89 239.683 1648.89 236.083C1648.89 232.35 1648.62 230.75 1648.36 232.35C1648.09 234.083 1648.09 237.016 1648.36 239.016ZM1650.62 236.216C1650.62 239.683 1651.96 240.216 1654.36 237.816C1657.02 235.15 1656.36 231.55 1653.29 232.35C1651.56 232.75 1650.62 234.216 1650.62 236.216ZM1650.62 246.083C1650.62 248.083 1649.69 252.35 1648.62 255.55C1646.89 260.75 1646.89 261.15 1648.62 258.883C1651.02 255.683 1655.96 242.883 1655.96 239.816C1655.96 237.95 1655.69 237.95 1653.29 240.083C1651.82 241.416 1650.62 244.083 1650.62 246.083ZM1648.36 249.016C1648.76 249.95 1649.02 249.283 1649.02 247.416C1649.02 245.55 1648.76 244.883 1648.36 245.683C1648.09 246.616 1648.09 248.216 1648.36 249.016ZM1639.96 255.683C1639.16 258.483 1638.09 260.616 1637.56 260.35C1636.89 260.216 1634.49 262.35 1631.96 265.15C1627.02 270.883 1620.22 274.75 1612.89 276.083C1610.09 276.616 1608.09 277.416 1608.49 277.683C1609.69 278.883 1621.69 275.416 1625.42 272.616C1629.42 269.816 1631.29 269.283 1629.82 271.55C1629.42 272.35 1626.22 274.35 1622.76 275.95C1616.62 278.75 1615.42 278.75 1504.62 279.416L1392.62 280.083L1503.42 280.483C1623.69 280.75 1619.96 281.016 1629.69 273.55C1631.96 271.683 1635.16 268.483 1636.62 266.216C1637.96 264.083 1639.56 262.483 1639.96 262.75C1640.36 263.016 1640.76 262.216 1640.89 261.016C1640.89 259.816 1641.29 255.416 1641.69 251.416C1642.09 247.416 1642.22 245.55 1641.82 247.416C1641.56 249.283 1640.62 253.016 1639.96 255.683ZM1643.96 250.083C1643.96 252.216 1644.22 254.083 1644.49 254.083C1644.76 254.083 1645.29 252.216 1645.56 250.083C1645.96 247.816 1645.69 246.083 1645.02 246.083C1644.49 246.083 1643.96 247.816 1643.96 250.083ZM1381.56 251.016C1382.89 251.283 1385.02 251.283 1386.22 251.016C1387.56 250.616 1386.49 250.35 1383.96 250.35C1381.42 250.35 1380.36 250.616 1381.56 251.016ZM1385.96 254.216C1384.62 255.55 1393.16 255.816 1396.62 254.616C1398.36 253.95 1398.49 253.416 1397.02 252.616C1395.16 251.283 1387.96 252.35 1385.96 254.216ZM1366.09 252.75C1364.22 253.416 1362.62 254.616 1362.62 255.416C1362.62 256.35 1363.42 256.483 1365.16 255.416C1366.62 254.75 1370.22 254.083 1373.16 254.083C1376.22 254.083 1378.62 253.416 1378.62 252.75C1378.62 251.016 1370.49 251.016 1366.09 252.75ZM991.822 254.883C988.089 258.883 989.955 259.15 994.489 255.15L997.955 252.083L994.489 256.083C991.422 259.55 991.022 260.883 991.822 265.95C992.222 269.15 993.289 272.083 994.089 272.35C995.689 272.883 997.555 266.75 997.955 259.816C998.089 257.416 998.622 255.016 999.022 254.483C1000.62 253.016 1000.09 251.95 997.422 251.816C996.089 251.683 993.555 253.016 991.822 254.883ZM971.422 257.95C971.822 258.35 972.622 257.816 973.155 256.883C973.822 255.95 974.889 255.416 975.555 255.816C976.222 256.216 976.889 255.283 976.889 253.816C977.155 251.15 977.022 251.15 973.955 254.083C972.089 255.816 971.022 257.55 971.422 257.95ZM66.2218 254.75C63.1552 259.016 63.9552 259.016 67.9552 254.75C69.6886 252.883 70.4885 251.416 69.8218 251.416C69.1551 251.416 67.5552 253.016 66.2218 254.75ZM47.9552 254.75C46.2219 256.616 45.1552 258.083 45.5552 258.083C45.8219 258.083 47.5551 256.616 49.2885 254.75C51.0218 252.883 52.0885 251.416 51.6885 251.416C51.4218 251.416 49.6886 252.883 47.9552 254.75ZM979.955 254.883C979.955 257.283 987.155 257.416 989.155 254.883C990.355 253.416 989.689 253.016 985.289 253.016C981.555 252.883 979.955 253.416 979.955 254.883ZM54.8886 255.15C54.4886 256.483 55.5552 256.883 58.7552 256.483C61.1552 256.216 63.2885 255.283 63.6885 254.35C64.0885 253.016 63.0218 252.616 59.8218 253.016C57.4218 253.283 55.2886 254.216 54.8886 255.15ZM1657.29 256.75C1649.29 260.883 1649.56 262.083 1658.49 262.083C1666.36 262.083 1666.62 262.216 1666.62 265.55C1666.62 268.083 1667.29 268.883 1668.89 268.483C1670.76 268.216 1671.42 266.483 1671.69 261.016L1672.09 254.083H1667.29C1664.62 254.083 1660.22 255.283 1657.29 256.75ZM67.1552 269.416L68.8886 278.75L69.6885 272.35C70.2218 268.883 71.0219 263.283 71.4219 259.683L72.2218 253.416L68.8886 256.75C65.5552 260.083 65.5552 260.216 67.1552 269.416ZM1511.96 257.95C1511.96 259.55 1510.49 261.016 1508.22 261.816L1504.62 263.15L1509.16 263.283C1512.49 263.416 1515.02 262.35 1517.82 259.683L1521.96 256.083L1518.22 260.216C1515.56 263.15 1514.62 265.55 1514.89 268.483L1515.16 272.75H1563.96C1593.02 272.75 1613.42 272.216 1614.62 271.416C1615.96 270.616 1599.29 270.083 1566.22 270.083C1538.62 270.083 1515.96 269.683 1515.96 269.016C1515.96 268.483 1517.42 266.883 1519.29 265.55C1522.36 263.15 1523.69 258.35 1521.69 256.35C1521.29 255.816 1518.89 255.416 1516.36 255.416C1512.89 255.416 1511.96 255.95 1511.96 257.95ZM1459.16 256.616C1464.36 257.683 1465.02 260.483 1460.36 261.55C1458.36 261.95 1455.96 262.483 1455.29 262.75C1454.49 263.016 1463.56 263.283 1475.42 263.283C1496.49 263.416 1496.89 263.416 1496.76 260.616C1496.62 259.016 1497.42 257.416 1498.49 257.016C1499.56 256.616 1499.96 257.016 1499.42 257.95C1498.36 259.683 1505.02 259.95 1508.89 258.35C1510.62 257.683 1509.69 257.15 1505.29 256.616C1497.29 255.55 1454.22 255.55 1459.16 256.616ZM1416.89 256.35C1423.69 256.616 1435.02 256.616 1442.22 256.35C1449.42 256.216 1443.82 255.95 1429.96 255.95C1415.96 255.95 1410.09 256.216 1416.89 256.35ZM1375.96 256.75C1374.49 257.683 1375.29 258.083 1379.02 258.083C1382.09 258.083 1383.82 257.55 1383.29 256.75C1382.22 255.016 1378.62 255.016 1375.96 256.75ZM1277.96 259.416L1274.09 263.416L1286.76 263.283C1296.22 263.283 1298.49 262.883 1296.09 261.95C1293.56 260.883 1293.16 260.35 1294.49 259.016C1295.56 257.95 1305.16 257.15 1326.36 256.75L1356.62 255.95L1319.16 255.683L1281.82 255.416L1277.96 259.416ZM1393.96 259.95C1392.49 260.35 1393.82 260.35 1397.02 259.95C1400.22 259.683 1402.49 259.816 1402.22 260.35C1401.82 261.016 1413.42 261.283 1428.09 261.016C1445.02 260.75 1454.62 260.083 1454.62 259.283C1454.62 258.35 1445.69 258.083 1428.76 258.35C1414.49 258.616 1403.16 258.35 1403.42 257.816C1403.82 257.283 1402.36 257.416 1400.36 258.083C1398.36 258.75 1395.42 259.55 1393.96 259.95ZM1455.96 259.416C1455.96 260.083 1457.16 260.75 1458.49 260.75C1459.96 260.75 1461.56 260.083 1461.96 259.416C1462.49 258.616 1461.29 258.083 1459.42 258.083C1457.56 258.083 1455.96 258.616 1455.96 259.416ZM1307.96 259.416C1307.96 260.216 1316.62 260.75 1331.29 260.75C1344.09 260.75 1355.02 260.75 1355.56 260.883C1356.09 260.883 1356.76 260.35 1357.02 259.55C1357.42 258.483 1349.82 258.083 1332.76 258.083C1317.16 258.083 1307.96 258.616 1307.96 259.416ZM1297.29 259.416C1295.82 260.35 1296.76 260.75 1300.89 260.75C1304.09 260.75 1306.62 260.083 1306.62 259.416C1306.62 257.683 1299.96 257.683 1297.29 259.416ZM1262.49 262.616C1257.56 264.616 1252.22 267.816 1250.49 269.55L1247.29 273.016L1254.62 270.083C1266.22 265.55 1270.22 263.416 1272.89 260.483C1275.56 257.283 1276.09 257.15 1262.49 262.616ZM56.8886 259.016C57.8219 259.283 59.4218 259.283 60.2218 259.016C61.1552 258.616 60.4885 258.35 58.6219 258.35C56.7552 258.35 56.0886 258.616 56.8886 259.016ZM1363.29 260.75C1362.76 261.55 1367.02 262.083 1375.16 262.083C1382.76 262.083 1387.96 261.55 1387.96 260.75C1387.96 259.95 1383.16 259.416 1376.09 259.416C1369.42 259.416 1363.69 259.95 1363.29 260.75ZM980.889 260.35C981.822 260.616 983.689 260.616 984.889 260.35C986.222 259.95 985.422 259.683 983.289 259.683C981.022 259.683 980.089 259.95 980.889 260.35ZM970.889 260.35C972.222 260.616 974.355 260.616 975.555 260.35C976.889 259.95 975.822 259.683 973.289 259.683C970.755 259.683 969.689 259.95 970.889 260.35ZM1499.56 261.683C1500.49 261.95 1502.09 261.95 1502.89 261.683C1503.82 261.283 1503.16 261.016 1501.29 261.016C1499.42 261.016 1498.76 261.283 1499.56 261.683ZM978.089 266.216C976.622 273.416 977.022 274.083 981.822 274.083C986.489 274.083 987.955 272.083 987.955 265.016C987.955 262.616 987.289 262.083 983.422 262.083C979.422 262.083 978.889 262.616 978.089 266.216ZM967.289 263.683C967.022 264.616 966.489 267.15 966.355 269.416C965.955 272.883 966.355 273.416 969.822 273.816C974.489 274.35 975.422 273.416 976.489 267.016L977.422 262.083H972.622C969.955 262.083 967.555 262.883 967.289 263.683ZM47.9552 263.283C47.9552 263.95 47.5552 266.35 47.1552 268.616L46.2218 272.75H53.0219C60.0885 272.75 61.2885 271.683 61.2885 265.283C61.2885 262.35 60.7552 262.083 54.6219 262.083C50.8885 262.083 47.9552 262.616 47.9552 263.283ZM41.5552 267.816C41.2885 271.55 41.5552 272.75 43.1552 272.75C44.3552 272.75 45.2885 271.683 45.2885 270.35C45.2885 269.15 45.6885 266.616 46.2218 264.883C46.8885 262.35 46.4886 261.95 44.4886 262.35C42.6219 262.616 41.8219 264.083 41.5552 267.816ZM1362.62 271.416V279.416H1373.82H1385.02L1385.96 273.683C1386.36 270.616 1387.16 267.016 1387.42 265.683C1388.09 263.683 1386.89 263.416 1375.42 263.416H1362.62V271.416ZM1648.76 266.083C1640.76 269.016 1629.16 283.416 1634.62 283.416C1635.29 283.416 1635.96 282.216 1635.96 280.883C1635.96 279.416 1636.49 277.816 1637.29 277.416C1638.09 276.883 1638.62 278.083 1638.62 280.083C1638.62 282.083 1639.16 283.283 1639.96 282.75C1640.62 282.35 1641.29 280.75 1641.29 279.283C1641.29 275.416 1643.69 276.216 1644.36 280.35L1644.89 284.083L1645.96 279.816C1647.16 274.75 1649.29 275.283 1649.42 280.483C1649.42 283.55 1649.69 283.416 1651.29 278.75L1653.02 273.416L1653.16 278.35C1653.29 282.483 1653.82 283.416 1655.96 283.416C1658.09 283.416 1658.62 282.483 1658.89 278.083C1659.02 275.15 1659.16 270.883 1659.29 268.75C1659.56 265.15 1659.16 264.75 1655.82 264.75C1653.82 264.75 1650.62 265.283 1648.76 266.083ZM1389.29 268.75C1389.29 271.416 1390.22 271.416 1451.29 271.416C1512.36 271.416 1513.29 271.416 1513.29 268.75C1513.29 266.083 1512.36 266.083 1451.29 266.083C1390.22 266.083 1389.29 266.083 1389.29 268.75ZM1255.29 271.416L1242.22 276.75H699.022C156.889 276.75 155.955 276.75 155.955 279.416C155.955 282.35 141.822 282.216 1106.09 282.083H1246.22L1259.29 276.75L1272.36 271.416H1316.89C1360.36 271.416 1361.29 271.416 1361.29 268.75C1361.29 266.083 1360.36 266.083 1314.89 266.083H1268.36L1255.29 271.416ZM1079.82 267.283C1085.96 268.35 1086.49 271.016 1081.02 272.616C1078.09 273.416 1104.62 273.816 1160.09 273.95L1243.42 274.083L1247.29 270.083L1251.16 266.083L1163.16 266.216C1114.89 266.35 1077.29 266.75 1079.82 267.283ZM1018.22 267.016C1028.76 267.283 1045.82 267.283 1056.22 267.016C1066.76 266.883 1058.22 266.616 1037.29 266.616C1016.36 266.616 1007.82 266.883 1018.22 267.016ZM925.555 267.016C932.622 267.283 944.622 267.283 952.222 267.016C959.822 266.883 953.955 266.616 939.289 266.616C924.622 266.616 918.489 266.883 925.555 267.016ZM210.089 267.95C210.489 269.016 209.422 270.75 207.689 271.95C204.889 273.95 208.889 274.083 259.955 273.95C290.355 273.816 314.222 273.55 312.889 273.15C309.555 272.216 310.089 270.216 314.089 268.75C319.422 266.616 454.889 267.683 455.555 269.683C455.955 270.616 454.222 271.816 451.689 272.616C448.622 273.416 460.755 273.816 490.622 273.816C521.155 273.95 533.022 273.55 530.622 272.616L527.289 271.283L530.889 269.283C536.355 266.35 715.289 267.15 715.289 270.083C715.289 271.15 713.555 272.483 711.289 272.883C709.022 273.416 725.822 273.816 748.355 273.95C773.955 274.083 789.155 273.55 788.622 272.883C787.689 271.15 792.222 268.75 796.489 268.75C800.355 268.75 802.355 271.283 799.822 272.883C797.689 274.216 889.955 274.483 902.489 273.283C907.955 272.616 910.622 271.816 910.622 270.616C910.622 269.416 909.155 268.75 906.755 268.75C901.822 268.75 898.489 270.083 899.422 271.55C899.822 272.216 899.555 272.75 898.755 272.75C896.755 272.75 895.689 270.35 897.289 269.416C898.089 268.883 901.555 268.083 905.022 267.416C908.489 266.883 753.422 266.35 560.355 266.216C260.489 266.083 209.422 266.35 210.089 267.95ZM161.955 270.083L158.089 274.083H173.155C183.422 274.083 187.822 273.683 187.288 272.616C186.755 271.95 187.422 270.083 188.755 268.616C191.022 266.083 190.755 266.083 178.355 266.083C166.089 266.083 165.689 266.216 161.955 270.083ZM191.955 268.75C190.489 269.683 191.955 270.083 196.889 270.083C200.622 270.083 204.222 269.416 204.622 268.75C205.689 267.016 194.622 267.016 191.955 268.75ZM1075.96 270.083C1075.96 270.75 1077.42 271.416 1079.29 271.416C1081.16 271.416 1082.62 270.75 1082.62 270.083C1082.62 269.283 1081.16 268.75 1079.29 268.75C1077.42 268.75 1075.96 269.283 1075.96 270.083ZM998.622 270.75C998.622 272.483 1003.69 272.75 1036.62 272.75C1069.56 272.75 1074.62 272.483 1074.62 270.75C1074.62 269.016 1069.56 268.75 1036.62 268.75C1003.69 268.75 998.622 269.016 998.622 270.75ZM912.222 270.35C912.755 271.683 919.422 272.216 938.222 272.483C959.955 272.75 963.822 272.483 964.489 270.75C965.155 269.016 961.822 268.75 938.489 268.75C917.689 268.75 911.822 269.15 912.222 270.35ZM707.955 270.083C707.955 270.75 709.155 271.416 710.489 271.416C711.955 271.416 713.555 270.75 713.955 270.083C714.489 269.283 713.289 268.75 711.422 268.75C709.555 268.75 707.955 269.283 707.955 270.083ZM543.955 270.75C543.955 272.483 553.555 272.75 624.889 272.483C688.089 272.216 705.822 271.683 706.355 270.35C706.755 269.15 689.955 268.75 625.422 268.75C553.689 268.75 543.955 269.016 543.955 270.75ZM532.622 270.083C530.755 270.883 530.489 271.283 531.955 271.416C540.755 272.616 541.289 272.483 541.289 270.616C541.289 268.483 536.889 268.216 532.622 270.083ZM447.955 270.083C447.955 270.75 449.155 271.416 450.622 271.416C452.089 271.416 453.289 270.75 453.289 270.083C453.289 269.283 452.089 268.75 450.622 268.75C449.155 268.75 447.955 269.283 447.955 270.083ZM325.288 270.75C325.288 272.616 332.222 272.75 385.555 272.483C432.222 272.216 445.822 271.683 446.355 270.35C446.755 269.15 434.089 268.75 386.089 268.75C332.489 268.75 325.288 269.016 325.288 270.75ZM314.889 269.95C313.422 270.883 313.555 271.283 315.288 271.95C319.288 273.416 323.955 272.883 323.955 270.75C323.955 268.483 317.822 267.95 314.889 269.95ZM1666.62 271.416C1666.62 272.083 1667.56 272.75 1668.62 272.75C1669.69 272.75 1670.62 272.083 1670.62 271.416C1670.62 270.616 1669.69 270.083 1668.62 270.083C1667.56 270.083 1666.62 270.616 1666.62 271.416ZM791.955 271.416C790.355 272.483 790.755 272.75 793.555 272.75C795.555 272.75 797.555 272.083 797.955 271.416C799.022 269.683 794.622 269.683 791.955 271.416ZM1256.62 279.15L1243.29 284.616L685.822 284.75C379.155 284.75 126.355 284.35 124.089 283.95C117.822 282.616 119.289 279.15 126.622 277.15C129.955 276.35 137.555 275.55 143.555 275.55C149.555 275.416 154.888 274.883 155.288 274.083C155.822 273.15 141.689 272.75 114.089 272.75H71.9552V275.816C71.9552 281.95 68.2218 283.55 55.1552 283.15C44.4885 282.75 43.2886 282.483 42.8886 280.083C41.8219 274.616 38.0885 272.75 27.6885 272.75H17.8218L10.6219 280.083L3.42191 287.416L815.955 287.283C1262.89 287.15 1627.42 286.75 1625.96 286.483C1624.49 286.083 1622.89 285.016 1622.22 284.083C1621.56 282.75 1620.09 282.616 1617.29 283.416C1612.49 284.75 1362.89 285.416 1359.56 284.083C1358.36 283.55 1357.29 282.616 1357.29 281.95C1357.29 281.283 1356.09 280.75 1354.49 280.75C1350.22 280.75 1346.62 278.216 1346.62 275.283C1346.62 272.616 1346.09 272.616 1308.22 273.016L1269.96 273.55L1256.62 279.15ZM1536.22 275.016C1549.29 275.283 1570.62 275.283 1583.56 275.016C1596.62 274.883 1585.96 274.75 1559.96 274.75C1533.96 274.75 1523.29 274.883 1536.22 275.016ZM1498.89 275.016C1500.89 275.283 1504.49 275.283 1506.89 275.016C1509.29 274.75 1507.69 274.483 1503.29 274.483C1498.89 274.483 1496.89 274.75 1498.89 275.016ZM1491.02 274.883C1491.42 275.283 1492.62 275.416 1493.56 275.016C1494.62 274.616 1494.22 274.216 1492.76 274.216C1491.29 274.083 1490.49 274.483 1491.02 274.883ZM1426.22 275.016C1437.29 275.283 1455.96 275.283 1467.56 275.016C1479.16 274.883 1469.96 274.616 1447.29 274.616C1424.49 274.616 1415.02 274.883 1426.22 275.016ZM1399.02 274.883C1399.42 275.283 1400.62 275.416 1401.56 275.016C1402.62 274.616 1402.22 274.216 1400.76 274.216C1399.29 274.083 1398.49 274.483 1399.02 274.883ZM1348.76 276.083C1349.29 277.283 1351.29 278.083 1353.42 278.083C1357.96 278.083 1358.62 275.816 1354.22 275.016C1348.62 273.95 1348.09 274.083 1348.76 276.083ZM56.2218 275.55C52.4885 275.416 51.9552 275.683 51.9552 278.75C51.9552 281.55 52.6219 282.083 55.5552 282.083C62.6219 282.083 65.2885 280.616 65.2885 277.15C65.2885 274.483 64.7552 273.95 62.8886 274.75C61.6886 275.283 58.6218 275.683 56.2218 275.55ZM1388.36 280.35C1388.76 281.683 1389.02 280.883 1389.02 278.75C1389.02 276.483 1388.76 275.55 1388.36 276.35C1388.09 277.283 1388.09 279.15 1388.36 280.35ZM1358.62 276.75C1358.62 277.416 1359.29 278.083 1360.09 278.083C1360.76 278.083 1361.02 277.416 1360.62 276.75C1360.22 275.95 1359.56 275.416 1359.16 275.416C1358.89 275.416 1358.62 275.95 1358.62 276.75ZM45.2885 279.416C45.2885 281.15 45.9552 281.683 47.9552 281.15C50.4886 280.483 51.4218 278.083 49.8218 276.35C48.3551 274.883 45.2885 277.016 45.2885 279.416ZM1446.22 277.683C1475.82 277.95 1524.09 277.95 1553.56 277.683C1583.16 277.55 1559.02 277.416 1499.96 277.416C1440.89 277.416 1416.76 277.55 1446.22 277.683ZM141.288 279.416C141.288 281.683 142.222 282.083 147.955 282.083C152.622 282.083 154.622 281.55 154.622 280.35C154.622 277.416 153.155 276.75 147.022 276.75C142.222 276.75 141.288 277.15 141.288 279.416ZM123.288 279.816C120.755 281.15 120.889 281.283 124.622 282.216C130.622 283.95 138.622 282.216 138.622 279.416C138.622 277.416 137.688 277.15 132.222 277.816C128.755 278.083 124.755 279.016 123.288 279.816ZM1625.69 282.883C1626.09 283.283 1627.29 283.416 1628.22 283.016C1629.29 282.616 1628.89 282.216 1627.42 282.216C1625.96 282.083 1625.16 282.483 1625.69 282.883ZM1372.89 283.016C1375.29 283.283 1379.29 283.283 1381.56 283.016C1383.96 282.75 1382.09 282.483 1377.29 282.483C1372.49 282.483 1370.62 282.75 1372.89 283.016ZM1637.29 289.55C1637.29 291.416 1637.69 291.416 1639.29 290.083C1640.36 289.15 1641.29 288.216 1641.29 287.95C1641.29 287.683 1640.36 287.416 1639.29 287.416C1638.22 287.416 1637.29 288.35 1637.29 289.55ZM2.62186 291.416C2.62186 294.083 4.08859 294.083 819.289 294.083C1634.36 294.083 1635.96 294.083 1635.96 291.416C1635.96 288.75 1634.36 288.75 819.289 288.75C4.08859 288.75 2.62186 288.75 2.62186 291.416ZM191.955 303.416V311.416H198.489C201.955 311.416 206.755 310.75 209.155 309.95C213.022 308.616 213.288 308.083 213.288 301.95V295.416H202.622H191.955V303.416ZM186.622 302.75C186.622 308.35 187.022 310.083 188.622 310.083C190.222 310.083 190.622 308.35 190.622 302.75C190.622 297.15 190.222 295.416 188.622 295.416C187.022 295.416 186.622 297.15 186.622 302.75ZM182.622 301.283C182.622 304.616 183.155 307.683 183.955 308.083C184.755 308.616 185.288 306.35 185.288 302.216C185.288 298.483 184.622 295.416 183.955 295.416C183.155 295.416 182.622 298.083 182.622 301.283Z" fill="black"/>
<path d="M1637.29 261.816C1637.29 263.55 1631.82 270.35 1631.02 269.55C1630.62 269.15 1631.82 267.016 1633.82 264.75C1635.69 262.483 1637.29 261.15 1637.29 261.816Z" fill="black"/>
<path d="M1482.62 258.616C1482.62 260.883 1479.69 262.083 1473.96 262.083C1468.62 262.083 1466.89 260.083 1470.49 258.216C1474.36 256.083 1482.62 256.35 1482.62 258.616ZM1471.96 259.416C1470.49 260.35 1471.16 260.75 1474.89 260.75C1477.56 260.75 1480.22 260.083 1480.62 259.416C1481.69 257.683 1474.62 257.683 1471.96 259.416Z" fill="black"/>
<path d="M38.2219 277.416C42.3552 280.483 37.4219 283.016 25.1552 284.083C21.6886 284.35 20.0886 283.816 18.8886 282.083C17.0219 279.15 18.7552 278.35 29.0219 276.883C33.8219 276.216 36.7552 276.35 38.2219 277.416Z" fill="black"/>
</svg>
