<svg width="2700" height="230" viewBox="0 0 2700 230" fill="none" xmlns="http://www.w3.org/2000/svg">
<path d="M2694.2 1.06666C2695.27 2.79999 2695.4 26.1333 2694.47 27.8667C2693.93 28.6667 2692.07 29.3333 2690.2 29.3333C2687.8 29.3333 2687 30 2687 32.4C2687 34.1333 2686.47 36 2685.67 36.8C2684.87 37.6 2684.2 65.2 2683.93 108.667C2683.8 147.6 2683 180.8 2682.47 182.533C2681.4 185.333 2681.53 185.467 2683.8 184.267C2685.13 183.6 2689.27 182.8 2693 182.533L2699.67 182L2699.13 190.667C2698.87 195.467 2698.47 199.733 2698.07 200.4C2697.8 200.933 2695.8 201.333 2693.67 201.333C2690.33 201.333 2689.8 201.867 2689.4 205.6L2689 210L2681.67 209.6C2675.27 209.2 2673.93 209.6 2671.13 212.533L2667.93 216H1903.4H1139V220.667C1139 226.533 1134.73 229.6 1125.93 229.733C1115.4 229.867 1113.67 228.667 1113.67 222V216.133L1045.93 215.733C984.067 215.333 978.067 215.2 974.867 212.933C971.533 210.667 971.4 210.8 969 213.333C966.6 216 965.4 216 562.067 216H157.667V220.667C157.667 226.667 153.133 229.867 144.467 229.867C135.4 229.867 132.333 227.733 132.333 221.333V216H66.3333H0.333274V212.933C0.333274 211.067 2.59994 207.733 5.93327 204.4C11.1333 199.2 12.3333 198.8 19.6666 198.4C27.3999 198 27.5333 197.867 28.4666 193.6C28.9999 191.067 30.9999 187.333 33.1333 185.2C36.4666 181.733 37.6666 181.333 45.2666 181.333C52.9999 181.333 53.7999 181.6 55.2666 184.533C56.3333 187.2 56.1999 188.8 54.4666 192.533C53.2666 194.933 52.3333 197.467 52.3333 197.867C52.3333 198.267 66.3333 198.667 83.3999 198.667C112.867 198.667 114.733 198.533 117 196C119.4 193.333 121.133 193.333 448.6 193.333C732.333 193.333 777.667 193.067 777.667 191.467C777.667 190.4 779.533 187.6 781.8 185.333C785.8 181.467 786.467 181.2 794.733 181.6C803 182 803.533 182.133 804.467 185.733C805.133 188.267 804.867 190 803.4 191.333C801.667 193.067 804.333 193.333 826.467 193.333C850.067 193.333 851.667 193.2 854.467 190.533C857.4 187.733 857.8 187.733 943.533 187.867C1026.07 188 1030.07 188.133 1036.47 190.667C1043 193.333 1047.53 193.333 1379.67 193.333C1655.53 193.333 1716.33 193.067 1716.33 191.6C1716.33 190.667 1718.33 188 1720.73 185.6C1724.73 181.733 1725.93 181.333 1733.4 181.333C1740.07 181.333 1741.8 181.733 1743 183.867C1744.87 187.467 1744.73 191.6 1742.6 192.4C1741.8 192.8 1886.33 193.2 2063.8 193.2L2386.6 193.333L2396.33 189.333L2406.07 185.333H2434.33C2456.47 185.333 2463.67 184.933 2467.4 183.333C2474.07 180.533 2495.4 180.533 2497.67 183.333C2499.13 185.067 2505.8 185.333 2542.47 185.333H2585.67V189.333V193.333H2621.53C2643 193.333 2658.87 192.8 2661.27 192C2669.13 189.2 2669 191.2 2669.27 98.6667C2669.4 52.1333 2669.53 12.2667 2669.53 10.2667C2669.67 7.59999 2670.2 6.66666 2671.93 6.93332C2673.4 7.19999 2674.47 6.13332 2675 3.99999C2675.67 0.933323 2676.47 0.666657 2684.6 0.266657C2689.53 0.133323 2693.8 0.533323 2694.2 1.06666ZM2688.6 14.9333C2688.87 24.9333 2689.4 27.3333 2691 27.3333C2692.6 27.3333 2693.13 24.9333 2693.4 14.9333C2693.8 3.33332 2693.67 2.66666 2691 2.66666C2688.33 2.66666 2688.2 3.33332 2688.6 14.9333ZM2674.07 135.6C2674.2 158.933 2674.33 139.867 2674.33 93.3333C2674.33 46.8 2674.2 27.7333 2674.07 50.9333C2673.8 74.2667 2673.8 112.4 2674.07 135.6ZM2677.67 23.3333V34.6667H2681.67H2685.67V23.3333V12H2681.67H2677.67V23.3333ZM2676.73 141.6C2676.87 160.933 2677 145.2 2677 106.667C2677 68.1333 2676.87 52.4 2676.73 71.6C2676.47 90.9333 2676.47 122.4 2676.73 141.6ZM2679 103.467C2679 104.533 2679.53 105.067 2680.33 104.667C2681 104.267 2681.67 103.333 2681.67 102.533C2681.67 101.867 2681 101.333 2680.33 101.333C2679.53 101.333 2679 102.267 2679 103.467ZM2679.4 112.267C2679.8 113.2 2680.07 112.533 2680.07 110.667C2680.07 108.8 2679.8 108.133 2679.4 108.933C2679.13 109.867 2679.13 111.467 2679.4 112.267ZM2679.27 121.467C2679.67 122.533 2680.2 121.867 2680.73 120.133C2681.27 117.867 2681.13 117.333 2680.07 118.4C2679.4 119.067 2679 120.533 2679.27 121.467ZM2679 170.8C2679 172.267 2679.53 173.067 2680.33 172.667C2681 172.267 2681.67 170.667 2681.67 169.2C2681.67 167.733 2681 166.933 2680.33 167.333C2679.53 167.733 2679 169.333 2679 170.8ZM2678.33 181.333C2677.67 184.4 2677.8 185.6 2678.73 184.667C2679.4 183.867 2680.47 181.2 2681 178.667C2681.67 175.6 2681.53 174.4 2680.6 175.333C2679.93 176 2678.87 178.8 2678.33 181.333ZM2480.73 183.467C2481.13 183.867 2482.33 184 2483.27 183.6C2484.33 183.2 2483.93 182.8 2482.47 182.8C2481 182.667 2480.2 183.067 2480.73 183.467ZM2486.33 185.333C2483.93 186.4 2483.93 186.533 2487 186.533C2488.87 186.533 2491.27 186 2492.33 185.333C2493.93 184.267 2493.93 184 2491.67 184.133C2490.2 184.133 2487.8 184.667 2486.33 185.333ZM2472.6 184.933C2473.93 185.2 2476.07 185.2 2477.27 184.933C2478.6 184.533 2477.53 184.267 2475 184.267C2472.47 184.267 2471.4 184.533 2472.6 184.933ZM1735.93 193.867C1737.4 201.467 1738.6 200.533 1740.2 190.8L1741.27 183.867L1738.2 186.8C1735.8 189.067 1735.27 190.533 1735.93 193.867ZM2684.6 187.6L2679.67 189.867L2685 190.533C2689.13 191.2 2690.2 191.867 2689.93 193.6C2689.67 195.067 2690.33 196 2691.67 196C2693.13 196 2693.67 194.533 2693.67 190.667C2693.67 184.533 2692.33 184.133 2684.6 187.6ZM1727.93 186.267C1728.87 186.533 1730.73 186.533 1731.93 186.267C1733.27 185.867 1732.47 185.6 1730.33 185.6C1728.07 185.6 1727.13 185.867 1727.93 186.267ZM789.267 186.267C790.2 186.533 792.067 186.533 793.267 186.267C794.6 185.867 793.8 185.6 791.667 185.6C789.4 185.6 788.467 185.867 789.267 186.267ZM39.9333 186.267C40.8666 186.533 42.7333 186.533 43.9333 186.267C45.2666 185.867 44.4666 185.6 42.3333 185.6C40.0666 185.6 39.1333 185.867 39.9333 186.267ZM2576.6 189.333C2575.27 191.467 2575.27 192 2576.73 192C2577.8 192 2579.67 190.8 2581 189.333C2583.4 186.8 2583.27 186.667 2580.87 186.667C2579.4 186.667 2577.53 187.867 2576.6 189.333ZM2554.73 187.6C2556.07 188.133 2556.07 188.667 2554.87 190.133C2553.53 191.733 2554.33 192 2559.4 192C2564.73 192 2565.53 191.6 2565.27 189.333C2565.13 187.067 2564.2 186.667 2559 186.8C2555.67 186.8 2553.8 187.2 2554.73 187.6ZM2539.4 187.6C2539.93 188 2539.67 189.2 2538.87 190.267C2537.67 191.6 2538.2 192 2541.53 192C2544.07 192 2545.53 191.467 2545 190.667C2544.6 189.867 2545.53 188.8 2547.27 188.133C2549.8 187.067 2549.4 186.8 2544.47 186.8C2541.27 186.667 2539 187.067 2539.4 187.6ZM2478.07 187.467C2478.47 187.867 2479.67 188 2480.6 187.6C2481.67 187.2 2481.27 186.8 2479.8 186.8C2478.33 186.667 2477.53 187.067 2478.07 187.467ZM2406.33 189.333C2403.93 192 2404.07 192 2410.73 192C2415.93 192 2418.33 191.333 2420.33 189.333L2423 186.667H2415.93C2410.47 186.667 2408.2 187.333 2406.33 189.333ZM48.8666 196.667C49.3999 200.133 50.0666 202.667 50.1999 202.4C50.4666 202.267 51.1333 198.4 51.6666 194C52.4666 186.533 52.4666 186.133 50.3333 188.267C48.4666 190 48.1999 191.733 48.8666 196.667ZM2567.93 188.933C2568.87 189.2 2570.73 189.2 2571.93 188.933C2573.27 188.533 2572.47 188.267 2570.33 188.267C2568.07 188.267 2567.13 188.533 2567.93 188.933ZM2498.33 189.333C2497.8 190.133 2504.07 190.667 2516.2 190.667C2527.8 190.667 2535 190.133 2535 189.333C2535 188.533 2528.2 188 2517.13 188C2506.6 188 2498.87 188.533 2498.33 189.333ZM2428.33 189.333C2428.33 190.133 2435 190.667 2445.67 190.667C2456.33 190.667 2463 190.133 2463 189.333C2463 188.533 2456.33 188 2445.67 188C2435 188 2428.33 188.533 2428.33 189.333ZM2421.67 190.133C2421.67 190.4 2422.87 190.667 2424.33 190.667C2425.8 190.667 2427 190.133 2427 189.467C2427 188.8 2425.8 188.533 2424.33 188.933C2422.87 189.333 2421.67 189.867 2421.67 190.133ZM1729.27 188.933C1730.2 189.2 1731.8 189.2 1732.6 188.933C1733.53 188.533 1732.87 188.267 1731 188.267C1729.13 188.267 1728.47 188.533 1729.27 188.933ZM1721.27 188.933C1722.2 189.2 1723.8 189.2 1724.6 188.933C1725.53 188.533 1724.87 188.267 1723 188.267C1721.13 188.267 1720.47 188.533 1721.27 188.933ZM865.267 188.933C866.2 189.2 868.067 189.2 869.267 188.933C870.6 188.533 869.8 188.267 867.667 188.267C865.4 188.267 864.467 188.533 865.267 188.933ZM796.333 194.8C796.333 196.133 796.867 197.467 797.533 197.867C798.733 198.667 800.333 194.267 800.333 190C800.2 187.333 800.2 187.333 798.333 189.867C797.267 191.333 796.333 193.6 796.333 194.8ZM2579 195.067C2579 195.867 2580.2 195.333 2581.67 194C2583.13 192.667 2584.33 190.933 2584.33 190.267C2584.33 189.467 2583.13 190 2581.67 191.333C2580.2 192.667 2579 194.4 2579 195.067ZM2547.93 190.267C2548.87 190.533 2550.47 190.533 2551.27 190.267C2552.2 189.867 2551.53 189.6 2549.67 189.6C2547.8 189.6 2547.13 189.867 2547.93 190.267ZM2468.33 190.667C2468.33 191.467 2472.07 192 2477 192C2481.93 192 2485.67 191.467 2485.67 190.667C2485.67 189.867 2481.93 189.333 2477 189.333C2472.07 189.333 2468.33 189.867 2468.33 190.667ZM2385.67 196.8C2384.33 198.267 2385.67 198 2390.33 196C2393.93 194.4 2397.93 192.267 2399 191.2C2400.33 189.733 2399 190 2394.33 192C2390.6 193.6 2386.73 195.733 2385.67 196.8ZM873.667 191.2C873.667 192.267 872.867 193.467 871.933 193.733C871.133 194.133 879.533 194.533 890.733 194.533C905.4 194.667 910.867 194.267 910.2 193.2C909.8 192.4 910.2 191.2 911.133 190.533C912.2 189.867 905 189.333 893.267 189.333C877.267 189.333 873.667 189.733 873.667 191.2ZM855.667 192C853.267 194.667 853.4 194.667 857.4 194.667C860.733 194.667 861.267 194.267 860.733 192C860.333 190.533 859.533 189.333 859 189.333C858.467 189.333 857 190.533 855.667 192ZM919 192C919 192.8 937.267 193.333 971 193.333C1019.8 193.333 1023.27 193.467 1029.67 196C1036.73 198.8 1047 199.6 1047 197.333C1047 196.533 1045 196 1042.6 195.867C1040.33 195.867 1035.67 194.8 1032.33 193.333C1026.87 191.2 1021.53 190.933 972.6 190.8C937.667 190.667 919 191.067 919 192ZM913 192C912.6 192.667 913.4 193.333 914.867 193.333C916.467 193.333 917.667 192.667 917.667 192C917.667 191.2 916.867 190.667 915.8 190.667C914.733 190.667 913.4 191.2 913 192ZM1725.93 196.267C1725.53 199.467 1725.93 200 1728.87 200C1731.8 200 1732.33 199.467 1732.33 195.867C1732.33 192.4 1731.93 191.867 1729.27 192.267C1727.13 192.533 1726.2 193.733 1725.93 196.267ZM1717.4 196.133C1716.87 199.733 1717.13 200.133 1720.2 199.733C1722.87 199.467 1723.8 198.533 1724.07 195.6C1724.47 192.533 1724.07 192 1721.27 192C1718.6 192 1717.8 192.8 1717.4 196.133ZM783.267 195.6C782.867 198.267 783.4 198.667 787.533 198.667C790.2 198.667 792.333 198.133 792.333 197.467C792.333 196.8 792.733 195.2 793.133 194C793.933 192.133 793.133 191.867 788.867 192.267C784.6 192.533 783.533 193.2 783.267 195.6ZM779 196.133C779 198.4 779.533 199.867 780.333 199.333C781 198.933 781.667 197.067 781.667 195.2C781.667 193.467 781 192 780.333 192C779.533 192 779 193.867 779 196.133ZM34.5999 195.467C34.0666 198.533 34.3333 198.8 38.8666 198.4C42.7333 198.133 43.7999 197.333 44.0666 194.933C44.4666 192.4 43.9333 192 39.9333 192C36.0666 192 35.2666 192.533 34.5999 195.467ZM30.1999 195.333C29.3999 198.4 30.1999 201.333 31.5333 199.867C32.8666 198.267 33.5333 192 32.3333 192C31.6666 192 30.7333 193.467 30.1999 195.333ZM2675.53 195.467C2670.07 198.133 2668.2 200.933 2669.8 204.667C2670.6 206.933 2670.87 206.933 2670.87 204.933C2671 202.267 2673.13 201.867 2674.07 204.267C2674.47 205.333 2674.87 204.933 2674.87 203.467C2675 201.467 2675.4 201.333 2677 202.667C2678.6 204 2679 204 2679 202.133C2679 200.933 2679.53 200 2680.2 200C2680.73 200 2681 201.6 2680.6 203.467C2680.07 206.133 2680.47 206.8 2681.8 206.4C2683 206 2683.8 203.467 2684.07 199.6C2684.6 192.4 2683.27 191.867 2675.53 195.467ZM2487 196C2487 198.667 2487.93 198.667 2532.33 198.667C2576.73 198.667 2577.67 198.667 2577.67 196C2577.67 193.333 2576.73 193.333 2532.33 193.333C2487.93 193.333 2487 193.333 2487 196ZM2467 198.667V204.133L2475.27 203.733L2483.67 203.333L2484.47 198.267L2485.27 193.333H2476.07H2467V198.667ZM2392.6 197.333L2382.2 201.333H1707.53C1035.8 201.333 1032.73 201.333 1025 198.667C1017.53 196.133 1013.8 196 934.733 196C862.333 196 852.333 196.267 852.333 198C852.333 199.733 862.467 200 935 200H1017.67L1026.47 203.333L1035.27 206.667H1707.53L2379.67 206.533L2389.67 202.667L2399.67 198.667H2432.6C2464.73 198.667 2465.67 198.533 2465.67 196C2465.67 193.467 2464.73 193.333 2434.33 193.333H2402.87L2392.6 197.333ZM2664.2 196.933C2662.47 199.067 2662.6 199.2 2664.6 197.467C2666.87 195.733 2667.53 194.667 2666.47 194.667C2666.2 194.667 2665.13 195.733 2664.2 196.933ZM2261.13 196.133C2261.53 196.933 2261.13 198.133 2260.2 198.8C2259.13 199.467 2283.93 200 2319.13 200C2378.2 200 2379.93 199.867 2382.33 197.333C2384.73 194.667 2384.6 194.667 2322.47 194.667C2277.13 194.667 2260.47 195.067 2261.13 196.133ZM1991.8 196.133C1992.2 196.933 1991.8 198.133 1990.87 198.8C1989.8 199.467 2000.87 200 2017.8 200C2042.33 200 2046.87 199.733 2047.53 198C2047.93 196.8 2049.93 196 2052.33 196C2055 196 2056.33 196.667 2056.33 198C2056.33 199.733 2061.13 200 2091.67 200C2125.27 200 2127.13 199.867 2129.67 197.333L2132.33 194.667H2061.53C2010.07 194.667 1991.13 195.067 1991.8 196.133ZM1801.13 196.133C1801.53 196.933 1801.13 198.133 1800.2 198.8C1799.13 199.467 1810.6 200 1827.93 200C1855.93 200 1857.8 199.867 1860.33 197.333L1863 194.667H1831.53C1808.87 194.667 1800.47 195.067 1801.13 196.133ZM1556.73 195.6C1557.27 196 1557 197.2 1556.2 198.267C1554.87 199.733 1564.07 200 1610.87 200C1665.27 200 1667.13 199.867 1669.67 197.333L1672.33 194.667H1614.07C1582.07 194.667 1556.33 195.067 1556.73 195.6ZM1311.8 196.133C1312.2 196.933 1311.8 198.133 1310.87 198.8C1309.8 199.467 1333.27 200 1366.6 200C1415.53 200 1424.33 199.733 1424.33 198.133C1424.33 197.067 1425.13 195.867 1425.93 195.6C1426.87 195.2 1401.4 194.8 1369.27 194.8C1326.73 194.667 1311.13 195.067 1311.8 196.133ZM1134.07 195.6C1134.6 196 1134.33 197.2 1133.53 198.267C1132.2 199.733 1138.6 200 1171.53 200C1195.93 200 1210.87 199.467 1210.33 198.8C1209.93 198 1210.73 196.933 1211.93 196.133C1213.67 195.2 1202.33 194.8 1173.8 194.667C1151.53 194.667 1133.67 195.067 1134.07 195.6ZM1123 196C1121.53 196.933 1122.07 197.333 1125.27 197.333C1127.67 197.333 1129.67 196.667 1129.67 196C1129.67 194.267 1125.67 194.267 1123 196ZM1052.73 195.6C1053.27 196 1053 197.2 1052.2 198.267C1050.87 199.733 1056.33 200 1084.07 200C1116.2 200 1117.4 199.867 1118.07 197.333C1118.73 194.667 1118.07 194.667 1085.27 194.667C1066.87 194.667 1052.33 195.067 1052.73 195.6ZM647.8 196.667C647.4 197.867 645.4 198.667 642.867 198.667C639.667 198.667 638.867 198.133 639.533 196.667C640.2 194.933 636.867 194.667 614.867 194.667C596.6 194.667 589.8 195.067 590.467 196.133C590.867 196.933 590.467 198.133 589.533 198.8C588.467 199.467 615.4 200 653.267 200C709.133 200 719 199.733 719 198.133C719 197.067 719.8 195.867 720.6 195.6C721.533 195.2 705.8 194.8 685.533 194.8C653.933 194.667 648.467 194.933 647.8 196.667ZM330.6 197.333C329.933 200 330.6 200 394.6 200C434.467 200 458.867 199.467 458.333 198.8C457.933 198 458.733 196.933 459.933 196.133C461.667 195.2 442.467 194.8 396.867 194.667C332.467 194.667 331.267 194.667 330.6 197.333ZM153.667 196.533C153.667 197.6 152.867 198.8 151.933 199.067C151.133 199.467 168.2 199.867 189.933 199.867C223.533 200 229.667 199.733 229.667 198.133C229.667 197.067 230.733 195.867 231.933 195.6C233.267 195.2 216.2 194.933 193.933 194.8C160.067 194.667 153.667 194.933 153.667 196.533ZM142.333 196C140.067 196.933 140.333 197.2 143.933 197.2C146.333 197.333 148.333 196.667 148.333 196C148.333 194.4 146.067 194.4 142.333 196ZM118.333 197.333C115.933 200 116.067 200 125.933 200C134.867 200 136.067 199.733 136.733 197.333C137.4 194.933 136.733 194.667 129.133 194.667C122.467 194.667 120.2 195.2 118.333 197.333ZM2137.67 197.333C2137.67 198.267 2158.33 198.667 2197 198.667C2235.67 198.667 2256.33 198.267 2256.33 197.333C2256.33 196.4 2235.67 196 2197 196C2158.33 196 2137.67 196.4 2137.67 197.333ZM2131 198.133C2131 198.4 2132.2 198.667 2133.67 198.667C2135.13 198.667 2136.33 198.133 2136.33 197.467C2136.33 196.8 2135.13 196.533 2133.67 196.933C2132.2 197.333 2131 197.867 2131 198.133ZM1868.33 197.333C1868.33 198.267 1889 198.667 1927.67 198.667C1966.33 198.667 1987 198.267 1987 197.333C1987 196.4 1966.33 196 1927.67 196C1889 196 1868.33 196.4 1868.33 197.333ZM1861.67 198.133C1861.67 198.4 1862.87 198.667 1864.33 198.667C1865.8 198.667 1867 198.133 1867 197.467C1867 196.8 1865.8 196.533 1864.33 196.933C1862.87 197.333 1861.67 197.867 1861.67 198.133ZM1740.33 197.333C1740.33 198.133 1750.6 198.667 1768.33 198.667C1786.07 198.667 1796.33 198.133 1796.33 197.333C1796.33 196.533 1786.07 196 1768.33 196C1750.6 196 1740.33 196.533 1740.33 197.333ZM1677.67 197.333C1677.67 198.133 1684.73 198.667 1696.33 198.667C1707.93 198.667 1715 198.133 1715 197.333C1715 196.533 1707.93 196 1696.33 196C1684.73 196 1677.67 196.533 1677.67 197.333ZM1672.33 197.333C1670.73 198.4 1670.87 198.667 1673.27 198.667C1675 198.667 1676.33 198 1676.33 197.333C1676.33 195.6 1674.87 195.6 1672.33 197.333ZM1432.33 197.333C1432.33 198.267 1453.27 198.667 1492.33 198.667C1531.4 198.667 1552.33 198.267 1552.33 197.333C1552.33 196.4 1531.4 196 1492.33 196C1453.27 196 1432.33 196.4 1432.33 197.333ZM1425.67 198.133C1425.67 198.4 1426.87 198.667 1428.33 198.667C1429.8 198.667 1431 198.133 1431 197.467C1431 196.8 1429.8 196.533 1428.33 196.933C1426.87 197.333 1425.67 197.867 1425.67 198.133ZM1219 197.333C1219 198.133 1234.6 198.667 1263 198.667C1291.4 198.667 1307 198.133 1307 197.333C1307 196.533 1291.4 196 1263 196C1234.6 196 1219 196.533 1219 197.333ZM1212.33 198.133C1212.33 198.4 1213.53 198.667 1215 198.667C1216.47 198.667 1217.67 198.133 1217.67 197.467C1217.67 196.8 1216.47 196.533 1215 196.933C1213.53 197.333 1212.33 197.867 1212.33 198.133ZM801.667 197.333C801.667 198.133 810.067 198.667 824.333 198.667C838.6 198.667 847 198.133 847 197.333C847 196.533 838.6 196 824.333 196C810.067 196 801.667 196.533 801.667 197.333ZM728.333 197.333C728.333 198.133 737.267 198.667 752.333 198.667C767.4 198.667 776.333 198.133 776.333 197.333C776.333 196.533 767.4 196 752.333 196C737.267 196 728.333 196.533 728.333 197.333ZM722.333 197.333C719.933 198.4 720.067 198.533 723.267 198.533C725.4 198.667 727 198 727 197.333C727 195.733 725.933 195.733 722.333 197.333ZM642.067 196.8C642.467 197.2 643.667 197.333 644.6 196.933C645.667 196.533 645.267 196.133 643.8 196.133C642.333 196 641.533 196.4 642.067 196.8ZM467 197.333C467 198.267 487.667 198.667 526.333 198.667C565 198.667 585.667 198.267 585.667 197.333C585.667 196.4 565 196 526.333 196C487.667 196 467 196.4 467 197.333ZM460.333 198.133C460.333 198.4 461.533 198.667 463 198.667C464.467 198.667 465.667 198.133 465.667 197.467C465.667 196.8 464.467 196.533 463 196.933C461.533 197.333 460.333 197.867 460.333 198.133ZM237.667 197.333C237.667 198.133 253.4 198.667 282.333 198.667C311.267 198.667 327 198.133 327 197.333C327 196.533 311.267 196 282.333 196C253.4 196 237.667 196.533 237.667 197.333ZM2690.07 198.133C2690.47 198.533 2691.67 198.667 2692.6 198.267C2693.67 197.867 2693.27 197.467 2691.8 197.467C2690.33 197.333 2689.53 197.733 2690.07 198.133ZM2597.27 198.267C2606.87 198.533 2623.13 198.533 2633.27 198.267C2643.4 198.133 2635.4 197.867 2615.67 197.867C2595.8 197.867 2587.53 198.133 2597.27 198.267ZM232.733 198.133C233.133 198.533 234.333 198.667 235.267 198.267C236.333 197.867 235.933 197.467 234.467 197.467C233 197.333 232.2 197.733 232.733 198.133ZM2529.4 200.933C2550.73 201.2 2585.93 201.2 2607.4 200.933C2628.73 200.8 2611.27 200.667 2568.33 200.667C2525.4 200.667 2507.93 200.8 2529.4 200.933ZM2391 204L2381.27 208H1707.53H1033.67L1024.87 204.667C1014.6 200.8 1007.93 200.267 1009.13 203.333C1010.07 205.6 1004.87 208 999 208C994.2 208 992.6 204.4 996.733 202.667C999.133 201.733 998.6 201.467 993.533 201.467C988.867 201.333 986.867 202 984.467 204.533L981.533 207.6L986.6 208.533C992.467 209.467 2471.67 209.333 2467.67 208.4C2466.2 208 2464.47 207.2 2463.67 206.533C2463 205.867 2461.4 205.333 2460.07 205.333C2458.73 205.333 2457 204.133 2456.07 202.667C2454.47 200.133 2452.87 200 2427.53 200C2400.73 200 2400.73 200 2391 204ZM51.6666 203.067C50.4666 205.6 49.2666 206 40.9999 206.4C32.3333 206.8 31.5333 206.533 30.3333 203.733C29.1333 201.067 27.7999 200.667 20.9999 200.267C13.3999 199.867 12.7333 200.133 8.33327 204.667L3.79994 209.333H459.4C851.8 209.333 915 209.067 915 207.467C915 206.4 915.4 204.667 915.8 203.467C916.467 201.6 914.467 201.333 898.067 201.333C879.933 201.333 879.4 201.467 876.333 204.667L873.267 208H482.867C203.133 208 92.1999 207.6 91.5333 206.533C89.9333 203.733 93.7999 202 103.4 201.2C109 200.8 100.733 200.4 82.9999 200.267C52.9999 200 52.9999 200 51.6666 203.067ZM37.6666 203.467C37.6666 204.8 39.3999 205.333 42.9999 205.333C46.5999 205.333 48.3333 204.8 48.3333 203.6C48.3333 200.8 47.5333 200.533 42.3333 201.067C39.5333 201.467 37.6666 202.4 37.6666 203.467ZM2486.07 204.267C2486.47 205.333 2486.87 204.933 2486.87 203.467C2487 202 2486.6 201.2 2486.2 201.733C2485.8 202.133 2485.67 203.333 2486.07 204.267ZM2458.6 202.267C2459.53 202.533 2461.13 202.533 2461.93 202.267C2462.87 201.867 2462.2 201.6 2460.33 201.6C2458.47 201.6 2457.8 201.867 2458.6 202.267ZM975.8 203.333C974.6 206.8 978.867 207.333 982.067 204.133L984.867 201.333H980.733C978.2 201.333 976.333 202.133 975.8 203.333ZM919 202.933C919 204.267 969.267 204.267 970.067 202.933C970.467 202.4 959.133 202 944.867 202C930.6 202 919 202.4 919 202.933ZM873.667 202.667C873.667 203.333 873.933 204 874.2 204C874.6 204 875.267 203.333 875.667 202.667C876.067 201.867 875.8 201.333 875.133 201.333C874.333 201.333 873.667 201.867 873.667 202.667ZM113.667 204C113.667 206.667 114.6 206.667 493 206.667C871.4 206.667 872.333 206.667 872.333 204C872.333 201.333 871.4 201.333 493 201.333C114.6 201.333 113.667 201.333 113.667 204ZM33.6666 203.333C33.6666 204.4 34.1999 205.333 34.9999 205.333C35.6666 205.333 36.3333 204.4 36.3333 203.333C36.3333 202.267 35.6666 201.333 34.9999 201.333C34.1999 201.333 33.6666 202.267 33.6666 203.333ZM2666.07 205.6C2666.47 206.667 2666.87 206.267 2666.87 204.8C2667 203.333 2666.6 202.533 2666.2 203.067C2665.8 203.467 2665.67 204.667 2666.07 205.6ZM103 204C103 204.667 105.133 205.333 107.667 205.333C110.2 205.333 112.333 204.667 112.333 204C112.333 203.2 110.2 202.667 107.667 202.667C105.133 202.667 103 203.2 103 204ZM93.7999 204.8C93.5333 205.067 93.5333 205.6 93.9333 206C95.1333 207.2 101.667 205.2 101.667 203.733C101.667 202.533 95.1333 203.333 93.7999 204.8ZM2528.73 204.933C2550.47 205.2 2586.2 205.2 2608.07 204.933C2629.8 204.8 2611.93 204.667 2568.33 204.667C2524.73 204.667 2506.87 204.8 2528.73 204.933ZM916.333 206.667C916.333 207.467 926.067 208 943 208C967.133 208 970.2 208.267 974.6 210.667C980.6 213.867 985.667 214.133 985.667 211.333C985.667 210 984.333 209.333 981.267 209.333C979 209.333 975.8 208.4 974.467 207.333C972.333 205.733 966.467 205.333 944.067 205.333C926.467 205.333 916.333 205.867 916.333 206.667ZM2505.67 208.4C2495 208.533 2524.87 208.933 2571.93 209.067C2619.13 209.2 2657.67 208.933 2657.67 208.267C2657.67 207.467 2554.2 207.467 2505.67 208.4ZM2473.93 208.933C2476.07 209.2 2479.27 209.2 2481.27 208.933C2483.4 208.667 2481.67 208.4 2477.67 208.4C2473.67 208.4 2471.93 208.667 2473.93 208.933ZM987 212.667C987 214.4 1082.33 214.667 1827 214.667C2572.07 214.667 2667 214.4 2667 212.667C2667 210.933 2572.07 210.667 1827 210.667C1082.33 210.667 987 210.933 987 212.667ZM1.66661 212.667C1.66661 214.4 57.3999 214.667 483.667 214.667C911.667 214.667 965.667 214.4 965.667 212.667C965.667 210.933 911.667 210.667 483.667 210.667C57.3999 210.667 1.66661 210.933 1.66661 212.667ZM1120.33 221.2C1120.33 227.333 1122.2 228.267 1131 226.133C1136.47 224.8 1137 224.267 1137.4 220.267L1137.8 216H1129.13H1120.33V221.2ZM1118.07 224.267C1118.33 226 1118.6 224.667 1118.6 221.333C1118.6 218 1118.33 216.667 1118.07 218.267C1117.8 220 1117.8 222.667 1118.07 224.267ZM1115.4 222.933C1115.67 224.667 1115.93 223.6 1115.93 220.667C1116.07 217.733 1115.8 216.4 1115.4 217.6C1115.13 218.933 1115.13 221.333 1115.4 222.933ZM140.333 221.333C140.333 226.933 140.6 227.2 147.667 226.667C153.933 226.267 156.333 224.4 156.333 220C156.333 216 156.333 216 148.333 216H140.333V221.333ZM136.333 221.333C136.333 224.267 136.867 226.667 137.667 226.667C138.333 226.667 139 224.267 139 221.333C139 218.4 138.333 216 137.667 216C136.867 216 136.333 218.4 136.333 221.333ZM134.067 222.933C134.333 224.667 134.6 223.6 134.6 220.667C134.733 217.733 134.467 216.4 134.067 217.6C133.8 218.933 133.8 221.333 134.067 222.933Z" fill="black"/>
<path d="M28.7333 203.2C29.6667 205.467 24.3333 208 18.4667 208C13.2667 208 10.8667 204.667 15 203.333C16.4667 202.8 18.3333 202.933 19.1333 203.467C20.2 204 20.3333 203.867 19.8 202.933C19.1333 201.867 20.3333 201.333 23.4 201.333C26.0667 201.333 28.3333 202.133 28.7333 203.2Z" fill="black"/>
</svg>
