<?xml version="1.0" standalone="no"?>
<!DOCTYPE svg PUBLIC "-//W3C//DTD SVG 20010904//EN"
 "http://www.w3.org/TR/2001/REC-SVG-20010904/DTD/svg10.dtd">
<svg version="1.0" xmlns="http://www.w3.org/2000/svg"
  viewBox="0 0 1066.000000 198.000000"
 preserveAspectRatio="xMidYMid meet">

<g transform="translate(0.000000,198.000000) scale(0.100000,-0.100000)"
fill="#000000" stroke="none">
<path d="M3435 1560 c-3 -5 -26 -10 -51 -10 -75 0 -205 -52 -231 -92 -4 -7
-10 -47 -13 -88 l-5 -75 -215 0 -215 0 -5 88 c-6 106 -19 122 -106 133 -109
13 -244 -10 -293 -52 -30 -25 -30 -26 -33 -142 l-3 -117 -550 -5 c-302 -3
-557 -9 -566 -13 -10 -5 -35 -3 -58 3 l-41 11 0 118 c0 118 0 119 -27 137 -37
25 -154 26 -200 1 -66 -35 -73 -51 -73 -159 l0 -98 -136 0 -136 0 -168 -162
-168 -163 -1 -237 c-1 -225 0 -239 19 -258 24 -24 53 -26 70 -5 17 20 69 45
95 45 12 0 39 13 60 30 34 27 45 30 111 30 71 0 76 2 114 36 33 30 40 43 40
73 0 46 -7 56 -52 70 -98 32 13 57 199 45 109 -7 245 8 280 31 19 13 124 15
752 15 l730 0 3 -37 3 -38 62 -3 c58 -3 62 -4 65 -29 3 -25 14 -36 51 -47 14
-4 17 -17 17 -70 0 -93 30 -116 147 -116 40 0 50 5 104 57 l59 56 0 62 c0 86
4 88 142 80 120 -7 237 -8 383 -3 50 2 145 -5 212 -15 109 -15 221 -17 1094
-17 l972 0 -7 -125 c-7 -123 -7 -125 17 -149 32 -32 83 -46 193 -53 70 -4 97
-2 120 10 20 10 35 12 45 6 8 -5 138 -10 299 -10 157 0 317 -3 355 -5 66 -5
181 10 283 35 64 17 126 48 157 81 l29 30 733 0 734 0 56 -43 56 -42 516 -3
c492 -2 516 -3 522 -21 22 -57 88 -26 218 102 123 121 140 154 141 258 0 63
-3 79 -20 94 -17 15 -20 31 -20 91 0 40 -4 84 -10 98 l-10 26 -477 -1 c-343 0
-488 -3 -513 -12 -38 -13 -47 -34 -49 -109 -1 -58 -22 -73 -89 -65 -40 4 -49
2 -71 -22 l-26 -26 -845 5 -845 5 -3 40 c-2 33 2 45 23 65 20 19 25 33 25 76
0 36 -5 56 -17 65 -13 11 -86 15 -358 17 l-343 3 5 62 c2 34 0 68 -5 75 -7 10
-257 12 -1262 12 l-1254 0 -25 24 c-34 31 -52 35 -213 51 -75 7 -141 16 -147
19 -6 4 -11 40 -11 88 0 76 -1 81 -30 108 -30 28 -73 43 -180 60 -107 18 -129
20 -135 10z m165 -46 c87 -20 121 -35 117 -47 -18 -56 -249 -104 -368 -78 -94
22 -149 42 -149 56 0 27 82 60 195 78 54 9 147 5 205 -9z m-982 -30 c43 -9 31
-29 -26 -45 -50 -15 -255 -19 -268 -6 -37 37 178 74 294 51z m1132 -43 c0 -24
-49 -54 -124 -75 -71 -21 -280 -34 -290 -18 -5 8 20 11 81 10 48 -1 115 4 148
11 72 15 163 55 171 76 8 21 14 19 14 -4z m-2780 -1 c0 -5 -10 -12 -22 -14
-13 -3 -36 -7 -51 -11 -16 -3 -38 -3 -50 1 -20 6 -19 8 13 20 42 15 110 18
110 4z m1709 -137 c1 -80 0 -82 -29 -103 -31 -22 -139 -44 -153 -31 -4 4 -6
52 -5 107 l3 99 50 6 c28 4 66 13 85 21 45 19 48 12 49 -99z m519 93 c3 -12
-1 -17 -10 -14 -7 3 -15 13 -16 22 -3 12 1 17 10 14 7 -3 15 -13 16 -22z
m-2328 -19 c51 -4 50 -4 -9 -3 -48 1 -66 5 -69 16 -4 12 -2 13 9 3 8 -6 39
-14 69 -16z m2416 3 c8 0 14 -6 14 -14 0 -11 -7 -12 -35 -4 -19 6 -32 15 -29
20 3 5 13 7 21 4 8 -3 21 -6 29 -6z m449 -190 c-9 -10 -48 -28 -88 -41 -60
-20 -93 -24 -197 -24 l-125 0 0 95 0 95 49 -3 c103 -7 271 24 345 62 l26 14 3
-90 c2 -71 -1 -94 -13 -108z m-2705 61 c0 -100 -3 -120 -17 -133 -37 -32 -173
-49 -214 -28 -17 10 -19 22 -19 135 l0 125 88 0 c49 1 100 7 117 14 17 7 33
11 38 9 4 -2 7 -57 7 -122z m1307 -28 c-2 -32 -3 -8 -3 52 0 61 1 87 3 58 2
-29 2 -78 0 -110z m126 143 c3 -8 3 -57 0 -110 l-6 -97 -41 3 -41 3 -3 94 c-1
52 -1 100 2 108 7 18 82 17 89 -1z m735 -104 c3 -85 1 -93 -15 -90 -16 3 -18
16 -21 96 -3 85 -1 93 15 90 16 -3 18 -16 21 -96z m76 68 c25 -9 26 -12 26
-99 0 -53 -4 -93 -11 -96 -5 -4 -23 -1 -40 5 l-29 12 0 94 c0 101 2 104 54 84z
m-150 -66 c12 -4 16 -20 16 -55 0 -37 7 -58 28 -89 42 -61 83 -73 233 -67 143
5 198 16 274 53 68 34 96 64 104 111 6 37 6 38 51 35 76 -4 240 -26 240 -32 0
-3 -33 -38 -72 -77 l-73 -72 -90 -10 c-237 -27 -351 -31 -911 -31 -610 0 -648
2 -684 37 -13 13 -11 14 20 7 63 -16 299 -9 365 10 68 20 120 49 129 72 8 21
-9 51 -34 59 -19 6 -27 35 -13 48 8 9 396 9 417 1z m1006 -78 c0 -6 -29 -41
-65 -76 -59 -59 -66 -63 -81 -48 -14 14 -10 21 50 81 42 42 72 64 81 61 8 -4
15 -11 15 -18z m-1405 -16 c0 -23 -102 -67 -172 -75 -59 -7 -63 -6 -63 13 0
22 11 27 80 37 25 4 61 15 80 25 41 21 75 21 75 0z m-535 -15 c-23 -25 -25
-25 -189 -25 -91 0 -183 -5 -205 -11 -37 -10 -156 -113 -156 -134 1 -38 13
-40 277 -45 184 -4 264 -9 281 -18 12 -7 22 -15 22 -17 0 -3 -293 -5 -651 -5
l-650 0 3 27 c3 24 9 29 56 39 28 7 70 19 92 28 32 13 41 13 47 2 20 -33 72
-47 183 -47 150 0 284 43 310 99 10 24 9 29 -16 48 -63 51 -283 39 -431 -22
-9 -4 -13 6 -13 35 0 74 -21 71 554 71 l509 0 -23 -25z m4450 18 c0 -13 -236
-245 -264 -258 -25 -13 -212 -15 -1320 -15 -795 0 -1286 4 -1280 9 15 15 159
21 719 29 529 7 530 7 569 30 37 22 41 22 72 7 121 -57 424 4 424 87 0 10 -15
27 -32 38 -42 25 -177 27 -267 5 -58 -15 -61 -15 -81 5 -20 20 -30 20 -499 20
-264 0 -486 3 -495 6 -9 3 -16 15 -16 25 0 19 27 19 1235 19 679 0 1235 -3
1235 -7z m-5915 -12 c5 -10 -18 -15 -104 -25 -39 -4 -53 -13 -128 -88 -45 -45
-83 -88 -83 -94 0 -19 26 -24 138 -24 139 0 272 -11 272 -21 0 -10 -481 -12
-530 -3 l-32 7 128 128 129 129 102 0 c56 0 104 -4 108 -9z m370 -3 c30 -13
31 -20 8 -39 -33 -26 -62 -39 -68 -29 -3 5 -1 11 5 15 5 3 10 16 10 29 0 20 7
36 16 36 2 0 15 -5 29 -12z m1198 -14 c10 -10 -12 -44 -28 -44 -21 0 -28 19
-15 35 13 16 32 19 43 9z m4377 -38 c0 -28 -17 -49 -133 -164 -74 -73 -137
-132 -140 -132 -4 0 -7 15 -7 34 0 31 14 49 133 169 72 73 135 132 140 130 4
-2 7 -19 7 -37z m-5920 5 c0 -11 12 -29 28 -40 l27 -20 -28 -1 c-31 0 -87 25
-87 40 0 10 39 40 52 40 5 0 8 -9 8 -19z m1584 -5 c-6 -16 -24 -23 -24 -8 0
10 22 33 27 28 2 -2 1 -11 -3 -20z m126 4 c0 -17 -7 -20 -50 -20 -43 0 -50 3
-50 20 0 17 7 20 50 20 43 0 50 -3 50 -20z m-580 -50 c0 -37 -2 -40 -37 -49
-77 -20 -78 -20 -81 25 -3 37 0 42 25 52 32 13 74 20 86 14 4 -2 7 -21 7 -42z
m256 19 c-3 -17 -6 -38 -6 -45 0 -11 -23 -14 -110 -14 l-110 0 0 38 c0 21 3
42 7 45 3 4 56 7 116 7 l110 0 -7 -31z m2044 -14 c0 -43 -1 -45 -30 -45 -39 0
-40 24 -3 62 15 15 28 28 30 28 2 0 3 -20 3 -45z m910 0 l0 -45 -440 0 -440 0
0 38 c0 21 3 42 7 45 3 4 201 7 440 7 l433 0 0 -45z m70 24 c0 -4 -9 -13 -19
-19 -24 -12 -38 4 -21 25 12 14 40 10 40 -6z m-4500 -35 c0 -25 5 -54 10 -65
10 -18 7 -19 -75 -19 -47 0 -85 3 -85 7 0 16 115 123 132 123 15 0 18 -9 18
-46z m914 26 c27 -27 6 -39 -49 -29 -72 14 -207 1 -298 -28 -79 -26 -100 -26
-77 2 20 24 48 37 120 57 84 22 281 21 304 -2z m3908 10 c45 -13 55 -27 35
-48 -14 -13 -22 -14 -55 -4 -22 7 -57 12 -78 12 -52 0 -160 -26 -195 -47 -32
-19 -57 -7 -46 21 19 48 244 92 339 66z m-4365 -35 c-16 -41 -216 -91 -320
-80 -80 8 -107 20 -107 46 0 18 4 20 33 13 86 -20 279 1 353 38 32 16 50 8 41
-17z m1081 14 c7 -11 32 -29 54 -39 28 -12 43 -26 45 -41 3 -20 0 -21 -38 -16
-70 9 -113 56 -95 103 8 20 19 18 34 -7z m1882 -44 c0 -25 -4 -45 -10 -45 -5
0 -10 7 -10 15 0 9 -7 18 -16 22 -13 5 -12 9 7 29 12 13 24 24 26 24 2 0 3
-20 3 -45z m-107 13 c5 -18 -23 -37 -55 -38 -18 0 -28 5 -28 15 0 29 74 49 83
23z m-2243 -33 c0 -32 -2 -35 -30 -35 -16 0 -30 3 -30 7 0 7 51 63 57 63 2 0
3 -16 3 -35z m2138 8 c-4 -23 -47 -30 -228 -38 l-145 -6 23 19 c16 15 43 22
95 26 39 3 88 8 107 9 19 2 61 5 93 5 51 2 58 0 55 -15z m1582 -1 c0 -5 -29
-14 -64 -20 -118 -22 -213 -9 -118 16 46 12 182 15 182 4z m1452 -4 c-7 -7
-63 -13 -144 -16 -122 -4 -132 -4 -119 12 11 13 35 16 144 16 100 0 128 -3
119 -12z m471 -3 c-6 -22 -183 -16 -183 6 0 6 36 9 93 7 55 -2 91 -7 90 -13z
m-3911 -17 c-10 -10 -136 -13 -562 -13 -426 0 -552 3 -561 13 -10 10 102 12
561 12 459 0 572 -3 562 -12z m1543 -9 c5 -5 -156 -9 -438 -9 -351 0 -447 3
-447 13 0 9 93 11 437 9 259 -2 442 -7 448 -13z m-2880 1 c4 -7 -50 -10 -157
-9 -97 1 -153 4 -138 9 37 12 288 12 295 0z m4870 0 c12 -20 -17 -40 -56 -40
-28 0 -41 5 -49 19 -9 17 -6 20 18 24 53 8 81 7 87 -3z m55 -10 c0 -11 -7 -20
-15 -20 -17 0 -18 2 -9 24 9 23 24 20 24 -4z m113 14 c13 -5 13 -8 -4 -25 -25
-25 -79 -26 -79 -1 0 10 3 22 7 25 8 9 56 9 76 1z m-432 -51 c-7 -25 -12 -28
-59 -31 -52 -3 -52 -3 -52 27 l0 31 59 0 59 0 -7 -27z m-161 -24 c0 -5 -4 -9
-10 -9 -5 0 -10 7 -10 16 0 8 5 12 10 9 6 -3 10 -10 10 -16z m477 -4 c5 -14 8
-14 24 1 17 15 24 16 60 5 51 -16 41 -28 -32 -41 -126 -23 -168 -24 -204 -4
-19 10 -35 21 -35 25 0 10 74 26 128 28 39 1 54 -3 59 -14z m254 -27 c-22 -22
-35 -29 -38 -20 -3 6 -13 12 -24 12 -12 0 -19 7 -19 20 0 18 7 20 57 20 l58 0
-34 -32z m-6638 -5 c-78 -2 -208 -2 -290 0 -81 1 -17 3 142 3 160 0 226 -2
148 -3z m5699 -44 c2 -23 -1 -43 -7 -45 -5 -2 -1238 -3 -2740 -2 -2636 3
-2730 4 -2733 21 -2 10 -1 29 2 43 l6 24 2734 0 2734 0 4 -41z m358 6 c33 -13
31 -13 -55 -13 -86 0 -88 0 -55 13 19 7 44 13 55 13 11 0 36 -6 55 -13z m474
0 c-13 -10 -42 -14 -94 -13 l-75 0 50 13 c28 7 70 14 94 14 42 1 43 0 25 -14z
m136 -90 c0 -63 -4 -105 -10 -105 -6 0 -10 42 -10 105 0 63 4 105 10 105 6 0
10 -42 10 -105z m-843 79 c-3 -3 -12 -4 -19 -1 -8 3 -5 6 6 6 11 1 17 -2 13
-5z m-6183 -13 c4 -5 1 -31 -4 -58 -6 -26 -17 -79 -24 -118 l-14 -70 -1 121
c-1 66 2 124 6 127 9 10 31 9 37 -2z m555 -21 c8 -23 7 -32 -2 -35 -7 -2 -119
-6 -250 -7 l-238 -3 7 30 c3 17 8 33 11 38 2 4 107 7 233 7 l228 0 11 -30z
m6356 11 c-13 -11 -73 -31 -93 -31 -31 0 4 20 49 29 24 5 46 9 49 10 2 1 0 -3
-5 -8z m-7048 -273 c-1 -51 -3 -10 -3 92 0 102 2 143 3 93 2 -51 2 -135 0
-185z m6908 252 c4 -7 -108 -10 -330 -10 -222 0 -334 3 -330 10 4 6 125 10
330 10 205 0 326 -4 330 -10z m205 -75 c0 -63 -1 -65 -25 -65 -23 0 -25 4 -25
43 0 41 21 87 41 87 5 0 9 -29 9 -65z m2753 -29 c5 -55 4 -82 -4 -92 -9 -12
-86 -14 -434 -14 -233 0 -430 3 -439 6 -13 5 -16 23 -16 88 0 46 3 86 7 89 3
4 203 6 442 5 l436 -3 8 -79z m-4168 54 c39 -9 156 -13 790 -26 l299 -7 91
-66 90 -66 866 -5 866 -5 64 -45 64 -45 480 -5 480 -5 3 -33 3 -32 -496 0
c-542 0 -513 -3 -594 59 l-34 26 -868 5 -867 5 -44 33 c-179 134 -175 132
-258 132 -42 0 -81 5 -86 10 -7 7 -91 9 -250 5 -131 -3 -750 -8 -1374 -10
-1099 -5 -1139 -5 -1269 15 -122 18 -184 20 -682 20 l-549 0 0 31 0 30 1618
-6 c896 -3 1635 -10 1657 -15z m3030 -60 l-80 -80 -819 0 c-451 0 -816 3 -812
8 4 4 258 9 564 12 l557 5 50 25 c35 17 50 31 50 45 0 43 -23 45 -542 45 -317
0 -494 4 -498 10 -4 7 266 10 802 10 l808 0 -80 -80z m155 72 c0 -4 -36 -43
-79 -86 -60 -59 -84 -77 -97 -72 -15 6 -4 20 61 86 69 70 115 98 115 72z
m-8820 -166 c0 -99 -4 -167 -10 -171 -7 -4 -10 53 -10 164 0 107 4 171 10 171
6 0 10 -61 10 -164z m10007 146 c9 -6 -6 -26 -47 -67 l-60 -59 0 60 c0 33 3
64 7 67 9 10 85 8 100 -1z m-4 -164 c-42 -43 -81 -78 -85 -78 -5 0 -8 19 -8
42 0 40 5 48 83 126 l82 83 3 -47 c3 -47 3 -48 -75 -126z m-1948 117 l0 -30
-462 -3 -463 -2 0 28 c0 16 3 32 7 35 3 4 212 6 462 5 l456 -3 0 -30z m-7968
-12 c-3 -10 -5 -4 -5 12 0 17 2 24 5 18 2 -7 2 -21 0 -30z m6797 2 c48 -38 56
-52 31 -61 -13 -5 -47 16 -118 73 l-29 23 35 0 c24 0 48 -11 81 -35z m1256 21
c0 -14 -21 -26 -46 -26 -8 0 -14 9 -14 20 0 16 7 20 30 20 19 0 30 -5 30 -14z
m700 -22 c0 -24 -8 -46 -25 -66 -14 -16 -25 -38 -25 -48 0 -9 -7 -23 -16 -31
-13 -11 -21 -10 -50 6 -19 10 -34 23 -34 29 0 12 130 146 142 146 5 0 8 -16 8
-36z m-6100 -14 c0 -19 -7 -20 -110 -20 -103 0 -110 1 -110 20 0 19 7 20 110
20 103 0 110 -1 110 -20z m6149 -42 c1 -10 -3 -18 -9 -18 -5 0 -10 19 -9 43 1
36 2 38 9 17 4 -14 8 -33 9 -42z m-8541 23 c11 -6 11 -10 -1 -19 -11 -9 -28
-9 -73 0 -68 13 -68 13 -59 28 7 12 107 5 133 -9z m5642 -81 l0 -80 -100 0
-100 0 0 73 c0 41 3 77 7 80 3 4 48 7 100 7 l93 0 0 -80z m648 30 c2 -24 1
-59 -3 -77 -6 -31 -8 -33 -50 -33 -31 0 -45 4 -45 13 0 8 -7 28 -16 45 -8 17
-18 47 -21 67 l-6 36 69 -3 69 -3 3 -45z m-971 -37 c-2 -16 -4 -3 -4 27 0 30
2 43 4 28 2 -16 2 -40 0 -55z m4170 55 c-3 -8 -6 -5 -6 6 -1 11 2 17 5 13 3
-3 4 -12 1 -19z m-7122 -63 l0 -60 -67 -3 -68 -3 0 66 0 66 68 -3 67 -3 0 -60z
m85 26 c0 -45 -15 -62 -25 -30 -8 25 2 69 15 69 6 0 10 -18 10 -39z m3654 31
c6 -10 46 -191 46 -209 0 -10 -50 -13 -240 -13 l-240 0 0 93 c0 50 -3 102 -6
115 l-6 22 220 0 c122 0 223 -4 226 -8z m240 -8 c21 -21 20 -31 -3 -37 -22 -5
-34 14 -25 38 8 19 9 19 28 -1z m-6405 -25 c52 -18 39 -39 -24 -39 -52 0 -55
1 -55 25 0 29 24 33 79 14z m-117 -41 c-9 -9 -12 -7 -12 12 0 19 3 21 12 12 9
-9 9 -15 0 -24z m9676 -36 c2 -46 -2 -71 -13 -89 -25 -37 -39 -23 -45 43 l-5
59 -457 3 -458 2 0 25 0 25 488 -2 487 -3 3 -63z m-3043 21 l40 -28 -33 -3
c-47 -5 -62 3 -62 33 0 32 6 31 55 -2z m-75 -8 c0 -22 -4 -25 -35 -25 -22 0
-35 5 -35 13 0 20 22 37 47 37 18 0 23 -6 23 -25z m-6673 -7 c-3 -8 -6 -5 -6
6 -1 11 2 17 5 13 3 -3 4 -12 1 -19z m6897 -46 c-10 -2 -28 -7 -39 -12 -28
-12 -165 -30 -231 -30 -35 0 -61 5 -70 14 -30 30 -24 31 190 31 93 0 161 -1
150 -3z m121 -2 c-28 -46 -385 -120 -385 -80 0 6 3 10 8 10 78 2 299 48 332
70 20 13 53 13 45 0z m-1091 -9 c16 -25 -152 -42 -224 -22 -24 7 -24 7 -5 19
23 13 221 16 229 3z m-249 -42 c22 -4 57 -10 78 -14 20 -3 37 -11 37 -17 0
-15 -118 -5 -155 13 -33 16 -50 47 -19 34 11 -4 37 -11 59 -16z m185 -29 c0
-5 -9 -10 -20 -10 -11 0 -20 5 -20 10 0 6 9 10 20 10 11 0 20 -4 20 -10z m745
0 c-3 -5 -12 -10 -20 -10 -8 0 -17 5 -20 10 -4 6 5 10 20 10 15 0 24 -4 20
-10z"/>
<path d="M2794 1185 c-9 -23 5 -35 43 -35 27 0 34 -4 30 -14 -10 -26 32 -30
64 -7 34 25 51 27 47 5 -2 -9 5 -21 14 -27 14 -9 25 -5 55 19 21 17 39 41 41
53 3 21 1 21 -143 21 -118 0 -147 -3 -151 -15z"/>
<path d="M6125 1121 c-16 -4 -40 -13 -51 -19 -35 -18 -84 -81 -84 -106 0 -19
8 -26 44 -36 38 -10 57 -10 119 4 65 15 79 22 122 66 43 44 47 51 34 67 -8 10
-18 21 -24 25 -12 10 -120 8 -160 -1z m133 -21 c43 0 -21 -67 -87 -89 -43 -14
-138 -15 -146 -1 -10 16 64 79 99 85 17 2 42 6 56 9 14 2 34 2 45 0 11 -2 26
-4 33 -4z"/>
<path d="M8640 726 c-87 -19 -115 -36 -115 -70 0 -39 34 -49 139 -42 100 7
171 38 171 76 0 20 -7 27 -40 36 -50 16 -86 16 -155 0z m167 -30 c11 -11 -24
-34 -69 -47 -50 -13 -190 -8 -195 7 -4 12 58 39 107 48 38 7 148 1 157 -8z"/>
</g>
</svg>
