<svg  height="10" viewBox="0 0 1350 50"  fill="#000000" xmlns="http://www.w3.org/2000/svg">
<path d="M995.067 56.8666C994.133 55.9333 993.333 52.2 993.333 48.7333V42.3333H496.667H0V38.6C0 35.9333 1.86667 33 7.06667 27.9333L14.1333 21H52.1333C90.2667 21 90.2667 21 93.0667 17.9333C94.6667 16.2 96 13.8 96 12.4666C96 9.66665 101.067 5.13331 104.133 4.99998C106.667 4.99998 110.667 9.13331 110.667 11.9333C110.667 13.5333 113.067 14.0666 122.933 14.7333C141.867 15.8 308 14.0666 308 12.7333C308 12.2 310.133 9.26665 312.8 6.33331L317.6 0.99998H328.667H339.733L340.667 6.33331C341.2 9.13331 341.2 12.2 340.667 13C340.133 13.9333 449.333 14.3333 692.4 14.3333H1045.07L1054.4 10.3333L1063.87 6.33331H1099.73C1135.2 6.33331 1135.6 6.33331 1138.4 3.39998C1141.2 0.333313 1141.73 0.333313 1174.67 0.333313C1207.87 0.333313 1208.27 0.333313 1210.67 3.39998C1213.07 6.33331 1213.33 6.33331 1250.93 6.33331C1282 6.33331 1289.2 5.93331 1291.47 4.33331C1295.33 1.66665 1344.4 1.26665 1347.47 3.79998C1349.2 5.26665 1349.47 7.26665 1348.67 14.3333C1347.6 23.8 1346.4 26.3333 1342.53 26.3333C1340.93 26.3333 1340 27.2666 1340 28.7333C1340 33.8 1337.6 34.3333 1313.73 34.3333H1290.67V30.4666C1290.67 28.3333 1289.87 25.1333 1288.93 23.2666C1287.2 20.0666 1286.93 19.9333 1284.27 21.8C1281.87 23.5333 1275.6 23.8 1246.8 23.6666C1213.73 23.6666 1212 23.6666 1207.33 26.4666C1204.13 28.3333 1199.33 29.5333 1193.2 30.0666C1187.87 30.4666 1183.47 31.4 1182.53 32.4666C1181.73 33.5333 1179.73 34.3333 1178.13 34.3333C1176.53 34.3333 1173.47 36.2 1171.33 38.3333L1167.47 42.3333H1096.27H1025.07L1025.33 46.0666C1025.73 52.3333 1025.47 53.1333 1020.67 55.1333C1013.87 57.9333 997.067 59.1333 995.067 56.8666ZM1018.53 53.8C1021.07 53 1023.33 51.5333 1023.73 50.7333C1024.8 47.2666 1000.53 49.2666 996.8 53C992.667 57.1333 1007.07 57.6666 1018.53 53.8ZM1002.67 41.4C1002.67 35.5333 1002.27 34.3333 1000.27 34.3333C996.267 34.3333 994.667 37.2666 994.667 44.4666V51.4L998.667 49.9333C1002.4 48.4666 1002.67 47.9333 1002.67 41.4ZM1010.4 39.9333C1010.8 33.6666 1010.53 33 1008.13 33C1005.6 33 1005.33 33.8 1005.33 40.4666C1005.33 46.7333 1005.73 47.8 1007.73 47.4C1009.47 47.1333 1010.13 45.4 1010.4 39.9333ZM1023.73 40.0666L1023.33 32.3333L1017.73 31.9333L1012 31.5333V38.8666V46.2L1017.07 46.7333C1019.73 47 1022.53 47.2666 1023.07 47.4C1023.6 47.5333 1024 44.2 1023.73 40.0666ZM110.133 37.9333C100 34.8666 103.867 30.7333 117.333 30.2C121.067 29.9333 124.4 29.4 124.8 28.7333C125.2 28.2 100.667 27.6666 70.4 27.6666H15.2L9.33333 33.6666L3.46667 39.6666L59.3333 39.5333C104.667 39.5333 114.267 39.1333 110.133 37.9333ZM155.067 38.7333C149.067 38.4666 138.8 38.4666 132.4 38.7333C126 38.8666 130.933 39.1333 143.333 39.1333C155.867 39.1333 161.067 38.8666 155.067 38.7333ZM188.4 38.7333C184.533 38.4666 178.133 38.4666 174.4 38.7333C170.533 39 173.6 39.1333 181.333 39.1333C189.067 39.1333 192.133 39 188.4 38.7333ZM965.333 38.3333C952.533 37.8 941.867 37.2666 941.733 37.1333C941.467 37.1333 941.333 36.0666 941.333 35C941.333 31.1333 948.267 30.2 972.933 30.3333C988 30.3333 997.467 29.8 998 29C998.533 28.0666 870.933 27.6666 603.467 27.6666C334.8 27.6666 208 28.0666 208 29C208 29.9333 217.867 30.3333 236.4 30.3333C263.867 30.2 269.333 30.6 269.333 33.1333C269.333 36.4666 260.4 37.5333 229.333 38.3333C211.333 38.7333 374.933 39.1333 592.667 39.1333C810.533 39.1333 978.133 38.7333 965.333 38.3333ZM1173.33 33.6666L1179.2 27.6666H1105.73C1065.2 27.6666 1031.87 28.2 1031.47 28.8666C1031.07 29.4 1040.93 30.0666 1053.47 30.0666C1075.73 30.3333 1078.67 30.6 1078.67 33C1078.67 36.3333 1071.47 37.5333 1048.67 38.3333C1032.53 38.8666 1048.13 39.2666 1096 39.4L1167.47 39.6666L1173.33 33.6666ZM13.3333 25.8C13.3333 25 10.6667 27.1333 7.33333 30.3333C4 33.5333 1.33333 36.8666 1.33333 37.5333C1.33333 38.3333 4 36.2 7.33333 33C10.6667 29.8 13.3333 26.4666 13.3333 25.8ZM114.667 33.5333C114.667 32.0666 114 31.6666 112.533 32.2C111.333 32.6 109.6 33 108.533 33C107.467 33 106.667 33.6666 106.667 34.3333C106.667 35.1333 108.533 35.6666 110.667 35.6666C113.467 35.6666 114.667 35 114.667 33.5333ZM250.667 34.3333C250.667 33.4 230.933 33 191.467 33C159.067 33 128.667 32.6 124.133 32.2C117.2 31.4 116 31.6666 116 33.4C116 35.2666 122.667 35.5333 183.333 35.6666C228.4 35.6666 250.667 35.2666 250.667 34.3333ZM263.6 34.8666C267.867 33.6666 266 31.6666 260.667 31.6666C255.467 31.6666 252 32.7333 252 34.4666C252 35.8 259.2 36.0666 263.6 34.8666ZM950.667 33.8C950.667 32.6 949.6 32.2 947.333 32.7333C942.4 33.6666 941.867 35.6666 946.533 35.6666C949.2 35.6666 950.667 35 950.667 33.8ZM994.667 34.3333C994.667 33.5333 986.933 33 974 33C961.067 33 953.333 33.5333 953.333 34.3333C953.333 35.1333 961.067 35.6666 974 35.6666C986.933 35.6666 994.667 35.1333 994.667 34.3333ZM1060 34.3333C1060 33.5333 1053.6 33 1043.47 33C1033.73 33 1026.53 33.5333 1026 34.3333C1025.47 35.1333 1031.33 35.6666 1042.53 35.6666C1053.33 35.6666 1060 35.1333 1060 34.3333ZM1074 34.3333C1076.4 33.4 1076.4 33.1333 1074.53 32.3333C1071.07 31 1062.27 32.0666 1061.6 34.0666C1061.07 35.9333 1069.6 36.2 1074 34.3333ZM174.8 28.8666C176 28.2 167.867 27.6666 153.733 27.6666C138.667 27.6666 130.667 28.2 130.667 29C130.667 30.7333 172 30.6 174.8 28.8666ZM204 29C205.333 28.0666 201.733 27.6666 192.4 27.6666C184.8 27.6666 178.4 28.2 178 29C176.933 30.7333 201.333 30.7333 204 29ZM1027.47 28.7333C1028 28.0666 1022.4 27.6666 1014.93 27.6666C1007.47 27.6666 1001.33 28.2 1001.33 28.7333C1001.33 30.2 1026 30.0666 1027.47 28.7333ZM1180.53 24.3333C1181.2 22.6 1115.2 22.3333 598.667 22.3333C82.6667 22.3333 16 22.6 16 24.3333C16 26.0666 82.6667 26.3333 597.867 26.3333C1113.2 26.3333 1179.87 26.0666 1180.53 24.3333ZM1265.87 20.3333C1265.33 19.1333 1266.13 17.9333 1268.13 17.1333C1271.07 15.9333 1270.8 15.8 1266.4 15.8C1262.53 15.6666 1261.6 16.0666 1262.13 17.6666C1262.67 18.8666 1261.87 20.0666 1259.87 20.8666C1256.93 22.0666 1257.2 22.2 1261.6 22.2C1265.47 22.3333 1266.4 21.9333 1265.87 20.3333ZM1281.33 19L1284.4 15.6666H1281.47C1279.6 15.6666 1278.8 16.2 1279.47 17.2666C1280 18.0666 1279.33 19.5333 1278 20.6C1276.53 21.5333 1276.13 22.3333 1276.8 22.3333C1277.6 22.3333 1279.6 20.8666 1281.33 19ZM1344 18.3333V14.3333H1324H1304V18.3333V22.3333H1324H1344V18.3333ZM128 19C128 17.4 125.467 17 112.667 17C99.8667 17 97.3333 17.4 97.3333 19C97.3333 20.6 99.8667 21 112.667 21C125.467 21 128 20.6 128 19ZM174.667 19.6666C174.667 18.8666 166.267 18.3333 152 18.3333C137.733 18.3333 129.333 18.8666 129.333 19.6666C129.333 20.4666 137.733 21 152 21C166.267 21 174.667 20.4666 174.667 19.6666ZM1044 19C1044 17.2666 995.067 17 611.333 17C373.333 17 178.667 17.5333 178.667 18.0666C178.667 18.7333 179.067 19.6666 179.6 20.0666C180 20.6 374.8 21 612.267 21C995.2 21 1044 20.7333 1044 19ZM1057.6 17L1066.93 13H1104.13C1136.27 13 1141.33 12.7333 1141.33 11C1141.33 9.26665 1136 8.99998 1101.47 8.99998H1061.6L1054.13 12.4666C1048.8 14.8666 1046.67 16.6 1046.67 18.4666C1046.67 21.6666 1046.4 21.6666 1057.6 17ZM1059.33 19.6666C1060.4 17.9333 1058.67 17.9333 1056 19.6666C1054.27 20.7333 1054.27 21 1056.27 21C1057.47 21 1058.93 20.4666 1059.33 19.6666ZM1083.07 19.1333C1083.47 18.0666 1085.2 17 1086.93 16.6C1088.67 16.3333 1084.53 15.9333 1077.87 15.8C1067.33 15.6666 1065.47 16.0666 1063.33 18.3333C1060.93 21 1061.07 21 1071.6 21C1079.73 21 1082.53 20.4666 1083.07 19.1333ZM1133.33 19.6666C1133.33 19 1132.4 18.3333 1131.2 18.3333C1130.13 18.3333 1129.6 19 1130 19.6666C1130.4 20.4666 1131.33 21 1132.13 21C1132.8 21 1133.33 20.4666 1133.33 19.6666ZM1136.67 19.8C1137.07 19.1333 1136.8 18.2 1136 17.6666C1135.33 17.2666 1134.67 17.8 1134.67 18.8666C1134.67 21.2666 1135.47 21.6666 1136.67 19.8ZM1164 19C1164 17.4 1162 17 1154 17C1146 17 1144 17.4 1144 19C1144 20.6 1146 21 1154 21C1162 21 1164 20.6 1164 19ZM1188.27 19.4C1188.67 18.3333 1190.93 17.9333 1194.27 18.0666C1197.33 18.3333 1200.13 17.9333 1200.67 17.1333C1201.2 16.0666 1196.53 15.6666 1185.47 15.6666C1170.27 15.6666 1169.33 15.8 1169.33 18.3333C1169.33 20.7333 1170.27 21 1178.53 21C1184.67 21 1188 20.4666 1188.27 19.4ZM1277.2 18.8666C1277.47 18.6 1277.47 18.0666 1277.07 17.6666C1276 16.4666 1268 18.6 1268.8 19.8C1269.47 20.8666 1275.73 20.0666 1277.2 18.8666ZM1297.33 18.8666C1297.33 17.8 1296.8 17.2666 1296 17.6666C1295.33 18.0666 1294.67 19 1294.67 19.8C1294.67 20.4666 1295.33 21 1296 21C1296.8 21 1297.33 20.0666 1297.33 18.8666ZM1088.93 18.8666C1088.53 18.4666 1087.33 18.3333 1086.4 18.7333C1085.33 19.1333 1085.73 19.5333 1087.2 19.5333C1088.67 19.6666 1089.47 19.2666 1088.93 18.8666ZM1127.33 18.3333C1128.4 16.7333 1097.87 16.7333 1094 18.3333C1092.27 19 1097.87 19.5333 1108.93 19.5333C1119.33 19.6666 1126.8 19.1333 1127.33 18.3333ZM1142.67 18.3333C1142.67 17.6666 1142.13 17 1141.33 17C1140.67 17 1140 17.6666 1140 18.3333C1140 19.1333 1140.67 19.6666 1141.33 19.6666C1142.13 19.6666 1142.67 19.1333 1142.67 18.3333ZM1250 18.3333C1249.47 17.5333 1241.6 17 1230.53 17C1219.07 17 1212 17.5333 1212 18.3333C1212 19.1333 1219.33 19.6666 1231.47 19.6666C1244 19.6666 1250.53 19.1333 1250 18.3333ZM1259.87 19.1333C1258.27 17.8 1252 17.1333 1252 18.3333C1252 19 1253.87 19.6666 1256.27 19.6666C1258.53 19.6666 1260.13 19.4 1259.87 19.1333ZM1208.67 17C1208.27 16.3333 1206.67 15.6666 1205.2 15.6666C1203.87 15.6666 1202.67 16.3333 1202.67 17C1202.67 17.8 1204.27 18.3333 1206.13 18.3333C1208 18.3333 1209.2 17.8 1208.67 17ZM109.067 12.0666C108.533 9.13331 103.867 8.33331 100.133 10.3333C95.6 12.7333 96.9333 14.3333 103.467 14.3333C108.533 14.3333 109.467 13.9333 109.067 12.0666ZM317.2 10.6C316.933 8.59998 317.333 6.06665 317.867 4.99998C318.533 3.93331 317.067 4.86665 314.667 7.13331C310.133 11.5333 310.267 14.3333 314.8 14.3333C316.933 14.3333 317.467 13.5333 317.2 10.6ZM1164 8.99998V3.66665H1153.33H1142.67L1143.47 7.39998C1143.87 9.39998 1144.4 11.8 1144.8 12.7333C1145.07 13.8 1148.27 14.3333 1154.67 14.3333H1164V8.99998ZM1292.93 10.7333C1295.87 8.73331 1300.4 8.19998 1318.27 7.93331C1335.87 7.53331 1340 7.13331 1340 5.53331C1340 4.06665 1336.13 3.66665 1318.4 3.66665C1299.07 3.66665 1296.13 3.93331 1292.27 6.33331C1288.13 8.86665 1285.6 8.99998 1227.33 8.99998C1174.27 8.99998 1166.67 9.26665 1166.67 11C1166.67 12.7333 1174.4 13 1228 13C1284.27 13 1289.73 12.8666 1292.93 10.7333ZM328.4 10.7333C327.467 10.4666 325.6 10.4666 324.4 10.7333C323.067 11.1333 323.867 11.4 326 11.4C328.267 11.4 329.2 11.1333 328.4 10.7333ZM337.733 10.7333C336.8 10.4666 334.933 10.4666 333.733 10.7333C332.4 11.1333 333.2 11.4 335.333 11.4C337.6 11.4 338.533 11.1333 337.733 10.7333ZM1346.67 9.66665C1346.67 8.59998 1346.4 7.66665 1346.13 7.66665C1345.87 7.66665 1345.33 8.59998 1344.8 9.66665C1344.4 10.7333 1344.67 11.6666 1345.33 11.6666C1346.13 11.6666 1346.67 10.7333 1346.67 9.66665ZM329.067 6.73331C328.8 5.13331 327.2 4.19998 324.267 3.93331C319.733 3.53331 319.6 3.66665 320.8 6.86665C322 9.93331 329.733 9.79998 329.067 6.73331ZM339.067 6.33331C338.533 4.46665 337.2 3.66665 334.533 3.66665C331.6 3.66665 330.667 4.33331 330.667 6.33331C330.667 8.46665 331.6 8.99998 335.2 8.99998C339.067 8.99998 339.6 8.59998 339.067 6.33331ZM1208.4 5.39998C1208.8 4.73331 1202.67 4.46665 1194.93 4.73331C1168.67 5.26665 1165.87 5.79998 1186.93 6.06665C1198.4 6.19998 1208.13 5.93331 1208.4 5.39998ZM1197.73 2.73331C1192.4 2.46665 1183.47 2.46665 1177.73 2.73331C1172 2.86665 1176.4 3.13331 1187.33 3.13331C1198.4 3.13331 1203.07 2.86665 1197.73 2.73331Z" fill="black"/>
<path d="M14.8 37.2666C11.8667 35.1333 14.1334 31.9333 19.6 30.4666C26.4 28.4666 32.2667 28.6 35.2 30.7333C37.3334 32.3333 37.3334 32.6 34.8 34.8666C31.8667 37.5333 17.7334 39.2666 14.8 37.2666ZM24.2667 34.0666C22.9334 32.7333 18.4 34.0666 19.3334 35.6666C19.7334 36.3333 21.2 36.4666 22.8 36.0666C24.4 35.6666 25.0667 34.8666 24.2667 34.0666ZM32.5334 32.8666C31.4667 31.1333 29.7334 31.4 28.9334 33.5333C28.4 34.8666 28.9334 35.1333 30.8 34.7333C32.1334 34.3333 32.9334 33.5333 32.5334 32.8666Z" fill="black"/>
<path d="M289.467 37.1333C286.4 35.2667 288.8 31.9333 294.267 30.4667C302.667 28.0667 310.667 29.1333 310.667 32.6C310.667 36.7333 294.4 40.2 289.467 37.1333ZM298.533 33.5333C297.467 32.2 296.667 32.0667 295.333 33.4C293.067 35.5333 294 36.8667 297.333 36.0667C299.467 35.5333 299.733 34.8667 298.533 33.5333ZM306.933 32.7333C305.467 31.2667 302.667 32.3333 302.667 34.3333C302.667 34.8667 303.867 35.1333 305.467 34.7333C307.2 34.2 307.733 33.5333 306.933 32.7333Z" fill="black"/>
<path d="M315.333 36.8666C314.8 36.2 315.467 34.3333 316.8 32.8666C318.533 31 320.8 30.3333 326.267 30.3333C333.867 30.3333 335.333 32.0666 330.933 36.0666C328.133 38.6 316.667 39.2666 315.333 36.8666ZM326.4 36.0666C325.067 35.8 322.933 35.8 321.733 36.0666C320.4 36.4666 321.467 36.7333 324 36.7333C326.533 36.7333 327.6 36.4666 326.4 36.0666Z" fill="black"/>
<path d="M837.467 36.4666C836.133 34.8666 836.4 34.0666 838.933 32.4666C845.6 28.0666 860 28.6 860 33.1333C860 37.2666 840.533 40.2 837.467 36.4666ZM847.067 33.5333C846.533 32.0666 845.867 31.9333 844.533 33.1333C841.867 35.2666 842.267 36.8666 845.2 36.0666C846.8 35.6666 847.467 34.6 847.067 33.5333ZM853.867 34.8666C856.533 33.8 856.667 31.6666 854.133 31.6666C853.067 31.6666 852 32.6 851.467 33.6666C850.667 35.9333 850.933 36.0666 853.867 34.8666Z" fill="black"/>
<path d="M340.667 35.6666C339.2 33.4 341.333 31.9333 347.333 31C353.467 30.0666 357.6 31.9333 355.067 34.4666C352.8 36.7333 341.867 37.6666 340.667 35.6666ZM351.333 34.3333C353.333 33.4 352.667 33.1333 348.4 33.1333C345.2 33 342.667 33.6666 342.667 34.3333C342.667 35.9333 347.6 35.9333 351.333 34.3333Z" fill="black"/>
<path d="M380.533 35.5333C378.533 32.2 383.2 31 400.4 30.6C419.333 30.2 424.267 31.4 419.467 35C416.267 37.5333 382 37.9333 380.533 35.5333ZM386.667 34.3333C386.667 33.6667 385.733 33 384.533 33C383.467 33 382.933 33.6667 383.333 34.3333C383.733 35.1333 384.667 35.6667 385.467 35.6667C386.133 35.6667 386.667 35.1333 386.667 34.3333ZM406.667 34.3333C406.667 33.5333 402.933 33 398 33C393.067 33 389.333 33.5333 389.333 34.3333C389.333 35.1333 393.067 35.6667 398 35.6667C402.933 35.6667 406.667 35.1333 406.667 34.3333ZM416 34.3333C418.933 33.4 418.8 33.2667 414.4 33.1333C411.6 33 409.333 33.6667 409.333 34.3333C409.333 35.8 411.2 35.8 416 34.3333Z" fill="black"/>
<path d="M694.267 36.0667C692.533 34.3333 693.333 33.2667 697.467 31.8C705.867 28.8667 712.667 31.2667 707.333 35.2667C704.8 37 695.733 37.6667 694.267 36.0667ZM701.733 34.7333C700.8 34.4667 698.933 34.4667 697.733 34.7333C696.4 35.1333 697.2 35.4 699.333 35.4C701.6 35.4 702.533 35.1333 701.733 34.7333Z" fill="black"/>
<path d="M726.933 35.8C725.6 35 725.733 34.3333 727.467 32.8667C729.067 31.5333 734.533 30.8667 747.2 30.6C766 30.2 770.933 31.4 766.133 35C764.133 36.6 759.467 37 746.133 37C736.533 37 727.867 36.4667 726.933 35.8ZM733.333 34.3333C733.333 33.6667 732.4 33 731.333 33C730.267 33 729.333 33.6667 729.333 34.3333C729.333 35.1333 730.267 35.6667 731.333 35.6667C732.4 35.6667 733.333 35.1333 733.333 34.3333ZM753.333 34.3333C753.333 33.5333 749.6 33 744.667 33C739.733 33 736 33.5333 736 34.3333C736 35.1333 739.733 35.6667 744.667 35.6667C749.6 35.6667 753.333 35.1333 753.333 34.3333ZM762.667 34.3333C765.6 33.4 765.467 33.2667 761.067 33.1333C758.267 33 756 33.6667 756 34.3333C756 35.8 757.867 35.8 762.667 34.3333Z" fill="black"/>
<path d="M1132.8 37.4C1132.4 37 1133.73 35.2667 1135.6 33.5333C1138.27 31 1140.53 30.3333 1144.53 30.3333C1147.6 30.4667 1153.07 30.0667 1156.8 29.6667C1167.87 28.0667 1173.47 32.7333 1164.93 36.3333C1160.8 38.0667 1134.27 38.8667 1132.8 37.4ZM1156.4 33.5333C1155.87 32.0667 1155.2 31.9333 1153.87 33.1333C1151.2 35.2667 1151.6 36.8667 1154.53 36.0667C1156.13 35.6667 1156.8 34.6 1156.4 33.5333ZM1143.33 34.3333C1143.73 33.6667 1142.93 33 1141.47 33C1140 33 1138.4 33.6667 1138 34.3333C1137.6 35.1333 1138.4 35.6667 1139.87 35.6667C1141.33 35.6667 1142.93 35.1333 1143.33 34.3333ZM1163.2 34.8667C1164.4 34.4667 1164.93 33.5333 1164.53 32.8667C1163.47 31 1161.73 31.4 1160.8 33.6667C1160 35.9333 1160.27 36.0667 1163.2 34.8667Z" fill="black"/>
</svg>
