<svg
   xmlns:svg="http://www.w3.org/2000/svg"
   xmlns="http://www.w3.org/2000/svg"
   version="1.0"
   viewBox="10 0 320 380"
   id="svg10900">
  <defs
     id="defs10902" />
  <g
     transform="translate(6.0322858,-134.90133)"
     id="layer1">
    <path
       d="M 9.2528571,325.53296 L 330.07508,325.53925 L 330.07508,372.76819 L 9.2528571,372.76819 L 9.2528571,325.53296 z"
       id="path2375"
       style="fill:#69c0bb;fill-opacity:1;fill-rule:nonzero;stroke:none" />
    <path
       d="M 9.2591467,372.7053 L 9.2591467,419.37446 L 169.3998,511.71274 L 330.06879,419.2298 L 330.06879,372.62982 L 9.2591467,372.7053 z"
       id="path2377"
       style="fill:#0070b8;fill-opacity:1;fill-rule:nonzero;stroke:none" />
    <path
       d="M 46.298867,249.944 L 46.298867,246.73628 C 46.298867,243.47195 43.625768,240.85546 40.361442,240.85546 C 37.097116,240.85546 34.474334,243.5034 34.474334,246.76773 L 34.474334,277.93292 L 34.474334,317.97909 L 9.5484704,317.97909 L 9.5484704,233.62866 L 108.15753,176.49352 L 108.15753,317.97909 L 82.992657,317.97909 L 82.992657,225.67226 C 82.992657,222.40793 80.319558,219.79773 77.055232,219.79773 C 73.790906,219.79773 71.180703,222.43938 71.180703,225.70371 L 71.174414,317.97909 L 46.298867,317.97909 L 46.298867,249.944"
       id="path2379"
       style="fill:#0070b8;fill-opacity:1;fill-rule:nonzero;stroke:none" />
    <path
       d="M 194.99237,155.73769 L 257.00198,191.90944 L 257.00198,235.45895 L 231.93775,235.45895 L 231.93775,204.85353 C 231.93775,201.58921 229.32125,198.97271 226.05693,198.97271 C 222.7926,198.97271 220.17611,200.9854 220.17611,204.24344 L 220.17611,295.27976 C 220.17611,298.54409 222.79889,301.16058 226.06322,301.16058 C 229.32754,301.16058 231.95032,298.51264 231.95032,295.2546 L 231.93775,268.42298 L 257.00198,268.42298 L 256.99569,317.97909 L 194.98608,317.97909 L 194.99237,155.73769"
       id="path2389"
       style="fill:#0070b8;fill-opacity:1;fill-rule:nonzero;stroke:none" />
    <path
       d="M 157.12871,296.14144 L 157.12871,236.84267 C 157.12871,233.57834 154.2795,230.96814 151.01517,230.96814 C 147.75084,230.96814 145.09032,233.6035 145.09032,236.86783 L 145.08403,295.93389 C 145.08403,299.19821 147.75084,302.04742 151.01517,302.04742 C 154.2795,302.04742 157.12871,299.40577 157.12871,296.14144 M 120.40976,227.52141 L 157.10355,206.04857 L 157.10355,182.83349 C 156.84567,179.82075 154.11597,177.55018 151.02146,177.55018 C 147.75713,177.55018 145.13435,180.19812 145.13435,183.46245 L 145.14064,195.54486 L 120.39718,209.58335 L 120.39718,169.99632 L 170.29922,141.26522 L 182.14891,148.10206 L 182.1552,317.97909 L 120.40347,317.97909 L 120.40976,227.52141"
       id="path2391"
       style="fill:#0070b8;fill-opacity:1;fill-rule:evenodd;stroke:none" />
    <path
       d="M 306.02977,297.05973 L 306.02977,247.49104 C 306.02977,244.22671 303.11766,241.61651 299.85333,241.61651 C 296.58901,241.61651 294.1046,244.22671 294.1046,247.49104 L 294.09831,297.05973 C 294.09831,300.32406 296.58272,302.93426 299.84704,302.93426 C 303.11137,302.93426 306.02977,300.32406 306.02977,297.05973 M 269.53095,198.96643 L 330.17571,233.91798 L 330.17571,317.97909 L 269.53724,317.97909 L 269.53095,198.96643"
       id="path2393"
       style="fill:#0070b8;fill-opacity:1;fill-rule:evenodd;stroke:none" />
  </g>
</svg>