<svg version="1.1" xmlns="http://www.w3.org/2000/svg" xmlns:xlink="http://www.w3.org/1999/xlink" width="32" height="32" viewBox="0 0 25 28">
<path d="M3.013 1.933l-0.287 0.133 0.040 1.147c0.020 0.633 0.067 2.427 0.107 3.987s0.1 3.96 0.133 5.333c0.033 1.373 0.087 3.613 0.113 4.967 0.033 1.36 0.073 2.507 0.107 2.553 0.027 0.047 0.1 0.080 0.167 0.080 0.060 0 0.147 0.033 0.187 0.073 0.080 0.080 0.927 0.047 1.553-0.067 0.467-0.080 1.2-0.2 1.633-0.267 0.187-0.033 0.727-0.12 1.2-0.193 0.48-0.080 1.080-0.173 1.333-0.213 0.26-0.040 0.573-0.1 0.7-0.133s0.387-0.067 0.567-0.080l0.333-0.013 0.020 4.413 0.013 4.413 1.887 0.013 1.88 0.020 0.020 0.213c0.020 0.18 0.053 0.22 0.18 0.22 0.12 0 0.16 0.040 0.18 0.18 0.013 0.127 0.053 0.18 0.12 0.16 0.053-0.013 0.253-0.053 0.433-0.080 0.187-0.027 0.527-0.080 0.767-0.127 0.24-0.040 0.567-0.1 0.733-0.133 0.167-0.027 0.767-0.133 1.333-0.24 0.913-0.167 1.247-0.193 2.833-0.227l1.8-0.033 0.020-7.32 0.013-7.313h-1.16c-0.707 0-1.18-0.027-1.207-0.067-0.020-0.040-0.127-0.067-0.233-0.067s-0.213-0.033-0.233-0.067c-0.020-0.040-0.107-0.067-0.18-0.067-0.080 0-0.233-0.027-0.347-0.060-0.3-0.093-1.913-0.5-3.187-0.813-0.887-0.213-1.267-0.307-1.433-0.36-0.147-0.047-0.147-0.040-0.167 0.707l-0.020 0.76h-1l0.007-0.467c0-0.26 0.040-0.98 0.080-1.6 0.040-0.627 0.12-1.887 0.18-2.8 0.060-0.92 0.133-2.12 0.167-2.667 0.033-0.553 0.087-1.273 0.107-1.607l0.047-0.613-0.347-0.073c-0.193-0.040-0.46-0.073-0.6-0.073-0.153 0-0.293-0.040-0.34-0.107-0.147-0.173-0.34-0.24-0.827-0.3-0.473-0.053-1.593-0.207-2.473-0.333-0.253-0.033-0.667-0.093-0.913-0.127-0.253-0.040-0.673-0.1-0.933-0.14-0.573-0.087-1.1-0.16-1.787-0.253-0.273-0.033-0.693-0.093-0.933-0.133-1.9-0.287-2.047-0.293-2.387-0.14zM5 2.913c0 0.14-0.033 0.72-0.073 1.287-0.033 0.567-0.093 1.513-0.133 2.1s-0.093 1.5-0.127 2.033c-0.033 0.533-0.093 1.46-0.133 2.067-0.167 2.533-0.2 3.14-0.233 3.967-0.020 0.473-0.053 0.94-0.073 1.033-0.033 0.16-0.040 0.16-0.113 0.033-0.047-0.087-0.093-0.927-0.127-2.4-0.027-1.247-0.080-3.24-0.12-4.433s-0.087-3.013-0.107-4.053l-0.040-1.88h1.28v0.247zM7.853 4.060c0.3 0.040 0.78 0.1 1.067 0.133 0.28 0.033 0.62 0.080 0.747 0.1s0.667 0.087 1.2 0.147c0.533 0.060 0.987 0.12 1.020 0.14 0.027 0.013 0.047 0.647 0.047 1.407 0.007 0.76 0.033 1.68 0.067 2.053 0.033 0.367 0.067 1.72 0.073 3l0.013 2.327-1.153 0.040-0.013 1.847-0.020 1.847-0.3 0.047c-0.387 0.053-1.047 0.16-1.6 0.253-0.24 0.040-0.613 0.1-0.833 0.14-0.22 0.033-0.547 0.093-0.733 0.127-0.18 0.027-0.553 0.087-0.82 0.127s-0.52 0.087-0.553 0.113c-0.033 0.020-0.1 0.007-0.147-0.027-0.1-0.087-0.040-1.52 0.207-5.18l0.047-0.667 0.267-0.033c0.44-0.060 0.433-0.040 0.433-1.167v-1.027l-0.147 0.053c-0.147 0.053-0.153 0.093-0.173 0.96-0.020 0.94-0.073 1.113-0.32 1.020-0.087-0.033-0.1-0.093-0.067-0.293 0.027-0.133 0.073-0.82 0.107-1.513 0.040-0.7 0.093-1.793 0.133-2.433 0.033-0.64 0.093-1.7 0.127-2.353 0.040-0.653 0.087-1.22 0.113-1.253 0.040-0.073 0.193-0.067 1.213 0.067zM12.127 14.293c0.053 0.060 0.073 0.48 0.060 1.347l-0.020 1.26h-0.533l0.013-1.3c0.007-0.713 0.020-1.32 0.020-1.353 0-0.087 0.38-0.053 0.46 0.047zM14.653 20.72l0.013 6.48-1.513-0.013-1.52-0.020-0.020-3.947c-0.013-2.567 0.007-3.993 0.047-4.080 0.047-0.087 0.173-0.133 0.42-0.167 1.053-0.12 1.493-0.213 1.507-0.327 0.027-0.267 0.16-2.5 0.2-3.313 0.027-0.533 0.073-1.007 0.1-1.053 0.040-0.060 0.173-0.080 0.4-0.067l0.347 0.020 0.020 6.487zM19.467 14.3c0.313 0.060 0.733 0.14 0.933 0.173 0.2 0.040 0.5 0.1 0.667 0.133 0.167 0.027 0.4 0.073 0.52 0.1l0.213 0.040v2.413c0 1.32 0.020 3.907 0.040 5.74 0.053 3.813 0.1 3.52-0.573 3.593-0.2 0.020-0.547 0.067-0.767 0.1s-0.7 0.113-1.067 0.173c-1.3 0.207-1.673 0.24-2.433 0.22l-0.767-0.020-0.020-2.227c-0.013-1.74 0.007-2.24 0.067-2.287 0.047-0.027 0.467-0.053 0.94-0.053 0.5 0 0.847-0.027 0.847-0.067 0-0.14-0.267-0.193-0.773-0.16-0.32 0.027-0.64 0.013-0.807-0.033l-0.287-0.080v-3.887c0-2.133 0.020-3.907 0.047-3.927 0.093-0.093 2.64-0.047 3.22 0.053z"></path>
</svg>
