<?xml version="1.0" encoding="utf-8"?>
<!-- Generator: Adobe Illustrator 26.2.1, SVG Export Plug-In . SVG Version: 6.00 Build 0)  -->
<svg version="1.1" id="Group_9" xmlns="http://www.w3.org/2000/svg" xmlns:xlink="http://www.w3.org/1999/xlink" x="0px" y="0px"
	 viewBox="0 0 169.1 98.5" style="enable-background:new 0 0 169.1 98.5;" xml:space="preserve">
<style type="text/css">
	.st0{fill:#00A1ED;}
	.st1{fill:#1D1D1B;}
</style>
<path id="Path_19" class="st0" d="M63.7,19.6c-1.7-1.4-4-1.9-6.2-1.4l-5.8,1.4c-1.9,0.5-3.6,1.7-4.6,3.4l-8.6,14.8l-7.1,12.3
	c-1.2,2-1.3,4.5-0.4,6.6c0.9,2.1,2.7,3.7,5,4.3l2.6,0.6l9.9,2.4l9.1,2.2c2.2,0.5,4.5,0,6.2-1.4c1.8-1.4,2.8-3.5,2.8-5.8V25.3
	C66.5,23.1,65.5,21,63.7,19.6z M61,59.2c0,0.9-0.8,1.7-1.7,1.7c-0.1,0-0.3,0-0.4,0l-10.4-2.6l-9.9-2.4l-1.3-0.4
	c-0.5-0.1-0.9-0.5-1.2-1c-0.2-0.5-0.2-1,0.1-1.5l2.4-4.1L48.5,32l3.5-6.1c0.2-0.4,0.6-0.7,1-0.8l5.8-1.4c0.9-0.2,1.8,0.3,2,1.2
	c0,0.1,0.1,0.3,0.1,0.4L61,59.2z"/>
<path id="Path_20" class="st0" d="M41.3,22.2l-2.6,0.7L33.8,24l-7.6,13.1l-8,13.8l-1.6-0.4V28.2l-5.5,1.4v25.3l9.8,2.4l5.3-9.2
	l12.5-21.5L41.3,22.2z"/>
<path id="Path_21" class="st0" d="M133,23.5v37.6l12.5-3.1l12.5-3.1v-5.8l-12.5,3.1l-6.9,1.7v-8.8h13.9v-5.6h-13.9v-8.8l6.9,1.7
	l12.5,3.1v-5.8l-12.5-3L133,23.5z"/>
<path id="Path_22" class="st0" d="M92.3,14.6c-2.2-1.8-5-2.7-7.8-2.7c-0.9,0-1.8,0.1-2.6,0.3l-9.8,2.4v55.3l5.5,1.4V45.1H83l1.5,4.7
	l7.1,21.5l5.4-1.5l-8.5-25.4C93.6,42.8,97,38,97,32.7v-8.3C97,20.5,95.3,16.9,92.3,14.6z M91.4,32.7c0,1.8-0.7,3.5-1.9,4.8
	c-1.2,1.3-3,2-4.7,2h-7.2V19.1l5.6-1.4c0.4-0.1,0.9-0.2,1.3-0.2c1.6-0.1,3.1,0.5,4.4,1.5c1.6,1.3,2.5,3.2,2.5,5.3V32.7z"/>
<path id="Path_23" class="st0" d="M145.5,15L115,7.5L84.5,0l-36,8.9l-9.9,2.4l-12.5,3L0,20.8v43.1l26.2,6.4l12.5,3l9.9,2.4l36,8.9
	l30.5-7.5l30.5-7.5l23.6-5.8V20.8L145.5,15z M163.5,59.4l-18,4.4L115,71.3l-30.5,7.5l-36-8.8l-9.9-2.4l-12.5-3.1L5.6,59.4V25.2
	l20.6-5.1l12.5-3l9.9-2.4l36-8.9l30.5,7.5l30.5,7.5l18,4.4L163.5,59.4z"/>
<path id="Path_24" class="st0" d="M121.9,50.5L115,33.1l-6.2-15.5l-6.3-1.6v52.5l5.5-1.4V30.7l6.9,17.4l6.3,15.8l6.2-1.5V22.1
	l-5.6-1.4L121.9,50.5z"/>
<g id="Group_8" transform="translate(157.026 2.753)">
	<path id="Path_47" class="st0" d="M11.6,3.5c-0.3-0.7-0.7-1.3-1.3-1.9C9.7,1.1,9.1,0.7,8.3,0.4c-1.5-0.6-3.1-0.6-4.6,0
		C3,0.7,2.4,1.1,1.8,1.7c-0.6,0.5-1,1.2-1.3,1.9C0.2,4.3,0,5.1,0,5.9C0,7,0.3,8,0.8,8.9c0.5,0.9,1.3,1.6,2.2,2.1
		C4,11.6,5,11.8,6,11.8c0.8,0,1.6-0.2,2.3-0.5c1.4-0.6,2.6-1.7,3.2-3.1C11.9,7.5,12,6.7,12,5.9C12,5.1,11.9,4.3,11.6,3.5z M10.5,7.9
		c-0.2,0.6-0.6,1.1-1,1.6c-0.4,0.5-1,0.8-1.5,1.1c-1.2,0.5-2.6,0.5-3.8,0c-0.6-0.3-1.1-0.6-1.5-1.1c-0.4-0.5-0.8-1-1-1.6
		C1.3,7.2,1.2,6.6,1.2,5.9c0-0.7,0.1-1.3,0.4-1.9c0.2-0.6,0.6-1.1,1-1.6C3.5,1.5,4.8,1,6,1c2,0,3.7,1.1,4.4,3
		c0.3,0.6,0.4,1.3,0.4,1.9C10.9,6.6,10.7,7.2,10.5,7.9L10.5,7.9z"/>
	<path id="Path_48" class="st0" d="M7.9,6c0.3-0.1,0.5-0.4,0.6-0.6c0.2-0.3,0.2-0.7,0.2-1c0-0.5-0.2-1.1-0.6-1.4
		C7.7,2.6,7,2.4,6.4,2.5H3.8v6.8h1V6.4H6L6,6.5l1.8,2.9H9L7,6.3C7.4,6.3,7.7,6.2,7.9,6z M4.8,5.5V3.4h1.4c0.3,0,0.5,0,0.8,0.1
		c0.5,0.1,0.8,0.5,0.8,0.9c0,0.5-0.1,0.8-0.4,0.9C6.9,5.4,6.5,5.5,6,5.5L4.8,5.5z"/>
</g>
<path class="st1" d="M2.3,98.3H1.5L0,92.6h0.8l1.1,4.7l1.3-4.7h0.9l1.3,4.7l1.1-4.7h0.9l-1.5,5.8H5l-1.3-4.8L2.3,98.3z M11.9,92.6
	v5.8h-0.8v-5.8H11.9z M20.1,97.2v-4.7h0.7v5.8h-0.9l-3-4.7v4.7h-0.8v-5.8h0.9L20.1,97.2z M25,92.6h2.4c0.4,0,0.8,0.1,1.1,0.3
	c0.4,0.2,0.6,0.5,0.9,0.9c0.2,0.4,0.4,0.9,0.4,1.5c0,0.4,0,0.8-0.1,1.1c-0.1,0.4-0.2,0.7-0.4,1c-0.2,0.3-0.4,0.5-0.7,0.7
	c-0.3,0.2-0.6,0.3-1,0.3H25V92.6z M25.8,97.7h1.6c0.3,0,0.6-0.1,0.9-0.3c0.2-0.2,0.4-0.5,0.5-0.9c0.1-0.4,0.2-0.7,0.2-1.2
	c0-0.3,0-0.5-0.1-0.8c-0.1-0.2-0.2-0.5-0.3-0.7c-0.1-0.2-0.3-0.3-0.5-0.5c-0.2-0.1-0.5-0.2-0.8-0.2h-1.5V97.7z M38.3,95.5
	c0-0.5-0.1-0.9-0.2-1.2c-0.2-0.4-0.4-0.6-0.7-0.8c-0.3-0.2-0.7-0.3-1.1-0.3c-0.3,0-0.6,0-0.8,0.2c-0.3,0.1-0.5,0.3-0.6,0.5
	c-0.2,0.2-0.3,0.5-0.4,0.7c-0.1,0.3-0.1,0.6-0.1,0.9c0,0.5,0.1,0.9,0.2,1.2c0.2,0.4,0.4,0.6,0.7,0.8c0.3,0.2,0.7,0.3,1.1,0.3
	c0.4,0,0.8-0.1,1.1-0.3c0.3-0.2,0.5-0.5,0.7-0.8C38.2,96.3,38.3,95.9,38.3,95.5z M39.1,95.5c0,0.3,0,0.7-0.1,1
	c-0.1,0.4-0.3,0.7-0.5,1c-0.2,0.3-0.5,0.6-0.9,0.8c-0.4,0.2-0.8,0.3-1.3,0.3c-0.5,0-1-0.1-1.3-0.3c-0.4-0.2-0.7-0.5-0.9-0.8
	c-0.2-0.3-0.4-0.6-0.5-1c-0.1-0.4-0.1-0.7-0.1-1s0-0.7,0.1-1c0.1-0.3,0.3-0.7,0.5-1c0.2-0.3,0.5-0.6,0.9-0.8
	c0.4-0.2,0.8-0.3,1.3-0.3c0.5,0,1,0.1,1.3,0.3c0.4,0.2,0.7,0.4,0.9,0.7c0.2,0.3,0.4,0.6,0.5,1C39,94.8,39.1,95.1,39.1,95.5z
	 M44.8,98.3H44l-1.5-5.8h0.9l1.1,4.7l1.3-4.7h0.8l1.3,4.7l1.1-4.7h0.9l-1.5,5.8h-0.8l-1.3-4.8L44.8,98.3z M61.6,97.2l-1.3-1.6
	c-0.3,0.2-0.4,0.3-0.6,0.4c-0.1,0.1-0.2,0.2-0.3,0.4c-0.1,0.2-0.1,0.3-0.1,0.5c0,0.2,0.1,0.4,0.2,0.6c0.1,0.1,0.3,0.3,0.4,0.3
	c0.2,0.1,0.3,0.1,0.4,0.1c0.3,0,0.5-0.1,0.7-0.2C61.3,97.6,61.5,97.4,61.6,97.2z M60.6,94.8c0.2-0.1,0.4-0.3,0.5-0.4
	c0.1-0.2,0.2-0.3,0.2-0.6c0-0.2-0.1-0.4-0.2-0.5c-0.1-0.1-0.3-0.2-0.4-0.2c-0.3,0-0.4,0.1-0.5,0.2c-0.1,0.2-0.1,0.3-0.1,0.4
	c0,0.2,0.1,0.3,0.2,0.5C60.3,94.5,60.4,94.7,60.6,94.8z M62.5,97.1l1,1.2h-0.9L62,97.7c-0.2,0.3-0.5,0.5-0.7,0.6
	c-0.2,0.1-0.6,0.2-1,0.2c-0.7,0-1.2-0.2-1.4-0.6c-0.2-0.3-0.3-0.6-0.3-0.9c0-0.3,0.1-0.6,0.2-0.8c0.2-0.3,0.6-0.6,1.1-1
	c-0.2-0.2-0.3-0.4-0.4-0.5c-0.1-0.1-0.1-0.2-0.2-0.4c0-0.1-0.1-0.3-0.1-0.4c0-0.2,0-0.3,0.1-0.5c0.1-0.1,0.2-0.3,0.3-0.4
	c0.1-0.1,0.3-0.2,0.4-0.3c0.2-0.1,0.4-0.1,0.6-0.1c0.4,0,0.8,0.1,1,0.3c0.2,0.3,0.3,0.5,0.3,0.9c0,0.3-0.1,0.5-0.2,0.7
	c-0.1,0.2-0.2,0.4-0.4,0.5c-0.1,0.1-0.3,0.3-0.5,0.4l1.1,1.3c0.1-0.1,0.1-0.3,0.1-0.4c0-0.1,0.1-0.3,0.1-0.5h0.7
	C62.9,96.1,62.7,96.6,62.5,97.1z M72.6,92.6h2.4c0.4,0,0.7,0.1,1.1,0.3c0.4,0.2,0.6,0.5,0.9,0.9c0.2,0.4,0.4,0.9,0.4,1.5
	c0,0.4,0,0.8-0.1,1.1c-0.1,0.4-0.2,0.7-0.4,1c-0.2,0.3-0.4,0.5-0.7,0.7c-0.3,0.2-0.6,0.3-1,0.3h-2.5V92.6z M73.4,97.7h1.6
	c0.3,0,0.6-0.1,0.9-0.3c0.2-0.2,0.4-0.5,0.5-0.9c0.1-0.4,0.2-0.7,0.2-1.2c0-0.3,0-0.5-0.1-0.8c-0.1-0.2-0.2-0.5-0.3-0.7
	c-0.1-0.2-0.3-0.3-0.5-0.5c-0.2-0.1-0.5-0.2-0.8-0.2h-1.5V97.7z M85.9,95.5c0-0.5-0.1-0.9-0.2-1.2c-0.2-0.4-0.4-0.6-0.7-0.8
	c-0.3-0.2-0.7-0.3-1.1-0.3c-0.3,0-0.6,0-0.9,0.2c-0.2,0.1-0.5,0.3-0.6,0.5c-0.2,0.2-0.3,0.5-0.4,0.7c-0.1,0.3-0.1,0.6-0.1,0.9
	c0,0.5,0.1,0.9,0.2,1.2c0.2,0.4,0.4,0.6,0.7,0.8c0.3,0.2,0.7,0.3,1.1,0.3c0.4,0,0.8-0.1,1.1-0.3c0.3-0.2,0.5-0.5,0.7-0.8
	C85.9,96.3,85.9,95.9,85.9,95.5z M86.7,95.5c0,0.3,0,0.7-0.1,1c-0.1,0.4-0.3,0.7-0.5,1c-0.2,0.3-0.5,0.6-0.9,0.8
	c-0.4,0.2-0.8,0.3-1.3,0.3c-0.5,0-1-0.1-1.3-0.3c-0.4-0.2-0.7-0.5-0.9-0.8c-0.2-0.3-0.4-0.6-0.5-1c-0.1-0.4-0.1-0.7-0.1-1
	s0-0.7,0.1-1c0.1-0.3,0.3-0.7,0.5-1c0.2-0.3,0.5-0.6,0.9-0.8c0.4-0.2,0.8-0.3,1.3-0.3c0.5,0,1,0.1,1.3,0.3c0.4,0.2,0.7,0.4,0.9,0.7
	c0.2,0.3,0.4,0.6,0.5,1C86.7,94.8,86.7,95.1,86.7,95.5z M95.1,95.5c0-0.5-0.1-0.9-0.2-1.2c-0.2-0.4-0.4-0.6-0.7-0.8
	c-0.3-0.2-0.7-0.3-1.1-0.3c-0.3,0-0.6,0-0.8,0.2c-0.3,0.1-0.5,0.3-0.7,0.5c-0.2,0.2-0.3,0.5-0.4,0.7c-0.1,0.3-0.1,0.6-0.1,0.9
	c0,0.5,0.1,0.9,0.2,1.2c0.2,0.4,0.4,0.6,0.7,0.8c0.3,0.2,0.7,0.3,1.1,0.3c0.4,0,0.8-0.1,1.1-0.3c0.3-0.2,0.5-0.5,0.7-0.8
	C95.1,96.3,95.1,95.9,95.1,95.5z M95.9,95.5c0,0.3,0,0.7-0.1,1c-0.1,0.4-0.3,0.7-0.5,1c-0.2,0.3-0.5,0.6-0.9,0.8
	c-0.4,0.2-0.8,0.3-1.3,0.3c-0.5,0-0.9-0.1-1.3-0.3c-0.4-0.2-0.7-0.5-0.9-0.8c-0.2-0.3-0.4-0.6-0.5-1c-0.1-0.4-0.1-0.7-0.1-1
	s0-0.7,0.1-1c0.1-0.3,0.3-0.7,0.5-1c0.2-0.3,0.5-0.6,0.9-0.8c0.4-0.2,0.8-0.3,1.3-0.3c0.5,0,1,0.1,1.3,0.3c0.4,0.2,0.7,0.4,0.9,0.7
	c0.2,0.3,0.4,0.6,0.5,1C95.9,94.8,95.9,95.1,95.9,95.5z M99.9,98.3v-5.8h2.8c0.3,0,0.5,0,0.7,0.1c0.2,0.1,0.4,0.2,0.6,0.3
	c0.2,0.1,0.3,0.3,0.4,0.5c0.1,0.2,0.2,0.4,0.2,0.7c0,0.3-0.1,0.5-0.2,0.8c-0.1,0.3-0.3,0.4-0.6,0.6c0.2,0.1,0.4,0.2,0.5,0.3
	c0.1,0.2,0.2,0.4,0.2,0.6c0,0.2,0,0.5,0,0.8c0,0.2,0,0.4,0,0.5c0,0.1,0,0.2,0.1,0.3c0.1,0.1,0.1,0.2,0.2,0.2v0.1h-1
	c-0.1-0.2-0.1-0.5-0.1-0.9c0-0.4,0-0.7,0-0.9c0-0.2-0.1-0.3-0.2-0.5c-0.2-0.1-0.4-0.2-0.7-0.2h-2v2.5H99.9z M100.7,95.2h2
	c0.3,0,0.6-0.1,0.8-0.3c0.2-0.2,0.3-0.4,0.3-0.7c0-0.3-0.1-0.5-0.2-0.7c-0.1-0.2-0.4-0.3-0.7-0.3h-2.1V95.2z M118.2,94.2h-0.7
	c0-0.2,0-0.4-0.1-0.5c-0.1-0.2-0.2-0.3-0.3-0.4c-0.1-0.1-0.3-0.1-0.5-0.2c-0.2-0.1-0.3-0.1-0.5-0.1c-0.4,0-0.7,0.1-0.9,0.2
	c-0.3,0.2-0.4,0.4-0.4,0.8c0,0.2,0.1,0.4,0.2,0.5c0.1,0.1,0.3,0.2,0.5,0.2c0.3,0.1,0.6,0.1,0.9,0.2c0.3,0.1,0.6,0.1,0.8,0.2
	c0.9,0.2,1.3,0.7,1.3,1.6c0,0.3-0.1,0.6-0.2,0.8c-0.1,0.2-0.3,0.4-0.5,0.5c-0.2,0.1-0.5,0.2-0.7,0.3c-0.3,0-0.5,0.1-0.8,0.1
	c-0.7,0-1.3-0.2-1.7-0.5c-0.4-0.3-0.6-0.8-0.6-1.5h0.7c0,0.3,0.1,0.6,0.2,0.8c0.2,0.2,0.4,0.3,0.6,0.4c0.3,0.1,0.5,0.1,0.8,0.1
	c0.4,0,0.8-0.1,1.1-0.2c0.3-0.1,0.5-0.4,0.5-0.7c0-0.2,0-0.4-0.1-0.5c-0.1-0.1-0.2-0.2-0.4-0.3c-0.2-0.1-0.4-0.2-0.8-0.3
	c-0.3,0-0.6-0.1-0.9-0.2c-0.3-0.1-0.5-0.2-0.8-0.3c-0.2-0.1-0.4-0.3-0.6-0.5c-0.1-0.2-0.2-0.4-0.2-0.8c0-0.3,0.1-0.6,0.2-0.9
	c0.1-0.3,0.4-0.5,0.7-0.7c0.3-0.2,0.7-0.2,1.1-0.2C117.4,92.4,118.2,93,118.2,94.2z M124,98.3V96l-2.2-3.5h0.9l1.7,2.8l1.7-2.8h0.9
	l-2.2,3.5v2.3H124z M134.9,94.2h-0.7c0-0.2-0.1-0.4-0.2-0.5c-0.1-0.2-0.2-0.3-0.3-0.4c-0.1-0.1-0.3-0.1-0.5-0.2
	c-0.2-0.1-0.3-0.1-0.5-0.1c-0.4,0-0.7,0.1-0.9,0.2c-0.3,0.2-0.4,0.4-0.4,0.8c0,0.2,0,0.4,0.2,0.5c0.1,0.1,0.3,0.2,0.5,0.2
	c0.3,0.1,0.6,0.1,0.9,0.2c0.3,0.1,0.6,0.1,0.8,0.2c0.9,0.2,1.3,0.7,1.3,1.6c0,0.3-0.1,0.6-0.2,0.8c-0.1,0.2-0.3,0.4-0.5,0.5
	c-0.2,0.1-0.5,0.2-0.7,0.3c-0.3,0-0.5,0.1-0.8,0.1c-0.8,0-1.3-0.2-1.7-0.5c-0.4-0.3-0.6-0.8-0.6-1.5h0.7c0,0.3,0.1,0.6,0.2,0.8
	c0.2,0.2,0.4,0.3,0.6,0.4c0.3,0.1,0.5,0.1,0.8,0.1c0.4,0,0.7-0.1,1-0.2c0.3-0.1,0.5-0.4,0.5-0.7c0-0.2,0-0.4-0.1-0.5
	c-0.1-0.1-0.2-0.2-0.4-0.3c-0.2-0.1-0.4-0.2-0.8-0.3c-0.3,0-0.6-0.1-0.9-0.2c-0.3-0.1-0.5-0.2-0.8-0.3c-0.2-0.1-0.4-0.3-0.6-0.5
	c-0.1-0.2-0.2-0.4-0.2-0.8c0-0.3,0.1-0.6,0.2-0.9c0.1-0.3,0.4-0.5,0.7-0.7c0.3-0.2,0.7-0.2,1.1-0.2C134,92.4,134.8,93,134.9,94.2z
	 M138.4,93.3v-0.7h4.7v0.7h-2v5.1h-0.8v-5.1H138.4z M151.1,97.7v0.7h-4.3v-5.8h4.2v0.7h-3.5V95h3.2v0.7h-3.2v1.9H151.1z M160.7,98.3
	h-0.8v-4.9l-1.6,4.9h-0.8l-1.7-4.9v4.9h-0.8v-5.8h1.1l1.7,4.9l1.7-4.9h1.1V98.3z M169,94.2h-0.7c0-0.2-0.1-0.4-0.2-0.5
	c-0.1-0.2-0.2-0.3-0.3-0.4c-0.1-0.1-0.3-0.1-0.4-0.2c-0.2-0.1-0.4-0.1-0.5-0.1c-0.3,0-0.7,0.1-0.9,0.2c-0.3,0.2-0.4,0.4-0.4,0.8
	c0,0.2,0.1,0.4,0.2,0.5c0.1,0.1,0.3,0.2,0.5,0.2c0.3,0.1,0.6,0.1,0.9,0.2c0.3,0.1,0.6,0.1,0.8,0.2c0.9,0.2,1.3,0.7,1.3,1.6
	c0,0.3-0.1,0.6-0.2,0.8c-0.1,0.2-0.3,0.4-0.5,0.5c-0.2,0.1-0.5,0.2-0.7,0.3c-0.3,0-0.5,0.1-0.8,0.1c-0.7,0-1.3-0.2-1.7-0.5
	c-0.4-0.3-0.6-0.8-0.6-1.5h0.7c0,0.3,0.1,0.6,0.2,0.8c0.2,0.2,0.4,0.3,0.6,0.4c0.2,0.1,0.5,0.1,0.8,0.1c0.4,0,0.7-0.1,1-0.2
	c0.3-0.1,0.5-0.4,0.5-0.7c0-0.2-0.1-0.4-0.1-0.5c-0.1-0.1-0.2-0.2-0.4-0.3c-0.2-0.1-0.4-0.2-0.8-0.3c-0.3,0-0.6-0.1-0.9-0.2
	c-0.3-0.1-0.5-0.2-0.8-0.3c-0.2-0.1-0.4-0.3-0.6-0.5c-0.2-0.2-0.2-0.4-0.2-0.8c0-0.3,0.1-0.6,0.2-0.9c0.2-0.3,0.4-0.5,0.7-0.7
	c0.3-0.2,0.7-0.2,1.1-0.2C168.2,92.4,168.9,93,169,94.2"/>
</svg>
